G04 ================== begin FILE IDENTIFICATION RECORD ==================*
G04 Layout Name:  MK60_MODULE_V10A.brd*
G04 Film Name:    BOTTOM*
G04 File Format:  Gerber RS274X*
G04 File Origin:  Cadence Allegro 16.6-2015-S082*
G04 Origin Date:  Thu May 18 20:28:32 2017*
G04 *
G04 Layer:  BOARD GEOMETRY/OUTLINE*
G04 Layer:  ETCH/BOTTOM*
G04 Layer:  PIN/BOTTOM*
G04 Layer:  VIA CLASS/BOTTOM*
G04 *
G04 Offset:    (0.0000 0.0000)*
G04 Mirror:    No*
G04 Mode:      Positive*
G04 Rotation:  0*
G04 FullContactRelief:  No*
G04 UndefLineWidth:     0.1524*
G04 ================== end FILE IDENTIFICATION RECORD ====================*
%FSLAX55Y55*MOMM*%
%IR0*IPPOS*OFA0.00000B0.00000*MIA0B0*SFA1.00000B1.00000*%
%ADD12C,.6096*%
%ADD11C,2.2*%
%ADD10C,6.35*%
%ADD14C,1.778*%
%ADD13R,1.778X1.778*%
%ADD15C,.4*%
%ADD16C,.7112*%
%ADD17C,.1524*%
%ADD18C,.508*%
%ADD19C,3.3024*%
%ADD20C,3.2164*%
%ADD21C,3.1148*%
G75*
%LPD*%
G75*
G36*
G01X5643290Y46200D02*
G02X5630610Y10000I-12681J-15879D01*
G01X569390D01*
G02X556710Y46200I1J20321D01*
G03X46200Y556710I-226710J283800D01*
G02X10000Y569390I-15879J12681D01*
G01Y4330610D01*
G02X45930Y4343620I20321J-2D01*
G03X556380Y4854070I284070J226380D01*
G02X569390Y4890000I13012J15609D01*
G01X5630610D01*
G02X5643290Y4853800I-1J-20321D01*
G03X6153800Y4343290I226710J-283800D01*
G02X6190000Y4330610I15879J-12681D01*
G01Y569390D01*
G02X6153800Y556710I-20321J1D01*
G03X5643290Y46200I-283800J-226710D01*
G37*
%LPC*%
G75*
G36*
G01X4332930Y90000D02*
X3894670D01*
G02X3705330I-94670J130000D01*
G01X850000D01*
G02X720000Y200000I9894J143511D01*
G01Y330000D01*
G03X340000Y720000I-370054J19563D01*
G01X210000D01*
G02X129990Y809800I6398J86244D01*
G01X130000Y810010D01*
Y4080000D01*
G02X239560Y4180040I100652J-217D01*
G01X240010Y4180000D01*
X330000D01*
G03X720000Y4550000I29534J359410D01*
G01Y4629990D01*
X719980Y4630330D01*
Y4630350D01*
X719960Y4630670D01*
G02X840000Y4770000I131250J8297D01*
G01X5299990D01*
X5300480Y4770050D01*
G02X5450050Y4620480I13093J-136477D01*
G01X5450000Y4619990D01*
Y4560000D01*
G03X5850000Y4180000I392740J12885D01*
G01X5889960D01*
X5890660Y4180100D01*
G02X6030100Y4040660I17198J-122242D01*
G01X6030000Y4039960D01*
Y889550D01*
G02X5890450Y750000I-136670J-2880D01*
G01X5870000D01*
G03X5430000Y350000I-90149J-342836D01*
G01Y161340D01*
X5430320Y158820D01*
X5430460Y158240D01*
G02X5370540Y89940I-53795J-13239D01*
G01X5369980Y90000D01*
X4547070D01*
G02X4332930I-107070J120000D01*
G37*
%LPD*%
G75*
G36*
G01X850000Y170000D02*
G02X790000Y220000I-8571J50714D01*
G01Y410000D01*
G03X360130Y780000I-419262J-52389D01*
G01X357290D01*
X355730Y780520D01*
G03X304270I-25730J-77120D01*
G01X302710Y780000D01*
X270000D01*
G02X200000Y850000I-5000J65000D01*
G01Y4050000D01*
G02X260000Y4100000I51154J-385D01*
G01X330000D01*
X330350Y4099970D01*
G03X810000Y4500000I31658J449614D01*
G01Y4620000D01*
G02X880000Y4700000I75000J5000D01*
G01X1560280D01*
Y4490280D01*
X1839720D01*
Y4500450D01*
G02X1871970Y4516900I20321J-1D01*
G03X2064880Y4544980I82036J113101D01*
G02X2097120I16120J-12364D01*
G03X2318880I110880J85020D01*
G02X2351120I16120J-12364D01*
G03X2572880I110880J85020D01*
G02X2605120I16120J-12364D01*
G03X2826880I110880J85020D01*
G02X2859120I16120J-12364D01*
G03X3080880I110880J85020D01*
G02X3113120I16120J-12364D01*
G03X3334880I110880J85020D01*
G02X3367120I16120J-12364D01*
G03X3588880I110880J85020D01*
G02X3621120I16120J-12364D01*
G03X3842880I110880J85020D01*
G02X3875120I16120J-12364D01*
G03X4099630Y4548690I110881J85017D01*
G02X4132390Y4549080I16523J-11824D01*
G03X4347610I107610J80920D01*
G02X4380370Y4548690I16237J-12214D01*
G03X4491140Y4490310I113624J81312D01*
G01X4491350Y4490300D01*
X4531630Y4487760D01*
X4678860Y4340530D01*
Y1539470D01*
X4570530Y1431140D01*
X3444940D01*
Y2166060D01*
X3445090Y2166930D01*
G03Y2193070I-75090J13070D01*
G01X3444940Y2193940D01*
Y2205670D01*
X3439690Y2210920D01*
X3438940Y2212520D01*
G03X3301620Y2146340I-68936J-32518D01*
G01X3302660Y2144220D01*
Y1431140D01*
X1917420D01*
X1915750Y1431740D01*
G03X1864250I-25750J-71740D01*
G01X1862580Y1431140D01*
X899470D01*
X804940Y1525670D01*
Y2346380D01*
X805540Y2348050D01*
G03X662060I-71740J25750D01*
G01X662660Y2346380D01*
Y1466730D01*
X840530Y1288860D01*
X896770D01*
G02X915080Y1259730I1J-20319D01*
G03X1204920I144920J-69730D01*
G02X1223230Y1288860I18309J8811D01*
G01X1862580D01*
X1864250Y1288260D01*
G03X1915750I25750J71740D01*
G01X1917420Y1288860D01*
X2296770D01*
G02X2315080Y1259730I1J-20319D01*
G03X2604920I144920J-69730D01*
G02X2623230Y1288860I18309J8811D01*
G01X2941970D01*
G02X2959700Y1258610I3J-20319D01*
G03X3240300I140300J-78610D01*
G02X3258030Y1288860I17727J9931D01*
G01X3302660D01*
Y1263620D01*
X3302060Y1261950D01*
G03Y1210450I71740J-25750D01*
G01X3302660Y1208780D01*
Y311710D01*
G03X3316680Y206290I61140J-45511D01*
G02X3304120Y170000I-12563J-15970D01*
G01X850000D01*
G37*
G36*
G01X5360000Y230000D02*
G02X5300000Y170000I-50000J-10000D01*
G01X4620070D01*
G02X4599870Y192530I-2J20319D01*
G03X4280130I-159870J17470D01*
G02X4259930Y170000I-20198J-2211D01*
G01X3978690D01*
G02X3958650Y193650I4J20319D01*
G03X3641350I-158650J26350D01*
G02X3621310Y170000I-20044J-3331D01*
G01X3423480D01*
G02X3410920Y206290I3J20320D01*
G03X3432740Y233680I-47112J59918D01*
G01X3433490Y235280D01*
X3444940Y246730D01*
Y1208780D01*
X3445540Y1210450D01*
G03Y1261950I-71740J25750D01*
G01X3444940Y1263620D01*
Y1288860D01*
X3641970D01*
G02X3659700Y1258610I3J-20319D01*
G03X3940300I140300J-78610D01*
G02X3958030Y1288860I17727J9931D01*
G01X4288010D01*
G02X4305060Y1257490I-2J-20319D01*
G03X4577690Y1253090I134938J-87490D01*
G02X4596120Y1283880I17400J10495D01*
G03X4668940Y1327480I3885J76122D01*
G01X4669690Y1329080D01*
X4821140Y1480530D01*
Y4399470D01*
X4633720Y4586890D01*
Y4630000D01*
G03X4626820Y4673370I-139721J5D01*
G02X4646130Y4700000I19314J6311D01*
G01X5030470D01*
G02X5046860Y4667660I5J-20321D01*
G03X5308060Y4674240I133143J-97660D01*
G02X5320780Y4689580I7883J6407D01*
G02X5370000Y4590000I-45780J-84582D01*
G01Y4550000D01*
G03X5790000Y4090000I528462J60769D01*
G01X5870000D01*
G02X5960000Y4010000I19359J-68846D01*
G01Y1245520D01*
G02X5921770Y1235930I-20319J3D01*
G03Y1084070I-141770J-75930D01*
G02X5960000Y1074480I17911J-9593D01*
G01Y920000D01*
G02X5830000Y820000I-121250J23125D01*
G01X5760000D01*
G03X5359950Y370480I8634J-410456D01*
G01X5360000Y370000D01*
Y230000D01*
G37*
G36*
G01X3355840Y301340D02*
X3342260Y287740D01*
X3360610Y260710D01*
X3373800Y276200D01*
Y283380D01*
X3355840Y301340D01*
G37*
G36*
G01X3373800Y2169020D02*
Y2176200D01*
X3367920Y2186000D01*
X3348460Y2158460D01*
X3355840Y2151060D01*
X3373800Y2169020D01*
G37*
G36*
G01X4257960Y4522240D02*
X4302850Y4567150D01*
X4240000Y4636350D01*
X4177150Y4567150D01*
X4222040Y4522240D01*
G03X4257960I17960J17960D01*
G37*
G36*
G01X4582900Y4562500D02*
Y4630000D01*
X4489650Y4634630D01*
X4492400Y4541160D01*
X4555900Y4537150D01*
G03X4582900Y4562500I1600J25350D01*
G37*
%LPC*%
G75*
G36*
G01X1374640Y3393640D02*
Y3124360D01*
X1105360D01*
Y3393640D01*
X1114290D01*
G03X1130250Y3426530I-4J20319D01*
G02X1154980Y3623880I109749J86472D01*
G03Y3656120I-12364J16120D01*
G02Y3877880I85020J110880D01*
G03Y3910120I-12364J16120D01*
G02X1325020I85020J110880D01*
G03Y3877880I12364J-16120D01*
G02Y3656120I-85020J-110880D01*
G03Y3623880I12364J-16120D01*
G02X1349750Y3426530I-85019J-110878D01*
G03X1365710Y3393640I15964J-12571D01*
G01X1374640D01*
G37*
G54D19*
X730000Y910000D03*
G54D20*
X420000Y1200000D03*
X3800000Y2140000D03*
X4440000Y2130000D03*
X5140000Y1170000D03*
G54D21*
X420000Y1650000D03*
X1060000D03*
X2460000Y1640000D03*
X3100000D03*
X3800000Y1630000D03*
Y2590000D03*
X4440000Y1630000D03*
Y2590000D03*
X3800000Y670000D03*
X4440000D03*
X5140000Y1620000D03*
X5780000D03*
%LPD*%
G75*
G54D10*
X330000Y330000D03*
Y4570000D03*
X5870000Y330000D03*
Y4570000D03*
G54D11*
X420000Y1200000D03*
Y1650000D03*
X1060000Y1190000D03*
Y1650000D03*
X2460000Y1190000D03*
Y1640000D03*
X3100000Y1180000D03*
Y1640000D03*
X3800000Y220000D03*
Y670000D03*
Y1180000D03*
Y1630000D03*
Y2590000D03*
Y2140000D03*
X4440000Y210000D03*
Y670000D03*
Y1170000D03*
Y2130000D03*
Y1630000D03*
Y2590000D03*
X5140000Y1170000D03*
Y1620000D03*
X5780000Y1160000D03*
Y1620000D03*
G54D12*
X60000Y1050000D03*
X251170Y2363680D03*
X60000Y2170000D03*
X251170Y2703680D03*
Y3053680D03*
X241170Y3393680D03*
X60000Y3170000D03*
X241170Y3753680D03*
X60000Y4170000D03*
X800000Y50000D03*
X591170Y1983680D03*
X909170D03*
X569170Y2363680D03*
X733800Y2373800D03*
X569170Y2703680D03*
Y3053680D03*
X559170Y3393680D03*
Y3753680D03*
X1031170Y683680D03*
X1349170D03*
X1011170Y2963680D03*
X1329170D03*
X1033680Y4618830D03*
Y4300830D03*
X1383680Y4638830D03*
Y4320830D03*
X1020000Y4840000D03*
X1800000Y50000D03*
X1731170Y683680D03*
X2049170D03*
X1890000Y1360000D03*
X1641170Y1713680D03*
X1959170D03*
X1651170Y2043680D03*
X1969170D03*
X1621170Y3263680D03*
X1939170D03*
X1641170Y3743680D03*
X1959170D03*
X2020000Y4840000D03*
X2431170Y683680D03*
X2581170Y1863680D03*
X2333680Y3570830D03*
Y3888830D03*
X2800000Y50000D03*
X2749170Y683680D03*
X2899170Y1863680D03*
X2721170Y2533680D03*
X3039170D03*
X2631170Y2233680D03*
X2949170D03*
X3103680Y3570830D03*
X2853680D03*
X3103680Y3888830D03*
X2853680D03*
X3020000Y4840000D03*
X3363800Y266200D03*
X3373800Y1236200D03*
X3480000Y1760000D03*
X3370000Y2180000D03*
X3603680Y3570830D03*
X3353680Y3560830D03*
X3603680Y3888830D03*
X3353680Y3878830D03*
X3920000Y50000D03*
X3981170Y443680D03*
X3971170Y1483680D03*
X4023170Y3607680D03*
Y4115680D03*
X4140000Y4840000D03*
X4299170Y443680D03*
X4289170Y1483680D03*
X4600000Y1360000D03*
X4531170Y3607680D03*
Y4115680D03*
X4811170Y383680D03*
X5129170D03*
X4800000Y50000D03*
X5221170Y893680D03*
X5083170Y1833680D03*
Y2341680D03*
Y2849680D03*
Y3357680D03*
Y3865680D03*
X5020000Y4840000D03*
X5539170Y893680D03*
X5591170Y1833680D03*
Y2341680D03*
Y2849680D03*
Y3357680D03*
Y3865680D03*
X6100000Y990000D03*
X5909170Y1833680D03*
Y2341680D03*
X6100000Y2110000D03*
X5909170Y2849680D03*
X6100000Y3110000D03*
X5909170Y3357680D03*
Y3865680D03*
X6100000Y4110000D03*
G54D13*
X1240000Y3259000D03*
X1700000Y4630000D03*
G54D14*
X1240000Y3513000D03*
Y4021000D03*
Y3767000D03*
X1954000Y4630000D03*
X2462000D03*
X2208000D03*
X2970000D03*
X2716000D03*
X3732000D03*
X3478000D03*
X3224000D03*
X4240000D03*
X3986000D03*
X4494000D03*
G54D15*
G01X3430000Y190000D02*
X3300000D01*
G54D16*
G01X330000Y330000D02*
Y703400D01*
G01Y330000D02*
X703400D01*
G01X254100Y1650000D02*
X420000D01*
G01X330000Y4196600D02*
Y4570000D01*
G01D02*
X703400D01*
G01X420000Y1484100D02*
Y1650000D01*
G01X894100D02*
X1060000D01*
G01X420000D02*
Y1815900D01*
G01Y1650000D02*
X585900D01*
G01X1060000Y1484100D02*
Y1650000D01*
G01D02*
Y1815900D01*
G01Y1650000D02*
X1225900D01*
G01X1240000Y3114200D02*
Y3259000D01*
G01X1095200D02*
X1240000D01*
G01D02*
X1384800D01*
G01X2460000Y1474100D02*
Y1640000D01*
G01D02*
Y1805900D01*
G01X2294100Y1640000D02*
X2460000D01*
G01D02*
X2625900D01*
G01X3100000Y1474100D02*
Y1640000D01*
G01D02*
Y1805900D01*
G01X2934100Y1640000D02*
X3100000D01*
G01D02*
X3265900D01*
G01X3634100Y670000D02*
X3800000D01*
G01X3634100Y1630000D02*
X3800000D01*
G01X3634100Y2590000D02*
X3800000D01*
G01Y504100D02*
Y670000D01*
G01D02*
Y835900D01*
G01Y670000D02*
X3965900D01*
G01X3800000Y1464100D02*
Y1630000D01*
G01D02*
Y1795900D01*
G01Y1630000D02*
X3965900D01*
G01X3800000Y2424100D02*
Y2590000D01*
G01D02*
Y2755900D01*
G01Y2590000D02*
X3965900D01*
G01X4440000Y504100D02*
Y670000D01*
G01D02*
Y835900D01*
G01X4274100Y670000D02*
X4440000D01*
G01D02*
X4605900D01*
G01X4440000Y1464100D02*
Y1630000D01*
G01D02*
Y1795900D01*
G01X4274100Y1630000D02*
X4440000D01*
G01D02*
X4605900D01*
G01X4440000Y2424100D02*
Y2590000D01*
G01D02*
Y2755900D01*
G01X4274100Y2590000D02*
X4440000D01*
G01D02*
X4605900D01*
G01X5140000Y1454100D02*
Y1620000D01*
G01D02*
Y1785900D01*
G01X4974100Y1620000D02*
X5140000D01*
G01D02*
X5305900D01*
G01X5870000Y330000D02*
Y703400D01*
G01X5496600Y330000D02*
X5870000D01*
G01X5780000Y1454100D02*
Y1620000D01*
G01D02*
Y1785900D01*
G01X5614100Y1620000D02*
X5780000D01*
G01D02*
X5945900D01*
G01X5870000Y4196600D02*
Y4570000D01*
G01X5496600D02*
X5870000D01*
G54D17*
G01X6200000Y330000D02*
Y4570000D01*
G03X5870000Y4900000I-330000J0D01*
G01X330000D01*
G03X0Y4570000I0J-330000D01*
G01Y330000D01*
G03X330000Y0I330000J0D01*
G01X5870000D01*
G03X6200000Y330000I0J330000D01*
G54D18*
G01X733800Y2373800D02*
Y1496200D01*
X870000Y1360000D01*
X1890000D01*
G01D02*
X3363800D01*
X3373800Y1370000D01*
G01X3363800Y266200D02*
X3373800Y276200D01*
Y1236200D01*
G01X4600000Y1360000D02*
X3383800D01*
X3373800Y1370000D01*
G01D02*
Y1236200D01*
G01X3370000Y2180000D02*
X3373800Y2176200D01*
Y1370000D01*
G01X4130000Y4530000D02*
X4230000Y4630000D01*
X4240000D01*
G01X4600000Y1360000D02*
X4750000Y1510000D01*
Y4370000D01*
X4494000Y4626000D01*
Y4630000D01*
G01X4240000D02*
Y4490000D01*
G01X4360000Y4530000D02*
X4260000Y4630000D01*
X4240000D01*
M02*
