G04 ================== begin FILE IDENTIFICATION RECORD ==================*
G04 Layout Name:  MK60_MODULE_V10A.brd*
G04 Film Name:    Drill_Legend*
G04 File Format:  Gerber RS274X*
G04 File Origin:  Cadence Allegro 16.6-2015-S082*
G04 Origin Date:  Thu May 18 20:28:32 2017*
G04 *
G04 Layer:  BOARD GEOMETRY/OUTLINE*
G04 Layer:  MANUFACTURING/NCDRILL_FIGURE*
G04 Layer:  BOARD GEOMETRY/DIMENSION*
G04 Layer:  MANUFACTURING/NCDRILL_LEGEND*
G04 Layer:  MANUFACTURING/NCLEGEND-1-2*
G04 *
G04 Offset:    (0.0000 0.0000)*
G04 Mirror:    No*
G04 Mode:      Positive*
G04 Rotation:  0*
G04 FullContactRelief:  No*
G04 UndefLineWidth:     0.1524*
G04 ================== end FILE IDENTIFICATION RECORD ====================*
%FSLAX55Y55*MOMM*%
%IR0*IPPOS*OFA0.00000B0.00000*MIA0B0*SFA1.00000B1.00000*%
%AMMACRO10*
1,1,.1524,.704909,-1.7018*
20,1,.1524,.704909,-1.7018,-.704909,-1.7018,0.0*
1,1,.1524,-.704909,-1.7018*
20,1,.1524,-.704909,-1.7018,-1.7018,-.704909,0.0*
1,1,.1524,-1.7018,-.704909*
20,1,.1524,-1.7018,-.704909,-1.7018,.704909,0.0*
1,1,.1524,-1.7018,.704909*
20,1,.1524,-1.7018,.704909,-.704909,1.7018,0.0*
1,1,.1524,-.704909,1.7018*
20,1,.1524,-.704909,1.7018,.704909,1.7018,0.0*
1,1,.1524,.704909,1.7018*
20,1,.1524,.704909,1.7018,1.7018,.704909,0.0*
1,1,.1524,1.7018,.704909*
20,1,.1524,1.7018,.704909,1.7018,-.704909,0.0*
1,1,.1524,1.7018,-.704909*
20,1,.1524,1.7018,-.704909,.704909,-1.7018,0.0*
1,1,.1524,.704909,-1.7018*
%
%ADD10MACRO10*%
%AMMACRO12*
1,1,.1524,.1524,0.0*
20,1,.1524,.1524,0.0,-.1524,0.0,0.0*
1,1,.1524,-.1524,0.0*
1,1,.1524,0.0,.1524*
20,1,.1524,0.0,.1524,0.0,-.1524,0.0*
1,1,.1524,0.0,-.1524*
%
%ADD12MACRO12*%
%AMMACRO13*
1,1,.1524,.4445,.4445*
20,1,.1524,.4445,.4445,.4445,-.4445,0.0*
1,1,.1524,.4445,-.4445*
20,1,.1524,.4445,-.4445,-.4445,-.4445,0.0*
1,1,.1524,-.4445,-.4445*
20,1,.1524,-.4445,-.4445,-.4445,.4445,0.0*
1,1,.1524,-.4445,.4445*
20,1,.1524,-.4445,.4445,.4445,.4445,0.0*
1,1,.1524,.4445,.4445*
%
%ADD13MACRO13*%
%AMMACRO11*
1,1,.1524,0.0,.6*
20,1,.1524,0.0,.6,-.519615,.3,0.0*
1,1,.1524,-.519615,.3*
20,1,.1524,-.519615,.3,-.519615,-.3,0.0*
1,1,.1524,-.519615,-.3*
20,1,.1524,-.519615,-.3,0.0,-.6,0.0*
1,1,.1524,0.0,-.6*
20,1,.1524,0.0,-.6,.519615,-.3,0.0*
1,1,.1524,.519615,-.3*
20,1,.1524,.519615,-.3,.519615,.3,0.0*
1,1,.1524,.519615,.3*
20,1,.1524,.519615,.3,0.0,.6,0.0*
1,1,.1524,0.0,.6*
%
%ADD11MACRO11*%
%AMMACRO14*
1,1,.1524,.4445,0.0*
20,1,.1524,.4445,0.0,.22225,.384948,0.0*
1,1,.1524,.22225,.384948*
20,1,.1524,.22225,.384948,-.22225,.384948,0.0*
1,1,.1524,-.22225,.384948*
20,1,.1524,-.22225,.384948,-.4445,0.0,0.0*
1,1,.1524,-.4445,0.0*
20,1,.1524,-.4445,0.0,-.22225,-.384948,0.0*
1,1,.1524,-.22225,-.384948*
20,1,.1524,-.22225,-.384948,.22225,-.384948,0.0*
1,1,.1524,.22225,-.384948*
20,1,.1524,.22225,-.384948,.4445,0.0,0.0*
1,1,.1524,.4445,0.0*
%
%ADD14MACRO14*%
%ADD15C,.1524*%
G75*
%LPD*%
G75*
G54D10*
X330000Y330000D03*
Y4570000D03*
X5870000Y330000D03*
Y4570000D03*
X7681730Y322500D03*
G54D11*
X420000Y1200000D03*
Y1650000D03*
X1060000Y1190000D03*
Y1650000D03*
X2460000Y1190000D03*
Y1640000D03*
X3100000Y1180000D03*
Y1640000D03*
X3800000Y220000D03*
Y670000D03*
Y1180000D03*
Y1630000D03*
Y2590000D03*
Y2140000D03*
X4440000Y210000D03*
Y670000D03*
Y1170000D03*
Y2130000D03*
Y1630000D03*
Y2590000D03*
X5140000Y1170000D03*
Y1620000D03*
X5780000Y1160000D03*
Y1620000D03*
X7681730Y957500D03*
G54D12*
X60000Y1050000D03*
X251170Y2363680D03*
X60000Y2170000D03*
X251170Y2703680D03*
Y3053680D03*
X241170Y3393680D03*
X60000Y3170000D03*
X241170Y3753680D03*
X60000Y4170000D03*
X800000Y50000D03*
X591170Y1983680D03*
X909170D03*
X569170Y2363680D03*
X733800Y2373800D03*
X569170Y2703680D03*
Y3053680D03*
X559170Y3393680D03*
Y3753680D03*
X1031170Y683680D03*
X1349170D03*
X1011170Y2963680D03*
X1329170D03*
X1033680Y4618830D03*
Y4300830D03*
X1383680Y4638830D03*
Y4320830D03*
X1020000Y4840000D03*
X1800000Y50000D03*
X1731170Y683680D03*
X2049170D03*
X1890000Y1360000D03*
X1641170Y1713680D03*
X1959170D03*
X1651170Y2043680D03*
X1969170D03*
X1621170Y3263680D03*
X1939170D03*
X1641170Y3743680D03*
X1959170D03*
X2020000Y4840000D03*
X2431170Y683680D03*
X2581170Y1863680D03*
X2333680Y3570830D03*
Y3888830D03*
X2800000Y50000D03*
X2749170Y683680D03*
X2899170Y1863680D03*
X2721170Y2533680D03*
X3039170D03*
X2631170Y2233680D03*
X2949170D03*
X3103680Y3570830D03*
X2853680D03*
X3103680Y3888830D03*
X2853680D03*
X3020000Y4840000D03*
X3363800Y266200D03*
X3373800Y1236200D03*
X3480000Y1760000D03*
X3370000Y2180000D03*
X3603680Y3570830D03*
X3353680Y3560830D03*
X3603680Y3888830D03*
X3353680Y3878830D03*
X3920000Y50000D03*
X3981170Y443680D03*
X3971170Y1483680D03*
X4023170Y3607680D03*
Y4115680D03*
X4140000Y4840000D03*
X4299170Y443680D03*
X4289170Y1483680D03*
X4600000Y1360000D03*
X4531170Y3607680D03*
Y4115680D03*
X4811170Y383680D03*
X5129170D03*
X4800000Y50000D03*
X5221170Y893680D03*
X5083170Y1833680D03*
Y2341680D03*
Y2849680D03*
Y3357680D03*
Y3865680D03*
X5020000Y4840000D03*
X5539170Y893680D03*
X5591170Y1833680D03*
Y2341680D03*
Y2849680D03*
Y3357680D03*
Y3865680D03*
X6100000Y990000D03*
X5909170Y1833680D03*
Y2341680D03*
X6100000Y2110000D03*
X5909170Y2849680D03*
X6100000Y3110000D03*
X5909170Y3357680D03*
Y3865680D03*
X6100000Y4110000D03*
X7681730Y2862500D03*
G54D13*
X1240000Y3259000D03*
X1700000Y4630000D03*
X7681730Y2227500D03*
G54D14*
X1240000Y3513000D03*
Y4021000D03*
Y3767000D03*
X1954000Y4630000D03*
X2462000D03*
X2208000D03*
X2970000D03*
X2716000D03*
X3732000D03*
X3478000D03*
X3224000D03*
X4240000D03*
X3986000D03*
X4494000D03*
X7681730Y1592500D03*
G54D15*
G01X-1376800Y2484750D02*
Y2675250D01*
X-1464520Y2538730D01*
X-1345980D01*
G01X-1255050Y2506970D02*
X-1238460Y2491100D01*
X-1219490Y2484750D01*
X-1200530Y2491100D01*
X-1183930Y2510140D01*
X-1172080Y2538730D01*
X-1167340Y2567300D01*
Y2602220D01*
X-1172080Y2630800D01*
X-1183930Y2656200D01*
X-1198160Y2668900D01*
X-1214750Y2675250D01*
X-1233720Y2668900D01*
X-1247940Y2656200D01*
X-1257420Y2637150D01*
X-1262160Y2611750D01*
X-1257420Y2589530D01*
X-1245570Y2567300D01*
X-1231340Y2554600D01*
X-1214750Y2551420D01*
X-1195790Y2557770D01*
X-1181560Y2573650D01*
X-1167340Y2602220D01*
G01X-967300Y2194750D02*
Y2385250D01*
X-1055020Y2248730D01*
X-936480D01*
G01X-857400Y2223320D02*
X-843180Y2207450D01*
X-826590Y2197920D01*
X-805250Y2194750D01*
X-783910Y2201100D01*
X-767320Y2213800D01*
X-755470Y2236020D01*
X-753100Y2261420D01*
X-757840Y2286820D01*
X-769690Y2302700D01*
X-786290Y2315400D01*
X-802880Y2318570D01*
X-819470Y2315400D01*
X-840810Y2302700D01*
X-833700Y2385250D01*
X-769690D01*
G01X-614750Y2188400D02*
X-619490Y2191580D01*
Y2197920D01*
X-614750Y2201100D01*
X-610010Y2197920D01*
Y2191580D01*
X-614750Y2188400D01*
G01X-428990Y2194750D02*
X-424250Y2236020D01*
X-417140Y2270950D01*
X-407660Y2302700D01*
X-395800Y2337620D01*
X-376840Y2385250D01*
X-471660D01*
G01X-572650Y92850D02*
X-558430Y70620D01*
X-539470Y57920D01*
X-518130Y54750D01*
X-499160Y57920D01*
X-480200Y73800D01*
X-468350Y92850D01*
X-465980Y111900D01*
X-470720Y134120D01*
X-487310Y150000D01*
X-503910Y156350D01*
X-525240D01*
G01X-503910D02*
X-489680Y165870D01*
X-477830Y181750D01*
X-473090Y200800D01*
X-477830Y219850D01*
X-489680Y235720D01*
X-511020Y245250D01*
X-532350Y242080D01*
X-553690Y229370D01*
G01X-330000Y48400D02*
X-334740Y51580D01*
Y57920D01*
X-330000Y61100D01*
X-325260Y57920D01*
Y51580D01*
X-330000Y48400D01*
G01X-191650Y92850D02*
X-177430Y70620D01*
X-158470Y57920D01*
X-137130Y54750D01*
X-118160Y57920D01*
X-99200Y73800D01*
X-87350Y92850D01*
X-84980Y111900D01*
X-89720Y134120D01*
X-106310Y150000D01*
X-122910Y156350D01*
X-144240D01*
G01X-122910D02*
X-108680Y165870D01*
X-96830Y181750D01*
X-92090Y200800D01*
X-96830Y219850D01*
X-108680Y235720D01*
X-130020Y245250D01*
X-151350Y242080D01*
X-172690Y229370D01*
G01X-102650Y-327150D02*
X-88430Y-349380D01*
X-69470Y-362080D01*
X-48130Y-365250D01*
X-29160Y-362080D01*
X-10200Y-346200D01*
X1650Y-327150D01*
X4020Y-308100D01*
X-720Y-285880D01*
X-17310Y-270000D01*
X-33910Y-263650D01*
X-55240D01*
G01X-33910D02*
X-19680Y-254130D01*
X-7830Y-238250D01*
X-3090Y-219200D01*
X-7830Y-200150D01*
X-19680Y-184280D01*
X-41020Y-174750D01*
X-62350Y-177920D01*
X-83690Y-190630D01*
G01X140000Y-371600D02*
X135260Y-368420D01*
Y-362080D01*
X140000Y-358900D01*
X144740Y-362080D01*
Y-368420D01*
X140000Y-371600D01*
G01X278350Y-327150D02*
X292570Y-349380D01*
X311530Y-362080D01*
X332870Y-365250D01*
X351840Y-362080D01*
X370800Y-346200D01*
X382650Y-327150D01*
X385020Y-308100D01*
X380280Y-285880D01*
X363690Y-270000D01*
X347090Y-263650D01*
X325760D01*
G01X347090D02*
X361320Y-254130D01*
X373170Y-238250D01*
X377910Y-219200D01*
X373170Y-200150D01*
X361320Y-184280D01*
X339980Y-174750D01*
X318650Y-177920D01*
X297310Y-190630D01*
G01X6200000Y330000D02*
Y4570000D01*
G03X5870000Y4900000I-330000J0D01*
G01X330000D01*
G03X0Y4570000I0J-330000D01*
G01Y330000D01*
G03X330000Y0I330000J0D01*
G01X5870000D01*
G03X6200000Y330000I0J330000D01*
G01X3009710Y-925880D02*
X3026300Y-903650D01*
X3040530Y-890950D01*
X3059490Y-884600D01*
X3076090Y-890950D01*
X3087940Y-903650D01*
X3097420Y-922700D01*
X3099790Y-944930D01*
X3097420Y-963980D01*
X3087940Y-983030D01*
X3073710Y-998900D01*
X3057120Y-1005250D01*
X3038160Y-998900D01*
X3021560Y-979860D01*
X3012080Y-951270D01*
X3009710Y-919530D01*
X3014450Y-878250D01*
X3021560Y-856020D01*
X3033410Y-833800D01*
X3050010Y-817920D01*
X3066600Y-814750D01*
X3083200Y-821100D01*
X3095050Y-836980D01*
G01X3200210Y-846500D02*
X3214430Y-827450D01*
X3231030Y-817920D01*
X3249990Y-814750D01*
X3273700Y-821100D01*
X3290290Y-836980D01*
X3295030Y-856020D01*
X3292660Y-875080D01*
X3283180Y-890950D01*
X3235770Y-922700D01*
X3214430Y-944930D01*
X3200210Y-976680D01*
X3195470Y-1005250D01*
X3295030D01*
G01X2722100Y-616680D02*
X2736320Y-632550D01*
X2752910Y-642080D01*
X2774250Y-645250D01*
X2795590Y-638900D01*
X2812180Y-626200D01*
X2824030Y-603980D01*
X2826400Y-578580D01*
X2821660Y-553180D01*
X2809810Y-537300D01*
X2793210Y-524600D01*
X2776620Y-521430D01*
X2760030Y-524600D01*
X2738690Y-537300D01*
X2745800Y-454750D01*
X2809810D01*
G01X2964750Y-645250D02*
X2981340Y-642080D01*
X3000310Y-632550D01*
X3012160Y-616680D01*
X3016900Y-594450D01*
X3012160Y-572230D01*
X2997940Y-553180D01*
X2976600Y-543650D01*
X2952900D01*
X2938670Y-537300D01*
X2926820Y-521430D01*
X2922080Y-499200D01*
X2929190Y-476980D01*
X2945780Y-461100D01*
X2964750Y-454750D01*
X2983710Y-461100D01*
X3000310Y-476980D01*
X3007420Y-499200D01*
X3002680Y-521430D01*
X2990830Y-537300D01*
X2976600Y-543650D01*
X2952900D01*
X2931560Y-553180D01*
X2917340Y-572230D01*
X2912600Y-594450D01*
X2917340Y-616680D01*
X2929190Y-632550D01*
X2948160Y-642080D01*
X2964750Y-645250D01*
G01X3155250Y-651600D02*
X3150510Y-648420D01*
Y-642080D01*
X3155250Y-638900D01*
X3159990Y-642080D01*
Y-648420D01*
X3155250Y-651600D01*
G01X3341010Y-645250D02*
X3345750Y-603980D01*
X3352860Y-569050D01*
X3362340Y-537300D01*
X3374200Y-502380D01*
X3393160Y-454750D01*
X3298340D01*
G01X520000Y0D02*
X-1560000D01*
G01X-1310000Y2334260D02*
Y0D01*
G01X-1372500Y400000D02*
X-1310000Y0D01*
X-1247500Y400000D01*
X-1372500D01*
G01X-1310000Y2825740D02*
Y4900000D01*
G01X-1247500Y4500000D02*
X-1310000Y4900000D01*
X-1372500Y4500000D01*
X-1247500D01*
G01X380000Y4900000D02*
X-1560000D01*
G01X370000Y0D02*
X-960000D01*
G01X-772500Y400000D02*
X-710000Y0D01*
X-647500Y400000D01*
X-772500D01*
G01X-647500Y4170000D02*
X-710000Y4570000D01*
X-772500Y4170000D01*
X-647500D01*
G01X80000Y4570000D02*
X-960000D01*
G01X-267500Y-400000D02*
X-330000Y0D01*
X-392500Y-400000D01*
X-267500D01*
G01X-272110Y-270000D02*
X0D01*
G01X-400000Y-332500D02*
X0Y-270000D01*
X-400000Y-207500D01*
Y-332500D01*
G01X80000Y330000D02*
X-580000D01*
G01X310000Y0D02*
X-580000D01*
G01X-330000Y-95740D02*
Y0D01*
G01Y395740D02*
Y330000D01*
G01X-392500Y730000D02*
X-330000Y330000D01*
X-267500Y730000D01*
X-392500D01*
G01X-710000Y2044260D02*
Y0D01*
G01Y2535740D02*
Y4570000D01*
G01X0Y120000D02*
Y-800000D01*
G01Y580000D02*
Y-1160000D01*
G01X2833140Y-910000D02*
X0D01*
G01X400000Y-847500D02*
X0Y-910000D01*
X400000Y-972500D01*
Y-847500D01*
G01X0Y150000D02*
Y-520000D01*
G01X330000Y80000D02*
Y-520000D01*
G01X552110Y-270000D02*
X330000D01*
G01X730000Y-207500D02*
X330000Y-270000D01*
X730000Y-332500D01*
Y-207500D01*
G01X2552640Y-550000D02*
X0D01*
G01X400000Y-487500D02*
X0Y-550000D01*
X400000Y-612500D01*
Y-487500D01*
G01X3466860Y-910000D02*
X6200000D01*
G01X3567360Y-550000D02*
X5870000D01*
G01X5800000Y-972500D02*
X6200000Y-910000D01*
X5800000Y-847500D01*
Y-972500D01*
G01X5470000Y-612500D02*
X5870000Y-550000D01*
X5470000Y-487500D01*
Y-612500D01*
G01X5870000Y80000D02*
Y-800000D01*
G01X6200000Y960000D02*
Y-1160000D01*
G01X6540000Y5000D02*
Y5100000D01*
X18823440D01*
Y5000D01*
X6540000D01*
G01Y640000D02*
X18823440D01*
G01X6540000Y1275000D02*
X18823440D01*
G01X6540000Y1910000D02*
X18823440D01*
G01X6540000Y2545000D02*
X18823440D01*
G01X6819520Y3338750D02*
Y3656250D01*
X6969140D01*
G01X6914010Y3502800D02*
X6819520D01*
G01X7162050Y3656250D02*
X7256530D01*
G01X7209290D02*
Y3338750D01*
G01X7162050D02*
X7256530D01*
G01X7547870Y3497500D02*
X7626620D01*
Y3402250D01*
X7602990Y3370490D01*
X7575430Y3349330D01*
X7536060Y3338750D01*
X7496690Y3349330D01*
X7469130Y3370490D01*
X7445510Y3402250D01*
X7429760Y3439290D01*
X7421880Y3481620D01*
Y3518670D01*
X7429760Y3550410D01*
X7445510Y3587460D01*
X7469130Y3619210D01*
X7492750Y3640370D01*
X7524250Y3656250D01*
X7551810D01*
X7583300Y3645670D01*
X7606930Y3624500D01*
G01X7752600Y3656250D02*
Y3428710D01*
X7768340Y3381070D01*
X7799840Y3349330D01*
X7839210Y3338750D01*
X7878580Y3349330D01*
X7910080Y3381070D01*
X7925820Y3428710D01*
Y3656250D01*
G01X8075430Y3338750D02*
Y3656250D01*
X8173850D01*
X8205350Y3640370D01*
X8225040Y3619210D01*
X8232910Y3576870D01*
X8225040Y3534540D01*
X8201410Y3508090D01*
X8173850Y3492200D01*
X8075430D01*
G01X8173850D02*
X8232910Y3338750D01*
G01X8547870D02*
X8390390D01*
Y3656250D01*
X8547870D01*
G01X8484880Y3502800D02*
X8390390D01*
G01X6540000Y3180000D02*
X18823440D01*
G01X6540000Y3815000D02*
X18823440D01*
G01X6540000Y4450000D02*
X18823440D01*
G01X8331330Y3973750D02*
X8429760Y4291250D01*
X8528190Y3973750D01*
G01X8492750Y4084870D02*
X8366760D01*
G01X8665980Y4291250D02*
Y3973750D01*
X8823460D01*
G01X8980940Y4291250D02*
Y3973750D01*
X9138420D01*
G01X9602990Y4291250D02*
Y4063710D01*
X9618730Y4016070D01*
X9650230Y3984330D01*
X9689600Y3973750D01*
X9728970Y3984330D01*
X9760470Y4016070D01*
X9776210Y4063710D01*
Y4291250D01*
G01X9914010Y3973750D02*
Y4291250D01*
X10095110Y3973750D01*
Y4291250D01*
G01X10272280D02*
X10366760D01*
G01X10319520D02*
Y3973750D01*
G01X10272280D02*
X10366760D01*
G01X10634480Y4291250D02*
Y3973750D01*
G01X10543930Y4291250D02*
X10725030D01*
G01X10866760Y4016070D02*
X10898260Y3989620D01*
X10933690Y3973750D01*
X10965190D01*
X10996680Y3989620D01*
X11020310Y4016070D01*
X11032120Y4053130D01*
X11024250Y4090160D01*
X11004560Y4121910D01*
X10969120Y4143090D01*
X10921880Y4153670D01*
X10894320Y4174830D01*
X10882510Y4211870D01*
X10890390Y4248920D01*
X10910070Y4275370D01*
X10937630Y4291250D01*
X10965190D01*
X10992750Y4280670D01*
X11016370Y4254210D01*
G01X11480930Y3973750D02*
X11579360Y4291250D01*
X11677790Y3973750D01*
G01X11642350Y4084870D02*
X11516360D01*
G01X11815580Y3973750D02*
Y4291250D01*
X11914000D01*
X11945500Y4275370D01*
X11965190Y4254210D01*
X11973060Y4211870D01*
X11965190Y4169540D01*
X11941560Y4143090D01*
X11914000Y4127200D01*
X11815580D01*
G01X11914000D02*
X11973060Y3973750D01*
G01X12288020D02*
X12130540D01*
Y4291250D01*
X12288020D01*
G01X12225030Y4137800D02*
X12130540D01*
G01X12791960Y4291250D02*
X12886440D01*
G01X12839200D02*
Y3973750D01*
G01X12791960D02*
X12886440D01*
G01X13063610D02*
Y4291250D01*
X13244710Y3973750D01*
Y4291250D01*
G01X13681710Y3973750D02*
Y4291250D01*
X13784080Y4026670D01*
X13886450Y4291250D01*
Y3973750D01*
G01X14051800Y4291250D02*
X14146280D01*
G01X14099040D02*
Y3973750D01*
G01X14051800D02*
X14146280D01*
G01X14335260Y4291250D02*
Y3973750D01*
X14492740D01*
G01X14650220Y4291250D02*
Y3973750D01*
X14807700D01*
G01X14996680Y4291250D02*
X15091160D01*
G01X15043920D02*
Y3973750D01*
G01X14996680D02*
X15091160D01*
G01X15256510D02*
Y4291250D01*
X15358880Y4026670D01*
X15461250Y4291250D01*
Y3973750D01*
G01X15752580D02*
X15595100D01*
Y4291250D01*
X15752580D01*
G01X15689590Y4137800D02*
X15595100D01*
G01X15988800Y4291250D02*
Y3973750D01*
G01X15898250Y4291250D02*
X16079350D01*
G01X16382500Y3973750D02*
X16225020D01*
Y4291250D01*
X16382500D01*
G01X16319510Y4137800D02*
X16225020D01*
G01X16539980Y3973750D02*
Y4291250D01*
X16638400D01*
X16669900Y4275370D01*
X16689590Y4254210D01*
X16697460Y4211870D01*
X16689590Y4169540D01*
X16665960Y4143090D01*
X16638400Y4127200D01*
X16539980D01*
G01X16638400D02*
X16697460Y3973750D01*
G01X16851000Y4016070D02*
X16882500Y3989620D01*
X16917930Y3973750D01*
X16949430D01*
X16980920Y3989620D01*
X17004550Y4016070D01*
X17016360Y4053130D01*
X17008490Y4090160D01*
X16988800Y4121910D01*
X16953360Y4143090D01*
X16906120Y4153670D01*
X16878560Y4174830D01*
X16866750Y4211870D01*
X16874630Y4248920D01*
X16894310Y4275370D01*
X16921870Y4291250D01*
X16949430D01*
X16976990Y4280670D01*
X17000610Y4254210D01*
G01X8823460Y3815000D02*
Y5000D01*
G01X8658110Y4623750D02*
Y4941250D01*
X8736840D01*
X8768340Y4925370D01*
X8791960Y4904210D01*
X8811650Y4872460D01*
X8827400Y4835410D01*
X8831330Y4782500D01*
X8827400Y4729580D01*
X8811650Y4692540D01*
X8791960Y4660780D01*
X8768340Y4639620D01*
X8736840Y4623750D01*
X8658110D01*
G01X8980940D02*
Y4941250D01*
X9079360D01*
X9110860Y4925370D01*
X9130550Y4904210D01*
X9138420Y4861870D01*
X9130550Y4819540D01*
X9106920Y4793090D01*
X9079360Y4777200D01*
X8980940D01*
G01X9079360D02*
X9138420Y4623750D01*
G01X9327400Y4941250D02*
X9421880D01*
G01X9374640D02*
Y4623750D01*
G01X9327400D02*
X9421880D01*
G01X9610860Y4941250D02*
Y4623750D01*
X9768340D01*
G01X9925820Y4941250D02*
Y4623750D01*
X10083300D01*
G01X10721090Y4914790D02*
X10697470Y4930670D01*
X10669920Y4941250D01*
X10638420D01*
X10602980Y4925370D01*
X10575430Y4898920D01*
X10555740Y4867160D01*
X10539990Y4814250D01*
X10536050Y4766620D01*
X10543930Y4719000D01*
X10555740Y4687250D01*
X10579360Y4655490D01*
X10606920Y4634330D01*
X10634480Y4623750D01*
X10662040D01*
X10689600Y4634330D01*
X10713220Y4650200D01*
X10732910Y4671360D01*
G01X10866760Y4623750D02*
Y4941250D01*
G01X11032120D02*
Y4623750D01*
G01Y4782500D02*
X10866760D01*
G01X11165970Y4623750D02*
X11264400Y4941250D01*
X11362830Y4623750D01*
G01X11327390Y4734870D02*
X11201400D01*
G01X11500620Y4623750D02*
Y4941250D01*
X11599040D01*
X11630540Y4925370D01*
X11650230Y4904210D01*
X11658100Y4861870D01*
X11650230Y4819540D01*
X11626600Y4793090D01*
X11599040Y4777200D01*
X11500620D01*
G01X11599040D02*
X11658100Y4623750D01*
G01X11894320Y4941250D02*
Y4623750D01*
G01X11803770Y4941250D02*
X11984870D01*
G01X12209280Y4613170D02*
X12201400Y4618460D01*
Y4629040D01*
X12209280Y4634330D01*
X12217160Y4629040D01*
Y4618460D01*
X12209280Y4613170D01*
G01Y4756030D02*
X12201400Y4761330D01*
Y4771910D01*
X12209280Y4777200D01*
X12217160Y4771910D01*
Y4761330D01*
X12209280Y4756030D01*
G01X12839200Y4941250D02*
Y4623750D01*
G01X12748650Y4941250D02*
X12929750D01*
G01X13154160Y4623750D02*
X13122660Y4629040D01*
X13095110Y4650200D01*
X13071480Y4681960D01*
X13055730Y4719000D01*
X13047860Y4761330D01*
Y4803670D01*
X13055730Y4846000D01*
X13071480Y4883040D01*
X13095110Y4914790D01*
X13122660Y4935960D01*
X13154160Y4941250D01*
X13185650Y4935960D01*
X13213210Y4914790D01*
X13236840Y4883040D01*
X13252590Y4846000D01*
X13260460Y4803670D01*
Y4761330D01*
X13252590Y4719000D01*
X13236840Y4681960D01*
X13213210Y4650200D01*
X13185650Y4629040D01*
X13154160Y4623750D01*
G01X13390380D02*
Y4941250D01*
X13484870D01*
X13516360Y4925370D01*
X13539990Y4888330D01*
X13547860Y4846000D01*
X13539990Y4803670D01*
X13520300Y4771910D01*
X13484870Y4756030D01*
X13390380D01*
G01X14099040Y4941250D02*
Y4623750D01*
G01X14043920Y4835410D02*
X14154160D01*
G01X14414000Y4623750D02*
X14390380Y4629040D01*
X14366760Y4650200D01*
X14351000Y4687250D01*
X14343130Y4729580D01*
X14351000Y4771910D01*
X14366760Y4808960D01*
X14390380Y4830120D01*
X14414000Y4835410D01*
X14437620Y4830120D01*
X14461240Y4808960D01*
X14476990Y4771910D01*
X14480930Y4729580D01*
X14476990Y4687250D01*
X14461240Y4650200D01*
X14437620Y4629040D01*
X14414000Y4623750D01*
G01X15075410Y4793090D02*
X15091160Y4808960D01*
X15102970Y4835410D01*
X15110850Y4872460D01*
X15102970Y4904210D01*
X15087230Y4925370D01*
X15059670Y4941250D01*
X14953370D01*
Y4623750D01*
X15083290D01*
X15110850Y4644910D01*
X15126600Y4676670D01*
X15134470Y4713710D01*
X15126600Y4750740D01*
X15102970Y4782500D01*
X15075410Y4793090D01*
X14953370D01*
G01X15358880Y4623750D02*
X15327380Y4629040D01*
X15299830Y4650200D01*
X15276200Y4681960D01*
X15260450Y4719000D01*
X15252580Y4761330D01*
Y4803670D01*
X15260450Y4846000D01*
X15276200Y4883040D01*
X15299830Y4914790D01*
X15327380Y4935960D01*
X15358880Y4941250D01*
X15390370Y4935960D01*
X15417930Y4914790D01*
X15441560Y4883040D01*
X15457310Y4846000D01*
X15465180Y4803670D01*
Y4761330D01*
X15457310Y4719000D01*
X15441560Y4681960D01*
X15417930Y4650200D01*
X15390370Y4629040D01*
X15358880Y4623750D01*
G01X15673840Y4941250D02*
Y4623750D01*
G01X15583290Y4941250D02*
X15764390D01*
G01X15988800D02*
Y4623750D01*
G01X15898250Y4941250D02*
X16079350D01*
G01X16303760Y4623750D02*
X16272260Y4629040D01*
X16244710Y4650200D01*
X16221080Y4681960D01*
X16205330Y4719000D01*
X16197460Y4761330D01*
Y4803670D01*
X16205330Y4846000D01*
X16221080Y4883040D01*
X16244710Y4914790D01*
X16272260Y4935960D01*
X16303760Y4941250D01*
X16335250Y4935960D01*
X16362810Y4914790D01*
X16386440Y4883040D01*
X16402190Y4846000D01*
X16410060Y4803670D01*
Y4761330D01*
X16402190Y4719000D01*
X16386440Y4681960D01*
X16362810Y4650200D01*
X16335250Y4629040D01*
X16303760Y4623750D01*
G01X16516350D02*
Y4941250D01*
X16618720Y4676670D01*
X16721090Y4941250D01*
Y4623750D01*
G01X10351020Y227250D02*
X10374630Y190200D01*
X10406130Y169040D01*
X10441570Y163750D01*
X10473070Y169040D01*
X10504560Y195490D01*
X10524240Y227250D01*
X10528180Y259000D01*
X10520310Y296030D01*
X10492750Y322500D01*
X10465190Y333090D01*
X10429750D01*
G01X10465190D02*
X10488810Y348960D01*
X10508500Y375410D01*
X10516370Y407160D01*
X10508500Y438920D01*
X10488810Y465370D01*
X10453380Y481250D01*
X10417950Y475960D01*
X10382510Y454790D01*
G01X10752590Y153170D02*
X10744710Y158460D01*
Y169040D01*
X10752590Y174330D01*
X10760470Y169040D01*
Y158460D01*
X10752590Y153170D01*
G01X11114790Y163750D02*
Y481250D01*
X10969120Y253710D01*
X11165980D01*
G01X11382510Y481250D02*
X11351010Y470670D01*
X11327390Y444210D01*
X11311640Y412460D01*
X11299830Y370120D01*
X11295900Y322500D01*
X11299830Y274870D01*
X11311640Y232540D01*
X11327390Y200780D01*
X11351010Y174330D01*
X11382510Y163750D01*
X11414000Y174330D01*
X11437630Y200780D01*
X11453380Y232540D01*
X11465190Y274870D01*
X11469120Y322500D01*
X11465190Y370120D01*
X11453380Y412460D01*
X11437630Y444210D01*
X11414000Y470670D01*
X11382510Y481250D01*
G01X11610860Y227250D02*
X11634470Y190200D01*
X11665970Y169040D01*
X11701410Y163750D01*
X11732910Y169040D01*
X11764400Y195490D01*
X11784080Y227250D01*
X11788020Y259000D01*
X11780150Y296030D01*
X11752590Y322500D01*
X11725030Y333090D01*
X11689590D01*
G01X11725030D02*
X11748650Y348960D01*
X11768340Y375410D01*
X11776210Y407160D01*
X11768340Y438920D01*
X11748650Y465370D01*
X11713220Y481250D01*
X11677790Y475960D01*
X11642350Y454790D01*
G01X11937620Y296030D02*
X11965190Y333090D01*
X11988810Y354250D01*
X12020310Y364830D01*
X12047870Y354250D01*
X12067550Y333090D01*
X12083300Y301330D01*
X12087240Y264290D01*
X12083300Y232540D01*
X12067550Y200780D01*
X12043920Y174330D01*
X12016370Y163750D01*
X11984870Y174330D01*
X11957310Y206070D01*
X11941560Y253710D01*
X11937620Y306620D01*
X11945500Y375410D01*
X11957310Y412460D01*
X11976990Y449500D01*
X12004550Y475960D01*
X12032110Y481250D01*
X12059670Y470670D01*
X12079360Y444210D01*
G01X10595110Y1751250D02*
X10563610Y1740670D01*
X10539990Y1714210D01*
X10524240Y1682460D01*
X10512430Y1640120D01*
X10508500Y1592500D01*
X10512430Y1544870D01*
X10524240Y1502540D01*
X10539990Y1470780D01*
X10563610Y1444330D01*
X10595110Y1433750D01*
X10626600Y1444330D01*
X10650230Y1470780D01*
X10665980Y1502540D01*
X10677790Y1544870D01*
X10681720Y1592500D01*
X10677790Y1640120D01*
X10665980Y1682460D01*
X10650230Y1714210D01*
X10626600Y1740670D01*
X10595110Y1751250D01*
G01X10910070Y1423170D02*
X10902190Y1428460D01*
Y1439040D01*
X10910070Y1444330D01*
X10917950Y1439040D01*
Y1428460D01*
X10910070Y1423170D01*
G01X11225030Y1433750D02*
X11252590Y1439040D01*
X11284080Y1454910D01*
X11303770Y1481360D01*
X11311640Y1518420D01*
X11303770Y1555450D01*
X11280150Y1587200D01*
X11244710Y1603090D01*
X11205350D01*
X11181720Y1613670D01*
X11162030Y1640120D01*
X11154160Y1677160D01*
X11165980Y1714210D01*
X11193530Y1740670D01*
X11225030Y1751250D01*
X11256520Y1740670D01*
X11284080Y1714210D01*
X11295900Y1677160D01*
X11288020Y1640120D01*
X11268340Y1613670D01*
X11244710Y1603090D01*
X11205350D01*
X11169910Y1587200D01*
X11146290Y1555450D01*
X11138420Y1518420D01*
X11146290Y1481360D01*
X11165980Y1454910D01*
X11197470Y1439040D01*
X11225030Y1433750D01*
G01X11539990D02*
X11567550Y1439040D01*
X11599040Y1454910D01*
X11618730Y1481360D01*
X11626600Y1518420D01*
X11618730Y1555450D01*
X11595110Y1587200D01*
X11559670Y1603090D01*
X11520310D01*
X11496680Y1613670D01*
X11476990Y1640120D01*
X11469120Y1677160D01*
X11480940Y1714210D01*
X11508490Y1740670D01*
X11539990Y1751250D01*
X11571480Y1740670D01*
X11599040Y1714210D01*
X11610860Y1677160D01*
X11602980Y1640120D01*
X11583300Y1613670D01*
X11559670Y1603090D01*
X11520310D01*
X11484870Y1587200D01*
X11461250Y1555450D01*
X11453380Y1518420D01*
X11461250Y1481360D01*
X11480940Y1454910D01*
X11512430Y1439040D01*
X11539990Y1433750D01*
G01X11788020Y1470780D02*
X11815580Y1444330D01*
X11847070Y1433750D01*
X11878570Y1444330D01*
X11906130Y1476070D01*
X11925820Y1523710D01*
X11933690Y1571330D01*
Y1629540D01*
X11925820Y1677160D01*
X11906130Y1719500D01*
X11882510Y1740670D01*
X11854950Y1751250D01*
X11823450Y1740670D01*
X11799830Y1719500D01*
X11784080Y1687750D01*
X11776210Y1645410D01*
X11784080Y1608380D01*
X11803770Y1571330D01*
X11827390Y1550160D01*
X11854950Y1544870D01*
X11886440Y1555450D01*
X11910070Y1581910D01*
X11933690Y1629540D01*
G01X10595110Y2386250D02*
X10563610Y2375670D01*
X10539990Y2349210D01*
X10524240Y2317460D01*
X10512430Y2275120D01*
X10508500Y2227500D01*
X10512430Y2179870D01*
X10524240Y2137540D01*
X10539990Y2105780D01*
X10563610Y2079330D01*
X10595110Y2068750D01*
X10626600Y2079330D01*
X10650230Y2105780D01*
X10665980Y2137540D01*
X10677790Y2179870D01*
X10681720Y2227500D01*
X10677790Y2275120D01*
X10665980Y2317460D01*
X10650230Y2349210D01*
X10626600Y2375670D01*
X10595110Y2386250D01*
G01X10910070Y2058170D02*
X10902190Y2063460D01*
Y2074040D01*
X10910070Y2079330D01*
X10917950Y2074040D01*
Y2063460D01*
X10910070Y2058170D01*
G01X11225030Y2068750D02*
X11252590Y2074040D01*
X11284080Y2089910D01*
X11303770Y2116360D01*
X11311640Y2153420D01*
X11303770Y2190450D01*
X11280150Y2222200D01*
X11244710Y2238090D01*
X11205350D01*
X11181720Y2248670D01*
X11162030Y2275120D01*
X11154160Y2312160D01*
X11165980Y2349210D01*
X11193530Y2375670D01*
X11225030Y2386250D01*
X11256520Y2375670D01*
X11284080Y2349210D01*
X11295900Y2312160D01*
X11288020Y2275120D01*
X11268340Y2248670D01*
X11244710Y2238090D01*
X11205350D01*
X11169910Y2222200D01*
X11146290Y2190450D01*
X11138420Y2153420D01*
X11146290Y2116360D01*
X11165980Y2089910D01*
X11197470Y2074040D01*
X11225030Y2068750D01*
G01X11539990D02*
X11567550Y2074040D01*
X11599040Y2089910D01*
X11618730Y2116360D01*
X11626600Y2153420D01*
X11618730Y2190450D01*
X11595110Y2222200D01*
X11559670Y2238090D01*
X11520310D01*
X11496680Y2248670D01*
X11476990Y2275120D01*
X11469120Y2312160D01*
X11480940Y2349210D01*
X11508490Y2375670D01*
X11539990Y2386250D01*
X11571480Y2375670D01*
X11599040Y2349210D01*
X11610860Y2312160D01*
X11602980Y2275120D01*
X11583300Y2248670D01*
X11559670Y2238090D01*
X11520310D01*
X11484870Y2222200D01*
X11461250Y2190450D01*
X11453380Y2153420D01*
X11461250Y2116360D01*
X11480940Y2089910D01*
X11512430Y2074040D01*
X11539990Y2068750D01*
G01X11788020Y2105780D02*
X11815580Y2079330D01*
X11847070Y2068750D01*
X11878570Y2079330D01*
X11906130Y2111070D01*
X11925820Y2158710D01*
X11933690Y2206330D01*
Y2264540D01*
X11925820Y2312160D01*
X11906130Y2354500D01*
X11882510Y2375670D01*
X11854950Y2386250D01*
X11823450Y2375670D01*
X11799830Y2354500D01*
X11784080Y2322750D01*
X11776210Y2280410D01*
X11784080Y2243380D01*
X11803770Y2206330D01*
X11827390Y2185160D01*
X11854950Y2179870D01*
X11886440Y2190450D01*
X11910070Y2216910D01*
X11933690Y2264540D01*
G01X10437630Y3021250D02*
X10406130Y3010670D01*
X10382510Y2984210D01*
X10366760Y2952460D01*
X10354950Y2910120D01*
X10351020Y2862500D01*
X10354950Y2814870D01*
X10366760Y2772540D01*
X10382510Y2740780D01*
X10406130Y2714330D01*
X10437630Y2703750D01*
X10469120Y2714330D01*
X10492750Y2740780D01*
X10508500Y2772540D01*
X10520310Y2814870D01*
X10524240Y2862500D01*
X10520310Y2910120D01*
X10508500Y2952460D01*
X10492750Y2984210D01*
X10469120Y3010670D01*
X10437630Y3021250D01*
G01X10752590Y2693170D02*
X10744710Y2698460D01*
Y2709040D01*
X10752590Y2714330D01*
X10760470Y2709040D01*
Y2698460D01*
X10752590Y2693170D01*
G01X10980940Y2767250D02*
X11004550Y2730200D01*
X11036050Y2709040D01*
X11071490Y2703750D01*
X11102990Y2709040D01*
X11134480Y2735490D01*
X11154160Y2767250D01*
X11158100Y2799000D01*
X11150230Y2836030D01*
X11122670Y2862500D01*
X11095110Y2873090D01*
X11059670D01*
G01X11095110D02*
X11118730Y2888960D01*
X11138420Y2915410D01*
X11146290Y2947160D01*
X11138420Y2978920D01*
X11118730Y3005370D01*
X11083300Y3021250D01*
X11047870Y3015960D01*
X11012430Y2994790D01*
G01X11382510Y3021250D02*
X11351010Y3010670D01*
X11327390Y2984210D01*
X11311640Y2952460D01*
X11299830Y2910120D01*
X11295900Y2862500D01*
X11299830Y2814870D01*
X11311640Y2772540D01*
X11327390Y2740780D01*
X11351010Y2714330D01*
X11382510Y2703750D01*
X11414000Y2714330D01*
X11437630Y2740780D01*
X11453380Y2772540D01*
X11465190Y2814870D01*
X11469120Y2862500D01*
X11465190Y2910120D01*
X11453380Y2952460D01*
X11437630Y2984210D01*
X11414000Y3010670D01*
X11382510Y3021250D01*
G01X11744710Y2703750D02*
Y3021250D01*
X11599040Y2793710D01*
X11795900D01*
G01X12012430Y2703750D02*
X12039990Y2709040D01*
X12071480Y2724910D01*
X12091170Y2751360D01*
X12099040Y2788420D01*
X12091170Y2825450D01*
X12067550Y2857200D01*
X12032110Y2873090D01*
X11992750D01*
X11969120Y2883670D01*
X11949430Y2910120D01*
X11941560Y2947160D01*
X11953380Y2984210D01*
X11980930Y3010670D01*
X12012430Y3021250D01*
X12043920Y3010670D01*
X12071480Y2984210D01*
X12083300Y2947160D01*
X12075420Y2910120D01*
X12055740Y2883670D01*
X12032110Y2873090D01*
X11992750D01*
X11957310Y2857200D01*
X11933690Y2825450D01*
X11925820Y2788420D01*
X11933690Y2751360D01*
X11953380Y2724910D01*
X11984870Y2709040D01*
X12012430Y2703750D01*
G01X10669910Y3381070D02*
X10701410Y3354620D01*
X10736840Y3338750D01*
X10768340D01*
X10799830Y3354620D01*
X10823460Y3381070D01*
X10835270Y3418130D01*
X10827400Y3455160D01*
X10807710Y3486910D01*
X10772270Y3508090D01*
X10725030Y3518670D01*
X10697470Y3539830D01*
X10685660Y3576870D01*
X10693540Y3613920D01*
X10713220Y3640370D01*
X10740780Y3656250D01*
X10768340D01*
X10795900Y3645670D01*
X10819520Y3619210D01*
G01X11020310Y3656250D02*
X11114790D01*
G01X11067550D02*
Y3338750D01*
G01X11020310D02*
X11114790D01*
G01X11307700Y3656250D02*
X11457320D01*
X11307700Y3338750D01*
X11457320D01*
G01X11776210D02*
X11618730D01*
Y3656250D01*
X11776210D01*
G01X11713220Y3502800D02*
X11618730D01*
G01X10910070Y798750D02*
Y1116250D01*
X10862830Y1052750D01*
G01Y798750D02*
X10957310D01*
G01X11225030Y788170D02*
X11217150Y793460D01*
Y804040D01*
X11225030Y809330D01*
X11232910Y804040D01*
Y793460D01*
X11225030Y788170D01*
G01X11465180Y1063330D02*
X11488810Y1095080D01*
X11516370Y1110960D01*
X11547870Y1116250D01*
X11587230Y1105670D01*
X11614800Y1079210D01*
X11622670Y1047460D01*
X11618730Y1015700D01*
X11602980Y989250D01*
X11524240Y936330D01*
X11488810Y899290D01*
X11465180Y846360D01*
X11457310Y798750D01*
X11622670D01*
G01X13626600Y3815000D02*
Y5000D01*
G01X14374630Y163750D02*
Y481250D01*
X14469120D01*
X14500610Y465370D01*
X14524240Y428330D01*
X14532110Y386000D01*
X14524240Y343670D01*
X14504550Y311910D01*
X14469120Y296030D01*
X14374630D01*
G01X14689590Y481250D02*
Y163750D01*
X14847070D01*
G01X14984860D02*
X15083290Y481250D01*
X15181720Y163750D01*
G01X15146280Y274870D02*
X15020290D01*
G01X15398250Y481250D02*
Y163750D01*
G01X15307700Y481250D02*
X15488800D01*
G01X15791950Y163750D02*
X15634470D01*
Y481250D01*
X15791950D01*
G01X15728960Y327800D02*
X15634470D01*
G01X15941560Y163750D02*
Y481250D01*
X16020290D01*
X16051790Y465370D01*
X16075410Y444210D01*
X16095100Y412460D01*
X16110850Y375410D01*
X16114780Y322500D01*
X16110850Y269580D01*
X16095100Y232540D01*
X16075410Y200780D01*
X16051790Y179620D01*
X16020290Y163750D01*
X15941560D01*
G01X14374630Y798750D02*
Y1116250D01*
X14469120D01*
X14500610Y1100370D01*
X14524240Y1063330D01*
X14532110Y1021000D01*
X14524240Y978670D01*
X14504550Y946910D01*
X14469120Y931030D01*
X14374630D01*
G01X14689590Y1116250D02*
Y798750D01*
X14847070D01*
G01X14984860D02*
X15083290Y1116250D01*
X15181720Y798750D01*
G01X15146280Y909870D02*
X15020290D01*
G01X15398250Y1116250D02*
Y798750D01*
G01X15307700Y1116250D02*
X15488800D01*
G01X15791950Y798750D02*
X15634470D01*
Y1116250D01*
X15791950D01*
G01X15728960Y962800D02*
X15634470D01*
G01X15941560Y798750D02*
Y1116250D01*
X16020290D01*
X16051790Y1100370D01*
X16075410Y1079210D01*
X16095100Y1047460D01*
X16110850Y1010410D01*
X16114780Y957500D01*
X16110850Y904580D01*
X16095100Y867540D01*
X16075410Y835780D01*
X16051790Y814620D01*
X16020290Y798750D01*
X15941560D01*
G01X14374630Y1433750D02*
Y1751250D01*
X14469120D01*
X14500610Y1735370D01*
X14524240Y1698330D01*
X14532110Y1656000D01*
X14524240Y1613670D01*
X14504550Y1581910D01*
X14469120Y1566030D01*
X14374630D01*
G01X14689590Y1751250D02*
Y1433750D01*
X14847070D01*
G01X14984860D02*
X15083290Y1751250D01*
X15181720Y1433750D01*
G01X15146280Y1544870D02*
X15020290D01*
G01X15398250Y1751250D02*
Y1433750D01*
G01X15307700Y1751250D02*
X15488800D01*
G01X15791950Y1433750D02*
X15634470D01*
Y1751250D01*
X15791950D01*
G01X15728960Y1597800D02*
X15634470D01*
G01X15941560Y1433750D02*
Y1751250D01*
X16020290D01*
X16051790Y1735370D01*
X16075410Y1714210D01*
X16095100Y1682460D01*
X16110850Y1645410D01*
X16114780Y1592500D01*
X16110850Y1539580D01*
X16095100Y1502540D01*
X16075410Y1470780D01*
X16051790Y1449620D01*
X16020290Y1433750D01*
X15941560D01*
G01X14374630Y2068750D02*
Y2386250D01*
X14469120D01*
X14500610Y2370370D01*
X14524240Y2333330D01*
X14532110Y2291000D01*
X14524240Y2248670D01*
X14504550Y2216910D01*
X14469120Y2201030D01*
X14374630D01*
G01X14689590Y2386250D02*
Y2068750D01*
X14847070D01*
G01X14984860D02*
X15083290Y2386250D01*
X15181720Y2068750D01*
G01X15146280Y2179870D02*
X15020290D01*
G01X15398250Y2386250D02*
Y2068750D01*
G01X15307700Y2386250D02*
X15488800D01*
G01X15791950Y2068750D02*
X15634470D01*
Y2386250D01*
X15791950D01*
G01X15728960Y2232800D02*
X15634470D01*
G01X15941560Y2068750D02*
Y2386250D01*
X16020290D01*
X16051790Y2370370D01*
X16075410Y2349210D01*
X16095100Y2317460D01*
X16110850Y2280410D01*
X16114780Y2227500D01*
X16110850Y2174580D01*
X16095100Y2137540D01*
X16075410Y2105780D01*
X16051790Y2084620D01*
X16020290Y2068750D01*
X15941560D01*
G01X14374630Y2703750D02*
Y3021250D01*
X14469120D01*
X14500610Y3005370D01*
X14524240Y2968330D01*
X14532110Y2926000D01*
X14524240Y2883670D01*
X14504550Y2851910D01*
X14469120Y2836030D01*
X14374630D01*
G01X14689590Y3021250D02*
Y2703750D01*
X14847070D01*
G01X14984860D02*
X15083290Y3021250D01*
X15181720Y2703750D01*
G01X15146280Y2814870D02*
X15020290D01*
G01X15398250Y3021250D02*
Y2703750D01*
G01X15307700Y3021250D02*
X15488800D01*
G01X15791950Y2703750D02*
X15634470D01*
Y3021250D01*
X15791950D01*
G01X15728960Y2867800D02*
X15634470D01*
G01X15941560Y2703750D02*
Y3021250D01*
X16020290D01*
X16051790Y3005370D01*
X16075410Y2984210D01*
X16095100Y2952460D01*
X16110850Y2915410D01*
X16114780Y2862500D01*
X16110850Y2809580D01*
X16095100Y2772540D01*
X16075410Y2740780D01*
X16051790Y2719620D01*
X16020290Y2703750D01*
X15941560D01*
G01X14374630Y3338750D02*
Y3656250D01*
X14469120D01*
X14500610Y3640370D01*
X14524240Y3603330D01*
X14532110Y3561000D01*
X14524240Y3518670D01*
X14504550Y3486910D01*
X14469120Y3471030D01*
X14374630D01*
G01X14689590Y3656250D02*
Y3338750D01*
X14847070D01*
G01X14984860D02*
X15083290Y3656250D01*
X15181720Y3338750D01*
G01X15146280Y3449870D02*
X15020290D01*
G01X15398250Y3656250D02*
Y3338750D01*
G01X15307700Y3656250D02*
X15488800D01*
G01X15791950Y3338750D02*
X15634470D01*
Y3656250D01*
X15791950D01*
G01X15728960Y3502800D02*
X15634470D01*
G01X15941560Y3338750D02*
Y3656250D01*
X16020290D01*
X16051790Y3640370D01*
X16075410Y3619210D01*
X16095100Y3587460D01*
X16110850Y3550410D01*
X16114780Y3497500D01*
X16110850Y3444580D01*
X16095100Y3407540D01*
X16075410Y3375780D01*
X16051790Y3354620D01*
X16020290Y3338750D01*
X15941560D01*
G01X16854940Y3815000D02*
Y5000D01*
G01X17886430Y163750D02*
Y481250D01*
X17740760Y253710D01*
X17937620D01*
G01X17606900Y1063330D02*
X17630530Y1095080D01*
X17658090Y1110960D01*
X17689590Y1116250D01*
X17728950Y1105670D01*
X17756520Y1079210D01*
X17764390Y1047460D01*
X17760450Y1015700D01*
X17744700Y989250D01*
X17665960Y936330D01*
X17630530Y899290D01*
X17606900Y846360D01*
X17599030Y798750D01*
X17764390D01*
G01X18043910D02*
Y1116250D01*
X17898240Y888710D01*
X18095100D01*
G01X17681710Y1433750D02*
Y1751250D01*
X17634470Y1687750D01*
G01Y1433750D02*
X17728950D01*
G01X18043910D02*
Y1751250D01*
X17898240Y1523710D01*
X18095100D01*
G01X17764380Y2333330D02*
X17788010Y2365080D01*
X17815570Y2380960D01*
X17847070Y2386250D01*
X17886430Y2375670D01*
X17914000Y2349210D01*
X17921870Y2317460D01*
X17917930Y2285700D01*
X17902180Y2259250D01*
X17823440Y2206330D01*
X17788010Y2169290D01*
X17764380Y2116360D01*
X17756510Y2068750D01*
X17921870D01*
G01X17524230Y2703750D02*
Y3021250D01*
X17476990Y2957750D01*
G01Y2703750D02*
X17571470D01*
G01X17839190Y3021250D02*
X17807690Y3010670D01*
X17784070Y2984210D01*
X17768320Y2952460D01*
X17756510Y2910120D01*
X17752580Y2862500D01*
X17756510Y2814870D01*
X17768320Y2772540D01*
X17784070Y2740780D01*
X17807690Y2714330D01*
X17839190Y2703750D01*
X17870680Y2714330D01*
X17894310Y2740780D01*
X17910060Y2772540D01*
X17921870Y2814870D01*
X17925800Y2862500D01*
X17921870Y2910120D01*
X17910060Y2952460D01*
X17894310Y2984210D01*
X17870680Y3010670D01*
X17839190Y3021250D01*
G01X18154150D02*
X18122650Y3010670D01*
X18099030Y2984210D01*
X18083280Y2952460D01*
X18071470Y2910120D01*
X18067540Y2862500D01*
X18071470Y2814870D01*
X18083280Y2772540D01*
X18099030Y2740780D01*
X18122650Y2714330D01*
X18154150Y2703750D01*
X18185640Y2714330D01*
X18209270Y2740780D01*
X18225020Y2772540D01*
X18236830Y2814870D01*
X18240760Y2862500D01*
X18236830Y2910120D01*
X18225020Y2952460D01*
X18209270Y2984210D01*
X18185640Y3010670D01*
X18154150Y3021250D01*
G01X17524230Y3338750D02*
X17492730Y3344040D01*
X17465180Y3365200D01*
X17441550Y3396960D01*
X17425800Y3434000D01*
X17417930Y3476330D01*
Y3518670D01*
X17425800Y3561000D01*
X17441550Y3598040D01*
X17465180Y3629790D01*
X17492730Y3650960D01*
X17524230Y3656250D01*
X17555720Y3650960D01*
X17583280Y3629790D01*
X17606910Y3598040D01*
X17622660Y3561000D01*
X17630530Y3518670D01*
Y3476330D01*
X17622660Y3434000D01*
X17606910Y3396960D01*
X17583280Y3365200D01*
X17555720Y3344040D01*
X17524230Y3338750D01*
G01X17555720Y3423420D02*
X17602970Y3338750D01*
G01X17839190Y3656250D02*
Y3338750D01*
G01X17748640Y3656250D02*
X17929740D01*
G01X18154150Y3338750D02*
Y3481620D01*
X18075410Y3656250D01*
G01X18232890D02*
X18154150Y3481620D01*
M02*
