M48
METRIC,TZ
T01C.3048
T02C.889
T03C1.2
T04C3.4036
;LEADER: 12 
;HEADER: 
;CODE  : ASCII 
;FILE  : MK60_MODULE_V10A-1-2.drl for board E:/GitHub/MINI-BLENDER/HARDWARE/MK60_MODULE_V10A/PCB/#Taaaaav11400.tmp ... layers TOP and BOTTOM
;T01 Holesize 1. = 0.304800 Tolerance = +0.000000/-0.000000 PLATED MM Quantity = 100
;T02 Holesize 2. = 0.889000 Tolerance = +0.000000/-0.000000 PLATED MM Quantity = 16
;T03 Holesize 3. = 1.200000 Tolerance = +0.000000/-0.000000 PLATED MM Quantity = 24
;T04 Holesize 4. = 3.403600 Tolerance = +0.000000/-0.000000 PLATED MM Quantity = 4
%
G90
T01
X60000Y1050000
X800000Y50000
X1031170Y683680
X1349170Y683680
X1731170Y683680
X1800000Y50000
X2049170Y683680
X2431170Y683680
X2749170Y683680
X2800000Y50000
X3363800Y266200
X3373800Y1236200
X3920000Y50000
X3981170Y443680
X4299170Y443680
X4800000Y50000
X4811170Y383680
X5129170Y383680
X5221170Y893680
X5539170Y893680
X6100000Y990000
X6100000Y2110000
X5909170Y2341680
X5909170Y1833680
X5591170Y2341680
X5591170Y1833680
X5083170Y2341680
X5083170Y1833680
X4600000Y1360000
X4289170Y1483680
X3971170Y1483680
X3480000Y1760000
X3370000Y2180000
X3039170Y2533680
X2949170Y2233680
X2899170Y1863680
X2721170Y2533680
X2631170Y2233680
X2581170Y1863680
X1969170Y2043680
X1959170Y1713680
X1890000Y1360000
X1651170Y2043680
X1641170Y1713680
X909170Y1983680
X733800Y2373800
X591170Y1983680
X569170Y2363680
X251170Y2363680
X60000Y2170000
X60000Y3170000
X241170Y3393680
X241170Y3753680
X251170Y2703680
X251170Y3053680
X559170Y3393680
X559170Y3753680
X569170Y2703680
X569170Y3053680
X1011170Y2963680
X1329170Y2963680
X1621170Y3263680
X1641170Y3743680
X1939170Y3263680
X1959170Y3743680
X2333680Y3570830
X2853680Y3570830
X3103680Y3570830
X3353680Y3560830
X3603680Y3570830
X4023170Y3607680
X4531170Y3607680
X5083170Y2849680
X5083170Y3357680
X5591170Y2849680
X5591170Y3357680
X5909170Y2849680
X5909170Y3357680
X6100000Y3110000
X6100000Y4110000
X5909170Y3865680
X5591170Y3865680
X5083170Y3865680
X5020000Y4840000
X4531170Y4115680
X4140000Y4840000
X4023170Y4115680
X3603680Y3888830
X3353680Y3878830
X3103680Y3888830
X3020000Y4840000
X2853680Y3888830
X2333680Y3888830
X2020000Y4840000
X1383680Y4638830
X1383680Y4320830
X1033680Y4618830
X1033680Y4300830
X1020000Y4840000
X60000Y4170000
T02
X1240000Y3259000
X1240000Y3513000
X1240000Y3767000
X1240000Y4021000
X1700000Y4630000
X1954000Y4630000
X2208000Y4630000
X2462000Y4630000
X2716000Y4630000
X2970000Y4630000
X3224000Y4630000
X3478000Y4630000
X3732000Y4630000
X3986000Y4630000
X4240000Y4630000
X4494000Y4630000
T03
X420000Y1200000
X420000Y1650000
X1060000Y1650000
X1060000Y1190000
X2460000Y1190000
X2460000Y1640000
X3100000Y1640000
X3100000Y1180000
X3800000Y220000
X3800000Y670000
X3800000Y1180000
X3800000Y1630000
X3800000Y2140000
X3800000Y2590000
X4440000Y2590000
X4440000Y2130000
X4440000Y1630000
X4440000Y1170000
X4440000Y670000
X4440000Y210000
X5140000Y1170000
X5140000Y1620000
X5780000Y1620000
X5780000Y1160000
T04
X330000Y330000
X330000Y4570000
X5870000Y4570000
X5870000Y330000
M30
