G04 ================== begin FILE IDENTIFICATION RECORD ==================*
G04 Layout Name:  MK60_MODULE_V10A.brd*
G04 Film Name:    SilkScreen_Top*
G04 File Format:  Gerber RS274X*
G04 File Origin:  Cadence Allegro 16.6-2015-S082*
G04 Origin Date:  Thu May 18 20:28:32 2017*
G04 *
G04 Layer:  BOARD GEOMETRY/OUTLINE*
G04 Layer:  REF DES/SILKSCREEN_TOP*
G04 Layer:  PACKAGE GEOMETRY/SILKSCREEN_TOP*
G04 Layer:  BOARD GEOMETRY/SILKSCREEN_TOP*
G04 *
G04 Offset:    (0.0000 0.0000)*
G04 Mirror:    No*
G04 Mode:      Positive*
G04 Rotation:  0*
G04 FullContactRelief:  No*
G04 UndefLineWidth:     0.1524*
G04 ================== end FILE IDENTIFICATION RECORD ====================*
%FSLAX55Y55*MOMM*%
%IR0*IPPOS*OFA0.00000B0.00000*MIA0B0*SFA1.00000B1.00000*%
%ADD10C,.2032*%
%ADD11C,.254*%
%ADD12C,.1524*%
%ADD13C,.3048*%
%ADD14C,.1778*%
G75*
%LPD*%
G75*
G36*
G01X1320000Y3129000D02*
X1370000D01*
Y3179000D01*
X1320000D01*
Y3129000D01*
G37*
G36*
G01X1520000Y4540000D02*
Y4460000D01*
X1610000D01*
Y4540000D01*
X1520000D01*
G37*
G54D10*
G01X1159700Y266500D02*
X880300D01*
Y393500D01*
X1159700D01*
G01X670300Y2536500D02*
Y2663500D01*
G01D02*
X949700D01*
Y2536500D01*
X670300D01*
G01Y2736500D02*
Y2863500D01*
G01D02*
X949700D01*
Y2736500D01*
X670300D01*
G01X949700Y3573500D02*
X670300D01*
G01Y3446500D02*
X949700D01*
G01X670300Y3573500D02*
G03Y3446500I71651J-63500D01*
G01X950040Y3958960D02*
X670640D01*
Y4085960D01*
X950040D01*
G01X949700Y3696500D02*
X670300D01*
Y3823500D01*
X949700D01*
G01X1159700Y393500D02*
Y266500D01*
G01X1290300Y1276500D02*
Y1403500D01*
G01D02*
X1569700D01*
Y1276500D01*
X1290300D01*
G01Y1426500D02*
X1569700D01*
G01X1287760D02*
G02Y1553500I73330J63500D01*
G01X1569700D02*
X1290300D01*
G01X1467800Y2688900D02*
X1112200D01*
Y2511100D01*
X1467800D01*
Y2688900D01*
G01Y2888900D02*
X1112200D01*
Y2711100D01*
X1467800D01*
Y2888900D01*
G01X952240Y3573500D02*
G02Y3446500I-73330J-63500D01*
G01X950040Y4085960D02*
Y3958960D01*
G01X949700Y3823500D02*
Y3696500D01*
G01X2229700Y1296500D02*
X1950300D01*
Y1423500D01*
X2229700D01*
G01X1950300Y1446500D02*
X2229700D01*
G01X1950300Y1573500D02*
G03Y1446500I71651J-63500D01*
G01X1569700Y1426500D02*
G03Y1553500I-71651J63500D01*
G01X2229700Y1573500D02*
X1950300D01*
G01X2229700Y1423500D02*
Y1296500D01*
G01X2232240Y1573500D02*
G02Y1446500I-73330J-63500D01*
G01X3579700Y433500D02*
Y306500D01*
G01D02*
X3300300D01*
Y433500D01*
X3579700D01*
G01Y583500D02*
X3300300D01*
G01Y456500D02*
X3579700D01*
G01X3582240Y583500D02*
G02Y456500I-73330J-63500D01*
G01X3300300Y583500D02*
G03Y456500I71651J-63500D01*
G01X3589700Y1403500D02*
Y1276500D01*
G01D02*
X3310300D01*
Y1403500D01*
X3589700D01*
G01X3310300Y1426500D02*
X3589700D01*
G01X3592240Y1553500D02*
G02Y1426500I-73330J-63500D01*
G01X3310300Y1553500D02*
G03Y1426500I71651J-63500D01*
G01X3589700Y1553500D02*
X3310300D01*
G01X3569700Y2353500D02*
Y2226500D01*
G01D02*
X3290300D01*
Y2353500D01*
X3569700D01*
G01Y2503500D02*
X3290300D01*
G01Y2376500D02*
X3569700D01*
G01X3572240Y2503500D02*
G02Y2376500I-73330J-63500D01*
G01X3290300Y2503500D02*
G03Y2376500I71651J-63500D01*
G01X4929700Y1256500D02*
X4650300D01*
Y1383500D01*
X4929700D01*
G01X4650300Y1406500D02*
X4929700D01*
G01X4650300Y1533500D02*
G03Y1406500I71651J-63500D01*
G01X4929700Y1533500D02*
X4650300D01*
G01X4929700Y1383500D02*
Y1256500D01*
G01X4932240Y1533500D02*
G02Y1406500I-73330J-63500D01*
G54D11*
G01X895100Y910000D02*
G03I-165100J0D01*
G01X1040000Y1120000D02*
X440000D01*
Y1720000D01*
X1040000D01*
Y1120000D01*
G01X892400Y1420000D02*
G03I-152400J0D01*
G01X943200Y1191400D02*
X536800D01*
G01X943200Y1648600D02*
X536800D01*
G01X1113000Y3040000D02*
X4913000D01*
Y4240000D01*
X1113000D01*
Y3040000D01*
G01X1367000Y3132000D02*
X1113000D01*
G01X1367000Y4148000D02*
Y3132000D01*
G01X1113000D02*
Y4148000D01*
G01D02*
X1367000D01*
G01X1650000Y4210000D02*
Y3070000D01*
X4590000D01*
Y4210000D01*
X1650000D01*
G01X3080000Y1110000D02*
X2480000D01*
Y1710000D01*
X3080000D01*
Y1110000D01*
G01X2983200Y1181400D02*
X2576800D01*
G01X2983200Y1638600D02*
X2576800D01*
G01X2932400Y1410000D02*
G03I-152400J0D01*
G01X4420000Y140000D02*
X3820000D01*
Y740000D01*
X4420000D01*
Y140000D01*
G01X4272400Y440000D02*
G03I-152400J0D01*
G01X4323200Y211400D02*
X3916800D01*
G01X4323200Y668600D02*
X3916800D01*
G01X4420000Y1100000D02*
X3820000D01*
Y1700000D01*
X4420000D01*
Y1100000D01*
G01X4272400Y1400000D02*
G03I-152400J0D01*
G01X4323200Y1171400D02*
X3916800D01*
G01X4323200Y1628600D02*
X3916800D01*
G01X4420000Y2060000D02*
X3820000D01*
Y2660000D01*
X4420000D01*
Y2060000D01*
G01X4272400Y2360000D02*
G03I-152400J0D01*
G01X4323200Y2131400D02*
X3916800D01*
G01X4323200Y2588600D02*
X3916800D01*
G01X5760000Y1090000D02*
X5160000D01*
Y1690000D01*
X5760000D01*
Y1090000D01*
G01X5612400Y1390000D02*
G03I-152400J0D01*
G01X5663200Y1161400D02*
X5256800D01*
G01X5663200Y1618600D02*
X5256800D01*
G01X5345100Y4570000D02*
G03I-165100J0D01*
G54D12*
G01X6200000Y330000D02*
Y4570000D01*
G03X5870000Y4900000I-330000J0D01*
G01X330000D01*
G03X0Y4570000I0J-330000D01*
G01Y330000D01*
G03X330000Y0I330000J0D01*
G01X5870000D01*
G03X6200000Y330000I0J330000D01*
G01X195330Y860000D02*
Y970000D01*
X230000Y878330D01*
X264670Y970000D01*
Y860000D01*
G01X293330D02*
Y970000D01*
X325330D01*
X336000Y964500D01*
X344000Y951670D01*
X346670Y937000D01*
X344000Y922330D01*
X337330Y911330D01*
X325330Y905830D01*
X293330D01*
G01X410000Y860000D02*
Y970000D01*
X394000Y948000D01*
G01Y860000D02*
X426000D01*
G01X380330Y2558400D02*
Y2668400D01*
X413670D01*
X424330Y2662900D01*
X431000Y2655570D01*
X433670Y2640900D01*
X431000Y2626230D01*
X423000Y2617070D01*
X413670Y2611570D01*
X380330D01*
G01X413670D02*
X433670Y2558400D01*
G01X474330Y2571230D02*
X483670Y2562070D01*
X494330Y2558400D01*
X505000Y2562070D01*
X514330Y2573060D01*
X521000Y2589570D01*
X523670Y2606070D01*
Y2626230D01*
X521000Y2642730D01*
X514330Y2657400D01*
X506330Y2664730D01*
X497000Y2668400D01*
X486330Y2664730D01*
X478330Y2657400D01*
X473000Y2646400D01*
X470330Y2631730D01*
X473000Y2618900D01*
X479670Y2606070D01*
X487670Y2598730D01*
X497000Y2596900D01*
X507670Y2600560D01*
X515670Y2609730D01*
X523670Y2626230D01*
G01X380330Y2758400D02*
Y2868400D01*
X413670D01*
X424330Y2862900D01*
X431000Y2855570D01*
X433670Y2840900D01*
X431000Y2826230D01*
X423000Y2817070D01*
X413670Y2811570D01*
X380330D01*
G01X413670D02*
X433670Y2758400D01*
G01X497000D02*
Y2868400D01*
X481000Y2846400D01*
G01Y2758400D02*
X513000D01*
G01X587000Y2868400D02*
X576330Y2864730D01*
X568330Y2855570D01*
X563000Y2844570D01*
X559000Y2829900D01*
X557670Y2813400D01*
X559000Y2796900D01*
X563000Y2782230D01*
X568330Y2771230D01*
X576330Y2762070D01*
X587000Y2758400D01*
X597670Y2762070D01*
X605670Y2771230D01*
X611000Y2782230D01*
X615000Y2796900D01*
X616330Y2813400D01*
X615000Y2829900D01*
X611000Y2844570D01*
X605670Y2855570D01*
X597670Y2864730D01*
X587000Y2868400D01*
G01X665330Y50000D02*
Y160000D01*
X700000Y68330D01*
X734670Y160000D01*
Y50000D01*
G01X762000D02*
Y160000D01*
G01X818000D02*
Y50000D01*
G01Y105000D02*
X762000D01*
G01X880000Y50000D02*
Y160000D01*
X864000Y138000D01*
G01Y50000D02*
X896000D01*
G01X906330Y431600D02*
Y541600D01*
X939670D01*
X950330Y536100D01*
X957000Y528770D01*
X959670Y514100D01*
X957000Y499430D01*
X949000Y490270D01*
X939670Y484770D01*
X906330D01*
G01X939670D02*
X959670Y431600D01*
G01X1023000D02*
Y541600D01*
X1007000Y519600D01*
G01Y431600D02*
X1039000D01*
G01X1113000D02*
Y541600D01*
X1097000Y519600D01*
G01Y431600D02*
X1129000D01*
G01X572000Y1824660D02*
X582670Y1815500D01*
X594670Y1810000D01*
X605330D01*
X616000Y1815500D01*
X624000Y1824660D01*
X628000Y1837500D01*
X625330Y1850330D01*
X618670Y1861330D01*
X606670Y1868670D01*
X590670Y1872330D01*
X581330Y1879670D01*
X577330Y1892500D01*
X580000Y1905330D01*
X586670Y1914500D01*
X596000Y1920000D01*
X605330D01*
X614670Y1916330D01*
X622670Y1907170D01*
G01X650000Y1920000D02*
X668670Y1810000D01*
X690000Y1920000D01*
X711330Y1810000D01*
X730000Y1920000D01*
G01X754670Y1855830D02*
X764000Y1868670D01*
X772000Y1876000D01*
X782670Y1879670D01*
X792000Y1876000D01*
X798670Y1868670D01*
X804000Y1857670D01*
X805330Y1844830D01*
X804000Y1833830D01*
X798670Y1822830D01*
X790670Y1813670D01*
X781330Y1810000D01*
X770670Y1813670D01*
X761330Y1824660D01*
X756000Y1841170D01*
X754670Y1859500D01*
X757330Y1883330D01*
X761330Y1896170D01*
X768000Y1909000D01*
X777330Y1918170D01*
X786670Y1920000D01*
X796000Y1916330D01*
X802670Y1907170D01*
G01X519330Y3580830D02*
X511330Y3586330D01*
X502000Y3590000D01*
X491330D01*
X479330Y3584500D01*
X470000Y3575330D01*
X463330Y3564330D01*
X458000Y3546000D01*
X456670Y3529500D01*
X459330Y3513000D01*
X463330Y3502000D01*
X471330Y3491000D01*
X480670Y3483670D01*
X490000Y3480000D01*
X499330D01*
X508670Y3483670D01*
X516670Y3489160D01*
X523330Y3496500D01*
G01X554670Y3571670D02*
X562670Y3582660D01*
X572000Y3588170D01*
X582670Y3590000D01*
X596000Y3586330D01*
X605330Y3577170D01*
X608000Y3566170D01*
X606670Y3555160D01*
X601330Y3546000D01*
X574670Y3527670D01*
X562670Y3514830D01*
X554670Y3496500D01*
X552000Y3480000D01*
X608000D01*
G01X913330Y4192000D02*
X920000Y4181000D01*
X928000Y4173670D01*
X937330Y4170000D01*
X948000Y4173670D01*
X956000Y4181000D01*
X964000Y4192000D01*
X966670Y4206670D01*
Y4280000D01*
G01X1030000Y4170000D02*
Y4280000D01*
X1014000Y4258000D01*
G01Y4170000D02*
X1046000D01*
G01X476670Y3994060D02*
Y4104060D01*
X510010D01*
X520670Y4098560D01*
X527340Y4091230D01*
X530010Y4076560D01*
X527340Y4061890D01*
X519340Y4052730D01*
X510010Y4047230D01*
X476670D01*
G01X510010D02*
X530010Y3994060D01*
G01X609340D02*
Y4104060D01*
X560010Y4025230D01*
X626670D01*
G01X476330Y3731600D02*
Y3841600D01*
X509670D01*
X520330Y3836100D01*
X527000Y3828770D01*
X529670Y3814100D01*
X527000Y3799430D01*
X519000Y3790270D01*
X509670Y3784770D01*
X476330D01*
G01X509670D02*
X529670Y3731600D01*
G01X563670Y3753600D02*
X571670Y3740760D01*
X582330Y3733430D01*
X594330Y3731600D01*
X605000Y3733430D01*
X615670Y3742600D01*
X622330Y3753600D01*
X623670Y3764600D01*
X621000Y3777430D01*
X611670Y3786600D01*
X602330Y3790270D01*
X590330D01*
G01X602330D02*
X610330Y3795770D01*
X617000Y3804930D01*
X619670Y3815930D01*
X617000Y3826930D01*
X610330Y3836100D01*
X598330Y3841600D01*
X586330Y3839770D01*
X574330Y3832430D01*
G01X696010Y4625880D02*
Y4735880D01*
X730680Y4644210D01*
X765350Y4735880D01*
Y4625880D01*
G01X792680D02*
Y4735880D01*
G01X848680D02*
Y4625880D01*
G01Y4680880D02*
X792680D01*
G01X926680Y4625880D02*
Y4735880D01*
X877350Y4657050D01*
X944010D01*
G01X1283330Y1000000D02*
Y1110000D01*
X1316670D01*
X1327330Y1104500D01*
X1334000Y1097170D01*
X1336670Y1082500D01*
X1334000Y1067830D01*
X1326000Y1058670D01*
X1316670Y1053170D01*
X1283330D01*
G01X1316670D02*
X1336670Y1000000D01*
G01X1400000D02*
X1409330Y1001830D01*
X1420000Y1007330D01*
X1426670Y1016500D01*
X1429330Y1029330D01*
X1426670Y1042160D01*
X1418670Y1053170D01*
X1406670Y1058670D01*
X1393330D01*
X1385330Y1062330D01*
X1378670Y1071500D01*
X1376000Y1084330D01*
X1380000Y1097170D01*
X1389330Y1106330D01*
X1400000Y1110000D01*
X1410670Y1106330D01*
X1420000Y1097170D01*
X1424000Y1084330D01*
X1421330Y1071500D01*
X1414670Y1062330D01*
X1406670Y1058670D01*
X1393330D01*
X1381330Y1053170D01*
X1373330Y1042160D01*
X1370670Y1029330D01*
X1373330Y1016500D01*
X1380000Y1007330D01*
X1390670Y1001830D01*
X1400000Y1000000D01*
G01X1339330Y1240830D02*
X1331330Y1246330D01*
X1322000Y1250000D01*
X1311330D01*
X1299330Y1244500D01*
X1290000Y1235330D01*
X1283330Y1224330D01*
X1278000Y1206000D01*
X1276670Y1189500D01*
X1279330Y1173000D01*
X1283330Y1162000D01*
X1291330Y1151000D01*
X1300670Y1143670D01*
X1310000Y1140000D01*
X1319330D01*
X1328670Y1143670D01*
X1336670Y1149160D01*
X1343330Y1156500D01*
G01X1397330Y1140000D02*
X1400000Y1163830D01*
X1404000Y1184000D01*
X1409330Y1202330D01*
X1416000Y1222500D01*
X1426670Y1250000D01*
X1373330D01*
G01X1313330Y4692000D02*
X1320000Y4681000D01*
X1328000Y4673670D01*
X1337330Y4670000D01*
X1348000Y4673670D01*
X1356000Y4681000D01*
X1364000Y4692000D01*
X1366670Y4706670D01*
Y4780000D01*
G01X1404670Y4761670D02*
X1412670Y4772660D01*
X1422000Y4778170D01*
X1432670Y4780000D01*
X1446000Y4776330D01*
X1455330Y4767170D01*
X1458000Y4756170D01*
X1456670Y4745160D01*
X1451330Y4736000D01*
X1424670Y4717670D01*
X1412670Y4704830D01*
X1404670Y4686500D01*
X1402000Y4670000D01*
X1458000D01*
G01X1963330Y1000000D02*
Y1110000D01*
X1996670D01*
X2007330Y1104500D01*
X2014000Y1097170D01*
X2016670Y1082500D01*
X2014000Y1067830D01*
X2006000Y1058670D01*
X1996670Y1053170D01*
X1963330D01*
G01X1996670D02*
X2016670Y1000000D01*
G01X2054670Y1091670D02*
X2062670Y1102660D01*
X2072000Y1108170D01*
X2082670Y1110000D01*
X2096000Y1106330D01*
X2105330Y1097170D01*
X2108000Y1086170D01*
X2106670Y1075160D01*
X2101330Y1066000D01*
X2074670Y1047670D01*
X2062670Y1034830D01*
X2054670Y1016500D01*
X2052000Y1000000D01*
X2108000D01*
G01X2019330Y1250830D02*
X2011330Y1256330D01*
X2002000Y1260000D01*
X1991330D01*
X1979330Y1254500D01*
X1970000Y1245330D01*
X1963330Y1234330D01*
X1958000Y1216000D01*
X1956670Y1199500D01*
X1959330Y1183000D01*
X1963330Y1172000D01*
X1971330Y1161000D01*
X1980670Y1153670D01*
X1990000Y1150000D01*
X1999330D01*
X2008670Y1153670D01*
X2016670Y1159160D01*
X2023330Y1166500D01*
G01X2050670Y1172000D02*
X2058670Y1159160D01*
X2069330Y1151830D01*
X2081330Y1150000D01*
X2092000Y1151830D01*
X2102670Y1161000D01*
X2109330Y1172000D01*
X2110670Y1183000D01*
X2108000Y1195830D01*
X2098670Y1205000D01*
X2089330Y1208670D01*
X2077330D01*
G01X2089330D02*
X2097330Y1214170D01*
X2104000Y1223330D01*
X2106670Y1234330D01*
X2104000Y1245330D01*
X2097330Y1254500D01*
X2085330Y1260000D01*
X2073330Y1258170D01*
X2061330Y1250830D01*
G01X1542870Y2547000D02*
Y2657000D01*
X1569530D01*
X1580200Y2651500D01*
X1588200Y2644170D01*
X1594870Y2633170D01*
X1600200Y2620330D01*
X1601530Y2602000D01*
X1600200Y2583670D01*
X1594870Y2570830D01*
X1588200Y2559830D01*
X1580200Y2552500D01*
X1569530Y2547000D01*
X1542870D01*
G01X1662200D02*
Y2657000D01*
X1646200Y2635000D01*
G01Y2547000D02*
X1678200D01*
G01X1542870Y2747000D02*
Y2857000D01*
X1569530D01*
X1580200Y2851500D01*
X1588200Y2844170D01*
X1594870Y2833170D01*
X1600200Y2820330D01*
X1601530Y2802000D01*
X1600200Y2783670D01*
X1594870Y2770830D01*
X1588200Y2759830D01*
X1580200Y2752500D01*
X1569530Y2747000D01*
X1542870D01*
G01X1636870Y2838670D02*
X1644870Y2849660D01*
X1654200Y2855170D01*
X1664870Y2857000D01*
X1678200Y2853330D01*
X1687530Y2844170D01*
X1690200Y2833170D01*
X1688870Y2822160D01*
X1683530Y2813000D01*
X1656870Y2794670D01*
X1644870Y2781830D01*
X1636870Y2763500D01*
X1634200Y2747000D01*
X1690200D01*
G01X1729330Y3350000D02*
Y3460000D01*
X1790670Y3350000D01*
Y3460000D01*
G01X1816670Y3350000D02*
X1850000Y3460000D01*
X1883330Y3350000D01*
G01X1871330Y3388500D02*
X1828670D01*
G01X1905330Y3350000D02*
Y3460000D01*
X1940000Y3368330D01*
X1974670Y3460000D01*
Y3350000D01*
G01X2056670D02*
X2003330D01*
Y3460000D01*
X2056670D01*
G01X2035330Y3406830D02*
X2003330D01*
G01X2120000Y3346330D02*
X2117330Y3348170D01*
Y3351830D01*
X2120000Y3353670D01*
X2122670Y3351830D01*
Y3348170D01*
X2120000Y3346330D01*
G01Y3395830D02*
X2117330Y3397670D01*
Y3401330D01*
X2120000Y3403170D01*
X2122670Y3401330D01*
Y3397670D01*
X2120000Y3395830D01*
G01X2175330Y3350000D02*
Y3460000D01*
X2210000Y3368330D01*
X2244670Y3460000D01*
Y3350000D01*
G01X2270670D02*
Y3460000D01*
G01X2321330D02*
X2270670Y3392160D01*
G01X2329330Y3350000D02*
X2293330Y3423330D01*
G01X2364670Y3395830D02*
X2374000Y3408670D01*
X2382000Y3416000D01*
X2392670Y3419670D01*
X2402000Y3416000D01*
X2408670Y3408670D01*
X2414000Y3397670D01*
X2415330Y3384830D01*
X2414000Y3373830D01*
X2408670Y3362830D01*
X2400670Y3353670D01*
X2391330Y3350000D01*
X2380670Y3353670D01*
X2371330Y3364660D01*
X2366000Y3381170D01*
X2364670Y3399500D01*
X2367330Y3423330D01*
X2371330Y3436170D01*
X2378000Y3449000D01*
X2387330Y3458170D01*
X2396670Y3460000D01*
X2406000Y3456330D01*
X2412670Y3447170D01*
G01X2480000Y3460000D02*
X2469330Y3456330D01*
X2461330Y3447170D01*
X2456000Y3436170D01*
X2452000Y3421500D01*
X2450670Y3405000D01*
X2452000Y3388500D01*
X2456000Y3373830D01*
X2461330Y3362830D01*
X2469330Y3353670D01*
X2480000Y3350000D01*
X2490670Y3353670D01*
X2498670Y3362830D01*
X2504000Y3373830D01*
X2508000Y3388500D01*
X2509330Y3405000D01*
X2508000Y3421500D01*
X2504000Y3436170D01*
X2498670Y3447170D01*
X2490670Y3456330D01*
X2480000Y3460000D01*
G01X2530000Y3313330D02*
X2610000D01*
G01X2625330Y3350000D02*
Y3460000D01*
X2660000Y3368330D01*
X2694670Y3460000D01*
Y3350000D01*
G01X2750000D02*
X2739330Y3351830D01*
X2730000Y3359160D01*
X2722000Y3370170D01*
X2716670Y3383000D01*
X2714000Y3397670D01*
Y3412330D01*
X2716670Y3427000D01*
X2722000Y3439830D01*
X2730000Y3450830D01*
X2739330Y3458170D01*
X2750000Y3460000D01*
X2760670Y3458170D01*
X2770000Y3450830D01*
X2778000Y3439830D01*
X2783330Y3427000D01*
X2786000Y3412330D01*
Y3397670D01*
X2783330Y3383000D01*
X2778000Y3370170D01*
X2770000Y3359160D01*
X2760670Y3351830D01*
X2750000Y3350000D01*
G01X2810670D02*
Y3460000D01*
X2837330D01*
X2848000Y3454500D01*
X2856000Y3447170D01*
X2862670Y3436170D01*
X2868000Y3423330D01*
X2869330Y3405000D01*
X2868000Y3386670D01*
X2862670Y3373830D01*
X2856000Y3362830D01*
X2848000Y3355500D01*
X2837330Y3350000D01*
X2810670D01*
G01X2900670Y3460000D02*
Y3381170D01*
X2906000Y3364660D01*
X2916670Y3353670D01*
X2930000Y3350000D01*
X2943330Y3353670D01*
X2954000Y3364660D01*
X2959330Y3381170D01*
Y3460000D01*
G01X2993330D02*
Y3350000D01*
X3046670D01*
G01X3136670D02*
X3083330D01*
Y3460000D01*
X3136670D01*
G01X3115330Y3406830D02*
X3083330D01*
G01X3160000Y3313330D02*
X3240000D01*
G01X3256670Y3460000D02*
X3290000Y3350000D01*
X3323330Y3460000D01*
G01X3380000Y3350000D02*
Y3460000D01*
X3364000Y3438000D01*
G01Y3350000D02*
X3396000D01*
G01X3470000Y3460000D02*
X3459330Y3456330D01*
X3451330Y3447170D01*
X3446000Y3436170D01*
X3442000Y3421500D01*
X3440670Y3405000D01*
X3442000Y3388500D01*
X3446000Y3373830D01*
X3451330Y3362830D01*
X3459330Y3353670D01*
X3470000Y3350000D01*
X3480670Y3353670D01*
X3488670Y3362830D01*
X3494000Y3373830D01*
X3498000Y3388500D01*
X3499330Y3405000D01*
X3498000Y3421500D01*
X3494000Y3436170D01*
X3488670Y3447170D01*
X3480670Y3456330D01*
X3470000Y3460000D01*
G01X3526670Y3350000D02*
X3560000Y3460000D01*
X3593330Y3350000D01*
G01X3581330Y3388500D02*
X3538670D01*
G01X3650000Y3346330D02*
X3647330Y3348170D01*
Y3351830D01*
X3650000Y3353670D01*
X3652670Y3351830D01*
Y3348170D01*
X3650000Y3346330D01*
G01X3750670Y3408670D02*
X3756000Y3414170D01*
X3760000Y3423330D01*
X3762670Y3436170D01*
X3760000Y3447170D01*
X3754670Y3454500D01*
X3745330Y3460000D01*
X3709330D01*
Y3350000D01*
X3753330D01*
X3762670Y3357330D01*
X3768000Y3368330D01*
X3770670Y3381170D01*
X3768000Y3394000D01*
X3760000Y3405000D01*
X3750670Y3408670D01*
X3709330D01*
G01X3803330Y3350000D02*
Y3460000D01*
X3836670D01*
X3847330Y3454500D01*
X3854000Y3447170D01*
X3856670Y3432500D01*
X3854000Y3417830D01*
X3846000Y3408670D01*
X3836670Y3403170D01*
X3803330D01*
G01X3836670D02*
X3856670Y3350000D01*
G01X3890670D02*
Y3460000D01*
X3917330D01*
X3928000Y3454500D01*
X3936000Y3447170D01*
X3942670Y3436170D01*
X3948000Y3423330D01*
X3949330Y3405000D01*
X3948000Y3386670D01*
X3942670Y3373830D01*
X3936000Y3362830D01*
X3928000Y3355500D01*
X3917330Y3350000D01*
X3890670D01*
G01X1730670Y3150000D02*
Y3260000D01*
X1757330D01*
X1768000Y3254500D01*
X1776000Y3247170D01*
X1782670Y3236170D01*
X1788000Y3223330D01*
X1789330Y3205000D01*
X1788000Y3186670D01*
X1782670Y3173830D01*
X1776000Y3162830D01*
X1768000Y3155500D01*
X1757330Y3150000D01*
X1730670D01*
G01X1816670D02*
X1850000Y3260000D01*
X1883330Y3150000D01*
G01X1871330Y3188500D02*
X1828670D01*
G01X1940000Y3260000D02*
Y3150000D01*
G01X1909330Y3260000D02*
X1970670D01*
G01X2056670Y3150000D02*
X2003330D01*
Y3260000D01*
X2056670D01*
G01X2035330Y3206830D02*
X2003330D01*
G01X2120000Y3146330D02*
X2117330Y3148170D01*
Y3151830D01*
X2120000Y3153670D01*
X2122670Y3151830D01*
Y3148170D01*
X2120000Y3146330D01*
G01Y3195830D02*
X2117330Y3197670D01*
Y3201330D01*
X2120000Y3203170D01*
X2122670Y3201330D01*
Y3197670D01*
X2120000Y3195830D01*
G01X2184670Y3241670D02*
X2192670Y3252660D01*
X2202000Y3258170D01*
X2212670Y3260000D01*
X2226000Y3256330D01*
X2235330Y3247170D01*
X2238000Y3236170D01*
X2236670Y3225160D01*
X2231330Y3216000D01*
X2204670Y3197670D01*
X2192670Y3184830D01*
X2184670Y3166500D01*
X2182000Y3150000D01*
X2238000D01*
G01X2300000Y3260000D02*
X2289330Y3256330D01*
X2281330Y3247170D01*
X2276000Y3236170D01*
X2272000Y3221500D01*
X2270670Y3205000D01*
X2272000Y3188500D01*
X2276000Y3173830D01*
X2281330Y3162830D01*
X2289330Y3153670D01*
X2300000Y3150000D01*
X2310670Y3153670D01*
X2318670Y3162830D01*
X2324000Y3173830D01*
X2328000Y3188500D01*
X2329330Y3205000D01*
X2328000Y3221500D01*
X2324000Y3236170D01*
X2318670Y3247170D01*
X2310670Y3256330D01*
X2300000Y3260000D01*
G01X2390000Y3150000D02*
Y3260000D01*
X2374000Y3238000D01*
G01Y3150000D02*
X2406000D01*
G01X2477330D02*
X2480000Y3173830D01*
X2484000Y3194000D01*
X2489330Y3212330D01*
X2496000Y3232500D01*
X2506670Y3260000D01*
X2453330D01*
G01X2530000Y3113330D02*
X2610000D01*
G01X2660000Y3260000D02*
X2649330Y3256330D01*
X2641330Y3247170D01*
X2636000Y3236170D01*
X2632000Y3221500D01*
X2630670Y3205000D01*
X2632000Y3188500D01*
X2636000Y3173830D01*
X2641330Y3162830D01*
X2649330Y3153670D01*
X2660000Y3150000D01*
X2670670Y3153670D01*
X2678670Y3162830D01*
X2684000Y3173830D01*
X2688000Y3188500D01*
X2689330Y3205000D01*
X2688000Y3221500D01*
X2684000Y3236170D01*
X2678670Y3247170D01*
X2670670Y3256330D01*
X2660000Y3260000D01*
G01X2720670Y3166500D02*
X2728670Y3157330D01*
X2738000Y3151830D01*
X2750000Y3150000D01*
X2762000Y3153670D01*
X2771330Y3161000D01*
X2778000Y3173830D01*
X2779330Y3188500D01*
X2776670Y3203170D01*
X2770000Y3212330D01*
X2760670Y3219670D01*
X2751330Y3221500D01*
X2742000Y3219670D01*
X2730000Y3212330D01*
X2734000Y3260000D01*
X2770000D01*
G01X2800000Y3113330D02*
X2880000D01*
G01X2930000Y3150000D02*
Y3260000D01*
X2914000Y3238000D01*
G01Y3150000D02*
X2946000D01*
G01X3020000D02*
X3029330Y3151830D01*
X3040000Y3157330D01*
X3046670Y3166500D01*
X3049330Y3179330D01*
X3046670Y3192160D01*
X3038670Y3203170D01*
X3026670Y3208670D01*
X3013330D01*
X3005330Y3212330D01*
X2998670Y3221500D01*
X2996000Y3234330D01*
X3000000Y3247170D01*
X3009330Y3256330D01*
X3020000Y3260000D01*
X3030670Y3256330D01*
X3040000Y3247170D01*
X3044000Y3234330D01*
X3041330Y3221500D01*
X3034670Y3212330D01*
X3026670Y3208670D01*
X3013330D01*
X3001330Y3203170D01*
X2993330Y3192160D01*
X2990670Y3179330D01*
X2993330Y3166500D01*
X3000000Y3157330D01*
X3010670Y3151830D01*
X3020000Y3150000D01*
G01X1542000Y4304660D02*
X1552670Y4295500D01*
X1564670Y4290000D01*
X1575330D01*
X1586000Y4295500D01*
X1594000Y4304660D01*
X1598000Y4317500D01*
X1595330Y4330330D01*
X1588670Y4341330D01*
X1576670Y4348670D01*
X1560670Y4352330D01*
X1551330Y4359670D01*
X1547330Y4372500D01*
X1550000Y4385330D01*
X1556670Y4394500D01*
X1566000Y4400000D01*
X1575330D01*
X1584670Y4396330D01*
X1592670Y4387170D01*
G01X1689330Y4390830D02*
X1681330Y4396330D01*
X1672000Y4400000D01*
X1661330D01*
X1649330Y4394500D01*
X1640000Y4385330D01*
X1633330Y4374330D01*
X1628000Y4356000D01*
X1626670Y4339500D01*
X1629330Y4323000D01*
X1633330Y4312000D01*
X1641330Y4301000D01*
X1650670Y4293670D01*
X1660000Y4290000D01*
X1669330D01*
X1678670Y4293670D01*
X1686670Y4299160D01*
X1693330Y4306500D01*
G01X1723330Y4400000D02*
Y4290000D01*
X1776670D01*
G01X1842000Y4304660D02*
X1852670Y4295500D01*
X1864670Y4290000D01*
X1875330D01*
X1886000Y4295500D01*
X1894000Y4304660D01*
X1898000Y4317500D01*
X1895330Y4330330D01*
X1888670Y4341330D01*
X1876670Y4348670D01*
X1860670Y4352330D01*
X1851330Y4359670D01*
X1847330Y4372500D01*
X1850000Y4385330D01*
X1856670Y4394500D01*
X1866000Y4400000D01*
X1875330D01*
X1884670Y4396330D01*
X1892670Y4387170D01*
G01X1930670Y4290000D02*
Y4400000D01*
X1957330D01*
X1968000Y4394500D01*
X1976000Y4387170D01*
X1982670Y4376170D01*
X1988000Y4363330D01*
X1989330Y4345000D01*
X1988000Y4326670D01*
X1982670Y4313830D01*
X1976000Y4302830D01*
X1968000Y4295500D01*
X1957330Y4290000D01*
X1930670D01*
G01X2016670D02*
X2050000Y4400000D01*
X2083330Y4290000D01*
G01X2071330Y4328500D02*
X2028670D01*
G01X2562000Y1814660D02*
X2572670Y1805500D01*
X2584670Y1800000D01*
X2595330D01*
X2606000Y1805500D01*
X2614000Y1814660D01*
X2618000Y1827500D01*
X2615330Y1840330D01*
X2608670Y1851330D01*
X2596670Y1858670D01*
X2580670Y1862330D01*
X2571330Y1869670D01*
X2567330Y1882500D01*
X2570000Y1895330D01*
X2576670Y1904500D01*
X2586000Y1910000D01*
X2595330D01*
X2604670Y1906330D01*
X2612670Y1897170D01*
G01X2640000Y1910000D02*
X2658670Y1800000D01*
X2680000Y1910000D01*
X2701330Y1800000D01*
X2720000Y1910000D01*
G01X2744670Y1891670D02*
X2752670Y1902660D01*
X2762000Y1908170D01*
X2772670Y1910000D01*
X2786000Y1906330D01*
X2795330Y1897170D01*
X2798000Y1886170D01*
X2796670Y1875160D01*
X2791330Y1866000D01*
X2764670Y1847670D01*
X2752670Y1834830D01*
X2744670Y1816500D01*
X2742000Y1800000D01*
X2798000D01*
G01X2140670Y4290000D02*
Y4400000D01*
X2167330D01*
X2178000Y4394500D01*
X2186000Y4387170D01*
X2192670Y4376170D01*
X2198000Y4363330D01*
X2199330Y4345000D01*
X2198000Y4326670D01*
X2192670Y4313830D01*
X2186000Y4302830D01*
X2178000Y4295500D01*
X2167330Y4290000D01*
X2140670D01*
G01X2260000D02*
Y4400000D01*
X2244000Y4378000D01*
G01Y4290000D02*
X2276000D01*
G01X2400670D02*
Y4400000D01*
X2427330D01*
X2438000Y4394500D01*
X2446000Y4387170D01*
X2452670Y4376170D01*
X2458000Y4363330D01*
X2459330Y4345000D01*
X2458000Y4326670D01*
X2452670Y4313830D01*
X2446000Y4302830D01*
X2438000Y4295500D01*
X2427330Y4290000D01*
X2400670D01*
G01X2520000Y4400000D02*
X2509330Y4396330D01*
X2501330Y4387170D01*
X2496000Y4376170D01*
X2492000Y4361500D01*
X2490670Y4345000D01*
X2492000Y4328500D01*
X2496000Y4313830D01*
X2501330Y4302830D01*
X2509330Y4293670D01*
X2520000Y4290000D01*
X2530670Y4293670D01*
X2538670Y4302830D01*
X2544000Y4313830D01*
X2548000Y4328500D01*
X2549330Y4345000D01*
X2548000Y4361500D01*
X2544000Y4376170D01*
X2538670Y4387170D01*
X2530670Y4396330D01*
X2520000Y4400000D01*
G01X2640670Y4290000D02*
Y4400000D01*
G01X2691330D02*
X2640670Y4332160D01*
G01X2699330Y4290000D02*
X2663330Y4363330D01*
G01X2760000Y4400000D02*
X2749330Y4396330D01*
X2741330Y4387170D01*
X2736000Y4376170D01*
X2732000Y4361500D01*
X2730670Y4345000D01*
X2732000Y4328500D01*
X2736000Y4313830D01*
X2741330Y4302830D01*
X2749330Y4293670D01*
X2760000Y4290000D01*
X2770670Y4293670D01*
X2778670Y4302830D01*
X2784000Y4313830D01*
X2788000Y4328500D01*
X2789330Y4345000D01*
X2788000Y4361500D01*
X2784000Y4376170D01*
X2778670Y4387170D01*
X2770670Y4396330D01*
X2760000Y4400000D01*
G01X2900670Y4290000D02*
Y4400000D01*
G01X2951330D02*
X2900670Y4332160D01*
G01X2959330Y4290000D02*
X2923330Y4363330D01*
G01X3020000Y4290000D02*
Y4400000D01*
X3004000Y4378000D01*
G01Y4290000D02*
X3036000D01*
G01X3323330Y20000D02*
Y130000D01*
X3356670D01*
X3367330Y124500D01*
X3374000Y117170D01*
X3376670Y102500D01*
X3374000Y87830D01*
X3366000Y78670D01*
X3356670Y73170D01*
X3323330D01*
G01X3356670D02*
X3376670Y20000D01*
G01X3410670Y36500D02*
X3418670Y27330D01*
X3428000Y21830D01*
X3440000Y20000D01*
X3452000Y23670D01*
X3461330Y31000D01*
X3468000Y43830D01*
X3469330Y58500D01*
X3466670Y73170D01*
X3460000Y82330D01*
X3450670Y89670D01*
X3441330Y91500D01*
X3432000Y89670D01*
X3420000Y82330D01*
X3424000Y130000D01*
X3460000D01*
G01X3370730Y262430D02*
X3362730Y267930D01*
X3353400Y271600D01*
X3342730D01*
X3330730Y266100D01*
X3321400Y256930D01*
X3314730Y245930D01*
X3309400Y227600D01*
X3308070Y211100D01*
X3310730Y194600D01*
X3314730Y183600D01*
X3322730Y172600D01*
X3332070Y165270D01*
X3341400Y161600D01*
X3350730D01*
X3360070Y165270D01*
X3368070Y170760D01*
X3374730Y178100D01*
G01X3447400Y161600D02*
Y271600D01*
X3398070Y192770D01*
X3464730D01*
G01X3333330Y990000D02*
Y1100000D01*
X3366670D01*
X3377330Y1094500D01*
X3384000Y1087170D01*
X3386670Y1072500D01*
X3384000Y1057830D01*
X3376000Y1048670D01*
X3366670Y1043170D01*
X3333330D01*
G01X3366670D02*
X3386670Y990000D01*
G01X3447330D02*
X3450000Y1013830D01*
X3454000Y1034000D01*
X3459330Y1052330D01*
X3466000Y1072500D01*
X3476670Y1100000D01*
X3423330D01*
G01X3380730Y1232430D02*
X3372730Y1237930D01*
X3363400Y1241600D01*
X3352730D01*
X3340730Y1236100D01*
X3331400Y1226930D01*
X3324730Y1215930D01*
X3319400Y1197600D01*
X3318070Y1181100D01*
X3320730Y1164600D01*
X3324730Y1153600D01*
X3332730Y1142600D01*
X3342070Y1135270D01*
X3351400Y1131600D01*
X3360730D01*
X3370070Y1135270D01*
X3378070Y1140760D01*
X3384730Y1148100D01*
G01X3416070Y1177430D02*
X3425400Y1190270D01*
X3433400Y1197600D01*
X3444070Y1201270D01*
X3453400Y1197600D01*
X3460070Y1190270D01*
X3465400Y1179270D01*
X3466730Y1166430D01*
X3465400Y1155430D01*
X3460070Y1144430D01*
X3452070Y1135270D01*
X3442730Y1131600D01*
X3432070Y1135270D01*
X3422730Y1146260D01*
X3417400Y1162770D01*
X3416070Y1181100D01*
X3418730Y1204930D01*
X3422730Y1217770D01*
X3429400Y1230600D01*
X3438730Y1239770D01*
X3448070Y1241600D01*
X3457400Y1237930D01*
X3464070Y1228770D01*
G01X3303330Y1940000D02*
Y2050000D01*
X3336670D01*
X3347330Y2044500D01*
X3354000Y2037170D01*
X3356670Y2022500D01*
X3354000Y2007830D01*
X3346000Y1998670D01*
X3336670Y1993170D01*
X3303330D01*
G01X3336670D02*
X3356670Y1940000D01*
G01X3420000D02*
Y2050000D01*
X3404000Y2028000D01*
G01Y1940000D02*
X3436000D01*
G01X3360730Y2182430D02*
X3352730Y2187930D01*
X3343400Y2191600D01*
X3332730D01*
X3320730Y2186100D01*
X3311400Y2176930D01*
X3304730Y2165930D01*
X3299400Y2147600D01*
X3298070Y2131100D01*
X3300730Y2114600D01*
X3304730Y2103600D01*
X3312730Y2092600D01*
X3322070Y2085270D01*
X3331400Y2081600D01*
X3340730D01*
X3350070Y2085270D01*
X3358070Y2090760D01*
X3364730Y2098100D01*
G01X3421400Y2081600D02*
Y2191600D01*
X3405400Y2169600D01*
G01Y2081600D02*
X3437400D01*
G01X3140670Y4290000D02*
Y4400000D01*
G01X3191330D02*
X3140670Y4332160D01*
G01X3199330Y4290000D02*
X3163330Y4363330D01*
G01X3234670Y4381670D02*
X3242670Y4392660D01*
X3252000Y4398170D01*
X3262670Y4400000D01*
X3276000Y4396330D01*
X3285330Y4387170D01*
X3288000Y4376170D01*
X3286670Y4365160D01*
X3281330Y4356000D01*
X3254670Y4337670D01*
X3242670Y4324830D01*
X3234670Y4306500D01*
X3232000Y4290000D01*
X3288000D01*
G01X3640670D02*
Y4400000D01*
G01X3691330D02*
X3640670Y4332160D01*
G01X3699330Y4290000D02*
X3663330Y4363330D01*
G01X3776000Y4290000D02*
Y4400000D01*
X3726670Y4321170D01*
X3793330D01*
G01X3380670Y4290000D02*
Y4400000D01*
G01X3431330D02*
X3380670Y4332160D01*
G01X3439330Y4290000D02*
X3403330Y4363330D01*
G01X3470670Y4312000D02*
X3478670Y4299160D01*
X3489330Y4291830D01*
X3501330Y4290000D01*
X3512000Y4291830D01*
X3522670Y4301000D01*
X3529330Y4312000D01*
X3530670Y4323000D01*
X3528000Y4335830D01*
X3518670Y4345000D01*
X3509330Y4348670D01*
X3497330D01*
G01X3509330D02*
X3517330Y4354170D01*
X3524000Y4363330D01*
X3526670Y4374330D01*
X3524000Y4385330D01*
X3517330Y4394500D01*
X3505330Y4400000D01*
X3493330Y4398170D01*
X3481330Y4390830D01*
G01X3914800Y800860D02*
X3925470Y791700D01*
X3937470Y786200D01*
X3948130D01*
X3958800Y791700D01*
X3966800Y800860D01*
X3970800Y813700D01*
X3968130Y826530D01*
X3961470Y837530D01*
X3949470Y844870D01*
X3933470Y848530D01*
X3924130Y855870D01*
X3920130Y868700D01*
X3922800Y881530D01*
X3929470Y890700D01*
X3938800Y896200D01*
X3948130D01*
X3957470Y892530D01*
X3965470Y883370D01*
G01X3992800Y896200D02*
X4011470Y786200D01*
X4032800Y896200D01*
X4054130Y786200D01*
X4072800Y896200D01*
G01X4093470Y808200D02*
X4101470Y795360D01*
X4112130Y788030D01*
X4124130Y786200D01*
X4134800Y788030D01*
X4145470Y797200D01*
X4152130Y808200D01*
X4153470Y819200D01*
X4150800Y832030D01*
X4141470Y841200D01*
X4132130Y844870D01*
X4120130D01*
G01X4132130D02*
X4140130Y850370D01*
X4146800Y859530D01*
X4149470Y870530D01*
X4146800Y881530D01*
X4140130Y890700D01*
X4128130Y896200D01*
X4116130Y894370D01*
X4104130Y887030D01*
G01X3914800Y1760860D02*
X3925470Y1751700D01*
X3937470Y1746200D01*
X3948130D01*
X3958800Y1751700D01*
X3966800Y1760860D01*
X3970800Y1773700D01*
X3968130Y1786530D01*
X3961470Y1797530D01*
X3949470Y1804870D01*
X3933470Y1808530D01*
X3924130Y1815870D01*
X3920130Y1828700D01*
X3922800Y1841530D01*
X3929470Y1850700D01*
X3938800Y1856200D01*
X3948130D01*
X3957470Y1852530D01*
X3965470Y1843370D01*
G01X3992800Y1856200D02*
X4011470Y1746200D01*
X4032800Y1856200D01*
X4054130Y1746200D01*
X4072800Y1856200D01*
G01X4093470Y1762700D02*
X4101470Y1753530D01*
X4110800Y1748030D01*
X4122800Y1746200D01*
X4134800Y1749870D01*
X4144130Y1757200D01*
X4150800Y1770030D01*
X4152130Y1784700D01*
X4149470Y1799370D01*
X4142800Y1808530D01*
X4133470Y1815870D01*
X4124130Y1817700D01*
X4114800Y1815870D01*
X4102800Y1808530D01*
X4106800Y1856200D01*
X4142800D01*
G01X3914800Y2720860D02*
X3925470Y2711700D01*
X3937470Y2706200D01*
X3948130D01*
X3958800Y2711700D01*
X3966800Y2720860D01*
X3970800Y2733700D01*
X3968130Y2746530D01*
X3961470Y2757530D01*
X3949470Y2764870D01*
X3933470Y2768530D01*
X3924130Y2775870D01*
X3920130Y2788700D01*
X3922800Y2801530D01*
X3929470Y2810700D01*
X3938800Y2816200D01*
X3948130D01*
X3957470Y2812530D01*
X3965470Y2803370D01*
G01X3992800Y2816200D02*
X4011470Y2706200D01*
X4032800Y2816200D01*
X4054130Y2706200D01*
X4072800Y2816200D01*
G01X4122800Y2706200D02*
Y2816200D01*
X4106800Y2794200D01*
G01Y2706200D02*
X4138800D01*
G01X4158000Y4345000D02*
X4184670D01*
Y4312000D01*
X4176670Y4301000D01*
X4167330Y4293670D01*
X4154000Y4290000D01*
X4140670Y4293670D01*
X4131330Y4301000D01*
X4123330Y4312000D01*
X4118000Y4324830D01*
X4115330Y4339500D01*
Y4352330D01*
X4118000Y4363330D01*
X4123330Y4376170D01*
X4131330Y4387170D01*
X4139330Y4394500D01*
X4150000Y4400000D01*
X4159330D01*
X4170000Y4396330D01*
X4178000Y4389000D01*
G01X4209330Y4290000D02*
Y4400000D01*
X4270670Y4290000D01*
Y4400000D01*
G01X4300670Y4290000D02*
Y4400000D01*
X4327330D01*
X4338000Y4394500D01*
X4346000Y4387170D01*
X4352670Y4376170D01*
X4358000Y4363330D01*
X4359330Y4345000D01*
X4358000Y4326670D01*
X4352670Y4313830D01*
X4346000Y4302830D01*
X4338000Y4295500D01*
X4327330Y4290000D01*
X4300670D01*
G01X3910670D02*
Y4400000D01*
G01X3961330D02*
X3910670Y4332160D01*
G01X3969330Y4290000D02*
X3933330Y4363330D01*
G01X4000670Y4306500D02*
X4008670Y4297330D01*
X4018000Y4291830D01*
X4030000Y4290000D01*
X4042000Y4293670D01*
X4051330Y4301000D01*
X4058000Y4313830D01*
X4059330Y4328500D01*
X4056670Y4343170D01*
X4050000Y4352330D01*
X4040670Y4359670D01*
X4031330Y4361500D01*
X4022000Y4359670D01*
X4010000Y4352330D01*
X4014000Y4400000D01*
X4050000D01*
G01X4653330Y930000D02*
Y1040000D01*
X4686670D01*
X4697330Y1034500D01*
X4704000Y1027170D01*
X4706670Y1012500D01*
X4704000Y997830D01*
X4696000Y988670D01*
X4686670Y983170D01*
X4653330D01*
G01X4686670D02*
X4706670Y930000D01*
G01X4744670Y975830D02*
X4754000Y988670D01*
X4762000Y996000D01*
X4772670Y999670D01*
X4782000Y996000D01*
X4788670Y988670D01*
X4794000Y977670D01*
X4795330Y964830D01*
X4794000Y953830D01*
X4788670Y942830D01*
X4780670Y933670D01*
X4771330Y930000D01*
X4760670Y933670D01*
X4751330Y944660D01*
X4746000Y961170D01*
X4744670Y979500D01*
X4747330Y1003330D01*
X4751330Y1016170D01*
X4758000Y1029000D01*
X4767330Y1038170D01*
X4776670Y1040000D01*
X4786000Y1036330D01*
X4792670Y1027170D01*
G01X4709330Y1180830D02*
X4701330Y1186330D01*
X4692000Y1190000D01*
X4681330D01*
X4669330Y1184500D01*
X4660000Y1175330D01*
X4653330Y1164330D01*
X4648000Y1146000D01*
X4646670Y1129500D01*
X4649330Y1113000D01*
X4653330Y1102000D01*
X4661330Y1091000D01*
X4670670Y1083670D01*
X4680000Y1080000D01*
X4689330D01*
X4698670Y1083670D01*
X4706670Y1089160D01*
X4713330Y1096500D01*
G01X4740670D02*
X4748670Y1087330D01*
X4758000Y1081830D01*
X4770000Y1080000D01*
X4782000Y1083670D01*
X4791330Y1091000D01*
X4798000Y1103830D01*
X4799330Y1118500D01*
X4796670Y1133170D01*
X4790000Y1142330D01*
X4780670Y1149670D01*
X4771330Y1151500D01*
X4762000Y1149670D01*
X4750000Y1142330D01*
X4754000Y1190000D01*
X4790000D01*
G01X4410670Y4312000D02*
X4418670Y4299160D01*
X4429330Y4291830D01*
X4441330Y4290000D01*
X4452000Y4291830D01*
X4462670Y4301000D01*
X4469330Y4312000D01*
X4470670Y4323000D01*
X4468000Y4335830D01*
X4458670Y4345000D01*
X4449330Y4348670D01*
X4437330D01*
G01X4449330D02*
X4457330Y4354170D01*
X4464000Y4363330D01*
X4466670Y4374330D01*
X4464000Y4385330D01*
X4457330Y4394500D01*
X4445330Y4400000D01*
X4433330Y4398170D01*
X4421330Y4390830D01*
G01X4496670Y4400000D02*
X4530000Y4290000D01*
X4563330Y4400000D01*
G01X4590670Y4312000D02*
X4598670Y4299160D01*
X4609330Y4291830D01*
X4621330Y4290000D01*
X4632000Y4291830D01*
X4642670Y4301000D01*
X4649330Y4312000D01*
X4650670Y4323000D01*
X4648000Y4335830D01*
X4638670Y4345000D01*
X4629330Y4348670D01*
X4617330D01*
G01X4629330D02*
X4637330Y4354170D01*
X4644000Y4363330D01*
X4646670Y4374330D01*
X4644000Y4385330D01*
X4637330Y4394500D01*
X4625330Y4400000D01*
X4613330Y4398170D01*
X4601330Y4390830D01*
G01X5302000Y1754660D02*
X5312670Y1745500D01*
X5324670Y1740000D01*
X5335330D01*
X5346000Y1745500D01*
X5354000Y1754660D01*
X5358000Y1767500D01*
X5355330Y1780330D01*
X5348670Y1791330D01*
X5336670Y1798670D01*
X5320670Y1802330D01*
X5311330Y1809670D01*
X5307330Y1822500D01*
X5310000Y1835330D01*
X5316670Y1844500D01*
X5326000Y1850000D01*
X5335330D01*
X5344670Y1846330D01*
X5352670Y1837170D01*
G01X5380000Y1850000D02*
X5398670Y1740000D01*
X5420000Y1850000D01*
X5441330Y1740000D01*
X5460000Y1850000D01*
G01X5526000Y1740000D02*
Y1850000D01*
X5476670Y1771170D01*
X5543330D01*
G01X5121830Y4747800D02*
Y4857800D01*
X5156500Y4766130D01*
X5191170Y4857800D01*
Y4747800D01*
G01X5219830D02*
Y4857800D01*
X5251830D01*
X5262500Y4852300D01*
X5270500Y4839470D01*
X5273170Y4824800D01*
X5270500Y4810130D01*
X5263830Y4799130D01*
X5251830Y4793630D01*
X5219830D01*
G01X5311170Y4839470D02*
X5319170Y4850460D01*
X5328500Y4855970D01*
X5339170Y4857800D01*
X5352500Y4854130D01*
X5361830Y4844970D01*
X5364500Y4833970D01*
X5363170Y4822960D01*
X5357830Y4813800D01*
X5331170Y4795470D01*
X5319170Y4782630D01*
X5311170Y4764300D01*
X5308500Y4747800D01*
X5364500D01*
G01X5815330Y710000D02*
Y820000D01*
X5850000Y728330D01*
X5884670Y820000D01*
Y710000D01*
G01X5912000D02*
Y820000D01*
G01X5968000D02*
Y710000D01*
G01Y765000D02*
X5912000D01*
G01X6004670Y801670D02*
X6012670Y812660D01*
X6022000Y818170D01*
X6032670Y820000D01*
X6046000Y816330D01*
X6055330Y807170D01*
X6058000Y796170D01*
X6056670Y785160D01*
X6051330Y776000D01*
X6024670Y757670D01*
X6012670Y744830D01*
X6004670Y726500D01*
X6002000Y710000D01*
X6058000D01*
G01X5816010Y4075880D02*
Y4185880D01*
X5850680Y4094210D01*
X5885350Y4185880D01*
Y4075880D01*
G01X5912680D02*
Y4185880D01*
G01X5968680D02*
Y4075880D01*
G01Y4130880D02*
X5912680D01*
G01X6001350Y4097880D02*
X6009350Y4085040D01*
X6020010Y4077710D01*
X6032010Y4075880D01*
X6042680Y4077710D01*
X6053350Y4086880D01*
X6060010Y4097880D01*
X6061350Y4108880D01*
X6058680Y4121710D01*
X6049350Y4130880D01*
X6040010Y4134550D01*
X6028010D01*
G01X6040010D02*
X6048010Y4140050D01*
X6054680Y4149210D01*
X6057350Y4160210D01*
X6054680Y4171210D01*
X6048010Y4180380D01*
X6036010Y4185880D01*
X6024010Y4184050D01*
X6012010Y4176710D01*
G54D13*
G01X1522200Y4454740D02*
Y4452200D01*
X4671800D01*
Y4807800D01*
X1522200D01*
Y4452200D01*
G54D14*
G01X1259520Y2663500D02*
X1323020Y2600000D01*
X1259520Y2536500D01*
Y2663500D01*
X1277300Y2645720D01*
Y2561900D01*
X1290000Y2574600D01*
Y2625400D01*
X1302700Y2612700D01*
Y2587300D01*
G01X1259520Y2863500D02*
X1323020Y2800000D01*
X1259520Y2736500D01*
Y2863500D01*
X1277300Y2845720D01*
Y2761900D01*
X1290000Y2774600D01*
Y2825400D01*
X1302700Y2812700D01*
Y2787300D01*
M02*
