G04 ================== begin FILE IDENTIFICATION RECORD ==================*
G04 Layout Name:  MK60_MODULE_V10A.brd*
G04 Film Name:    TOP*
G04 File Format:  Gerber RS274X*
G04 File Origin:  Cadence Allegro 16.6-2015-S082*
G04 Origin Date:  Thu May 18 20:28:32 2017*
G04 *
G04 Layer:  BOARD GEOMETRY/OUTLINE*
G04 Layer:  VIA CLASS/TOP*
G04 Layer:  PIN/TOP*
G04 Layer:  ETCH/TOP*
G04 *
G04 Offset:    (0.0000 0.0000)*
G04 Mirror:    No*
G04 Mode:      Positive*
G04 Rotation:  0*
G04 FullContactRelief:  No*
G04 UndefLineWidth:     0.1524*
G04 ================== end FILE IDENTIFICATION RECORD ====================*
%FSLAX55Y55*MOMM*%
%IR0*IPPOS*OFA0.00000B0.00000*MIA0B0*SFA1.00000B1.00000*%
%ADD12C,.6096*%
%ADD11C,2.2*%
%ADD14C,1.016*%
%ADD15R,1.016X1.2192*%
%ADD10C,6.35*%
%ADD17C,1.778*%
%ADD13R,.9144X.9144*%
%ADD16R,1.778X1.778*%
%ADD18C,.4*%
%ADD19C,.2032*%
%ADD20C,.254*%
%ADD21C,.7112*%
%ADD22C,.1524*%
%ADD23C,.508*%
%ADD24C,3.3024*%
%ADD25C,3.1148*%
G75*
%LPD*%
G75*
G36*
G01X5643290Y46200D02*
G02X5630610Y10000I-12681J-15879D01*
G01X569390D01*
G02X556710Y46200I1J20321D01*
G03X46200Y556710I-226710J283800D01*
G02X10000Y569390I-15879J12681D01*
G01Y4330610D01*
G02X45930Y4343620I20321J-2D01*
G03X556380Y4854070I284070J226380D01*
G02X569390Y4890000I13012J15609D01*
G01X5630610D01*
G02X5643290Y4853800I-1J-20321D01*
G03X6153800Y4343290I226710J-283800D01*
G02X6190000Y4330610I15879J-12681D01*
G01Y569390D01*
G02X6153800Y556710I-20321J1D01*
G03X5643290Y46200I-283800J-226710D01*
G37*
%LPC*%
G75*
G36*
G01X3874210Y4828440D02*
X3929900Y4772750D01*
X3982120Y4770000D01*
X5299990D01*
X5300480Y4770050D01*
G02X5450050Y4620480I13091J-136479D01*
G01X5450000Y4619990D01*
Y4560000D01*
G03X5850000Y4180000I392740J12885D01*
G01X5889990D01*
X5890690Y4180100D01*
G02X6030100Y4040690I17168J-122242D01*
G01X6030000Y4039990D01*
Y889880D01*
G02X5890120Y750000I-136668J-3212D01*
G01X5870000D01*
G03X5430000Y350000I-90149J-342836D01*
G01Y160060D01*
X5430320Y158810D01*
G02X5370540Y89940I-53653J-13808D01*
G01X5369980Y90000D01*
X4547070D01*
G02X4332930I-107070J120000D01*
G01X3894670D01*
G02X3705330I-94670J130000D01*
G01X850000D01*
G02X720000Y200000I9894J143511D01*
G01Y330000D01*
G03X340000Y720000I-370054J19563D01*
G01X210000D01*
G02X129990Y809800I6398J86244D01*
G01X130000Y810010D01*
Y4080000D01*
G02X239560Y4180040I100652J-217D01*
G01X240010Y4180000D01*
X330000D01*
G03X720000Y4550000I29534J359410D01*
G01Y4629990D01*
X719980Y4630330D01*
G02X840000Y4770000I131228J8636D01*
G01X2577350D01*
X2635790Y4828440D01*
X3874210D01*
G37*
%LPD*%
G75*
G36*
G01X850000Y170000D02*
G02X790000Y220000I-8571J50714D01*
G01Y258860D01*
X856850D01*
X881820Y238540D01*
X1035260D01*
Y421460D01*
X881820D01*
X856850Y401140D01*
X791110D01*
X790000Y410040D01*
G03X360130Y780000I-419258J-52431D01*
G01X270000D01*
G02X200000Y850000I-5000J65000D01*
G01Y4050000D01*
G02X260000Y4100000I51154J-385D01*
G01X330000D01*
X330350Y4099970D01*
G03X810000Y4500000I31658J449614D01*
G01Y4620000D01*
G02X880000Y4700000I75000J5000D01*
G01X1560280D01*
Y4490280D01*
X1601090D01*
X1644100Y4447320D01*
Y4293150D01*
X1596850Y4245900D01*
X726850D01*
X594100Y4113150D01*
Y3866850D01*
X642340Y3818610D01*
Y3698020D01*
X662660Y3673050D01*
Y3632930D01*
X785590Y3510000D01*
X662660Y3387070D01*
Y2886950D01*
X642340Y2861980D01*
Y2738020D01*
X662660Y2713050D01*
Y2686950D01*
X642340Y2661980D01*
Y2538020D01*
X662660Y2513050D01*
Y2401220D01*
X662060Y2399550D01*
G03X805540I71740J-25750D01*
G01X804940Y2401220D01*
Y2508540D01*
X949240D01*
X986590Y2541560D01*
X1066950D01*
X1119880Y2493300D01*
X1460120D01*
X1513050Y2541560D01*
X2124210D01*
X2496870Y2914230D01*
G02X2531560Y2899860I14369J-14370D01*
G01Y2744210D01*
X2165790Y2378440D01*
X1565790D01*
X1295360Y2108010D01*
Y1590390D01*
X1262340Y1553040D01*
Y1426960D01*
X1272910Y1415000D01*
X1262340Y1403040D01*
Y1331190D01*
X1204290Y1273130D01*
X1175320Y1302090D01*
X1175270Y1302140D01*
G03X950320Y1307610I-115268J-112141D01*
G01X949910Y1307230D01*
X884500Y1258440D01*
X588990D01*
X535320Y1312090D01*
X535270Y1312140D01*
G03Y1087860I-115270J-112140D01*
G01X535320Y1087910D01*
X588990Y1141560D01*
X881010D01*
X944670Y1077920D01*
X944720Y1077860D01*
G03X1175270I115275J112139D01*
G01X1175320Y1077910D01*
X1242510Y1145080D01*
G03X1248250Y1151670I-44914J44916D01*
G01X1248670Y1152220D01*
X1344990Y1248540D01*
X1568680D01*
X1616320Y1288860D01*
X1862580D01*
X1864250Y1288260D01*
G03X1915750I25750J71740D01*
G01X1917420Y1288860D01*
X1926850D01*
X1951820Y1268540D01*
X2175010D01*
X2277220Y1166330D01*
X2277990Y1164570D01*
G03X2291290Y1145080I58205J25436D01*
G01X2314140Y1122230D01*
X2314900Y1120660D01*
G03X2569680Y1072390I145100J69342D01*
G01X2570090Y1072770D01*
X2635500Y1121560D01*
X2931010D01*
X2984680Y1067910D01*
X2984730Y1067860D01*
G03X3163250Y1032140I115272J112140D01*
G02X3191560Y1013460I7990J-18683D01*
G01Y761990D01*
X3424740Y528810D01*
Y461460D01*
X3272340D01*
Y308020D01*
X3290090Y286200D01*
X3289130Y281490D01*
G03X3316680Y206290I74670J-15291D01*
G02X3304120Y170000I-12563J-15970D01*
G01X850000D01*
G37*
G36*
G01X854560Y319690D02*
X898080Y284280D01*
X950150Y330000D01*
X898080Y375720D01*
X854560Y340310D01*
G03Y319690I23210J-10310D01*
G37*
G36*
G01X903420Y1191020D02*
X982230Y1112230D01*
X1063170Y1189790D01*
X983610Y1268970D01*
X904800Y1210180D01*
G03X903420Y1191020I7599J-10177D01*
G37*
G36*
G01X566580Y1208980D02*
X497770Y1277770D01*
X416820Y1200000D01*
X497770Y1122230D01*
X566580Y1191020D01*
G03Y1208980I-8980J8980D01*
G37*
G36*
G01X744110Y2510760D02*
X779520Y2554280D01*
X733800Y2606350D01*
X688080Y2554280D01*
X723490Y2510760D01*
G03X744110I10310J23210D01*
G37*
G36*
G01X986590Y2858440D02*
X949240Y2891460D01*
X804940D01*
Y3328130D01*
X895350Y3418540D01*
X948180D01*
X973150Y3438860D01*
X1112770D01*
X1143220Y3412230D01*
X1143380Y3412070D01*
G03X1144300Y3411200I96459J101082D01*
G02X1137340Y3393640I-6961J-7400D01*
G01X1105360D01*
Y3124360D01*
X1374640D01*
Y3393640D01*
X1342660D01*
G02X1335700Y3411200I1J10160D01*
G03X1340240Y3415670I-95731J101770D01*
G01X1340290Y3415720D01*
X1379150Y3454560D01*
X1417210D01*
X1498440Y3535790D01*
Y3864210D01*
X1432230Y3930410D01*
G02X1446600Y3965100I14370J14369D01*
G01X1884150D01*
X2005900Y4086850D01*
Y4484310D01*
X2052200Y4530610D01*
G03X2064880Y4544980I-98180J99413D01*
G02X2097120I16120J-12364D01*
G03X2110670Y4529760I110854J85049D01*
G01X2110720Y4529710D01*
X2149560Y4490850D01*
Y3072210D01*
X1935790Y2858440D01*
X1513050D01*
X1460120Y2906700D01*
X1119880D01*
X1066950Y2858440D01*
X986590D01*
G37*
G36*
G01X723490Y2689240D02*
X688080Y2645720D01*
X733800Y2593650D01*
X779520Y2645720D01*
X744110Y2689240D01*
G03X723490I-10310J-23210D01*
G37*
G36*
G01Y2889240D02*
X688080Y2845720D01*
X733800Y2793650D01*
X779520Y2845720D01*
X744110Y2889240D01*
G03X723490I-10310J-23210D01*
G37*
G36*
G01X744110Y2710760D02*
X779520Y2754280D01*
X733800Y2806350D01*
X688080Y2754280D01*
X723490Y2710760D01*
G03X744110I10310J23210D01*
G37*
G36*
G01X975230Y2607430D02*
X931920Y2645720D01*
X883020Y2600000D01*
X931920Y2554280D01*
X975230Y2592570D01*
G03Y2607430I-10300J7430D01*
G37*
G36*
G01Y2807430D02*
X931920Y2845720D01*
X883020Y2800000D01*
X931920Y2754280D01*
X975230Y2792570D01*
G03Y2807430I-10300J7430D01*
G37*
G36*
G01X975440Y3520310D02*
X931920Y3555720D01*
X879850Y3510000D01*
X931920Y3464280D01*
X975440Y3499690D01*
G03Y3520310I-23210J10310D01*
G37*
G36*
G01X744110Y3670760D02*
X779520Y3714280D01*
X733800Y3766350D01*
X688080Y3714280D01*
X723490Y3670760D01*
G03X744110I10310J23210D01*
G37*
G36*
G01X795950Y3977210D02*
X779860Y4068180D01*
X731820Y4024620D01*
X688420Y3976740D01*
X783260Y3964040D01*
G03X795950Y3977210I0J12699D01*
G37*
G36*
G01X975490Y3766240D02*
X931920Y3805720D01*
X883660Y3760000D01*
X931920Y3714280D01*
X975490Y3753760D01*
G03Y3766240I-8020J6240D01*
G37*
G36*
G01X975830Y4028700D02*
X932260Y4068180D01*
X884000Y4022460D01*
X932260Y3976740D01*
X975830Y4016220D01*
G03Y4028700I-8020J6240D01*
G37*
G36*
G01X2107760Y1820410D02*
Y1610390D01*
X2074740Y1573040D01*
Y1451460D01*
X1951820D01*
X1926850Y1431140D01*
X1917420D01*
X1915750Y1431740D01*
G03X1864250I-25750J-71740D01*
G01X1862580Y1431140D01*
X1557750D01*
X1553740Y1431460D01*
X1445260D01*
Y1553040D01*
X1412240Y1590390D01*
Y2059590D01*
X1614210Y2261560D01*
X2214210D01*
X2648440Y2695790D01*
Y2989860D01*
G02X2683130Y3004230I20321J0D01*
G01X2965790Y2721560D01*
X3331990D01*
X3447760Y2605790D01*
Y2540390D01*
X3414740Y2503040D01*
Y2381460D01*
X3262340D01*
Y2227630D01*
X3294270Y2189590D01*
X3293980Y2185480D01*
G03X3446210Y2178590I76023J-5478D01*
G02X3466520Y2198540I20315J-369D01*
G01X3569240D01*
X3606590Y2231560D01*
X3625790D01*
X3639180Y2218170D01*
Y2140000D01*
G03X3661070Y2058990I160822J-6D01*
G02X3643520Y2028440I-17555J-10231D01*
G01X2315790D01*
X2107760Y1820410D01*
G37*
G36*
G01X1206580Y1198980D02*
X1137770Y1267770D01*
X1056820Y1190000D01*
X1137770Y1112230D01*
X1206580Y1181020D01*
G03Y1198980I-8980J8980D01*
G37*
G36*
G01X1346370Y1429030D02*
X1308080Y1385720D01*
X1353800Y1336820D01*
X1399520Y1385720D01*
X1361230Y1429030D01*
G03X1346370I-7430J-10300D01*
G37*
G36*
G01X1361230Y1400970D02*
X1399520Y1444280D01*
X1353800Y1493180D01*
X1308080Y1444280D01*
X1346370Y1400970D01*
G03X1361230I7430J10300D01*
G37*
G36*
G01X1346370Y1579030D02*
X1308080Y1535720D01*
X1353800Y1486820D01*
X1399520Y1535720D01*
X1361230Y1579030D01*
G03X1346370I-7430J-10300D01*
G37*
G36*
G01X1500610Y2607880D02*
X1442400Y2660960D01*
X1388420Y2600000D01*
X1442400Y2539040D01*
X1500610Y2592120D01*
G03Y2607880I-9960J7880D01*
G37*
G36*
G01X1079390Y2592120D02*
X1137600Y2539040D01*
X1191580Y2600000D01*
X1137600Y2660960D01*
X1079390Y2607880D01*
G03Y2592120I9960J-7880D01*
G37*
G36*
G01X1500610Y2807880D02*
X1442400Y2860960D01*
X1388420Y2800000D01*
X1442400Y2739040D01*
X1500610Y2792120D01*
G03Y2807880I-9960J7880D01*
G37*
G36*
G01X1079390Y2792120D02*
X1137600Y2739040D01*
X1191580Y2800000D01*
X1137600Y2860960D01*
X1079390Y2807880D01*
G03Y2792120I9960J-7880D01*
G37*
G36*
G01X1356740Y3521980D02*
X1302850Y3575850D01*
X1236820Y3513000D01*
X1302850Y3450150D01*
X1356740Y3504020D01*
G03Y3521980I-8980J8980D01*
G37*
G36*
G01X1362510Y3530060D02*
X1301620Y3576930D01*
X1236830Y3512810D01*
X1302850Y3450150D01*
X1363740Y3511020D01*
G03X1362510Y3530060I-8980J8980D01*
G37*
G36*
G01X1130480Y3490880D02*
X1178380Y3448990D01*
X1246350Y3513210D01*
X1177150Y3575850D01*
X1129240Y3527960D01*
G03X1130480Y3490880I17960J-17960D01*
G37*
G36*
G01X1115410Y3751980D02*
X1178090Y3703300D01*
X1242540Y3767150D01*
X1177140Y3829860D01*
X1114460Y3767180D01*
G03X1115410Y3751980I7183J-7181D01*
G37*
G36*
G01X1358540Y4028180D02*
X1302860Y4083860D01*
X1237460Y4021000D01*
X1302860Y3958140D01*
X1358540Y4013820D01*
G03Y4028180I-7180J7180D01*
G37*
G36*
G01X1120000Y4015280D02*
X1177140Y3958140D01*
X1242540Y4020970D01*
X1177330Y4084040D01*
X1120190Y4029830D01*
G03X1120000Y4015280I6992J-7368D01*
G37*
G36*
G01X1605890Y1381410D02*
X1551920Y1385720D01*
X1500010Y1338560D01*
X1551920Y1294280D01*
X1613880Y1346720D01*
G03X1605890Y1381410I-21651J13278D01*
G37*
G36*
G01X1924560Y1349690D02*
X1968080Y1314280D01*
X2020150Y1360000D01*
X1968080Y1405720D01*
X1924560Y1370310D01*
G03Y1349690I23210J-10310D01*
G37*
G36*
G01X2403560Y4490850D02*
Y2986210D01*
X2075790Y2658440D01*
X1513050D01*
X1483940Y2684990D01*
G02Y2715010I13688J15010D01*
G01X1513050Y2741560D01*
X1984210D01*
X2266440Y3023790D01*
Y4490850D01*
X2305280Y4529710D01*
X2305330Y4529760D01*
G03X2318880Y4544980I-97304J100269D01*
G02X2351120I16120J-12364D01*
G03X2364670Y4529760I110854J85049D01*
G01X2364720Y4529710D01*
X2403560Y4490850D01*
G37*
G36*
G01X1706420Y4469730D02*
X1777880Y4541100D01*
X1700000Y4632540D01*
X1622120Y4541100D01*
X1693580Y4469730D01*
G03X1706420I6420J7870D01*
G37*
G36*
G01X1957180Y4507460D02*
X2016860Y4567140D01*
X1954090Y4632540D01*
X1890650Y4567680D01*
X1942320Y4507990D01*
G03X1957180Y4507460I7677J6652D01*
G37*
G36*
G01X2364210Y1911560D02*
X3259860D01*
G02X3274230Y1876870I0J-20321D01*
G01X3191560Y1794210D01*
Y1784560D01*
G02X3176420Y1775700I-10160J-4D01*
G03X3163020Y1497580I-76421J-135701D01*
G02X3191560Y1479000I8220J-18583D01*
G01Y1346540D01*
G02X3163250Y1327860I-20320J3D01*
G03X2984730Y1292140I-63248J-147860D01*
G01X2984680Y1292090D01*
X2931010Y1238440D01*
X2638990D01*
X2575330Y1302080D01*
X2575280Y1302140D01*
G03X2340900Y1298070I-115278J-112138D01*
G02X2311490Y1297360I-15043J13657D01*
G01X2257660Y1351190D01*
Y1423040D01*
X2247090Y1435000D01*
X2257660Y1446960D01*
Y1573040D01*
X2224640Y1610390D01*
Y1771990D01*
X2364210Y1911560D01*
G37*
G36*
G01X2616580Y1188980D02*
X2537770Y1267770D01*
X2456830Y1190210D01*
X2536390Y1111030D01*
X2615200Y1169820D01*
G03X2616580Y1188980I-7599J10177D01*
G37*
G36*
G01X2327220Y1181020D02*
X2382230Y1126030D01*
X2463180Y1190000D01*
X2382230Y1253970D01*
X2327220Y1198980D01*
G03Y1181020I8980J-8980D01*
G37*
G36*
G01X2158770Y1449030D02*
X2120480Y1405720D01*
X2166200Y1356820D01*
X2211920Y1405720D01*
X2173630Y1449030D01*
G03X2158770I-7430J-10300D01*
G37*
G36*
G01X2173630Y1420970D02*
X2211920Y1464280D01*
X2166200Y1513180D01*
X2120480Y1464280D01*
X2158770Y1420970D01*
G03X2173630I7430J10300D01*
G37*
G36*
G01X2158770Y1599030D02*
X2120480Y1555720D01*
X2166200Y1506820D01*
X2211920Y1555720D01*
X2173630Y1599030D01*
G03X2158770I-7430J-10300D01*
G37*
G36*
G01X2470980Y4513260D02*
X2524850Y4567150D01*
X2462000Y4633180D01*
X2399150Y4567150D01*
X2453020Y4513260D01*
G03X2470980I8980J8980D01*
G37*
G36*
G01X2216980D02*
X2270850Y4567150D01*
X2208000Y4633180D01*
X2145150Y4567150D01*
X2199020Y4513260D01*
G03X2216980I8980J8980D01*
G37*
G36*
G01X2953420Y1171020D02*
X3022230Y1102230D01*
X3103180Y1180000D01*
X3022230Y1257770D01*
X2953420Y1188980D01*
G03Y1171020I8980J-8980D01*
G37*
G36*
G01X4681560Y2845790D02*
Y2154210D01*
X4635350Y2107990D01*
G02X4600680Y2123220I-14368J14369D01*
G03X4330320Y2247610I-160677J6778D01*
G01X4329910Y2247230D01*
X4264500Y2198440D01*
X3968990D01*
X3915320Y2252090D01*
X3915270Y2252140D01*
G03X3800000Y2300820I-115270J-112135D01*
G01X3721830D01*
X3674210Y2348440D01*
X3606590D01*
X3587420Y2365380D01*
X3597660Y2376960D01*
Y2503040D01*
X3564640Y2540390D01*
Y2654210D01*
X3380410Y2838440D01*
X3014210D01*
X2774440Y3078210D01*
Y4490850D01*
X2813280Y4529710D01*
X2813330Y4529760D01*
G03X2826880Y4544980I-97304J100269D01*
G02X2859120I16120J-12364D01*
G03X2872670Y4529760I110854J85049D01*
G01X2872720Y4529710D01*
X2911560Y4490850D01*
Y3215790D01*
X3135790Y2991560D01*
X4535790D01*
X4681560Y2845790D01*
G37*
G36*
G01X3184210Y3108440D02*
X3028440Y3264210D01*
Y4490850D01*
X3067280Y4529710D01*
X3067330Y4529760D01*
G03X3080880Y4544980I-97304J100269D01*
G02X3113120I16120J-12364D01*
G03X3126670Y4529760I110854J85049D01*
G01X3126720Y4529710D01*
X3165560Y4490850D01*
Y3291790D01*
X3314230Y3143130D01*
G02X3299860Y3108440I-14370J-14369D01*
G01X3184210D01*
G37*
G36*
G01X2724980Y4513260D02*
X2778850Y4567150D01*
X2716000Y4633180D01*
X2653150Y4567150D01*
X2707020Y4513260D01*
G03X2724980I8980J8980D01*
G37*
G36*
G01X2978980D02*
X3032850Y4567150D01*
X2970000Y4633180D01*
X2907150Y4567150D01*
X2961020Y4513260D01*
G03X2978980I8980J8980D01*
G37*
G36*
G01X5360000Y230000D02*
G02X5300000Y170000I-50000J-10000D01*
G01X4620070D01*
G02X4599870Y192530I-2J20319D01*
G03X4324730Y322140I-159868J17469D01*
G01X4324680Y322090D01*
X4271010Y268440D01*
X3978990D01*
X3915330Y332080D01*
X3915280Y332140D01*
G03X3676770Y323330I-115276J-112139D01*
G02X3646830Y322020I-15570J13056D01*
G01X3607660Y361190D01*
Y433040D01*
X3597090Y445000D01*
X3607660Y456960D01*
Y611460D01*
X3507390D01*
X3308440Y810410D01*
Y939860D01*
G02X3343130Y954230I20321J0D01*
G01X3375790Y921560D01*
X4558010D01*
X4864990Y1228540D01*
X4875010D01*
X4957220Y1146330D01*
X4957990Y1144570D01*
G03X4971290Y1125080I58205J25436D01*
G01X4994140Y1102230D01*
X4994900Y1100660D01*
G03X5249680Y1052390I145100J69342D01*
G01X5250090Y1052770D01*
X5315500Y1101560D01*
X5611010D01*
X5664680Y1047910D01*
X5664730Y1047860D01*
G03X5921770Y1084070I115273J112140D01*
G02X5960000Y1074480I17911J-9593D01*
G01Y920000D01*
G02X5830000Y820000I-121250J23125D01*
G01X5760000D01*
G03X5359950Y370480I8634J-410456D01*
G01X5360000Y370000D01*
Y230000D01*
G37*
G36*
G01X3410920Y206290D02*
G03X3439760Y259900I-47119J59911D01*
G02X3460010Y278540I20250J-1679D01*
G01X3525010D01*
X3607220Y196330D01*
X3607990Y194570D01*
G03X3612770Y185650I58200J25447D01*
G02X3604220Y170000I-8549J-5490D01*
G01X3423480D01*
G02X3410920Y206290I3J20320D01*
G37*
G36*
G01X3374110Y280760D02*
X3409520Y324280D01*
X3363800Y376350D01*
X3318080Y324280D01*
X3353490Y280760D01*
G03X3374110I10310J23210D01*
G37*
G36*
G01X3657220Y211020D02*
X3722230Y146030D01*
X3803180Y220000D01*
X3722230Y293970D01*
X3657220Y228980D01*
G03Y211020I8980J-8980D01*
G37*
G36*
G01X3508770Y459030D02*
X3470480Y415720D01*
X3516200Y366820D01*
X3561920Y415720D01*
X3523630Y459030D01*
G03X3508770I-7430J-10300D01*
G37*
G36*
G01X3523630Y430970D02*
X3561920Y474280D01*
X3516200Y523180D01*
X3470480Y474280D01*
X3508770Y430970D01*
G03X3523630I7430J10300D01*
G37*
G36*
G01X3349080Y1431460D02*
Y1716430D01*
X3424210Y1791560D01*
X3489860D01*
G02X3504230Y1756870I0J-20321D01*
G01X3467760Y1720410D01*
Y1590390D01*
X3434740Y1553040D01*
Y1431460D01*
X3349080D01*
G37*
G36*
G01X5921770Y1235930D02*
G03X5664730Y1272140I-141767J-75930D01*
G01X5664680Y1272090D01*
X5611010Y1218440D01*
X5318990D01*
X5255330Y1282080D01*
X5255280Y1282140D01*
G03X5020900Y1278070I-115278J-112138D01*
G02X4991490Y1277360I-15043J13657D01*
G01X4957660Y1311190D01*
Y1383040D01*
X4947090Y1395000D01*
X4957660Y1406960D01*
Y1561460D01*
X4774740D01*
Y1432980D01*
G02X4751830Y1412830I-20319J3D01*
G01X4717110Y1417300D01*
X4703270Y1431140D01*
X4627420D01*
X4625750Y1431740D01*
G03X4525650Y1343230I-25748J-71739D01*
G02X4498440Y1319830I-19821J-4472D01*
G03X4324730Y1282140I-58435J-149829D01*
G01X4324680Y1282090D01*
X4271010Y1228440D01*
X3978990D01*
X3915330Y1292080D01*
X3915280Y1292140D01*
G03X3685220Y1292640I-115274J-112139D01*
G02X3656340Y1292500I-14509J14229D01*
G01X3617660Y1331190D01*
Y1403040D01*
X3607090Y1415000D01*
X3617660Y1426960D01*
Y1553040D01*
X3584640Y1590390D01*
Y1671990D01*
X3654210Y1741560D01*
X3678860D01*
Y1727930D01*
X3676740Y1725190D01*
G03X3933190Y1710710I123259J-95192D01*
G02X3950570Y1741560I17381J10529D01*
G01X4289430D01*
G02X4306810Y1710710I-1J-20321D01*
G03X4573190I133190J-80710D01*
G02X4590570Y1741560I17381J10529D01*
G01X4724210D01*
X5008440Y2025790D01*
Y2894210D01*
X4654210Y3248440D01*
X4084210D01*
X3790440Y3542210D01*
Y4490850D01*
X3829280Y4529710D01*
X3829330Y4529760D01*
G03X3842880Y4544980I-97304J100269D01*
G02X3875120I16120J-12364D01*
G03X4099630Y4548690I110881J85017D01*
G02X4132390Y4549080I16523J-11824D01*
G03X4347610I107610J80920D01*
G02X4380370Y4548690I16237J-12214D01*
G03X4626820Y4673370I113632J81303D01*
G02X4646130Y4700000I19314J6311D01*
G01X5030470D01*
G02X5046860Y4667660I5J-20321D01*
G03X5308060Y4674240I133143J-97660D01*
G02X5320780Y4689580I7883J6407D01*
G02X5370000Y4590000I-45780J-84582D01*
G01Y4550000D01*
G03X5790000Y4090000I528462J60769D01*
G01X5870000D01*
G02X5960000Y4010000I19359J-68846D01*
G01Y1245520D01*
G02X5921770Y1235930I-20319J3D01*
G37*
G36*
G01X3384110Y1250760D02*
X3419520Y1294280D01*
X3373800Y1346350D01*
X3328080Y1294280D01*
X3363490Y1250760D01*
G03X3384110I10310J23210D01*
G37*
G36*
G01X3518770Y1429030D02*
X3480480Y1385720D01*
X3526200Y1336820D01*
X3571920Y1385720D01*
X3533630Y1429030D01*
G03X3518770I-7430J-10300D01*
G37*
G36*
G01X3533630Y1400970D02*
X3571920Y1444280D01*
X3526200Y1493180D01*
X3480480Y1444280D01*
X3518770Y1400970D01*
G03X3533630I7430J10300D01*
G37*
G36*
G01X3518770Y1579030D02*
X3480480Y1535720D01*
X3526200Y1486820D01*
X3571920Y1535720D01*
X3533630Y1579030D01*
G03X3518770I-7430J-10300D01*
G37*
G36*
G01X3389750Y2191800D02*
X3399520Y2244280D01*
X3352570Y2296230D01*
X3308080Y2244280D01*
X3357100Y2185890D01*
G03X3389750Y2191800I12899J21880D01*
G37*
G36*
G01X3498770Y2379030D02*
X3460480Y2335720D01*
X3506200Y2286820D01*
X3551920Y2335720D01*
X3513630Y2379030D01*
G03X3498770I-7430J-10300D01*
G37*
G36*
G01X3595230Y2297430D02*
X3551920Y2335720D01*
X3503020Y2290000D01*
X3551920Y2244280D01*
X3595230Y2282570D01*
G03Y2297430I-10300J7430D01*
G37*
G36*
G01X3513630Y2350970D02*
X3551920Y2394280D01*
X3506200Y2443180D01*
X3460480Y2394280D01*
X3498770Y2350970D01*
G03X3513630I7430J10300D01*
G37*
G36*
G01X3498770Y2529030D02*
X3460480Y2485720D01*
X3506200Y2436820D01*
X3551920Y2485720D01*
X3513630Y2529030D01*
G03X3498770I-7430J-10300D01*
G37*
G36*
G01X3464210Y3158440D02*
X3282440Y3340210D01*
Y4490850D01*
X3321280Y4529710D01*
X3321330Y4529760D01*
G03X3334880Y4544980I-97304J100269D01*
G02X3367120I16120J-12364D01*
G03X3380670Y4529760I110854J85049D01*
G01X3380720Y4529710D01*
X3419560Y4490850D01*
Y3417790D01*
X3644230Y3193130D01*
G02X3629860Y3158440I-14370J-14369D01*
G01X3464210D01*
G37*
G36*
G01X3794850Y3207800D02*
X3536440Y3466210D01*
Y4490850D01*
X3575280Y4529710D01*
X3575330Y4529760D01*
G03X3588880Y4544980I-97304J100269D01*
G02X3621120I16120J-12364D01*
G03X3634670Y4529760I110854J85049D01*
G01X3634720Y4529710D01*
X3673560Y4490850D01*
Y3493790D01*
X3924870Y3242490D01*
G02X3910500Y3207800I-14370J-14369D01*
G01X3794850D01*
G37*
G36*
G01X3232980Y4513260D02*
X3286850Y4567150D01*
X3224000Y4633180D01*
X3161150Y4567150D01*
X3215020Y4513260D01*
G03X3232980I8980J8980D01*
G37*
G36*
G01X3486980D02*
X3540850Y4567150D01*
X3478000Y4633180D01*
X3415150Y4567150D01*
X3469020Y4513260D01*
G03X3486980I8980J8980D01*
G37*
G36*
G01X3956580Y218980D02*
X3877770Y297770D01*
X3796830Y220210D01*
X3876390Y141030D01*
X3955200Y199820D01*
G03X3956580Y218980I-7599J10177D01*
G37*
G36*
G01Y1178980D02*
X3877770Y1257770D01*
X3796830Y1180210D01*
X3876390Y1101030D01*
X3955200Y1159820D01*
G03X3956580Y1178980I-7599J10177D01*
G37*
G36*
G01X3677220Y1171020D02*
X3722230Y1126030D01*
X3803180Y1180000D01*
X3722230Y1233970D01*
X3677220Y1188980D01*
G03Y1171020I8980J-8980D01*
G37*
G36*
G01X3946580Y2148980D02*
X3877770Y2217770D01*
X3796820Y2140000D01*
X3877770Y2062230D01*
X3946580Y2131020D01*
G03Y2148980I-8980J8980D01*
G37*
G36*
G01X3690000Y2237300D02*
Y2140000D01*
X3802250Y2137750D01*
X3800000Y2250000D01*
X3702700D01*
G03X3690000Y2237300I0J-12700D01*
G37*
G36*
G01X3740980Y4513260D02*
X3794850Y4567150D01*
X3732000Y4633180D01*
X3669150Y4567150D01*
X3723020Y4513260D01*
G03X3740980I8980J8980D01*
G37*
G36*
G01X3897100Y4710200D02*
Y4630000D01*
X3988190Y4627700D01*
X3986670Y4718870D01*
X3910470Y4722880D01*
G03X3897100Y4710200I-672J-12680D01*
G37*
G36*
G01X4293420Y201020D02*
X4362230Y132230D01*
X4443180Y210000D01*
X4362230Y287770D01*
X4293420Y218980D01*
G03Y201020I8980J-8980D01*
G37*
G36*
G01X4587000Y1345380D02*
X4668080Y1274280D01*
X4719740Y1317760D01*
X4759520Y1365720D01*
X4606810Y1385380D01*
G03X4587000Y1345380I960J-25381D01*
G37*
G36*
G01X4293420Y1161020D02*
X4362230Y1092230D01*
X4443180Y1170000D01*
X4362230Y1247770D01*
X4293420Y1178980D01*
G03Y1161020I8980J-8980D01*
G37*
G36*
G01X4283420Y2131020D02*
X4362230Y2052230D01*
X4443170Y2129790D01*
X4363610Y2208970D01*
X4284800Y2150180D01*
G03X4283420Y2131020I7599J-10177D01*
G37*
G36*
G01X5007220Y1161020D02*
X5062230Y1106030D01*
X5143180Y1170000D01*
X5062230Y1233970D01*
X5007220Y1178980D01*
G03Y1161020I8980J-8980D01*
G37*
G36*
G01X5296580Y1168980D02*
X5217770Y1247770D01*
X5136830Y1170210D01*
X5216390Y1091030D01*
X5295200Y1149820D01*
G03X5296580Y1168980I-7599J10177D01*
G37*
G36*
G01X4858770Y1409030D02*
X4820480Y1365720D01*
X4866200Y1316820D01*
X4911920Y1365720D01*
X4873630Y1409030D01*
G03X4858770I-7430J-10300D01*
G37*
G36*
G01X4873630Y1380970D02*
X4911920Y1424280D01*
X4866200Y1473180D01*
X4820480Y1424280D01*
X4858770Y1380970D01*
G03X4873630I7430J10300D01*
G37*
G36*
G01X5633420Y1151020D02*
X5702230Y1082230D01*
X5783180Y1160000D01*
X5702230Y1237770D01*
X5633420Y1168980D01*
G03Y1151020I8980J-8980D01*
G37*
%LPC*%
G75*
G54D24*
X730000Y910000D03*
G54D25*
X420000Y1650000D03*
X1060000D03*
X2460000Y1640000D03*
X3800000Y2590000D03*
X4440000D03*
X3800000Y670000D03*
X4440000D03*
X5140000Y1620000D03*
X5780000D03*
%LPD*%
G75*
G54D10*
X330000Y330000D03*
Y4570000D03*
X5870000Y330000D03*
Y4570000D03*
G54D20*
G01X420000Y1200000D02*
X1050000D01*
X1060000Y1190000D01*
G01X886200Y2600000D02*
X1188400D01*
G01X886200Y2800000D02*
X1188400D01*
G01X1400000Y3520000D02*
X1440000Y3560000D01*
Y3840000D01*
X1380920Y3899080D01*
X860920D01*
X737540Y4022460D01*
X734140D01*
G01X1353800Y1340000D02*
Y1490000D01*
G01X1060000Y1190000D02*
X1203800D01*
X1353800Y1340000D01*
G01Y1490000D02*
Y2083800D01*
X1590000Y2320000D01*
X2190000D01*
X2590000Y2720000D01*
Y4700000D01*
X2660000Y4770000D01*
X3850000D01*
X3986000Y4634000D01*
Y4630000D01*
G01X2462000D02*
Y2962000D01*
X2100000Y2600000D01*
X1391600D01*
G01Y2800000D02*
X1960000D01*
X2208000Y3048000D01*
Y4630000D01*
G01X1240000Y3513000D02*
X1393000D01*
X1400000Y3520000D01*
G01X1240000Y3513000D02*
X1247000Y3520000D01*
X1400000D01*
G01X2166200Y1510000D02*
Y1360000D01*
G01X2460000Y1190000D02*
X2336200D01*
X2166200Y1360000D01*
G01X3100000Y1180000D02*
X2470000D01*
X2460000Y1190000D01*
G01X2166200Y1510000D02*
Y1796200D01*
X2340000Y1970000D01*
X4580000D01*
X4740000Y2130000D01*
Y2870000D01*
X4560000Y3050000D01*
X3160000D01*
X2970000Y3240000D01*
Y4630000D01*
G01X2716000D02*
Y3054000D01*
X2990000Y2780000D01*
X3356200D01*
X3506200Y2630000D01*
Y2440000D01*
G01X3516200Y370000D02*
Y520000D01*
G01X3800000Y220000D02*
X3666200D01*
X3516200Y370000D01*
G01X3224000Y4630000D02*
Y3316000D01*
X3440000Y3100000D01*
X4590000D01*
X4800000Y2890000D01*
Y2090000D01*
X4610000Y1900000D01*
X3380000D01*
X3250000Y1770000D01*
Y786200D01*
X3516200Y520000D01*
G01X4870000Y1316200D02*
X4533800Y980000D01*
X3400000D01*
X3290640Y1089360D01*
Y1740640D01*
X3400000Y1850000D01*
X4650000D01*
X4866200Y2066200D01*
Y2896320D01*
X4613160Y3149360D01*
X3770640D01*
X3478000Y3442000D01*
Y4630000D01*
G01X3526200Y1340000D02*
Y1490000D01*
G01X3800000Y1180000D02*
X3686200D01*
X3526200Y1340000D01*
G01X3732000Y4630000D02*
Y3518000D01*
X4060000Y3190000D01*
X4630000D01*
X4950000Y2870000D01*
Y2050000D01*
X4700000Y1800000D01*
X3630000D01*
X3526200Y1696200D01*
Y1490000D01*
G01X3506200Y2290000D02*
Y2440000D01*
G01X3800000Y2140000D02*
X3650000Y2290000D01*
X3506200D01*
G01X4440000Y210000D02*
X3810000D01*
X3800000Y220000D01*
G01X4440000Y1170000D02*
X3810000D01*
X3800000Y1180000D01*
G01X4440000Y2130000D02*
X4430000Y2140000D01*
X3800000D01*
G01X4866200Y1320000D02*
Y1470000D01*
G01X5780000Y1160000D02*
X5150000D01*
X5140000Y1170000D01*
G01X4866200Y1320000D02*
X4870000Y1316200D01*
G01D02*
X5016200Y1170000D01*
X5140000D01*
G54D11*
X420000Y1200000D03*
Y1650000D03*
X1060000Y1190000D03*
Y1650000D03*
X2460000Y1190000D03*
Y1640000D03*
X3100000Y1180000D03*
Y1640000D03*
X3800000Y220000D03*
Y670000D03*
Y1180000D03*
Y1630000D03*
Y2590000D03*
Y2140000D03*
X4440000Y210000D03*
Y670000D03*
Y1170000D03*
Y2130000D03*
Y1630000D03*
Y2590000D03*
X5140000Y1170000D03*
Y1620000D03*
X5780000Y1160000D03*
Y1620000D03*
G54D21*
G01X330000Y330000D02*
Y703400D01*
G01Y330000D02*
X703400D01*
G01X254100Y1650000D02*
X420000D01*
G01X330000Y4196600D02*
Y4570000D01*
G01D02*
X703400D01*
G01X420000Y1484100D02*
Y1650000D01*
G01X894100D02*
X1060000D01*
G01X420000D02*
Y1815900D01*
G01Y1650000D02*
X585900D01*
G01X1060000Y1484100D02*
Y1650000D01*
G01D02*
Y1815900D01*
G01Y1650000D02*
X1225900D01*
G01X1240000Y3114200D02*
Y3259000D01*
G01X1095200D02*
X1240000D01*
G01D02*
X1384800D01*
G01X2460000Y1474100D02*
Y1640000D01*
G01D02*
Y1805900D01*
G01X2294100Y1640000D02*
X2460000D01*
G01D02*
X2625900D01*
G01X3100000Y1474100D02*
Y1640000D01*
G01D02*
Y1805900D01*
G01X2934100Y1640000D02*
X3100000D01*
G01X3634100Y670000D02*
X3800000D01*
G01X3634100Y1630000D02*
X3800000D01*
G01X3634100Y2590000D02*
X3800000D01*
G01Y504100D02*
Y670000D01*
G01D02*
Y835900D01*
G01Y670000D02*
X3965900D01*
G01X3800000Y1464100D02*
Y1630000D01*
G01D02*
X3965900D01*
G01X3800000Y2424100D02*
Y2590000D01*
G01D02*
Y2755900D01*
G01Y2590000D02*
X3965900D01*
G01X4440000Y504100D02*
Y670000D01*
G01D02*
Y835900D01*
G01X4274100Y670000D02*
X4440000D01*
G01D02*
X4605900D01*
G01X4440000Y1464100D02*
Y1630000D01*
G01X4274100D02*
X4440000D01*
G01D02*
X4605900D01*
G01X4440000Y2424100D02*
Y2590000D01*
G01D02*
Y2755900D01*
G01X4274100Y2590000D02*
X4440000D01*
G01D02*
X4605900D01*
G01X5140000Y1454100D02*
Y1620000D01*
G01D02*
Y1785900D01*
G01X4974100Y1620000D02*
X5140000D01*
G01D02*
X5305900D01*
G01X5870000Y330000D02*
Y703400D01*
G01X5496600Y330000D02*
X5870000D01*
G01X5780000Y1454100D02*
Y1620000D01*
G01D02*
Y1785900D01*
G01X5614100Y1620000D02*
X5780000D01*
G01D02*
X5945900D01*
G01X5870000Y4196600D02*
Y4570000D01*
G01X5496600D02*
X5870000D01*
G54D12*
X60000Y1050000D03*
X251170Y2363680D03*
X60000Y2170000D03*
X251170Y2703680D03*
Y3053680D03*
X241170Y3393680D03*
X60000Y3170000D03*
X241170Y3753680D03*
X60000Y4170000D03*
X800000Y50000D03*
X591170Y1983680D03*
X909170D03*
X569170Y2363680D03*
X733800Y2373800D03*
X569170Y2703680D03*
Y3053680D03*
X559170Y3393680D03*
Y3753680D03*
X1031170Y683680D03*
X1349170D03*
X1011170Y2963680D03*
X1329170D03*
X1033680Y4618830D03*
Y4300830D03*
X1383680Y4638830D03*
Y4320830D03*
X1020000Y4840000D03*
X1800000Y50000D03*
X1731170Y683680D03*
X2049170D03*
X1890000Y1360000D03*
X1641170Y1713680D03*
X1959170D03*
X1651170Y2043680D03*
X1969170D03*
X1621170Y3263680D03*
X1939170D03*
X1641170Y3743680D03*
X1959170D03*
X2020000Y4840000D03*
X2431170Y683680D03*
X2581170Y1863680D03*
X2333680Y3570830D03*
Y3888830D03*
X2800000Y50000D03*
X2749170Y683680D03*
X2899170Y1863680D03*
X2721170Y2533680D03*
X3039170D03*
X2631170Y2233680D03*
X2949170D03*
X3103680Y3570830D03*
X2853680D03*
X3103680Y3888830D03*
X2853680D03*
X3020000Y4840000D03*
X3363800Y266200D03*
X3373800Y1236200D03*
X3480000Y1760000D03*
X3370000Y2180000D03*
X3603680Y3570830D03*
X3353680Y3560830D03*
X3603680Y3888830D03*
X3353680Y3878830D03*
X3920000Y50000D03*
X3981170Y443680D03*
X3971170Y1483680D03*
X4023170Y3607680D03*
Y4115680D03*
X4140000Y4840000D03*
X4299170Y443680D03*
X4289170Y1483680D03*
X4600000Y1360000D03*
X4531170Y3607680D03*
Y4115680D03*
X4811170Y383680D03*
X5129170D03*
X4800000Y50000D03*
X5221170Y893680D03*
X5083170Y1833680D03*
Y2341680D03*
Y2849680D03*
Y3357680D03*
Y3865680D03*
X5020000Y4840000D03*
X5539170Y893680D03*
X5591170Y1833680D03*
Y2341680D03*
Y2849680D03*
Y3357680D03*
Y3865680D03*
X6100000Y990000D03*
X5909170Y1833680D03*
Y2341680D03*
X6100000Y2110000D03*
X5909170Y2849680D03*
X6100000Y3110000D03*
X5909170Y3357680D03*
Y3865680D03*
X6100000Y4110000D03*
G54D22*
G01X6200000Y330000D02*
Y4570000D01*
G03X5870000Y4900000I-330000J0D01*
G01X330000D01*
G03X0Y4570000I0J-330000D01*
G01Y330000D01*
G03X330000Y0I330000J0D01*
G01X5870000D01*
G03X6200000Y330000I0J330000D01*
G54D13*
X943800D03*
X886200Y2800000D03*
X733800D03*
X886200Y2600000D03*
X733800D03*
X886200Y3510000D03*
X733800D03*
X734140Y4022460D03*
X886540D03*
X733800Y3760000D03*
X886200D03*
X1096200Y330000D03*
X1506200Y1340000D03*
X1353800D03*
Y1490000D03*
X1506200D03*
X2013800Y1360000D03*
Y1510000D03*
X2166200Y1360000D03*
Y1510000D03*
X3363800Y370000D03*
X3516200D03*
Y520000D03*
X3363800D03*
X3373800Y1340000D03*
X3526200D03*
Y1490000D03*
X3373800D03*
X3353800Y2290000D03*
X3506200D03*
Y2440000D03*
X3353800D03*
X4713800Y1320000D03*
Y1470000D03*
X4866200Y1320000D03*
Y1470000D03*
G54D23*
G01X943800Y330000D02*
X703400D01*
G01X733800Y2600000D02*
Y2373800D01*
G01Y2600000D02*
Y2800000D01*
G01D02*
Y3357600D01*
X886200Y3510000D01*
G01X733800Y3760000D02*
Y3662400D01*
X886200Y3510000D01*
G01D02*
X1237000D01*
X1240000Y3513000D01*
G01X1890000Y1360000D02*
X1526200D01*
X1506200Y1340000D01*
G01X2013800Y1360000D02*
X1890000D01*
G01X3363800Y370000D02*
Y266200D01*
G01X3373800Y1340000D02*
Y1236200D01*
G01X3353800Y2290000D02*
X3370000Y2273800D01*
Y2180000D01*
G01X4713800Y1320000D02*
X4673800Y1360000D01*
X4600000D01*
G54D14*
X730000Y910000D03*
X5180000Y4570000D03*
G54D15*
X1188400Y2600000D03*
X1391600D03*
X1188400Y2800000D03*
X1391600D03*
G54D16*
X1240000Y3259000D03*
X1700000Y4630000D03*
G54D17*
X1240000Y3513000D03*
Y4021000D03*
Y3767000D03*
X1954000Y4630000D03*
X2462000D03*
X2208000D03*
X2970000D03*
X2716000D03*
X3732000D03*
X3478000D03*
X3224000D03*
X4240000D03*
X3986000D03*
X4494000D03*
G54D18*
G01X3480000Y190000D02*
X3270000D01*
G54D19*
G01X886200Y3760000D02*
X786200Y3860000D01*
X680000D01*
X650000Y3890000D01*
Y4090000D01*
X750000Y4190000D01*
X1620000D01*
X1700000Y4270000D01*
Y4630000D01*
G01X886200Y3760000D02*
X1233000D01*
X1240000Y3767000D01*
G01X886540Y4022460D02*
X1238540D01*
X1240000Y4021000D01*
G01X1954000Y4630000D02*
X1950000Y4626000D01*
Y4110000D01*
X1861000Y4021000D01*
X1240000D01*
M02*
