G04 ================== begin FILE IDENTIFICATION RECORD ==================*
G04 Layout Name:  MK60_DRIVE_V10A.brd*
G04 Film Name:    ADB*
G04 File Format:  Gerber RS274X*
G04 File Origin:  Cadence Allegro 16.6-2015-S082*
G04 Origin Date:  Thu May 18 17:39:08 2017*
G04 *
G04 Layer:  REF DES/SILKSCREEN_BOTTOM*
G04 Layer:  PIN/BOTTOM*
G04 Layer:  PACKAGE GEOMETRY/SILKSCREEN_BOTTOM*
G04 Layer:  BOARD GEOMETRY/SILKSCREEN_BOTTOM*
G04 Layer:  BOARD GEOMETRY/OUTLINE*
G04 *
G04 Offset:    (0.0000 0.0000)*
G04 Mirror:    No*
G04 Mode:      Positive*
G04 Rotation:  0*
G04 FullContactRelief:  No*
G04 UndefLineWidth:     0.1524*
G04 ================== end FILE IDENTIFICATION RECORD ====================*
%FSLAX55Y55*MOMM*%
%IR0*IPPOS*OFA0.00000B0.00000*MIA0B0*SFA1.00000B1.00000*%
%ADD15O,4.X2.*%
%ADD11O,2.X4.*%
%ADD17C,2.032*%
%ADD16C,1.9*%
%ADD18C,1.524*%
%ADD10C,6.35*%
%ADD14C,3.048*%
%ADD19R,1.524X1.524*%
%ADD12C,1.778*%
%ADD13R,1.778X1.778*%
%ADD20C,.1524*%
G75*
%LPD*%
G75*
G54D10*
X1000000Y1000000D03*
Y14000000D03*
X14000000Y1000000D03*
Y14000000D03*
G54D20*
G01X1000000Y0D02*
X14000000D01*
G03X15000000Y1000000I0J1000000D01*
G01Y14000000D01*
G03X14000000Y15000000I-1000000J0D01*
G01X1000000D01*
G03X0Y14000000I0J-1000000D01*
G01Y1000000D01*
G03X1000000Y0I1000000J0D01*
G54D11*
X850000Y12970000D03*
X1450000D03*
G54D12*
X1080000Y2136000D03*
Y2390000D03*
Y2644000D03*
Y2898000D03*
Y3152000D03*
Y3406000D03*
Y3660000D03*
Y3914000D03*
Y4168000D03*
Y4422000D03*
Y4676000D03*
X2467000Y950000D03*
X2213000D03*
X2721000D03*
X4320000Y9370000D03*
Y9770000D03*
Y10330000D03*
Y10730000D03*
X5150000Y9380000D03*
Y9780000D03*
Y10340000D03*
Y10740000D03*
X6880000Y2800000D03*
X7640000D03*
X7600000Y8990000D03*
Y8590000D03*
X7580000Y10340000D03*
Y10740000D03*
X7890000Y6583000D03*
G54D13*
X1080000Y4930000D03*
X1959000Y950000D03*
X7890000Y6837000D03*
G54D14*
X1050000Y7178000D03*
Y7686000D03*
Y8194000D03*
Y8702000D03*
Y9636000D03*
Y10144000D03*
Y11076000D03*
Y11584000D03*
G54D15*
X1170000Y12490000D03*
G54D16*
X2030000Y12760000D03*
Y12320000D03*
Y13200000D03*
G54D17*
X2700000Y12392540D03*
Y13140000D03*
X3290000Y12392540D03*
Y13140000D03*
X5050000Y12392540D03*
Y13140000D03*
G54D18*
X3530000Y1224000D03*
X4038000D03*
Y970000D03*
X3784000Y1224000D03*
Y970000D03*
X4546000Y1224000D03*
X4292000D03*
X4546000Y970000D03*
X4292000D03*
X5054000Y1224000D03*
X4800000D03*
X5054000Y970000D03*
X4800000D03*
X5562000Y1224000D03*
Y970000D03*
X5308000Y1224000D03*
Y970000D03*
X5816000Y1224000D03*
Y970000D03*
X6965000Y1130000D03*
X7875000D03*
X8785000D03*
X9705000D03*
X10615000D03*
X11505000D03*
X12690000Y1120000D03*
X12940000D03*
G54D19*
X3530000Y970000D03*
X6715000Y1130000D03*
X7625000D03*
X8535000D03*
X9455000D03*
X10365000D03*
X11255000D03*
X12440000Y1120000D03*
M02*
