G04 ================== begin FILE IDENTIFICATION RECORD ==================*
G04 Layout Name:  MK60_DRIVE_V10A.brd*
G04 Film Name:    BOTTOM*
G04 File Format:  Gerber RS274X*
G04 File Origin:  Cadence Allegro 16.6-2015-S082*
G04 Origin Date:  Thu May 18 17:39:08 2017*
G04 *
G04 Layer:  BOARD GEOMETRY/OUTLINE*
G04 Layer:  ETCH/BOTTOM*
G04 Layer:  PIN/BOTTOM*
G04 Layer:  VIA CLASS/BOTTOM*
G04 *
G04 Offset:    (0.0000 0.0000)*
G04 Mirror:    No*
G04 Mode:      Positive*
G04 Rotation:  0*
G04 FullContactRelief:  No*
G04 UndefLineWidth:     0.1524*
G04 ================== end FILE IDENTIFICATION RECORD ====================*
%FSLAX55Y55*MOMM*%
%IR0*IPPOS*OFA0.00000B0.00000*MIA0B0*SFA1.00000B1.00000*%
%ADD18C,.762*%
%ADD10C,.6096*%
%ADD16O,4.X2.*%
%ADD12O,2.X4.*%
%ADD19C,2.032*%
%ADD17C,1.9*%
%ADD20C,1.524*%
%ADD11C,6.35*%
%ADD15C,3.048*%
%ADD21R,1.524X1.524*%
%ADD13C,1.778*%
%ADD14R,1.778X1.778*%
%ADD22C,.4*%
%ADD23C,.254*%
%ADD24C,.7112*%
%ADD25C,.1524*%
%ADD26C,.508*%
%ADD27C,2.*%
%ADD28C,3.3024*%
%ADD33C,4.0644*%
%ADD36C,2.8148*%
%ADD31C,2.7944*%
%ADD30C,2.6928*%
%ADD29C,7.2648*%
%ADD34C,3.9628*%
%ADD32C,2.9468*%
%ADD35O,2.9148X4.9148*%
G75*
%LPD*%
G75*
G36*
G01X14990000Y1000000D02*
G02X14000000Y10000I-989146J-854D01*
G01X1000000D01*
G02X10000Y1000000I-2073J987927D01*
G01Y14000000D01*
G02X1000000Y14990000I994706J-4706D01*
G01X14000000D01*
G02X14990000Y14000000I-4744J-994744D01*
G01Y1000000D01*
G37*
%LPC*%
G75*
G36*
G01X13300290Y589980D02*
X13300000Y590000D01*
X1743640D01*
G02X1420000Y919950I3178J326818D01*
G01Y1000000D01*
G03X1000000Y1400000I-393967J6834D01*
G01X870000D01*
X869660Y1399980D01*
G02X559980Y1709660I-19660J290020D01*
G01X560000Y1710000D01*
Y13294000D01*
G02X766000Y13500000I223000J-17000D01*
G01X1010000D01*
G03X1510000Y13940000I65088J430127D01*
G01Y14280070D01*
G02X1739250Y14480110I199430J2831D01*
G01X1740010Y14480000D01*
X13220000D01*
X13220530Y14480060D01*
G02X13540060Y14160530I30470J-289060D01*
G01X13540000Y14160000D01*
Y14000000D01*
G03X13990000Y13530000I414734J-53340D01*
G01X14010000D01*
X14010650Y13530080D01*
G02X14480040Y13080430I53748J-413716D01*
G01X14480000Y13080000D01*
Y1800000D01*
X14480010Y1799810D01*
G02X14160000Y1460000I-327092J-12554D01*
G01X14020000D01*
G03X13550000Y1000000I-53329J-415621D01*
G01Y840000D01*
X13550020Y839710D01*
G02X13300290Y589980I-235928J-13802D01*
G37*
G54D28*
X1000000Y310000D03*
X14010000Y14720000D03*
G54D29*
X1000000Y1000000D03*
Y14000000D03*
X14000000Y1000000D03*
Y14000000D03*
%LPD*%
G75*
G36*
G01X13230000Y860000D02*
G02X13020000Y650000I-184000J-26000D01*
G01X1840000D01*
G02X1530000Y960000I-16034J293966D01*
G01Y1001230D01*
G03X1060000Y1510000I-501432J8256D01*
G01X880000D01*
G02X660000Y1770000I2273J225000D01*
G01Y10836260D01*
G02X694690Y10850630I20321J0D01*
G01X821050Y10724260D01*
X1748950D01*
X1905740Y10881050D01*
Y11350000D01*
X3790000D01*
X4310000Y11870000D01*
Y12780000D01*
X4390000Y12860000D01*
X5880000D01*
X5950000Y12790000D01*
Y11960000D01*
X5960000D01*
X6570000Y11350000D01*
X8210000D01*
G02X8730000Y10840000I19218J-500504D01*
G01Y2388860D01*
G03X9068860Y2050000I334000J-4860D01*
G01X12920000D01*
G02X13230000Y1730000I21667J-289167D01*
G01Y860000D01*
G37*
G36*
G01X840000Y10770000D02*
X650000Y10960000D01*
Y13210000D01*
X740000Y13300000D01*
X1150000D01*
X1230000Y13220000D01*
Y12830000D01*
X1450000Y12610000D01*
X1927970D01*
X1949110Y12588860D01*
X2030000D01*
G03X2112390Y12610000I-4J171139D01*
G01X3870000D01*
X3980000Y12500000D01*
Y12090000D01*
X3870000Y11980000D01*
X2000000D01*
X1860000Y11840000D01*
Y10900000D01*
X1730000Y10770000D01*
X840000D01*
G37*
%LPC*%
G75*
G36*
G01X11382020Y1002980D02*
X11127980D01*
Y1257020D01*
X11382020D01*
Y1228480D01*
G03X11417000Y1214420I20318J5D01*
G02Y1045580I88000J-84420D01*
G03X11382020Y1031520I-14662J-14065D01*
G01Y1002980D01*
G37*
G36*
G01X10492020D02*
X10237980D01*
Y1257020D01*
X10492020D01*
Y1228480D01*
G03X10527000Y1214420I20318J5D01*
G02Y1045580I88000J-84420D01*
G03X10492020Y1031520I-14662J-14065D01*
G01Y1002980D01*
G37*
G36*
G01X9582020D02*
X9327980D01*
Y1257020D01*
X9582020D01*
Y1228480D01*
G03X9617000Y1214420I20318J5D01*
G02Y1045580I88000J-84420D01*
G03X9582020Y1031520I-14662J-14065D01*
G01Y1002980D01*
G37*
G36*
G01X8662020D02*
X8407980D01*
Y1257020D01*
X8662020D01*
Y1228480D01*
G03X8697000Y1214420I20318J5D01*
G02Y1045580I88000J-84420D01*
G03X8662020Y1031520I-14662J-14065D01*
G01Y1002980D01*
G37*
G36*
G01X7752020D02*
X7497980D01*
Y1257020D01*
X7752020D01*
Y1228480D01*
G03X7787000Y1214420I20318J5D01*
G02Y1045580I88000J-84420D01*
G03X7752020Y1031520I-14662J-14065D01*
G01Y1002980D01*
G37*
G36*
G01X6842020D02*
X6587980D01*
Y1257020D01*
X6842020D01*
Y1228480D01*
G03X6877000Y1214420I20318J5D01*
G02Y1045580I88000J-84420D01*
G03X6842020Y1031520I-14662J-14065D01*
G01Y1002980D01*
G37*
G36*
G01X12567020Y992980D02*
X12312980D01*
Y1247020D01*
X12567020D01*
Y1225690D01*
G03X12601500Y1211110I20321J-4D01*
G02X12800300Y1183000I88504J-91110D01*
G03X12835380Y1182640I17645J10074D01*
G02Y1057360I104620J-62640D01*
G03X12800300Y1057000I-17435J-10434D01*
G02X12601500Y1028890I-110296J63000D01*
G03X12567020Y1014310I-14159J-14576D01*
G01Y992980D01*
G37*
G36*
G01X6121090Y5854370D02*
X6313360Y5662100D01*
Y3827050D01*
G02X6206640I-53360J-47050D01*
G01Y5617900D01*
X6045630Y5778910D01*
X6042090Y5779300D01*
G02X6120700Y5857910I7910J70700D01*
G01X6121090Y5854370D01*
G37*
G36*
G01X6473360Y5925950D02*
Y3947050D01*
G02X6366640I-53360J-47050D01*
G01Y5925950D01*
G02X6473360I53360J47050D01*
G37*
G36*
G01X5173360Y4972950D02*
Y4727050D01*
G02X5066640I-53360J-47050D01*
G01Y4972950D01*
G02X5173360I53360J47050D01*
G37*
G36*
G01X5603360Y5272950D02*
Y4917050D01*
G02X5496640I-53360J-47050D01*
G01Y5272950D01*
G02X5603360I53360J47050D01*
G37*
G36*
G01X6899860Y6279740D02*
Y5902660D01*
X6900490Y5900950D01*
G02X6767110I-66690J-24750D01*
G01X6767740Y5902660D01*
Y6279740D01*
X6767110Y6281450D01*
G02X6900490I66690J24750D01*
G01X6899860Y6279740D01*
G37*
G36*
G01X8013220Y6697280D02*
G03X7997070Y6664640I6J-20318D01*
G02X7782930I-107070J-81640D01*
G03X7766780Y6697280I-16156J12322D01*
G01X7750280D01*
Y6976720D01*
X8029720D01*
Y6697280D01*
X8013220D01*
G37*
G36*
G01X6003360Y10157900D02*
Y9977050D01*
G02X5896640I-53360J-47050D01*
G01Y10202100D01*
X6047900Y10353360D01*
X7232950D01*
G02Y10246640I47050J-53360D01*
G01X6092100D01*
X6003360Y10157900D01*
G37*
G36*
G01X5993360Y8447900D02*
Y8247050D01*
G02X5886640I-53360J-47050D01*
G01Y8492100D01*
X5987900Y8593360D01*
X7222950D01*
G02Y8486640I47050J-53360D01*
G01X6032100D01*
X5993360Y8447900D01*
G37*
G36*
G01X3983360Y9602100D02*
Y7297050D01*
G02X3876640I-53360J-47050D01*
G01Y9557900D01*
X3717900Y9716640D01*
X2757900D01*
X2512840Y9961700D01*
Y11192950D01*
G02X2619560I53360J47050D01*
G01Y10005900D01*
X2802100Y9823360D01*
X3762100D01*
X3983360Y9602100D01*
G37*
G36*
G01X2356120Y864980D02*
G03X2323880I-16120J-12364D01*
G02X2126530Y840250I-110878J85019D01*
G03X2093640Y824290I-12571J-15964D01*
G01Y815360D01*
X1824360D01*
Y1084640D01*
X2093640D01*
Y1075710D01*
G03X2126530Y1059750I20319J4D01*
G02X2213000Y1089720I86470J-109757D01*
G01X2266300D01*
X2472640Y1296060D01*
X3413520D01*
X3445750Y1319060D01*
X3446140Y1319400D01*
G02X3530000Y1351020I83860J-95393D01*
G01X3563600D01*
X3848640Y1636060D01*
X4623540D01*
X4625250Y1636690D01*
G02Y1503310I24750J-66690D01*
G01X4623540Y1503940D01*
X3903360D01*
X3779690Y1380270D01*
G03X3792630Y1345630I14371J-14369D01*
G02X3892860Y1278940I-8629J-121632D01*
G03X3929140I18140J9160D01*
G02X4146860I108860J-54940D01*
G03X4183140I18140J9160D01*
G02X4400860I108860J-54940D01*
G03X4437140I18140J9160D01*
G02X4654860I108860J-54940D01*
G03X4691140I18140J9160D01*
G02X4908860I108860J-54940D01*
G03X4945140I18140J9160D01*
G02X5162860I108860J-54940D01*
G03X5199140I18140J9160D01*
G02X5416860I108860J-54940D01*
G03X5453140I18140J9160D01*
G02X5670860I108860J-54940D01*
G03X5707140I18140J9160D01*
G02X5875610Y1117620I108861J-54942D01*
G03X5875950Y1081980I9932J-17727D01*
G02X5706510Y905600I-59954J-111981D01*
G03X5671490I-17510J-10299D01*
G02X5452510I-109490J64400D01*
G03X5417490I-17510J-10299D01*
G02X5198510I-109490J64400D01*
G03X5163490I-17510J-10299D01*
G02X4944510I-109490J64400D01*
G03X4909490I-17510J-10299D01*
G02X4690510I-109490J64400D01*
G03X4655490I-17510J-10299D01*
G02X4436510I-109490J64400D01*
G03X4401490I-17510J-10299D01*
G02X4182510I-109490J64400D01*
G03X4147490I-17510J-10299D01*
G02X3928510I-109490J64400D01*
G03X3893490I-17510J-10299D01*
G02X3692050Y882370I-109486J64399D01*
G03X3657020Y868350I-14710J-14019D01*
G01Y842980D01*
X3402980D01*
Y1065100D01*
X3452240Y1122150D01*
X3441610Y1132780D01*
X3441550Y1132830D01*
G02X3438830Y1135560I88612J91007D01*
G01X3438780Y1135610D01*
X3410440Y1163940D01*
X2527360D01*
X2484600Y1121180D01*
G03X2494910Y1086900I14371J-14368D01*
G02X2577880Y1035020I-27900J-136906D01*
G03X2610120I16120J12364D01*
G02Y864980I110880J-85020D01*
G03X2577880I-16120J-12364D01*
G02X2356120I-110880J85020D01*
G37*
G36*
G01X1161310Y2249630D02*
G02X1180240Y2233330I-81339J-113605D01*
G01X1180290Y2233280D01*
X1211520Y2202060D01*
X1928640D01*
X2040140Y2313560D01*
Y3393940D01*
X1742640D01*
X1613940Y3522640D01*
Y6267360D01*
X1902640Y6556060D01*
X2953540D01*
X2955250Y6556690D01*
G02X2977140Y6561080I24760J-66689D01*
G03X2996640Y6581390I-821J20304D01*
G01Y7582950D01*
G02X3103360I53360J47050D01*
G01Y4122100D01*
X3191950Y4033510D01*
G03X3226640Y4047880I14370J14367D01*
G01Y4728610D01*
G03X3207140Y4748920I-20321J6D01*
G02X3143310Y4844750I2863J71080D01*
G01X3143940Y4846460D01*
Y5093540D01*
X3143310Y5095250D01*
G02Y5144750I66690J24750D01*
G01X3143940Y5146460D01*
Y5703540D01*
X3143310Y5705250D01*
G02X3207140Y5801080I66693J24750D01*
G03X3226640Y5821390I-821J20304D01*
G01Y7852950D01*
G02X3279020Y7971130I53360J47048D01*
G01X3283140Y7971190D01*
X3293250Y7981290D01*
X3275630Y7998910D01*
X3272090Y7999300D01*
G02X3209020Y8065290I7913J70698D01*
G03X3191200Y8084110I-20276J-1352D01*
G01X3144260Y8131050D01*
Y8234260D01*
X2628950D01*
X2603360Y8208670D01*
Y7847050D01*
G02X2555160Y7729050I-53360J-47048D01*
G03X2545740Y7718910I741J-10134D01*
G01Y7051050D01*
X2358950Y6864260D01*
X851050D01*
X744260Y6971050D01*
Y7338950D01*
X835310Y7430000D01*
X754260Y7511050D01*
Y7828950D01*
X850310Y7925000D01*
X734260Y8041050D01*
Y8338950D01*
X845310Y8450000D01*
X734260Y8561050D01*
Y9068950D01*
X921050Y9255740D01*
X3298950D01*
X3475740Y9078950D01*
Y8141050D01*
X3418950Y8084260D01*
X3390260D01*
G03X3375890Y8049570I-3J-20320D01*
G01X3433360Y7992100D01*
Y4122100D01*
X3584370Y3971090D01*
X3587910Y3970700D01*
G02X3623810Y3956050I-7912J-70699D01*
G03X3656640Y3972060I12510J16012D01*
G01Y7992950D01*
G02X3763360I53360J47050D01*
G01Y3637050D01*
G02X3656640I-53360J-47050D01*
G01Y3827940D01*
G03X3623810Y3843950I-20320J-2D01*
G02X3549580Y3835690I-43812J56049D01*
G03X3522920Y3826800I-8687J-18368D01*
G02X3423430Y3798980I-62918J33200D01*
G03X3394550Y3790090I-10443J-17430D01*
G02X3377620Y3767150I-64544J29917D01*
G03X3376370Y3753400I6798J-7550D01*
G02X3272950Y3656640I-56367J-43403D01*
G01X2660800D01*
G03X2640630Y3633880I1J-20319D01*
G02X2630340Y3587680I-70627J-8515D01*
G02X2606180Y3488750I-60341J-37679D01*
G03Y3471250I5168J-8750D01*
G02X2617050Y3463360I-36167J-61260D01*
G01X6467900D01*
X6768910Y3764370D01*
X6769300Y3767910D01*
G02X6847910Y3689300I70700J-7910D01*
G01X6844370Y3688910D01*
X6512100Y3356640D01*
X3927880D01*
G03X3913510Y3321950I-3J-20320D01*
G01X4492100Y2743360D01*
X5532950D01*
G02X5630050Y2639440I47051J-53361D01*
G03Y2610560I14292J-14440D01*
G02Y2509440I-50050J-50560D01*
G03Y2480560I14292J-14440D01*
G02X5634560Y2475650I-50080J-50527D01*
G01X5634850Y2475310D01*
X5642350Y2467800D01*
X5774980Y2600430D01*
X5772870Y2606460D01*
G02X5773990Y2656530I67130J23546D01*
G03X5752880Y2684300I-18855J7576D01*
G02X5684340Y2792170I-7881J70702D01*
G01Y3117830D01*
G02X5674180Y3148250I60660J37167D01*
G03X5653950Y3166640I-20228J-1929D01*
G01X4322100D01*
X4311090Y3155630D01*
X4310700Y3152090D01*
G02X4232090Y3230700I-70700J7910D01*
G01X4235630Y3231090D01*
X4277900Y3273360D01*
X7792100D01*
X8003360Y3062100D01*
Y2657050D01*
G02X7896640I-53360J-47050D01*
G01Y3017900D01*
X7747900Y3166640D01*
X5836050D01*
G03X5815820Y3148250I-2J-20319D01*
G02X5805660Y3117830I-70820J6747D01*
G01Y2792170D01*
G02X5811010Y2728470I-60659J-37169D01*
G03X5832120Y2700700I18855J-7576D01*
G02X5895580Y2585600I7878J-70701D01*
G01X5893360Y2582820D01*
Y2567740D01*
G03X5893760Y2541590I15752J-12837D01*
G02X5890050Y2444440I-53760J-46593D01*
G03Y2415560I14292J-14440D01*
G02X5847910Y2294300I-50048J-50560D01*
G01X5844370Y2293910D01*
X5718510Y2168050D01*
G03X5732880Y2133360I14367J-14370D01*
G01X7637900D01*
X8066640Y2562100D01*
Y8047900D01*
X7664260Y8450280D01*
X7600000D01*
G02X7739720Y8590000I0J139720D01*
G01Y8525740D01*
X8173360Y8092100D01*
Y2517900D01*
X7682100Y2026640D01*
X2807050D01*
G02Y2133360I-47050J53360D01*
G01X4502120D01*
G03X4516490Y2168050I3J20320D01*
G01X3827900Y2856640D01*
X3627050D01*
G02X3508870Y2908870I-47049J53360D01*
G02X3438870Y2978870I1130J71130D01*
G02X3487050Y3103360I1130J71131D01*
G01X3588760D01*
G03X3609030Y3125080I-1J20320D01*
G02X3621170Y3170000I70970J4920D01*
G02Y3250000I58830J40000D01*
G02X3618660Y3326030I58830J39999D01*
G03X3601140Y3356640I-17522J10290D01*
G01X2617050D01*
G02X2533820Y3471250I-47052J53357D01*
G03Y3488750I-5168J8750D01*
G02X2522950Y3496640I36167J61260D01*
G01X2176060D01*
Y3473460D01*
X2176220Y3472570D01*
G02Y3447430I-70020J-12570D01*
G01X2176060Y3446540D01*
Y2262640D01*
X1983360Y2069940D01*
X1211520D01*
X1180290Y2038720D01*
X1180240Y2038670D01*
G02X998690Y2249630I-100238J97337D01*
G03X999080Y2282390I-11824J16523D01*
G02Y2497610I80920J107610D01*
G03X998690Y2530370I-12214J16237D01*
G02X994980Y2754880I81307J113629D01*
G03Y2787120I-12364J16120D01*
G02Y3008880I85020J110880D01*
G03Y3041120I-12364J16120D01*
G02Y3262880I85020J110880D01*
G03Y3295120I-12364J16120D01*
G02Y3516880I85020J110880D01*
G03Y3549120I-12364J16120D01*
G02Y3770880I85020J110880D01*
G03Y3803120I-12364J16120D01*
G02Y4024880I85020J110880D01*
G03Y4057120I-12364J16120D01*
G02Y4278880I85020J110880D01*
G03Y4311120I-12364J16120D01*
G02Y4532880I85020J110880D01*
G03Y4565120I-12364J16120D01*
G02X966900Y4758030I85021J110874D01*
G03X950450Y4790280I-16451J11929D01*
G01X940280D01*
Y5069720D01*
X1219720D01*
Y4790280D01*
X1209550D01*
G03X1193100Y4758030I1J-20321D01*
G02X1165020Y4565120I-113101J-82036D01*
G03Y4532880I12364J-16120D01*
G02Y4311120I-85020J-110880D01*
G03Y4278880I12364J-16120D01*
G02Y4057120I-85020J-110880D01*
G03Y4024880I12364J-16120D01*
G02Y3803120I-85020J-110880D01*
G03Y3770880I12364J-16120D01*
G02Y3549120I-85020J-110880D01*
G03Y3516880I12364J-16120D01*
G02Y3295120I-85020J-110880D01*
G03Y3262880I12364J-16120D01*
G02Y3041120I-85020J-110880D01*
G03Y3008880I12364J-16120D01*
G02Y2787120I-85020J-110880D01*
G03Y2754880I12364J-16120D01*
G02X1161310Y2530370I-85017J-110881D01*
G03X1160920Y2497610I11824J-16523D01*
G02Y2282390I-80920J-107610D01*
G03X1161310Y2249630I12214J-16237D01*
G37*
G36*
G01X1070000Y12344260D02*
G02Y12635740I0J145740D01*
G01X1270000D01*
G02Y12344260I0J-145740D01*
G01X1070000D01*
G37*
G54D33*
X1050000Y10144000D03*
Y11584000D03*
G54D36*
X2030000Y12320000D03*
G54D31*
X7580000Y10340000D03*
X7640000Y2800000D03*
X6880000D03*
X5150000Y10340000D03*
Y9780000D03*
X4320000Y10330000D03*
Y9770000D03*
G54D30*
X7580000Y10740000D03*
X7600000Y8990000D03*
X5150000Y10740000D03*
Y9380000D03*
X4320000Y10730000D03*
Y9370000D03*
G54D34*
X1050000Y9636000D03*
Y11076000D03*
G54D32*
X5050000Y12392540D03*
X2700000D03*
X3290000D03*
G54D35*
X850000Y12970000D03*
%LPD*%
G75*
G36*
G01X1187760Y2153960D02*
X1142850Y2198850D01*
X1073650Y2136000D01*
X1142850Y2073150D01*
X1187760Y2118040D01*
G03Y2153960I-17960J17960D01*
G37*
G36*
G01X870000Y6910000D02*
X790000Y6990000D01*
Y7320000D01*
X870000Y7400000D01*
X2100000D01*
X2200000Y7500000D01*
Y8270000D01*
X2210000Y8280000D01*
X2310000D01*
X2332460Y8257540D01*
X2333230Y8255440D01*
G03X2375440Y8213230I66770J24560D01*
G01X2377540Y8212460D01*
X2380000Y8210000D01*
X2387300D01*
X2388140Y8209860D01*
G03X2411860I11860J70140D01*
G01X2412700Y8210000D01*
X2460000D01*
X2496640Y8173360D01*
Y7847050D01*
G03X2500000Y7749390I53359J-47052D01*
G01Y7070000D01*
X2340000Y6910000D01*
X870000D01*
G37*
G36*
G01X880000Y7450000D02*
X800000Y7530000D01*
Y7810000D01*
X910000Y7920000D01*
X1700000D01*
X1830000Y8050000D01*
Y8400000D01*
X2134260Y8704260D01*
X2801050D01*
X2860000Y8645310D01*
Y8440000D01*
X2850000Y8430000D01*
X2562710D01*
X2561870Y8430140D01*
G03X2538130I-11870J-70140D01*
G01X2537290Y8430000D01*
X2489050D01*
X2488210Y8430140D01*
G03X2464470I-11870J-70140D01*
G01X2463630Y8430000D01*
X2412710D01*
X2411870Y8430140D01*
G03X2388130I-11870J-70140D01*
G01X2387290Y8430000D01*
X2280000D01*
X2180000Y8330000D01*
Y8314690D01*
X2154260Y8288950D01*
Y7574260D01*
X2030000Y7450000D01*
X1091850D01*
G03X1008150I-41850J-63700D01*
G01X880000D01*
G37*
G36*
G01X870000Y7970000D02*
X780000Y8060000D01*
Y8320000D01*
X880000Y8420000D01*
X1240000D01*
X1730000Y8910000D01*
X2900000D01*
X2940000Y8870000D01*
Y8710000D01*
X2910000Y8680000D01*
X2890000D01*
X2820000Y8750000D01*
X2792710D01*
X2791870Y8750140D01*
G03X2768130I-11870J-70140D01*
G01X2767290Y8750000D01*
X2722710D01*
X2721870Y8750140D01*
G03X2698130I-11870J-70140D01*
G01X2697290Y8750000D01*
X2040000D01*
X1750000Y8460000D01*
Y8120000D01*
X1600000Y7970000D01*
X1058910D01*
X1058350Y7970060D01*
G03X1041650I-8350J-75760D01*
G01X1041090Y7970000D01*
X870000D01*
G37*
G36*
G01X3210000Y8130000D02*
X3190000Y8150000D01*
Y8270000D01*
X3260000Y8340000D01*
Y8850000D01*
X3140000Y8970000D01*
X1690000D01*
X1200000Y8480000D01*
X880000D01*
X780000Y8580000D01*
Y9050000D01*
X940000Y9210000D01*
X3280000D01*
X3430000Y9060000D01*
Y8160000D01*
X3400000Y8130000D01*
X3318220D01*
G03X3244060Y8131390I-38218J-60001D01*
G01X3241680Y8130000D01*
X3210000D01*
G37*
G36*
G01X2166640Y6342950D02*
Y4057900D01*
X2307900Y3916640D01*
X3022950D01*
G03X3122510Y3922000I47052J53359D01*
G02X3151880Y3922660I15000J-13706D01*
G01X3258910Y3815630D01*
X3259300Y3812090D01*
G03X3264710Y3791750I70699J7915D01*
G02X3246060Y3763360I-18649J-8070D01*
G01X2237050D01*
G03X2119370Y3701470I-47052J-53359D01*
G02X2099200Y3678710I-20171J-2441D01*
G01X1936750D01*
X1913360Y3702100D01*
Y3822950D01*
G03X1820000Y3928830I-53359J47051D01*
G03X1769410Y3940350I-40003J-58829D01*
G02X1746060Y3960440I-3031J20091D01*
G01Y6212640D01*
X1957360Y6423940D01*
X2129560D01*
G02X2149650Y6400590I-1J-20319D01*
G03X2166640Y6342950I70349J-10588D01*
G37*
G36*
G01X1788980Y3835880D02*
X1801540Y3848460D01*
X1780000Y3873180D01*
X1758460Y3848460D01*
X1771020Y3835880D01*
G03X1788980I8980J8980D01*
G37*
G36*
G01X1868980D02*
X1881540Y3848460D01*
X1860000Y3873180D01*
X1838460Y3848460D01*
X1851020Y3835880D01*
G03X1868980I8980J8980D01*
G37*
G36*
G01X2283500Y1038900D02*
X2213000D01*
X2208280Y945750D01*
X2301740Y947220D01*
X2308750Y1010720D01*
G03X2283500Y1038900I-25250J2778D01*
G37*
G36*
G01X2110000Y3449020D02*
Y3456200D01*
X2104120Y3466000D01*
X2084660Y3438460D01*
X2092040Y3431060D01*
X2110000Y3449020D01*
G37*
G36*
G01X3022950Y4023360D02*
X2352100D01*
X2273360Y4102100D01*
Y6342950D01*
G03X2290350Y6400590I-53359J47052D01*
G02X2310440Y6423940I20091J3031D01*
G01X2953540D01*
X2955250Y6423310D01*
G03X2977140Y6418920I24760J66689D01*
G02X2996640Y6398610I-821J-20304D01*
G01Y4077900D01*
X3037860Y4036680D01*
X3030040Y4028860D01*
X3029300Y4028350D01*
G03X3022950Y4023360I40710J-58341D01*
G37*
G36*
G01X2224120Y3718980D02*
X2211540Y3731540D01*
X2186820Y3710000D01*
X2211540Y3688460D01*
X2224120Y3701020D01*
G03Y3718980I-8980J8980D01*
G37*
G36*
G01X2228980Y6355880D02*
X2241540Y6368460D01*
X2220000Y6393180D01*
X2198460Y6368460D01*
X2211020Y6355880D01*
G03X2228980I8980J8980D01*
G37*
G36*
G01X2494690Y8240000D02*
X2478950Y8255740D01*
X2398950D01*
X2360000Y8294690D01*
Y8380000D01*
X2364260Y8384260D01*
X2868950D01*
X2884690Y8400000D01*
X2940000D01*
X3060000Y8520000D01*
X3190000D01*
X3200000Y8510000D01*
Y8344690D01*
X3144260Y8288950D01*
Y8280000D01*
X2610000D01*
X2570000Y8240000D01*
X2494690D01*
G37*
G36*
G01X2099600Y12415000D02*
X2030000D01*
X2025510Y12315510D01*
X2125000Y12320000D01*
Y12389600D01*
G03X2099600Y12415000I-25400J0D01*
G37*
G36*
G01X1960400Y12225000D02*
X2030000D01*
X2034490Y12324490D01*
X1935000Y12320000D01*
Y12250400D01*
G03X1960400Y12225000I25400J0D01*
G37*
G36*
G01X2125000Y12250400D02*
Y12320000D01*
X2025510Y12324490D01*
X2030000Y12225000D01*
X2099600D01*
G03X2125000Y12250400I0J25400D01*
G37*
G36*
G01X1935000Y12389600D02*
Y12320000D01*
X2034490Y12315510D01*
X2030000Y12415000D01*
X1960400D01*
G03X1935000Y12389600I0J-25400D01*
G37*
G36*
G01X2794120Y2088980D02*
X2781540Y2101540D01*
X2756820Y2080000D01*
X2781540Y2058460D01*
X2794120Y2071020D01*
G03Y2088980I-8980J8980D01*
G37*
G36*
G01X2604120Y3418980D02*
X2591540Y3431540D01*
X2566820Y3410000D01*
X2591540Y3388460D01*
X2604120Y3401020D01*
G03Y3418980I-8980J8980D01*
G37*
G36*
G01X2535880Y3541020D02*
X2548460Y3528460D01*
X2573180Y3550000D01*
X2548460Y3571540D01*
X2535880Y3558980D01*
G03Y3541020I8980J-8980D01*
G37*
G36*
G01Y3616370D02*
X2548460Y3603810D01*
X2573180Y3625350D01*
X2548460Y3646890D01*
X2535880Y3634330D01*
G03Y3616370I8980J-8980D01*
G37*
G36*
G01X2541020Y7834120D02*
X2528460Y7821540D01*
X2550000Y7796820D01*
X2571540Y7821540D01*
X2558980Y7834120D01*
G03X2541020I-8980J-8980D01*
G37*
G36*
G01X2575180Y11205880D02*
X2587740Y11218460D01*
X2566200Y11243180D01*
X2544660Y11218460D01*
X2557220Y11205880D01*
G03X2575180I8980J8980D01*
G37*
G36*
G01X3434200Y1212040D02*
X3476130Y1170130D01*
X3536330Y1223510D01*
X3479330Y1280590D01*
X3437400Y1250670D01*
G03X3434200Y1212040I14760J-20670D01*
G37*
G36*
G01X3515910Y1118130D02*
X3453800Y1046200D01*
X3530000Y963650D01*
X3606200Y1046200D01*
X3544090Y1118130D01*
G03X3515910I-14090J-21140D01*
G37*
G36*
G01X3035880Y3961020D02*
X3048460Y3948460D01*
X3073180Y3970000D01*
X3048460Y3991540D01*
X3035880Y3978980D01*
G03Y3961020I8980J-8980D01*
G37*
G36*
G01X3299520Y3837780D02*
Y3820000D01*
X3332250Y3817750D01*
X3330000Y3850480D01*
X3312220D01*
G03X3299520Y3837780I0J-12700D01*
G37*
G36*
G01X3285880Y3701020D02*
X3298460Y3688460D01*
X3323180Y3710000D01*
X3298460Y3731540D01*
X3285880Y3718980D01*
G03Y3701020I8980J-8980D01*
G37*
G36*
G01X3429520Y3877780D02*
Y3860000D01*
X3462250Y3857750D01*
X3460000Y3890480D01*
X3442220D01*
G03X3429520Y3877780I0J-12700D01*
G37*
G36*
G01X3058980Y7595880D02*
X3071540Y7608460D01*
X3050000Y7633180D01*
X3028460Y7608460D01*
X3041020Y7595880D01*
G03X3058980I8980J8980D01*
G37*
G36*
G01X3288980Y7865880D02*
X3301540Y7878460D01*
X3280000Y7903180D01*
X3258460Y7878460D01*
X3271020Y7865880D01*
G03X3288980I8980J8980D01*
G37*
G36*
G01X3310480Y8052220D02*
Y8070000D01*
X3277750Y8072250D01*
X3280000Y8039520D01*
X3297780D01*
G03X3310480Y8052220I0J12700D01*
G37*
G36*
G01X3766040Y1313800D02*
X3730130Y1277870D01*
X3784000Y1217650D01*
X3837870Y1277870D01*
X3801960Y1313800D01*
G03X3766040I-17960J-17960D01*
G37*
G36*
G01X3873800Y1241960D02*
X3837870Y1277870D01*
X3777650Y1224000D01*
X3837870Y1170130D01*
X3873800Y1206040D01*
G03Y1241960I-17960J17960D01*
G37*
G36*
G01X4020040Y1313800D02*
X3984130Y1277870D01*
X4038000Y1217650D01*
X4091870Y1277870D01*
X4055960Y1313800D01*
G03X4020040I-17960J-17960D01*
G37*
G36*
G01X3948200Y1206040D02*
X3984130Y1170130D01*
X4044350Y1224000D01*
X3984130Y1277870D01*
X3948200Y1241960D01*
G03Y1206040I17960J-17960D01*
G37*
G36*
G01X3580800Y1300200D02*
X3530000D01*
X3525510Y1219510D01*
X3606200Y1224000D01*
Y1274800D01*
G03X3580800Y1300200I-25400J0D01*
G37*
G36*
G01X3547960Y1134200D02*
X3583870Y1170130D01*
X3530000Y1230350D01*
X3476130Y1170130D01*
X3512040Y1134200D01*
G03X3547960I17960J17960D01*
G37*
G36*
G01X3549520Y3917780D02*
Y3900000D01*
X3582250Y3897750D01*
X3580000Y3930480D01*
X3562220D01*
G03X3549520Y3917780I0J-12700D01*
G37*
G36*
G01X3701020Y3624120D02*
X3688460Y3611540D01*
X3710000Y3586820D01*
X3731540Y3611540D01*
X3718980Y3624120D01*
G03X3701020I-8980J-8980D01*
G37*
G36*
G01X3921020Y7284120D02*
X3908460Y7271540D01*
X3930000Y7246820D01*
X3951540Y7271540D01*
X3938980Y7284120D01*
G03X3921020I-8980J-8980D01*
G37*
G36*
G01X3718980Y8005880D02*
X3731540Y8018460D01*
X3710000Y8043180D01*
X3688460Y8018460D01*
X3701020Y8005880D01*
G03X3718980I8980J8980D01*
G37*
G36*
G01X4127800Y1241960D02*
X4091870Y1277870D01*
X4031650Y1224000D01*
X4091870Y1170130D01*
X4127800Y1206040D01*
G03Y1241960I-17960J17960D01*
G37*
G36*
G01X4274040Y1313800D02*
X4238130Y1277870D01*
X4292000Y1217650D01*
X4345870Y1277870D01*
X4309960Y1313800D01*
G03X4274040I-17960J-17960D01*
G37*
G36*
G01X4381800Y1241960D02*
X4345870Y1277870D01*
X4285650Y1224000D01*
X4345870Y1170130D01*
X4381800Y1206040D01*
G03Y1241960I-17960J17960D01*
G37*
G36*
G01X4202200Y1206040D02*
X4238130Y1170130D01*
X4298350Y1224000D01*
X4238130Y1277870D01*
X4202200Y1241960D01*
G03Y1206040I17960J-17960D01*
G37*
G36*
G01X4528040Y1313800D02*
X4492130Y1277870D01*
X4546000Y1217650D01*
X4599870Y1277870D01*
X4563960Y1313800D01*
G03X4528040I-17960J-17960D01*
G37*
G36*
G01X4635800Y1241960D02*
X4599870Y1277870D01*
X4539650Y1224000D01*
X4599870Y1170130D01*
X4635800Y1206040D01*
G03Y1241960I-17960J17960D01*
G37*
G36*
G01X4456200Y1206040D02*
X4492130Y1170130D01*
X4552350Y1224000D01*
X4492130Y1277870D01*
X4456200Y1241960D01*
G03Y1206040I17960J-17960D01*
G37*
G36*
G01X4257780Y3190480D02*
X4240000D01*
X4237750Y3157750D01*
X4270480Y3160000D01*
Y3177780D01*
G03X4257780Y3190480I-12700J0D01*
G37*
G36*
G01X4383500Y9458900D02*
X4320000D01*
X4315510Y9365510D01*
X4408900Y9370000D01*
Y9433500D01*
G03X4383500Y9458900I-25400J0D01*
G37*
G36*
G01X4408900Y9306500D02*
Y9370000D01*
X4315510Y9374490D01*
X4320000Y9281100D01*
X4383500D01*
G03X4408900Y9306500I0J25400D01*
G37*
G36*
G01X4231100Y9433500D02*
Y9370000D01*
X4324490Y9365510D01*
X4320000Y9458900D01*
X4256500D01*
G03X4231100Y9433500I0J-25400D01*
G37*
G36*
G01X4256500Y9281100D02*
X4320000D01*
X4324490Y9374490D01*
X4231100Y9370000D01*
Y9306500D01*
G03X4256500Y9281100I25400J0D01*
G37*
G36*
G01X4383500Y10818900D02*
X4320000D01*
X4315510Y10725510D01*
X4408900Y10730000D01*
Y10793500D01*
G03X4383500Y10818900I-25400J0D01*
G37*
G36*
G01X4256500Y10641100D02*
X4320000D01*
X4324490Y10734490D01*
X4231100Y10730000D01*
Y10666500D01*
G03X4256500Y10641100I25400J0D01*
G37*
G36*
G01X4231100Y10793500D02*
Y10730000D01*
X4324490Y10725510D01*
X4320000Y10818900D01*
X4256500D01*
G03X4231100Y10793500I0J-25400D01*
G37*
G36*
G01X4408900Y10666500D02*
Y10730000D01*
X4315510Y10734490D01*
X4320000Y10641100D01*
X4383500D01*
G03X4408900Y10666500I0J25400D01*
G37*
G36*
G01X4782040Y1313800D02*
X4746130Y1277870D01*
X4800000Y1217650D01*
X4853870Y1277870D01*
X4817960Y1313800D01*
G03X4782040I-17960J-17960D01*
G37*
G36*
G01X4889800Y1241960D02*
X4853870Y1277870D01*
X4793650Y1224000D01*
X4853870Y1170130D01*
X4889800Y1206040D01*
G03Y1241960I-17960J17960D01*
G37*
G36*
G01X4710200Y1206040D02*
X4746130Y1170130D01*
X4806350Y1224000D01*
X4746130Y1277870D01*
X4710200Y1241960D01*
G03Y1206040I17960J-17960D01*
G37*
G36*
G01X5036040Y1313800D02*
X5000130Y1277870D01*
X5054000Y1217650D01*
X5107870Y1277870D01*
X5071960Y1313800D01*
G03X5036040I-17960J-17960D01*
G37*
G36*
G01X5143800Y1241960D02*
X5107870Y1277870D01*
X5047650Y1224000D01*
X5107870Y1170130D01*
X5143800Y1206040D01*
G03Y1241960I-17960J17960D01*
G37*
G36*
G01X4964200Y1206040D02*
X5000130Y1170130D01*
X5060350Y1224000D01*
X5000130Y1277870D01*
X4964200Y1241960D01*
G03Y1206040I17960J-17960D01*
G37*
G36*
G01X5061100Y9443500D02*
Y9380000D01*
X5154490Y9375510D01*
X5150000Y9468900D01*
X5086500D01*
G03X5061100Y9443500I0J-25400D01*
G37*
G36*
G01X5086500Y9291100D02*
X5150000D01*
X5154490Y9384490D01*
X5061100Y9380000D01*
Y9316500D01*
G03X5086500Y9291100I25400J0D01*
G37*
G36*
G01X5061100Y10803500D02*
Y10740000D01*
X5154490Y10735510D01*
X5150000Y10828900D01*
X5086500D01*
G03X5061100Y10803500I0J-25400D01*
G37*
G36*
G01X5086500Y10651100D02*
X5150000D01*
X5154490Y10744490D01*
X5061100Y10740000D01*
Y10676500D01*
G03X5086500Y10651100I25400J0D01*
G37*
G36*
G01X5544040Y1313800D02*
X5508130Y1277870D01*
X5562000Y1217650D01*
X5615870Y1277870D01*
X5579960Y1313800D01*
G03X5544040I-17960J-17960D01*
G37*
G36*
G01X5472200Y1206040D02*
X5508130Y1170130D01*
X5568350Y1224000D01*
X5508130Y1277870D01*
X5472200Y1241960D01*
G03Y1206040I17960J-17960D01*
G37*
G36*
G01X5651800Y1241960D02*
X5615870Y1277870D01*
X5555650Y1224000D01*
X5615870Y1170130D01*
X5651800Y1206040D01*
G03Y1241960I-17960J17960D01*
G37*
G36*
G01X5290040Y1313800D02*
X5254130Y1277870D01*
X5308000Y1217650D01*
X5361870Y1277870D01*
X5325960Y1313800D01*
G03X5290040I-17960J-17960D01*
G37*
G36*
G01X5397800Y1241960D02*
X5361870Y1277870D01*
X5301650Y1224000D01*
X5361870Y1170130D01*
X5397800Y1206040D01*
G03Y1241960I-17960J17960D01*
G37*
G36*
G01X5218200Y1206040D02*
X5254130Y1170130D01*
X5314350Y1224000D01*
X5254130Y1277870D01*
X5218200Y1241960D01*
G03Y1206040I17960J-17960D01*
G37*
G36*
G01X5541020Y4904120D02*
X5528460Y4891540D01*
X5550000Y4866820D01*
X5571540Y4891540D01*
X5558980Y4904120D01*
G03X5541020I-8980J-8980D01*
G37*
G36*
G01X5111020Y4714120D02*
X5098460Y4701540D01*
X5120000Y4676820D01*
X5141540Y4701540D01*
X5128980Y4714120D01*
G03X5111020I-8980J-8980D01*
G37*
G36*
G01X5128980Y4985880D02*
X5141540Y4998460D01*
X5120000Y5023180D01*
X5098460Y4998460D01*
X5111020Y4985880D01*
G03X5128980I8980J8980D01*
G37*
G36*
G01X5558980Y5285880D02*
X5571540Y5298460D01*
X5550000Y5323180D01*
X5528460Y5298460D01*
X5541020Y5285880D01*
G03X5558980I8980J8980D01*
G37*
G36*
G01X5213500Y9468900D02*
X5150000D01*
X5145510Y9375510D01*
X5238900Y9380000D01*
Y9443500D01*
G03X5213500Y9468900I-25400J0D01*
G37*
G36*
G01X5238900Y9316500D02*
Y9380000D01*
X5145510Y9384490D01*
X5150000Y9291100D01*
X5213500D01*
G03X5238900Y9316500I0J25400D01*
G37*
G36*
G01X5213500Y10828900D02*
X5150000D01*
X5145510Y10735510D01*
X5238900Y10740000D01*
Y10803500D01*
G03X5213500Y10828900I-25400J0D01*
G37*
G36*
G01X5238900Y10676500D02*
Y10740000D01*
X5145510Y10744490D01*
X5150000Y10651100D01*
X5213500D01*
G03X5238900Y10676500I0J25400D01*
G37*
G36*
G01X5822220Y2334520D02*
X5840000D01*
X5842250Y2367250D01*
X5809520Y2365000D01*
Y2347220D01*
G03X5822220Y2334520I12700J0D01*
G37*
G36*
G01Y2464520D02*
X5840000D01*
X5842250Y2497250D01*
X5809520Y2495000D01*
Y2477220D01*
G03X5822220Y2464520I12700J0D01*
G37*
G36*
G01X5848980Y2595880D02*
X5861540Y2608460D01*
X5840000Y2633180D01*
X5818460Y2608460D01*
X5831020Y2595880D01*
G03X5848980I8980J8980D01*
G37*
G36*
G01X6080480Y5832220D02*
Y5850000D01*
X6047750Y5852250D01*
X6050000Y5819520D01*
X6067780D01*
G03X6080480Y5832220I0J12700D01*
G37*
G36*
G01X5931020Y8234120D02*
X5918460Y8221540D01*
X5940000Y8196820D01*
X5961540Y8221540D01*
X5948980Y8234120D01*
G03X5931020I-8980J-8980D01*
G37*
G36*
G01X5941020Y9964120D02*
X5928460Y9951540D01*
X5950000Y9926820D01*
X5971540Y9951540D01*
X5958980Y9964120D01*
G03X5941020I-8980J-8980D01*
G37*
G36*
G01X6251020Y3814120D02*
X6238460Y3801540D01*
X6260000Y3776820D01*
X6281540Y3801540D01*
X6268980Y3814120D01*
G03X6251020I-8980J-8980D01*
G37*
G36*
G01X6411020Y3934120D02*
X6398460Y3921540D01*
X6420000Y3896820D01*
X6441540Y3921540D01*
X6428980Y3934120D01*
G03X6411020I-8980J-8980D01*
G37*
G36*
G01X6428980Y5938880D02*
X6441540Y5951460D01*
X6420000Y5976180D01*
X6398460Y5951460D01*
X6411020Y5938880D01*
G03X6428980I8980J8980D01*
G37*
G36*
G01X6822220Y3729520D02*
X6840000D01*
X6842250Y3762250D01*
X6809520Y3760000D01*
Y3742220D01*
G03X6822220Y3729520I12700J0D01*
G37*
G36*
G01X7235880Y8531020D02*
X7248460Y8518460D01*
X7273180Y8540000D01*
X7248460Y8561540D01*
X7235880Y8548980D01*
G03Y8531020I8980J-8980D01*
G37*
G36*
G01X7688900Y8926500D02*
Y8990000D01*
X7595510Y8994490D01*
X7600000Y8901100D01*
X7663500D01*
G03X7688900Y8926500I0J25400D01*
G37*
G36*
G01X7536500Y8901100D02*
X7600000D01*
X7604490Y8994490D01*
X7511100Y8990000D01*
Y8926500D01*
G03X7536500Y8901100I25400J0D01*
G37*
G36*
G01X7688900Y8513800D02*
Y8590000D01*
X7597750Y8592250D01*
X7600000Y8501100D01*
X7676200D01*
G03X7688900Y8513800I0J12700D01*
G37*
G36*
G01X7663500Y9078900D02*
X7600000D01*
X7595510Y8985510D01*
X7688900Y8990000D01*
Y9053500D01*
G03X7663500Y9078900I-25400J0D01*
G37*
G36*
G01X7511100Y9053500D02*
Y8990000D01*
X7604490Y8985510D01*
X7600000Y9078900D01*
X7536500D01*
G03X7511100Y9053500I0J-25400D01*
G37*
G36*
G01X7245880Y10291020D02*
X7258460Y10278460D01*
X7283180Y10300000D01*
X7258460Y10321540D01*
X7245880Y10308980D01*
G03Y10291020I8980J-8980D01*
G37*
G36*
G01X7643500Y10828900D02*
X7580000D01*
X7575510Y10735510D01*
X7668900Y10740000D01*
Y10803500D01*
G03X7643500Y10828900I-25400J0D01*
G37*
G36*
G01X7668900Y10676500D02*
Y10740000D01*
X7575510Y10744490D01*
X7580000Y10651100D01*
X7643500D01*
G03X7668900Y10676500I0J25400D01*
G37*
G36*
G01X7516500Y10651100D02*
X7580000D01*
X7584490Y10744490D01*
X7491100Y10740000D01*
Y10676500D01*
G03X7516500Y10651100I25400J0D01*
G37*
G36*
G01X7491100Y10803500D02*
Y10740000D01*
X7584490Y10735510D01*
X7580000Y10828900D01*
X7516500D01*
G03X7491100Y10803500I0J-25400D01*
G37*
G36*
G01X7941020Y2644120D02*
X7928460Y2631540D01*
X7950000Y2606820D01*
X7971540Y2631540D01*
X7958980Y2644120D01*
G03X7941020I-8980J-8980D01*
G37*
%LPC*%
G75*
G36*
G01X2729150Y6240440D02*
X2523250D01*
G02Y6347160I-47050J53360D01*
G01X2729150D01*
G02Y6240440I47050J-53360D01*
G37*
G36*
G01X2732950Y5976640D02*
X2523250D01*
G02Y6083360I-47050J53360D01*
G01X2732950D01*
G02Y5976640I47050J-53360D01*
G37*
G36*
G01Y5726640D02*
X2523250D01*
G02Y5833360I-47050J53360D01*
G01X2732950D01*
G02Y5726640I47050J-53360D01*
G37*
G36*
G01Y5476640D02*
X2523250D01*
G02Y5583360I-47050J53360D01*
G01X2732950D01*
G02Y5476640I47050J-53360D01*
G37*
G54D34*
X1050000Y7178000D03*
Y7686000D03*
Y8194000D03*
Y8702000D03*
%LPD*%
G75*
G36*
G01X2745880Y5521020D02*
X2758460Y5508460D01*
X2783180Y5530000D01*
X2758460Y5551540D01*
X2745880Y5538980D01*
G03Y5521020I8980J-8980D01*
G37*
G36*
G01X2510320Y5538980D02*
X2497740Y5551540D01*
X2473020Y5530000D01*
X2497740Y5508460D01*
X2510320Y5521020D01*
G03Y5538980I-8980J8980D01*
G37*
G36*
G01X2745880Y6021020D02*
X2758460Y6008460D01*
X2783180Y6030000D01*
X2758460Y6051540D01*
X2745880Y6038980D01*
G03Y6021020I8980J-8980D01*
G37*
G36*
G01X2510320Y6038980D02*
X2497740Y6051540D01*
X2473020Y6030000D01*
X2497740Y6008460D01*
X2510320Y6021020D01*
G03Y6038980I-8980J8980D01*
G37*
G36*
G01X2745880Y5771020D02*
X2758460Y5758460D01*
X2783180Y5780000D01*
X2758460Y5801540D01*
X2745880Y5788980D01*
G03Y5771020I8980J-8980D01*
G37*
G36*
G01X2510320Y5788980D02*
X2497740Y5801540D01*
X2473020Y5780000D01*
X2497740Y5758460D01*
X2510320Y5771020D01*
G03Y5788980I-8980J8980D01*
G37*
G36*
G01X2742080Y6284820D02*
X2754660Y6272260D01*
X2779380Y6293800D01*
X2754660Y6315340D01*
X2742080Y6302780D01*
G03Y6284820I8980J-8980D01*
G37*
G36*
G01X2510320Y6302780D02*
X2497740Y6315340D01*
X2473020Y6293800D01*
X2497740Y6272260D01*
X2510320Y6284820D01*
G03Y6302780I-8980J8980D01*
G37*
G36*
G01X2558980Y8245880D02*
X2571540Y8258460D01*
X2550000Y8283180D01*
X2528460Y8258460D01*
X2541020Y8245880D01*
G03X2558980I8980J8980D01*
G37*
G54D10*
X253580Y676620D03*
Y1184620D03*
Y1692620D03*
Y2200620D03*
Y2708620D03*
Y3216620D03*
Y3724620D03*
Y4232620D03*
Y4740620D03*
Y5248620D03*
Y5756620D03*
Y6264620D03*
Y6772620D03*
Y7280620D03*
Y7788620D03*
Y8296620D03*
Y8804620D03*
Y9312620D03*
Y9820620D03*
Y10328620D03*
Y10836620D03*
Y11344620D03*
Y11852620D03*
Y12360620D03*
Y12868620D03*
Y13376620D03*
Y13884620D03*
Y14392620D03*
X677380Y203580D03*
X437380Y14683580D03*
X1185380Y203580D03*
X815080Y1799470D03*
X1323080D03*
X1309470Y5266920D03*
Y5774920D03*
X1319470Y6336920D03*
X945380Y14683580D03*
X1693380Y203580D03*
X1545080Y1409470D03*
X1405080Y2359470D03*
X1435080Y2739470D03*
X1780000Y3870000D03*
X1860000D03*
X1539470Y4196920D03*
Y4704920D03*
X1549470Y5266920D03*
X1453380Y14683580D03*
X2201380Y203580D03*
X2053080Y1409470D03*
X2210000Y2050000D03*
X1913080Y2359470D03*
X1943080Y2739470D03*
X2106200Y3460000D03*
X2039470Y4086920D03*
X2190000Y3710000D03*
X2349470Y4376920D03*
X2039470Y4594920D03*
X2349470Y4884920D03*
X2049470Y5156920D03*
X2359470Y5446920D03*
X2090000Y6590000D03*
Y6780000D03*
X2220000Y6390000D03*
X2230000Y8240000D03*
X2300000D03*
X2230000Y8170000D03*
X2300000D03*
X2370000D03*
X2400000Y8280000D03*
Y8360000D03*
X1950000Y9360000D03*
X2060000D03*
X2170000D03*
X2290000D03*
X2400000D03*
X1961380Y14683580D03*
X2709380Y203580D03*
X2735080Y1119470D03*
Y1359470D03*
Y1679470D03*
X2770000Y2280000D03*
X2540000Y2110000D03*
X2760000Y2080000D03*
X2585080Y2979470D03*
X2570000Y3410000D03*
Y3550000D03*
X2950000Y4100000D03*
X2570000Y3625350D03*
X2690000Y4500000D03*
X2840000Y4610000D03*
Y4880000D03*
Y5070000D03*
X2476200Y5530000D03*
X2780000D03*
X2476200Y5780000D03*
X2780000D03*
X2476200Y6030000D03*
X2780000D03*
X2860000Y6730000D03*
X2430000Y6590000D03*
Y6770000D03*
X2476200Y6293800D03*
X2776200D03*
X2860000Y6970000D03*
Y7170000D03*
X2550000Y7800000D03*
X2440000Y8170000D03*
X2476340Y8280000D03*
X2550000D03*
Y8360000D03*
X2476340D03*
X2890000Y8720000D03*
X2750000Y8790000D03*
X2820000D03*
X2890000D03*
Y8860000D03*
X2820000D03*
X2750000D03*
Y8610000D03*
X2710000Y8680000D03*
X2780000D03*
X2823660Y8610000D03*
X2820000Y8540000D03*
Y8470000D03*
X2510000Y9360000D03*
X2620000D03*
X2566200Y11240000D03*
X2434920Y12532400D03*
Y12278400D03*
X2831600Y12204920D03*
X2577600D03*
Y12564920D03*
X2831600D03*
X2469380Y14683580D03*
X3217380Y203580D03*
X3243080Y1119470D03*
Y1359470D03*
Y1679470D03*
X3265080Y1949470D03*
X3093080Y2979470D03*
X3440000Y3050000D03*
X3180000Y4100000D03*
X3070000Y3970000D03*
X3330000Y3820000D03*
X3320000Y3710000D03*
X3460000Y3860000D03*
X3500000Y4840000D03*
X3210000Y4820000D03*
Y5120000D03*
Y5730000D03*
X3160000Y5940000D03*
Y6190000D03*
X2980000Y6490000D03*
X3050000Y7630000D03*
X3090000Y8350000D03*
X3160000D03*
Y8420000D03*
X3090000D03*
X3340000Y8250000D03*
Y8180000D03*
X3280000D03*
X3220000D03*
X3280000Y8250000D03*
X3220000D03*
X3280000Y7900000D03*
Y8070000D03*
X3160000Y8490000D03*
X3090000D03*
X3500000Y9460000D03*
X3280000Y9370000D03*
X3090000D03*
X3480000D03*
X3340000Y9460000D03*
X3150000D03*
X3415080Y10475470D03*
X3075080Y10485470D03*
X3405080Y10685470D03*
X3065080Y10695470D03*
X3415080Y10915470D03*
X3075080Y10925470D03*
X3275080Y11115470D03*
X2964920Y12532400D03*
Y12278400D03*
X3339600Y12204920D03*
X3085600D03*
Y12564920D03*
X3339600D03*
X3485380Y14683580D03*
X2977380D03*
X3725380Y203580D03*
X3773080Y1949470D03*
X3920000Y2690000D03*
X3580000Y2910000D03*
X3510000Y2980000D03*
X3680000Y3290000D03*
Y3210000D03*
Y3130000D03*
X3570000Y4090000D03*
X3790000Y4060000D03*
X3580000Y3900000D03*
X3710000Y3590000D03*
X3940000Y5030000D03*
X3530000Y5020000D03*
X3933080Y4859470D03*
X3535080Y5499470D03*
X3930000Y7250000D03*
X3800000Y7690000D03*
Y7590000D03*
Y7500000D03*
X3830000Y8020000D03*
X4030000Y8350000D03*
X3740000D03*
X3710000Y8040000D03*
X4030000Y8500000D03*
X3740000D03*
X3690000Y9460000D03*
X3670000Y9370000D03*
X3985080Y11105470D03*
X3715080Y10685470D03*
Y10915470D03*
X3615080Y11105470D03*
X3850000Y12200000D03*
Y12560000D03*
X3597600Y12314920D03*
X3851600D03*
X3597600Y12424920D03*
X3851600D03*
X3593600Y12204920D03*
Y12564920D03*
X3993380Y14683580D03*
X4233380Y203580D03*
X4305080Y1969470D03*
X4240000Y3160000D03*
X4185080Y3809470D03*
X4055080Y4339470D03*
X4563080D03*
X4495080Y4849470D03*
X4043080Y5499470D03*
X4100000Y8010000D03*
X4190000Y8350000D03*
Y8500000D03*
X4325080Y11095470D03*
X4055080Y10675470D03*
Y10905470D03*
X4566440Y12428480D03*
X4576440Y12234480D03*
X4452440D03*
X4442440Y12428480D03*
X4501380Y14683580D03*
X4741380Y203580D03*
X4650000Y1570000D03*
X4813080Y1969470D03*
X4780000Y2830000D03*
X4650000Y3290000D03*
X4815080Y3579470D03*
X4693080Y3809470D03*
X4690000Y5020000D03*
X5003080Y4849470D03*
X4605080Y5489470D03*
X5113080D03*
X5030000Y5850000D03*
X4900000Y5830000D03*
X5090000Y6270000D03*
Y6440000D03*
Y6590000D03*
X5110000Y7020000D03*
Y6920000D03*
X4920000Y8300000D03*
X5080000D03*
X4730000D03*
X4850000Y8640000D03*
Y8480000D03*
Y8830000D03*
X4660000Y8620000D03*
Y8460000D03*
Y8810000D03*
X4850000Y9030000D03*
X5010000D03*
X4660000D03*
X4830000Y9310000D03*
X4990000D03*
X4640000D03*
X4820000Y9440000D03*
X4980000D03*
X4630000D03*
X5060000Y9170000D03*
X4870000D03*
X4955080Y10675470D03*
X4615080Y10685470D03*
X4965080Y10885470D03*
X4625080Y10895470D03*
X4975080Y11085470D03*
X4635080Y11095470D03*
X4706440Y12234480D03*
X4900440Y12564480D03*
X4696440Y12428480D03*
X4900440Y12818480D03*
X5009380Y14683580D03*
X5249380Y203580D03*
X5505080Y1869470D03*
X5580000Y2430000D03*
Y2690000D03*
Y2560000D03*
X5230000Y3310000D03*
X5323080Y3579470D03*
X5170000Y4040000D03*
X5255080Y3789470D03*
X5620000Y4760000D03*
X5550000Y4870000D03*
X5120000Y5020000D03*
Y4680000D03*
X5525080Y5479470D03*
X5550000Y5320000D03*
X5120000Y5920000D03*
X5200000Y6440000D03*
X5300000D03*
X5460000Y7150000D03*
X5650000Y7160000D03*
X5320000Y7070000D03*
X5210000D03*
X5220000Y9170000D03*
X5370000Y9310000D03*
X5550000D03*
X5520000Y9630000D03*
Y9770000D03*
X5365080Y11085470D03*
X5436440Y12564480D03*
X5166440D03*
X5254440Y12234480D03*
X5508440D03*
X5234440Y12398480D03*
X5488440D03*
X5436440Y12818480D03*
X5166440D03*
X5517380Y14683580D03*
X5757380Y203580D03*
X5710000Y1450000D03*
X6013080Y1869470D03*
X6000000Y2190000D03*
X5840000Y2365000D03*
Y2495000D03*
X5745000Y2755000D03*
X5840000Y2630000D03*
X6160000Y3070000D03*
X5750000Y3310000D03*
X5745000Y3155000D03*
X6185080Y3665470D03*
X5720000Y4080000D03*
X5763080Y3789470D03*
X6080000Y4550000D03*
X5660000Y4990000D03*
X5890000Y4770000D03*
X6165080Y5269470D03*
X6033080Y5479470D03*
X6050000Y5850000D03*
X5890000Y6660000D03*
Y6560000D03*
X5870000Y7150000D03*
X5880000Y6940000D03*
Y7030000D03*
X5760000Y7630000D03*
X5940000Y7620000D03*
X5810000Y8230000D03*
X5740000Y7900000D03*
X5930000D03*
X5940000Y8200000D03*
X5930000Y8830000D03*
Y8650000D03*
X5900000Y9310000D03*
X5740000D03*
X5930000Y9120000D03*
Y8980000D03*
X5860000Y10030000D03*
X5900000Y9620000D03*
X5690000D03*
X5950000Y9930000D03*
X5930000Y10370000D03*
Y10800000D03*
X5920000Y10590000D03*
X6095080Y11085470D03*
X5705080Y11075470D03*
X5706440Y12564480D03*
X5762440Y12234480D03*
X5706440Y12818480D03*
X6025380Y14683580D03*
X6265380Y203580D03*
X6450000Y1450000D03*
X6550000Y1990000D03*
X6560000Y2200000D03*
X6695080Y2479470D03*
X6700000Y3320000D03*
X6645080Y3717470D03*
X6260000Y3780000D03*
X6420000Y3900000D03*
X6645080Y4225470D03*
X6655080Y4547470D03*
Y5055470D03*
X6673080Y5269470D03*
X6420000Y5973000D03*
X6390000Y6440000D03*
X6670000Y6460000D03*
Y6600000D03*
X6630000Y6990000D03*
X6490000Y6820000D03*
X6440000Y7640000D03*
Y7960000D03*
X6520000Y9240000D03*
X6410000Y9450000D03*
X6501820Y9678760D03*
X6435080Y11075470D03*
X6533380Y14683580D03*
X6773380Y203580D03*
X6970000Y870000D03*
X7250000Y1980000D03*
X7203080Y2479470D03*
X7270000Y3320000D03*
X6995080Y4029470D03*
X6840000Y3760000D03*
X6995080Y4537470D03*
Y5045470D03*
X6833800Y5876200D03*
X6910000Y6440000D03*
X7170000D03*
X6833800Y6306200D03*
X6911820Y7618760D03*
Y7938760D03*
X7200000Y8770000D03*
X7270000Y8540000D03*
X7200000Y8970000D03*
X6991820Y9218760D03*
X6801820Y9458760D03*
X7009820Y9678760D03*
X7140000Y10510000D03*
X6860000Y10900000D03*
X7125080Y10895470D03*
X7135080Y11065470D03*
X6795080Y11075470D03*
X7041380Y14683580D03*
X7789380Y203580D03*
X7281380D03*
X7710000Y870000D03*
X7685080Y2469470D03*
X7503080Y4029470D03*
Y4537470D03*
Y5045470D03*
X7480000Y6270000D03*
X7410000Y5930000D03*
X7630000Y6390000D03*
X7800000Y6280000D03*
X7630000Y6690000D03*
X7520000Y7140000D03*
X7510000Y7360000D03*
X7390000Y7620000D03*
X7760000Y8190000D03*
X7801820Y7918760D03*
X7330000Y7940000D03*
X7750000Y9460000D03*
X7499820Y9218760D03*
X7309820Y9458760D03*
X7740000Y9920000D03*
X7540000Y9690000D03*
X7280000Y10300000D03*
X7300000Y10740000D03*
X7465080Y10885470D03*
X7785080Y11055470D03*
X7445080Y11065470D03*
X7549380Y14683580D03*
X8297380Y203580D03*
X7950000Y1990000D03*
X8193080Y2469470D03*
X7950000Y2610000D03*
X7991820Y7118760D03*
X7981820Y7338760D03*
X7861820Y7598760D03*
X8057380Y14683580D03*
X8805380Y203580D03*
X8710000Y880000D03*
X8407040Y2267690D03*
Y2775690D03*
Y3283690D03*
Y3791690D03*
Y4299690D03*
Y4807690D03*
Y5315690D03*
Y5823690D03*
Y6331690D03*
Y6839690D03*
Y7347690D03*
Y7855690D03*
Y8363690D03*
Y8871690D03*
Y9379690D03*
Y9887690D03*
Y10395690D03*
X8565380Y14683580D03*
X9313380Y203580D03*
X8930000Y2020000D03*
X9073380Y14683580D03*
X9821380Y203580D03*
X9450000Y880000D03*
X9670000Y2020000D03*
X9581380Y14683580D03*
X10329380Y203580D03*
X10470000Y890000D03*
X10410000Y2030000D03*
X10089380Y14683580D03*
X10837380Y203580D03*
X10597380Y14683580D03*
X11345380Y203580D03*
X11210000Y890000D03*
X11400000Y1710000D03*
X11150000Y2030000D03*
X11105380Y14683580D03*
X11853380Y203580D03*
X12030000Y890000D03*
X11970000Y1710000D03*
X11850000Y2030000D03*
X11613380Y14683580D03*
X12361380Y203580D03*
X12440000Y1430000D03*
X12280000Y1560000D03*
X12590000Y2030000D03*
X12629380Y14683580D03*
X12121380D03*
X12869380Y203580D03*
X12770000Y890000D03*
X13137380Y14683580D03*
X13377380Y203580D03*
X13645380Y14683580D03*
X13885380Y203580D03*
X14393380D03*
X14773580Y586620D03*
Y1094620D03*
Y1602620D03*
Y2110620D03*
Y2618620D03*
Y3126620D03*
Y3634620D03*
Y4142620D03*
Y4650620D03*
Y5158620D03*
Y5666620D03*
Y6174620D03*
Y6682620D03*
Y7190620D03*
Y7698620D03*
Y8206620D03*
Y8714620D03*
Y9222620D03*
Y9730620D03*
Y10238620D03*
Y10746620D03*
Y11254620D03*
Y11762620D03*
Y12270620D03*
Y12778620D03*
Y13286620D03*
Y13794620D03*
Y14302620D03*
X14360000Y14690000D03*
G54D11*
X1000000Y1000000D03*
Y14000000D03*
X14000000Y1000000D03*
Y14000000D03*
G54D20*
X3530000Y1224000D03*
X4038000D03*
Y970000D03*
X3784000Y1224000D03*
Y970000D03*
X4546000Y1224000D03*
X4292000D03*
X4546000Y970000D03*
X4292000D03*
X5054000Y1224000D03*
X4800000D03*
X5054000Y970000D03*
X4800000D03*
X5562000Y1224000D03*
Y970000D03*
X5308000Y1224000D03*
Y970000D03*
X5816000Y1224000D03*
Y970000D03*
X6965000Y1130000D03*
X7875000D03*
X8785000D03*
X9705000D03*
X10615000D03*
X11505000D03*
X12690000Y1120000D03*
X12940000D03*
G54D21*
X3530000Y970000D03*
X6715000Y1130000D03*
X7625000D03*
X8535000D03*
X9455000D03*
X10365000D03*
X11255000D03*
X12440000Y1120000D03*
G54D12*
X850000Y12970000D03*
X1450000D03*
G54D22*
G01X5745000Y2755000D02*
Y3155000D01*
G54D13*
X1080000Y2136000D03*
Y2390000D03*
Y2644000D03*
Y2898000D03*
Y3152000D03*
Y3406000D03*
Y3660000D03*
Y3914000D03*
Y4168000D03*
Y4422000D03*
Y4676000D03*
X2467000Y950000D03*
X2213000D03*
X2721000D03*
X4320000Y9370000D03*
Y9770000D03*
Y10330000D03*
Y10730000D03*
X5150000Y9380000D03*
Y9780000D03*
Y10340000D03*
Y10740000D03*
X6880000Y2800000D03*
X7640000D03*
X7600000Y8990000D03*
Y8590000D03*
X7580000Y10340000D03*
Y10740000D03*
X7890000Y6583000D03*
G54D23*
G01X2570000Y3550000D02*
X1830000D01*
X1780000Y3600000D01*
Y3870000D01*
G01X1860000D02*
Y3680000D01*
X1914650Y3625350D01*
X2570000D01*
G01X3070000Y3970000D02*
X2330000D01*
X2220000Y4080000D01*
Y6390000D01*
G01X3320000Y3710000D02*
X2190000D01*
G01X7600000Y8590000D02*
X8120000Y8070000D01*
Y2540000D01*
X7660000Y2080000D01*
X2760000D01*
G01X2550190Y3480000D02*
X2510000D01*
G01X2550190D02*
X2620000D01*
G01X2500000Y3470000D02*
X2540190D01*
X2550190Y3480000D01*
G01X2510000D02*
X2500000Y3470000D01*
G01X2570000Y3410000D02*
X6490000D01*
X6840000Y3760000D01*
G01X2780000Y5530000D02*
X2476200D01*
G01X2780000Y5780000D02*
X2476200D01*
G01X2780000Y6030000D02*
X2476200D01*
G01Y6293800D02*
X2776200D01*
G01X2550000Y7800000D02*
Y8280000D01*
G01X3930000Y7250000D02*
Y9580000D01*
X3740000Y9770000D01*
X2780000D01*
X2566200Y9983800D01*
Y11240000D01*
G01X3440000Y3050000D02*
X3870000D01*
X4620000Y2300000D01*
X5550010D01*
X5840000Y2589990D01*
Y2630000D01*
G01X3050000Y7630000D02*
Y4100000D01*
X3330000Y3820000D01*
G01X3280000Y7900000D02*
Y4040000D01*
X3460000Y3860000D01*
G01X3280000Y8070000D02*
X3380000Y7970000D01*
Y4100000D01*
X3580000Y3900000D01*
G01X3680000Y3130000D02*
X3880000D01*
X4580000Y2430000D01*
X5580000D01*
G01X3580000Y2910000D02*
X3850000D01*
X4560000Y2200000D01*
X5675000D01*
X5840000Y2365000D01*
G01X3510000Y2980000D02*
X3860000D01*
X4595000Y2245000D01*
X5590000D01*
X5840000Y2495000D01*
G01X3680000Y3290000D02*
X3870000D01*
X4470000Y2690000D01*
X5580000D01*
G01X3680000Y3210000D02*
X3870000D01*
X4520000Y2560000D01*
X5580000D01*
G01X3710000Y3590000D02*
Y8040000D01*
G01X7950000Y2610000D02*
Y3040000D01*
X7770000Y3220000D01*
X4300000D01*
X4240000Y3160000D01*
G01X5550000Y5320000D02*
Y4870000D01*
G01X5120000Y4680000D02*
Y5020000D01*
G01X6260000Y3780000D02*
Y5640000D01*
X6050000Y5850000D01*
G01X7270000Y8540000D02*
X6010000D01*
X5940000Y8470000D01*
Y8200000D01*
G01X7280000Y10300000D02*
X6070000D01*
X5950000Y10180000D01*
Y9930000D01*
G01X6420000Y5973000D02*
Y3900000D01*
G54D14*
X1080000Y4930000D03*
X1959000Y950000D03*
X7890000Y6837000D03*
G54D24*
G01X626600Y1000000D02*
X1000000D01*
G01X850000Y12900000D02*
Y12920000D01*
G01X694100Y12970000D02*
X850000D01*
G01X626600Y14000000D02*
X1000000D01*
G01Y626600D02*
Y1000000D01*
G01D02*
Y1373400D01*
G01Y1000000D02*
X1373400D01*
G01X935200Y2390000D02*
X1080000D01*
G01D02*
X1224800D01*
G01X1050000Y7180000D02*
Y7386300D01*
G01X1056000Y7686000D02*
X1258300D01*
G01X1050000Y7690000D02*
Y7894300D01*
G01X1056000Y8194000D02*
X1258300D01*
G01X1050000Y7985700D02*
Y8194000D01*
G01D02*
Y8402300D01*
G01X1058000Y8702000D02*
X1258300D01*
G01X1050000Y9427700D02*
Y9636000D01*
G01D02*
Y9844300D01*
G01X841700Y9636000D02*
X1050000D01*
G01D02*
X1258300D01*
G01X1050000Y11080000D02*
Y11284300D01*
G01X1046000Y11076000D02*
X1050000D01*
G01X1054000D02*
X1258300D01*
G01X1050000D02*
X1054000D01*
G01X1050000D02*
Y11080000D01*
G01X1170000Y12490000D02*
X1210000D01*
G01D02*
X1425900D01*
G01X1110000D02*
X1170000D01*
G01Y12334100D02*
Y12490000D01*
G01D02*
Y12645900D01*
G01X850000Y12970000D02*
Y13030000D01*
G01Y12920000D02*
Y12970000D01*
G01Y13030000D02*
Y13050000D01*
G01D02*
Y13225900D01*
G01Y12970000D02*
X1005900D01*
G01X1000000Y13626600D02*
Y14000000D01*
G01D02*
Y14373400D01*
G01Y14000000D02*
X1373400D01*
G01X1814200Y950000D02*
X1959000D01*
G01X1879100Y12320000D02*
X2030000D01*
G01X1959000Y805200D02*
Y950000D01*
G01D02*
Y1094800D01*
G01X2030000Y12169100D02*
Y12320000D01*
G01D02*
Y12470900D01*
G01Y12320000D02*
X2180900D01*
G01X2700000Y12392540D02*
Y12396340D01*
G01Y12392540D02*
X2712540D01*
G01X2700000Y12380000D02*
Y12390000D01*
G01D02*
Y12392540D01*
G01Y12396340D02*
Y12550040D01*
G01X2712540Y12392540D02*
X2857500D01*
G01X2542500D02*
X2700000D01*
G01X3290000D02*
X3297460D01*
G01X3282540D02*
X3290000D01*
G01X3297460D02*
X3302540D01*
G01D02*
X3447500D01*
G01X3277460D02*
X3282540D01*
G01X3290000Y12235040D02*
Y12392540D01*
G01D02*
Y12550040D01*
G01X4320000Y9225200D02*
Y9370000D01*
G01D02*
Y9514800D01*
G01X4175200Y9370000D02*
X4320000D01*
G01D02*
X4464800D01*
G01X4320000Y10585200D02*
Y10730000D01*
G01D02*
Y10874800D01*
G01X4175200Y10730000D02*
X4320000D01*
G01D02*
X4464800D01*
G01X5005200Y9380000D02*
X5150000D01*
G01X5005200Y10740000D02*
X5150000D01*
G01X5057460Y12392540D02*
X5062540D01*
G01D02*
X5207500D01*
G01X5050000Y12390000D02*
Y12392540D01*
G01Y12400000D02*
Y12550040D01*
G01X5150000Y9235200D02*
Y9380000D01*
G01D02*
Y9524800D01*
G01Y9380000D02*
X5294800D01*
G01X5150000Y10595200D02*
Y10740000D01*
G01D02*
Y10884800D01*
G01Y10740000D02*
X5294800D01*
G01X5816000Y1224000D02*
Y1356100D01*
G01Y1224000D02*
X5948100D01*
G01X6965000Y997900D02*
Y1130000D01*
G01D02*
Y1262100D01*
G01Y1130000D02*
X7097100D01*
G01X7745200Y6583000D02*
X7890000D01*
G01X7600000Y8845200D02*
Y8990000D01*
G01D02*
Y9134800D01*
G01X7455200Y8990000D02*
X7600000D01*
G01D02*
X7744800D01*
G01X7580000Y10595200D02*
Y10740000D01*
G01D02*
Y10884800D01*
G01X7435200Y10740000D02*
X7580000D01*
G01D02*
X7724800D01*
G01X7875000Y997900D02*
Y1130000D01*
G01D02*
Y1262100D01*
G01Y1130000D02*
X8007100D01*
G01X7890000Y6438200D02*
Y6583000D01*
G01D02*
X8034800D01*
G01X8785000Y997900D02*
Y1130000D01*
G01D02*
Y1262100D01*
G01Y1130000D02*
X8917100D01*
G01X9705000Y997900D02*
Y1130000D01*
G01D02*
Y1262100D01*
G01Y1130000D02*
X9837100D01*
G01X10615000Y997900D02*
Y1130000D01*
G01D02*
Y1262100D01*
G01Y1130000D02*
X10747100D01*
G01X11505000Y997900D02*
Y1130000D01*
G01D02*
Y1262100D01*
G01Y1130000D02*
X11637100D01*
G01X12940000Y987900D02*
Y1120000D01*
G01D02*
Y1252100D01*
G01Y1120000D02*
X13072100D01*
G01X13626600Y1000000D02*
X14000000D01*
G01X13626600Y14000000D02*
X14000000D01*
G01Y626600D02*
Y1000000D01*
G01D02*
Y1373400D01*
G01Y1000000D02*
X14373400D01*
G01X14000000Y13626600D02*
Y14000000D01*
G01D02*
Y14373400D01*
G01Y14000000D02*
X14373400D01*
G54D15*
X1050000Y7178000D03*
Y7686000D03*
Y8194000D03*
Y8702000D03*
Y9636000D03*
Y10144000D03*
Y11076000D03*
Y11584000D03*
G54D25*
G01X1000000Y0D02*
X14000000D01*
G03X15000000Y1000000I0J1000000D01*
G01Y14000000D01*
G03X14000000Y15000000I-1000000J0D01*
G01X1000000D01*
G03X0Y14000000I0J-1000000D01*
G01Y1000000D01*
G03X1000000Y0I1000000J0D01*
G54D16*
X1170000Y12490000D03*
G54D26*
G01X720000Y12770000D02*
X850000Y12900000D01*
G01Y13030000D02*
X710000Y13170000D01*
G01X2106200Y2286200D02*
X1956000Y2136000D01*
X1080000D01*
G01X1050000Y11080000D02*
X900000Y11230000D01*
G01X1050000Y11080000D02*
X1200000Y11230000D01*
G01X900000Y10930000D02*
X1046000Y11076000D01*
G01X1054000D02*
X1220000Y10910000D01*
G01X1210000Y12490000D02*
X1350000Y12350000D01*
G01X1210000Y12490000D02*
X1350000Y12630000D01*
G01X1110000Y12490000D02*
X980000Y12620000D01*
G01X1110000Y12490000D02*
X980000Y12360000D01*
G01X850000Y12920000D02*
X990000Y12780000D01*
G01X850000Y13050000D02*
X980000Y13180000D01*
G01X2980000Y6490000D02*
X1930000D01*
X1680000Y6240000D01*
Y3550000D01*
X1770000Y3460000D01*
X2106200D01*
G01X3530000Y1224000D02*
X3524000Y1230000D01*
X2500000D01*
X2220000Y950000D01*
X2213000D01*
G01X2106200Y3460000D02*
X2110000Y3456200D01*
Y2290000D01*
X2106200Y2286200D01*
G01Y3460000D02*
Y2286200D01*
G01X2160000Y12190000D02*
X2030000Y12320000D01*
G01D02*
X1910000Y12440000D01*
G01X2030000Y12320000D02*
X1910000Y12200000D01*
G01X2030000Y12320000D02*
X2140000Y12430000D01*
G01D02*
X2150000D01*
G01X2806500Y12273500D02*
X2700000Y12380000D01*
G01Y12390000D02*
X2590000Y12280000D01*
G01X2712540Y12392540D02*
X2816340Y12496340D01*
G01X2560000D02*
X2600000D01*
X2700000Y12396340D01*
G01X3210000Y4820000D02*
Y5120000D01*
G01D02*
Y5730000D01*
G01X3282540Y12392540D02*
X3160000Y12270000D01*
G01X3297460Y12392540D02*
X3410000Y12280000D01*
G01X3302540Y12392540D02*
X3410000Y12500000D01*
G01X3170000D02*
X3277460Y12392540D01*
G01X4038000Y1224000D02*
X3784000D01*
G01Y1354000D02*
Y1224000D01*
G01X3800000Y1370000D02*
X3784000Y1354000D01*
G01X3530000Y970000D02*
Y1224000D01*
G01X4650000Y1570000D02*
X3876000D01*
X3530000Y1224000D01*
G01X4292000D02*
X4038000D01*
G01X4546000D02*
X4292000D01*
G01X4800000D02*
X4546000D01*
G01Y1356000D02*
Y1224000D01*
G01X4292000Y1368000D02*
Y1224000D01*
G01X4038000Y1348000D02*
Y1224000D01*
G01X4550000Y1360000D02*
X4546000Y1356000D01*
G01X4290000Y1370000D02*
X4292000Y1368000D01*
G01X4050000Y1360000D02*
X4038000Y1348000D01*
G01X4320000Y9370000D02*
X4200000Y9250000D01*
G01X4320000Y9370000D02*
X4210000Y9480000D01*
G01X4320000Y9370000D02*
X4440000Y9250000D01*
G01X4420000Y9470000D02*
X4320000Y9370000D01*
G01X4460000Y9470000D02*
X4420000D01*
G01X4320000Y10730000D02*
X4440000Y10610000D01*
G01X4320000Y10730000D02*
X4210000Y10840000D01*
G01X4320000Y10730000D02*
X4200000Y10610000D01*
G01X4420000Y10830000D02*
X4320000Y10730000D01*
G01X4460000Y10830000D02*
X4420000D01*
G01X5054000Y1224000D02*
X4800000D01*
G01X5308000D02*
X5054000D01*
G01X4800000D02*
Y1380000D01*
G01X5054000Y1366000D02*
Y1224000D01*
G01X5050000Y1370000D02*
X5054000Y1366000D01*
G01X5150000Y9380000D02*
X5030000Y9260000D01*
G01X5150000Y9380000D02*
X5040000Y9490000D01*
G01X5150000Y10740000D02*
X5030000Y10620000D01*
G01X5150000Y10740000D02*
X5040000Y10850000D01*
G01X4930000Y12270000D02*
X5050000Y12390000D01*
G01X5180000Y12270000D02*
X5057460Y12392540D01*
G01X5165900Y12495900D02*
X5062540Y12392540D01*
G01X5050000Y12390000D02*
Y12230000D01*
G01X4941480Y12508520D02*
X5050000Y12400000D01*
G01X5562000Y1224000D02*
X5308000D01*
G01X5562000D02*
X5816000D01*
G01X5562000Y1362000D02*
Y1224000D01*
G01X5308000Y1378000D02*
Y1224000D01*
G01X5570000Y1370000D02*
X5562000Y1362000D01*
G01X5320000Y1390000D02*
X5308000Y1378000D01*
G01X5150000Y9380000D02*
X5270000Y9260000D01*
G01X5250000Y9480000D02*
X5150000Y9380000D01*
G01X5290000Y9480000D02*
X5250000D01*
G01X5150000Y10740000D02*
X5270000Y10620000D01*
G01X5250000Y10840000D02*
X5150000Y10740000D01*
G01X5290000Y10840000D02*
X5250000D01*
G01X6833800Y5876200D02*
Y6306200D01*
G01X7600000Y8990000D02*
X7480000Y8870000D01*
G01X7600000Y8990000D02*
X7720000Y8870000D01*
G01X7600000Y8990000D02*
X7490000Y9100000D01*
G01X7600000Y8990000D02*
X7700000Y9090000D01*
G01D02*
X7740000D01*
G01X7580000Y10740000D02*
X7470000Y10850000D01*
G01X7580000Y10740000D02*
X7460000Y10620000D01*
G01X7580000Y10740000D02*
X7700000Y10620000D01*
G01X7680000Y10840000D02*
X7580000Y10740000D01*
G01X7720000Y10840000D02*
X7680000D01*
G54D17*
X2030000Y12760000D03*
Y12320000D03*
Y13200000D03*
G54D27*
G01X1410000Y13710000D02*
X1750000Y13370000D01*
Y13030000D01*
X2020000Y12760000D01*
X2030000D01*
G54D18*
G01X1210000Y7010000D02*
X1050000Y7170000D01*
Y7178000D01*
G01X900000Y7030000D02*
X1048000Y7178000D01*
X1050000D01*
G01Y7180000D02*
X1200000Y7330000D01*
G01X1050000Y7180000D02*
Y7178000D01*
G01X900000Y7330000D02*
X1050000Y7180000D01*
G01X900000Y7540000D02*
X1046000Y7686000D01*
X1050000D01*
G01X1200000Y7520000D02*
Y7536000D01*
G01X1050000Y7690000D02*
Y7686000D01*
G01X900000Y7840000D02*
X1050000Y7690000D01*
G01X1056000Y7686000D02*
X1050000D01*
G01X1210000Y7840000D02*
X1056000Y7686000D01*
G01X1200000Y7536000D02*
X1050000Y7686000D01*
G01X1046000Y8194000D02*
X900000Y8340000D01*
G01X1054000Y8194000D02*
X1210000Y8350000D01*
G01X1050000Y8194000D02*
X1046000D01*
G01X1056000D02*
X1054000D01*
G01X1220000Y8030000D02*
X1056000Y8194000D01*
G01X1054000D02*
X1050000D01*
G01X1046000D02*
X1044000D01*
X890000Y8040000D01*
G01X1052000Y8702000D02*
X1220000Y8870000D01*
G01X900000Y8550000D02*
X1050000Y8700000D01*
Y8702000D01*
G01X880000Y8860000D02*
X1038000Y8702000D01*
X1050000D01*
G01X1058000D02*
X1052000D01*
G01X1210000Y8550000D02*
X1058000Y8702000D01*
G01X1052000D02*
X1050000D01*
X2860000Y8160000D03*
X2750000D03*
Y8050000D03*
X2860000Y7940000D03*
X2750000D03*
X2860000Y8050000D03*
X2970000Y8160000D03*
Y8050000D03*
Y7940000D03*
X6690000Y8330000D03*
Y8150000D03*
Y8240000D03*
Y8430000D03*
Y9970000D03*
Y9880000D03*
Y10160000D03*
Y10060000D03*
X6890000Y8330000D03*
X6790000D03*
Y8150000D03*
X6890000D03*
X6790000Y8240000D03*
X6890000D03*
X6790000Y8430000D03*
X6890000D03*
Y9970000D03*
X6790000D03*
Y9880000D03*
X6890000D03*
X6790000Y10060000D03*
Y10160000D03*
X6890000D03*
Y10060000D03*
G54D19*
X2700000Y12392540D03*
Y13140000D03*
X3290000Y12392540D03*
Y13140000D03*
X5050000Y12392540D03*
Y13140000D03*
M02*
