G04 ================== begin FILE IDENTIFICATION RECORD ==================*
G04 Layout Name:  MK60_DRIVE_V10A.brd*
G04 Film Name:    Drill_Legend*
G04 File Format:  Gerber RS274X*
G04 File Origin:  Cadence Allegro 16.6-2015-S082*
G04 Origin Date:  Thu May 18 17:39:08 2017*
G04 *
G04 Layer:  MANUFACTURING/NCDRILL_LEGEND*
G04 Layer:  MANUFACTURING/NCDRILL_FIGURE*
G04 Layer:  BOARD GEOMETRY/DIMENSION*
G04 Layer:  MANUFACTURING/NCLEGEND-1-2*
G04 Layer:  BOARD GEOMETRY/OUTLINE*
G04 *
G04 Offset:    (0.0000 0.0000)*
G04 Mirror:    No*
G04 Mode:      Positive*
G04 Rotation:  0*
G04 FullContactRelief:  No*
G04 UndefLineWidth:     0.1524*
G04 ================== end FILE IDENTIFICATION RECORD ====================*
%FSLAX55Y55*MOMM*%
%IR0*IPPOS*OFA0.00000B0.00000*MIA0B0*SFA1.00000B1.00000*%
%AMMACRO16*
1,1,.1524,.269239,-.65*
20,1,.1524,.269239,-.65,-.269239,-.65,0.0*
1,1,.1524,-.269239,-.65*
20,1,.1524,-.269239,-.65,-.65,-.269239,0.0*
1,1,.1524,-.65,-.269239*
20,1,.1524,-.65,-.269239,-.65,.269239,0.0*
1,1,.1524,-.65,.269239*
20,1,.1524,-.65,.269239,-.269239,.65,0.0*
1,1,.1524,-.269239,.65*
20,1,.1524,-.269239,.65,.269239,.65,0.0*
1,1,.1524,.269239,.65*
20,1,.1524,.269239,.65,.65,.269239,0.0*
1,1,.1524,.65,.269239*
20,1,.1524,.65,.269239,.65,-.269239,0.0*
1,1,.1524,.65,-.269239*
20,1,.1524,.65,-.269239,.269239,-.65,0.0*
1,1,.1524,.269239,-.65*
%
%ADD16MACRO16*%
%AMMACRO14*
1,1,.1524,1.016,0.0*
20,1,.1524,1.016,0.0,0.0,-1.016,0.0*
1,1,.1524,0.0,-1.016*
20,1,.1524,0.0,-1.016,-1.016,0.0,0.0*
1,1,.1524,-1.016,0.0*
20,1,.1524,-1.016,0.0,0.0,1.016,0.0*
1,1,.1524,0.0,1.016*
20,1,.1524,0.0,1.016,1.016,0.0,0.0*
1,1,.1524,1.016,0.0*
%
%ADD14MACRO14*%
%AMMACRO10*
1,1,.1524,.1524,0.0*
20,1,.1524,.1524,0.0,-.1524,0.0,0.0*
1,1,.1524,-.1524,0.0*
1,1,.1524,0.0,.1524*
20,1,.1524,0.0,.1524,0.0,-.1524,0.0*
1,1,.1524,0.0,-.1524*
%
%ADD10MACRO10*%
%AMMACRO17*
1,1,.1524,.2286,.2286*
20,1,.1524,.2286,.2286,.2286,-.2286,0.0*
1,1,.1524,.2286,-.2286*
20,1,.1524,.2286,-.2286,-.2286,-.2286,0.0*
1,1,.1524,-.2286,-.2286*
20,1,.1524,-.2286,-.2286,-.2286,.2286,0.0*
1,1,.1524,-.2286,.2286*
20,1,.1524,-.2286,.2286,.2286,.2286,0.0*
1,1,.1524,.2286,.2286*
%
%ADD17MACRO17*%
%AMMACRO12*
1,1,.1524,-.5,-1.*
20,1,.1524,-.5,-1.,-.5,1.,0.0*
1,1,.1524,-.5,1.*
20,1,.1524,-.5,1.,-.492404,1.086824,0.0*
1,1,.1524,-.492404,1.086824*
20,1,.1524,-.492404,1.086824,-.469846,1.17101,0.0*
1,1,.1524,-.469846,1.17101*
20,1,.1524,-.469846,1.17101,-.433013,1.25,0.0*
1,1,.1524,-.433013,1.25*
20,1,.1524,-.433013,1.25,-.383022,1.321394,0.0*
1,1,.1524,-.383022,1.321394*
20,1,.1524,-.383022,1.321394,-.321394,1.383022,0.0*
1,1,.1524,-.321394,1.383022*
20,1,.1524,-.321394,1.383022,-.25,1.433013,0.0*
1,1,.1524,-.25,1.433013*
20,1,.1524,-.25,1.433013,-.17101,1.469846,0.0*
1,1,.1524,-.17101,1.469846*
20,1,.1524,-.17101,1.469846,-.086824,1.492404,0.0*
1,1,.1524,-.086824,1.492404*
20,1,.1524,-.086824,1.492404,0.0,1.5,0.0*
1,1,.1524,0.0,1.5*
20,1,.1524,0.0,1.5,.086824,1.492404,0.0*
1,1,.1524,.086824,1.492404*
20,1,.1524,.086824,1.492404,.17101,1.469846,0.0*
1,1,.1524,.17101,1.469846*
20,1,.1524,.17101,1.469846,.25,1.433013,0.0*
1,1,.1524,.25,1.433013*
20,1,.1524,.25,1.433013,.321394,1.383022,0.0*
1,1,.1524,.321394,1.383022*
20,1,.1524,.321394,1.383022,.383022,1.321394,0.0*
1,1,.1524,.383022,1.321394*
20,1,.1524,.383022,1.321394,.433013,1.25,0.0*
1,1,.1524,.433013,1.25*
20,1,.1524,.433013,1.25,.469846,1.17101,0.0*
1,1,.1524,.469846,1.17101*
20,1,.1524,.469846,1.17101,.492404,1.086824,0.0*
1,1,.1524,.492404,1.086824*
20,1,.1524,.492404,1.086824,.5,1.,0.0*
1,1,.1524,.5,1.*
20,1,.1524,.5,1.,.5,-1.,0.0*
1,1,.1524,.5,-1.*
20,1,.1524,.5,-1.,.492404,-1.086824,0.0*
1,1,.1524,.492404,-1.086824*
20,1,.1524,.492404,-1.086824,.469846,-1.17101,0.0*
1,1,.1524,.469846,-1.17101*
20,1,.1524,.469846,-1.17101,.433013,-1.25,0.0*
1,1,.1524,.433013,-1.25*
20,1,.1524,.433013,-1.25,.383022,-1.321394,0.0*
1,1,.1524,.383022,-1.321394*
20,1,.1524,.383022,-1.321394,.321394,-1.383022,0.0*
1,1,.1524,.321394,-1.383022*
20,1,.1524,.321394,-1.383022,.25,-1.433013,0.0*
1,1,.1524,.25,-1.433013*
20,1,.1524,.25,-1.433013,.17101,-1.469846,0.0*
1,1,.1524,.17101,-1.469846*
20,1,.1524,.17101,-1.469846,.086824,-1.492404,0.0*
1,1,.1524,.086824,-1.492404*
20,1,.1524,.086824,-1.492404,0.0,-1.5,0.0*
1,1,.1524,0.0,-1.5*
20,1,.1524,0.0,-1.5,-.086824,-1.492404,0.0*
1,1,.1524,-.086824,-1.492404*
20,1,.1524,-.086824,-1.492404,-.17101,-1.469846,0.0*
1,1,.1524,-.17101,-1.469846*
20,1,.1524,-.17101,-1.469846,-.25,-1.433013,0.0*
1,1,.1524,-.25,-1.433013*
20,1,.1524,-.25,-1.433013,-.321394,-1.383022,0.0*
1,1,.1524,-.321394,-1.383022*
20,1,.1524,-.321394,-1.383022,-.383022,-1.321394,0.0*
1,1,.1524,-.383022,-1.321394*
20,1,.1524,-.383022,-1.321394,-.433013,-1.25,0.0*
1,1,.1524,-.433013,-1.25*
20,1,.1524,-.433013,-1.25,-.469846,-1.17101,0.0*
1,1,.1524,-.469846,-1.17101*
20,1,.1524,-.469846,-1.17101,-.492404,-1.086824,0.0*
1,1,.1524,-.492404,-1.086824*
20,1,.1524,-.492404,-1.086824,-.5,-1.,0.0*
1,1,.1524,-.5,-1.*
1,1,.1524,-.25,-.25*
20,1,.1524,-.25,-.25,-.3167,-.2417,0.0*
1,1,.1524,-.3167,-.2417*
20,1,.1524,-.3167,-.2417,-.375,-.2083,0.0*
1,1,.1524,-.375,-.2083*
20,1,.1524,-.375,-.2083,-.425,-.1583,0.0*
1,1,.1524,-.425,-.1583*
20,1,.1524,-.425,-.1583,-.4583,-.1,0.0*
1,1,.1524,-.4583,-.1*
20,1,.1524,-.4583,-.1,-.475,-.0333,0.0*
1,1,.1524,-.475,-.0333*
20,1,.1524,-.475,-.0333,-.475,.0333,0.0*
1,1,.1524,-.475,.0333*
20,1,.1524,-.475,.0333,-.4583,.1,0.0*
1,1,.1524,-.4583,.1*
20,1,.1524,-.4583,.1,-.425,.1583,0.0*
1,1,.1524,-.425,.1583*
20,1,.1524,-.425,.1583,-.375,.2083,0.0*
1,1,.1524,-.375,.2083*
20,1,.1524,-.375,.2083,-.3167,.2417,0.0*
1,1,.1524,-.3167,.2417*
20,1,.1524,-.3167,.2417,-.25,.25,0.0*
1,1,.1524,-.25,.25*
20,1,.1524,-.25,.25,-.1833,.2417,0.0*
1,1,.1524,-.1833,.2417*
20,1,.1524,-.1833,.2417,-.125,.2083,0.0*
1,1,.1524,-.125,.2083*
20,1,.1524,-.125,.2083,-.075,.1583,0.0*
1,1,.1524,-.075,.1583*
20,1,.1524,-.075,.1583,-.0417,.1,0.0*
1,1,.1524,-.0417,.1*
20,1,.1524,-.0417,.1,-.025,.0333,0.0*
1,1,.1524,-.025,.0333*
20,1,.1524,-.025,.0333,-.025,-.0333,0.0*
1,1,.1524,-.025,-.0333*
20,1,.1524,-.025,-.0333,-.0417,-.1,0.0*
1,1,.1524,-.0417,-.1*
20,1,.1524,-.0417,-.1,-.075,-.1583,0.0*
1,1,.1524,-.075,-.1583*
20,1,.1524,-.075,-.1583,-.125,-.2083,0.0*
1,1,.1524,-.125,-.2083*
20,1,.1524,-.125,-.2083,-.1833,-.2417,0.0*
1,1,.1524,-.1833,-.2417*
20,1,.1524,-.1833,-.2417,-.25,-.25,0.0*
1,1,.1524,-.25,-.25*
1,1,.1524,.0418,-.25*
20,1,.1524,.0418,-.25,.2501,.25,0.0*
1,1,.1524,.2501,.25*
20,1,.1524,.2501,.25,.4584,-.25,0.0*
1,1,.1524,.4584,-.25*
1,1,.1524,.3834,-.075*
20,1,.1524,.3834,-.075,.1168,-.075,0.0*
1,1,.1524,.1168,-.075*
%
%ADD12MACRO12*%
%AMMACRO15*
1,1,.1524,-1.,.5*
20,1,.1524,-1.,.5,1.,.5,0.0*
1,1,.1524,1.,.5*
20,1,.1524,1.,.5,1.086824,.492404,0.0*
1,1,.1524,1.086824,.492404*
20,1,.1524,1.086824,.492404,1.17101,.469846,0.0*
1,1,.1524,1.17101,.469846*
20,1,.1524,1.17101,.469846,1.25,.433013,0.0*
1,1,.1524,1.25,.433013*
20,1,.1524,1.25,.433013,1.321394,.383022,0.0*
1,1,.1524,1.321394,.383022*
20,1,.1524,1.321394,.383022,1.383022,.321394,0.0*
1,1,.1524,1.383022,.321394*
20,1,.1524,1.383022,.321394,1.433013,.25,0.0*
1,1,.1524,1.433013,.25*
20,1,.1524,1.433013,.25,1.469846,.17101,0.0*
1,1,.1524,1.469846,.17101*
20,1,.1524,1.469846,.17101,1.492404,.086824,0.0*
1,1,.1524,1.492404,.086824*
20,1,.1524,1.492404,.086824,1.5,0.0,0.0*
1,1,.1524,1.5,0.0*
20,1,.1524,1.5,0.0,1.492404,-.086824,0.0*
1,1,.1524,1.492404,-.086824*
20,1,.1524,1.492404,-.086824,1.469846,-.17101,0.0*
1,1,.1524,1.469846,-.17101*
20,1,.1524,1.469846,-.17101,1.433013,-.25,0.0*
1,1,.1524,1.433013,-.25*
20,1,.1524,1.433013,-.25,1.383022,-.321394,0.0*
1,1,.1524,1.383022,-.321394*
20,1,.1524,1.383022,-.321394,1.321394,-.383022,0.0*
1,1,.1524,1.321394,-.383022*
20,1,.1524,1.321394,-.383022,1.25,-.433013,0.0*
1,1,.1524,1.25,-.433013*
20,1,.1524,1.25,-.433013,1.17101,-.469846,0.0*
1,1,.1524,1.17101,-.469846*
20,1,.1524,1.17101,-.469846,1.086824,-.492404,0.0*
1,1,.1524,1.086824,-.492404*
20,1,.1524,1.086824,-.492404,1.,-.5,0.0*
1,1,.1524,1.,-.5*
20,1,.1524,1.,-.5,-1.,-.5,0.0*
1,1,.1524,-1.,-.5*
20,1,.1524,-1.,-.5,-1.086824,-.492404,0.0*
1,1,.1524,-1.086824,-.492404*
20,1,.1524,-1.086824,-.492404,-1.17101,-.469846,0.0*
1,1,.1524,-1.17101,-.469846*
20,1,.1524,-1.17101,-.469846,-1.25,-.433013,0.0*
1,1,.1524,-1.25,-.433013*
20,1,.1524,-1.25,-.433013,-1.321394,-.383022,0.0*
1,1,.1524,-1.321394,-.383022*
20,1,.1524,-1.321394,-.383022,-1.383022,-.321394,0.0*
1,1,.1524,-1.383022,-.321394*
20,1,.1524,-1.383022,-.321394,-1.433013,-.25,0.0*
1,1,.1524,-1.433013,-.25*
20,1,.1524,-1.433013,-.25,-1.469846,-.17101,0.0*
1,1,.1524,-1.469846,-.17101*
20,1,.1524,-1.469846,-.17101,-1.492404,-.086824,0.0*
1,1,.1524,-1.492404,-.086824*
20,1,.1524,-1.492404,-.086824,-1.5,0.0,0.0*
1,1,.1524,-1.5,0.0*
20,1,.1524,-1.5,0.0,-1.492404,.086824,0.0*
1,1,.1524,-1.492404,.086824*
20,1,.1524,-1.492404,.086824,-1.469846,.17101,0.0*
1,1,.1524,-1.469846,.17101*
20,1,.1524,-1.469846,.17101,-1.433013,.25,0.0*
1,1,.1524,-1.433013,.25*
20,1,.1524,-1.433013,.25,-1.383022,.321394,0.0*
1,1,.1524,-1.383022,.321394*
20,1,.1524,-1.383022,.321394,-1.321394,.383022,0.0*
1,1,.1524,-1.321394,.383022*
20,1,.1524,-1.321394,.383022,-1.25,.433013,0.0*
1,1,.1524,-1.25,.433013*
20,1,.1524,-1.25,.433013,-1.17101,.469846,0.0*
1,1,.1524,-1.17101,.469846*
20,1,.1524,-1.17101,.469846,-1.086824,.492404,0.0*
1,1,.1524,-1.086824,.492404*
20,1,.1524,-1.086824,.492404,-1.,.5,0.0*
1,1,.1524,-1.,.5*
1,1,.1524,-.25,-.25*
20,1,.1524,-.25,-.25,-.3167,-.2417,0.0*
1,1,.1524,-.3167,-.2417*
20,1,.1524,-.3167,-.2417,-.375,-.2083,0.0*
1,1,.1524,-.375,-.2083*
20,1,.1524,-.375,-.2083,-.425,-.1583,0.0*
1,1,.1524,-.425,-.1583*
20,1,.1524,-.425,-.1583,-.4583,-.1,0.0*
1,1,.1524,-.4583,-.1*
20,1,.1524,-.4583,-.1,-.475,-.0333,0.0*
1,1,.1524,-.475,-.0333*
20,1,.1524,-.475,-.0333,-.475,.0333,0.0*
1,1,.1524,-.475,.0333*
20,1,.1524,-.475,.0333,-.4583,.1,0.0*
1,1,.1524,-.4583,.1*
20,1,.1524,-.4583,.1,-.425,.1583,0.0*
1,1,.1524,-.425,.1583*
20,1,.1524,-.425,.1583,-.375,.2083,0.0*
1,1,.1524,-.375,.2083*
20,1,.1524,-.375,.2083,-.3167,.2417,0.0*
1,1,.1524,-.3167,.2417*
20,1,.1524,-.3167,.2417,-.25,.25,0.0*
1,1,.1524,-.25,.25*
20,1,.1524,-.25,.25,-.1833,.2417,0.0*
1,1,.1524,-.1833,.2417*
20,1,.1524,-.1833,.2417,-.125,.2083,0.0*
1,1,.1524,-.125,.2083*
20,1,.1524,-.125,.2083,-.075,.1583,0.0*
1,1,.1524,-.075,.1583*
20,1,.1524,-.075,.1583,-.0417,.1,0.0*
1,1,.1524,-.0417,.1*
20,1,.1524,-.0417,.1,-.025,.0333,0.0*
1,1,.1524,-.025,.0333*
20,1,.1524,-.025,.0333,-.025,-.0333,0.0*
1,1,.1524,-.025,-.0333*
20,1,.1524,-.025,-.0333,-.0417,-.1,0.0*
1,1,.1524,-.0417,-.1*
20,1,.1524,-.0417,-.1,-.075,-.1583,0.0*
1,1,.1524,-.075,-.1583*
20,1,.1524,-.075,-.1583,-.125,-.2083,0.0*
1,1,.1524,-.125,-.2083*
20,1,.1524,-.125,-.2083,-.1833,-.2417,0.0*
1,1,.1524,-.1833,-.2417*
20,1,.1524,-.1833,-.2417,-.25,-.25,0.0*
1,1,.1524,-.25,-.25*
1,1,.1524,.0418,-.25*
20,1,.1524,.0418,-.25,.2501,.25,0.0*
1,1,.1524,.2501,.25*
20,1,.1524,.2501,.25,.4584,-.25,0.0*
1,1,.1524,.4584,-.25*
1,1,.1524,.3834,-.075*
20,1,.1524,.3834,-.075,.1168,-.075,0.0*
1,1,.1524,.1168,-.075*
%
%ADD15MACRO15*%
%AMMACRO18*
1,1,.1524,0.0,.508*
20,1,.1524,0.0,.508,-.439941,.254,0.0*
1,1,.1524,-.439941,.254*
20,1,.1524,-.439941,.254,-.439941,-.254,0.0*
1,1,.1524,-.439941,-.254*
20,1,.1524,-.439941,-.254,0.0,-.508,0.0*
1,1,.1524,0.0,-.508*
20,1,.1524,0.0,-.508,.439941,-.254,0.0*
1,1,.1524,.439941,-.254*
20,1,.1524,.439941,-.254,.439941,.254,0.0*
1,1,.1524,.439941,.254*
20,1,.1524,.439941,.254,0.0,.508,0.0*
1,1,.1524,0.0,.508*
%
%ADD18MACRO18*%
%AMMACRO11*
1,1,.1524,0.0,1.7018*
20,1,.1524,0.0,1.7018,1.7018,-1.7018,0.0*
1,1,.1524,1.7018,-1.7018*
20,1,.1524,1.7018,-1.7018,-1.7018,-1.7018,0.0*
1,1,.1524,-1.7018,-1.7018*
20,1,.1524,-1.7018,-1.7018,0.0,1.7018,0.0*
1,1,.1524,0.0,1.7018*
%
%ADD11MACRO11*%
%AMMACRO13*
1,1,.1524,.4445,0.0*
20,1,.1524,.4445,0.0,.22225,.384948,0.0*
1,1,.1524,.22225,.384948*
20,1,.1524,.22225,.384948,-.22225,.384948,0.0*
1,1,.1524,-.22225,.384948*
20,1,.1524,-.22225,.384948,-.4445,0.0,0.0*
1,1,.1524,-.4445,0.0*
20,1,.1524,-.4445,0.0,-.22225,-.384948,0.0*
1,1,.1524,-.22225,-.384948*
20,1,.1524,-.22225,-.384948,.22225,-.384948,0.0*
1,1,.1524,.22225,-.384948*
20,1,.1524,.22225,-.384948,.4445,0.0,0.0*
1,1,.1524,.4445,0.0*
%
%ADD13MACRO13*%
%ADD19C,.1524*%
G75*
%LPD*%
G75*
G54D10*
X253580Y676620D03*
Y1184620D03*
Y1692620D03*
Y2200620D03*
Y2708620D03*
Y3216620D03*
Y3724620D03*
Y4232620D03*
Y4740620D03*
Y5248620D03*
Y5756620D03*
Y6264620D03*
Y6772620D03*
Y7280620D03*
Y7788620D03*
Y8296620D03*
Y8804620D03*
Y9312620D03*
Y9820620D03*
Y10328620D03*
Y10836620D03*
Y11344620D03*
Y11852620D03*
Y12360620D03*
Y12868620D03*
Y13376620D03*
Y13884620D03*
Y14392620D03*
X677380Y203580D03*
X437380Y14683580D03*
X1185380Y203580D03*
X815080Y1799470D03*
X1323080D03*
X1309470Y5266920D03*
Y5774920D03*
X1319470Y6336920D03*
X945380Y14683580D03*
X1693380Y203580D03*
X1545080Y1409470D03*
X1405080Y2359470D03*
X1435080Y2739470D03*
X1780000Y3870000D03*
X1860000D03*
X1539470Y4196920D03*
Y4704920D03*
X1549470Y5266920D03*
X1453380Y14683580D03*
X2201380Y203580D03*
X2053080Y1409470D03*
X2210000Y2050000D03*
X1913080Y2359470D03*
X1943080Y2739470D03*
X2106200Y3460000D03*
X2039470Y4086920D03*
X2190000Y3710000D03*
X2349470Y4376920D03*
X2039470Y4594920D03*
X2349470Y4884920D03*
X2049470Y5156920D03*
X2359470Y5446920D03*
X2090000Y6590000D03*
Y6780000D03*
X2220000Y6390000D03*
X2230000Y8240000D03*
X2300000D03*
X2230000Y8170000D03*
X2300000D03*
X2370000D03*
X2400000Y8280000D03*
Y8360000D03*
X1950000Y9360000D03*
X2060000D03*
X2170000D03*
X2290000D03*
X2400000D03*
X1961380Y14683580D03*
X2709380Y203580D03*
X2735080Y1119470D03*
Y1359470D03*
Y1679470D03*
X2770000Y2280000D03*
X2540000Y2110000D03*
X2760000Y2080000D03*
X2585080Y2979470D03*
X2570000Y3410000D03*
Y3550000D03*
X2950000Y4100000D03*
X2570000Y3625350D03*
X2690000Y4500000D03*
X2840000Y4610000D03*
Y4880000D03*
Y5070000D03*
X2476200Y5530000D03*
X2780000D03*
X2476200Y5780000D03*
X2780000D03*
X2476200Y6030000D03*
X2780000D03*
X2860000Y6730000D03*
X2430000Y6590000D03*
Y6770000D03*
X2476200Y6293800D03*
X2776200D03*
X2860000Y6970000D03*
Y7170000D03*
X2550000Y7800000D03*
X2440000Y8170000D03*
X2476340Y8280000D03*
X2550000D03*
Y8360000D03*
X2476340D03*
X2890000Y8720000D03*
X2750000Y8790000D03*
X2820000D03*
X2890000D03*
Y8860000D03*
X2820000D03*
X2750000D03*
Y8610000D03*
X2710000Y8680000D03*
X2780000D03*
X2823660Y8610000D03*
X2820000Y8540000D03*
Y8470000D03*
X2510000Y9360000D03*
X2620000D03*
X2566200Y11240000D03*
X2434920Y12532400D03*
Y12278400D03*
X2831600Y12204920D03*
X2577600D03*
Y12564920D03*
X2831600D03*
X2469380Y14683580D03*
X3217380Y203580D03*
X3243080Y1119470D03*
Y1359470D03*
Y1679470D03*
X3265080Y1949470D03*
X3093080Y2979470D03*
X3440000Y3050000D03*
X3180000Y4100000D03*
X3070000Y3970000D03*
X3330000Y3820000D03*
X3320000Y3710000D03*
X3460000Y3860000D03*
X3500000Y4840000D03*
X3210000Y4820000D03*
Y5120000D03*
Y5730000D03*
X3160000Y5940000D03*
Y6190000D03*
X2980000Y6490000D03*
X3050000Y7630000D03*
X3090000Y8350000D03*
X3160000D03*
Y8420000D03*
X3090000D03*
X3340000Y8250000D03*
Y8180000D03*
X3280000D03*
X3220000D03*
X3280000Y8250000D03*
X3220000D03*
X3280000Y7900000D03*
Y8070000D03*
X3160000Y8490000D03*
X3090000D03*
X3500000Y9460000D03*
X3280000Y9370000D03*
X3090000D03*
X3480000D03*
X3340000Y9460000D03*
X3150000D03*
X3415080Y10475470D03*
X3075080Y10485470D03*
X3405080Y10685470D03*
X3065080Y10695470D03*
X3415080Y10915470D03*
X3075080Y10925470D03*
X3275080Y11115470D03*
X2964920Y12532400D03*
Y12278400D03*
X3339600Y12204920D03*
X3085600D03*
Y12564920D03*
X3339600D03*
X3485380Y14683580D03*
X2977380D03*
X3725380Y203580D03*
X3773080Y1949470D03*
X3920000Y2690000D03*
X3580000Y2910000D03*
X3510000Y2980000D03*
X3680000Y3290000D03*
Y3210000D03*
Y3130000D03*
X3570000Y4090000D03*
X3790000Y4060000D03*
X3580000Y3900000D03*
X3710000Y3590000D03*
X3940000Y5030000D03*
X3530000Y5020000D03*
X3933080Y4859470D03*
X3535080Y5499470D03*
X3930000Y7250000D03*
X3800000Y7690000D03*
Y7590000D03*
Y7500000D03*
X3830000Y8020000D03*
X4030000Y8350000D03*
X3740000D03*
X3710000Y8040000D03*
X4030000Y8500000D03*
X3740000D03*
X3690000Y9460000D03*
X3670000Y9370000D03*
X3985080Y11105470D03*
X3715080Y10685470D03*
Y10915470D03*
X3615080Y11105470D03*
X3850000Y12200000D03*
Y12560000D03*
X3597600Y12314920D03*
X3851600D03*
X3597600Y12424920D03*
X3851600D03*
X3593600Y12204920D03*
Y12564920D03*
X3993380Y14683580D03*
X4233380Y203580D03*
X4305080Y1969470D03*
X4240000Y3160000D03*
X4185080Y3809470D03*
X4055080Y4339470D03*
X4563080D03*
X4495080Y4849470D03*
X4043080Y5499470D03*
X4100000Y8010000D03*
X4190000Y8350000D03*
Y8500000D03*
X4325080Y11095470D03*
X4055080Y10675470D03*
Y10905470D03*
X4566440Y12428480D03*
X4576440Y12234480D03*
X4452440D03*
X4442440Y12428480D03*
X4501380Y14683580D03*
X4741380Y203580D03*
X4650000Y1570000D03*
X4813080Y1969470D03*
X4780000Y2830000D03*
X4650000Y3290000D03*
X4815080Y3579470D03*
X4693080Y3809470D03*
X4690000Y5020000D03*
X5003080Y4849470D03*
X4605080Y5489470D03*
X5113080D03*
X5030000Y5850000D03*
X4900000Y5830000D03*
X5090000Y6270000D03*
Y6440000D03*
Y6590000D03*
X5110000Y7020000D03*
Y6920000D03*
X4920000Y8300000D03*
X5080000D03*
X4730000D03*
X4850000Y8640000D03*
Y8480000D03*
Y8830000D03*
X4660000Y8620000D03*
Y8460000D03*
Y8810000D03*
X4850000Y9030000D03*
X5010000D03*
X4660000D03*
X4830000Y9310000D03*
X4990000D03*
X4640000D03*
X4820000Y9440000D03*
X4980000D03*
X4630000D03*
X5060000Y9170000D03*
X4870000D03*
X4955080Y10675470D03*
X4615080Y10685470D03*
X4965080Y10885470D03*
X4625080Y10895470D03*
X4975080Y11085470D03*
X4635080Y11095470D03*
X4706440Y12234480D03*
X4900440Y12564480D03*
X4696440Y12428480D03*
X4900440Y12818480D03*
X5009380Y14683580D03*
X5249380Y203580D03*
X5505080Y1869470D03*
X5580000Y2430000D03*
Y2690000D03*
Y2560000D03*
X5230000Y3310000D03*
X5323080Y3579470D03*
X5170000Y4040000D03*
X5255080Y3789470D03*
X5620000Y4760000D03*
X5550000Y4870000D03*
X5120000Y5020000D03*
Y4680000D03*
X5525080Y5479470D03*
X5550000Y5320000D03*
X5120000Y5920000D03*
X5200000Y6440000D03*
X5300000D03*
X5460000Y7150000D03*
X5650000Y7160000D03*
X5320000Y7070000D03*
X5210000D03*
X5220000Y9170000D03*
X5370000Y9310000D03*
X5550000D03*
X5520000Y9630000D03*
Y9770000D03*
X5365080Y11085470D03*
X5436440Y12564480D03*
X5166440D03*
X5254440Y12234480D03*
X5508440D03*
X5234440Y12398480D03*
X5488440D03*
X5436440Y12818480D03*
X5166440D03*
X5517380Y14683580D03*
X5757380Y203580D03*
X5710000Y1450000D03*
X6013080Y1869470D03*
X6000000Y2190000D03*
X5840000Y2365000D03*
Y2495000D03*
X5745000Y2755000D03*
X5840000Y2630000D03*
X6160000Y3070000D03*
X5750000Y3310000D03*
X5745000Y3155000D03*
X6185080Y3665470D03*
X5720000Y4080000D03*
X5763080Y3789470D03*
X6080000Y4550000D03*
X5660000Y4990000D03*
X5890000Y4770000D03*
X6165080Y5269470D03*
X6033080Y5479470D03*
X6050000Y5850000D03*
X5890000Y6660000D03*
Y6560000D03*
X5870000Y7150000D03*
X5880000Y6940000D03*
Y7030000D03*
X5760000Y7630000D03*
X5940000Y7620000D03*
X5810000Y8230000D03*
X5740000Y7900000D03*
X5930000D03*
X5940000Y8200000D03*
X5930000Y8830000D03*
Y8650000D03*
X5900000Y9310000D03*
X5740000D03*
X5930000Y9120000D03*
Y8980000D03*
X5860000Y10030000D03*
X5900000Y9620000D03*
X5690000D03*
X5950000Y9930000D03*
X5930000Y10370000D03*
Y10800000D03*
X5920000Y10590000D03*
X6095080Y11085470D03*
X5705080Y11075470D03*
X5706440Y12564480D03*
X5762440Y12234480D03*
X5706440Y12818480D03*
X6025380Y14683580D03*
X6265380Y203580D03*
X6450000Y1450000D03*
X6550000Y1990000D03*
X6560000Y2200000D03*
X6695080Y2479470D03*
X6700000Y3320000D03*
X6645080Y3717470D03*
X6260000Y3780000D03*
X6420000Y3900000D03*
X6645080Y4225470D03*
X6655080Y4547470D03*
Y5055470D03*
X6673080Y5269470D03*
X6420000Y5973000D03*
X6390000Y6440000D03*
X6670000Y6460000D03*
Y6600000D03*
X6630000Y6990000D03*
X6490000Y6820000D03*
X6440000Y7640000D03*
Y7960000D03*
X6520000Y9240000D03*
X6410000Y9450000D03*
X6501820Y9678760D03*
X6435080Y11075470D03*
X6533380Y14683580D03*
X6773380Y203580D03*
X6970000Y870000D03*
X7250000Y1980000D03*
X7203080Y2479470D03*
X7270000Y3320000D03*
X6995080Y4029470D03*
X6840000Y3760000D03*
X6995080Y4537470D03*
Y5045470D03*
X6833800Y5876200D03*
X6910000Y6440000D03*
X7170000D03*
X6833800Y6306200D03*
X6911820Y7618760D03*
Y7938760D03*
X7200000Y8770000D03*
X7270000Y8540000D03*
X7200000Y8970000D03*
X6991820Y9218760D03*
X6801820Y9458760D03*
X7009820Y9678760D03*
X7140000Y10510000D03*
X6860000Y10900000D03*
X7125080Y10895470D03*
X7135080Y11065470D03*
X6795080Y11075470D03*
X7041380Y14683580D03*
X7789380Y203580D03*
X7281380D03*
X7710000Y870000D03*
X7685080Y2469470D03*
X7503080Y4029470D03*
Y4537470D03*
Y5045470D03*
X7480000Y6270000D03*
X7410000Y5930000D03*
X7630000Y6390000D03*
X7800000Y6280000D03*
X7630000Y6690000D03*
X7520000Y7140000D03*
X7510000Y7360000D03*
X7390000Y7620000D03*
X7760000Y8190000D03*
X7801820Y7918760D03*
X7330000Y7940000D03*
X7750000Y9460000D03*
X7499820Y9218760D03*
X7309820Y9458760D03*
X7740000Y9920000D03*
X7540000Y9690000D03*
X7280000Y10300000D03*
X7300000Y10740000D03*
X7465080Y10885470D03*
X7785080Y11055470D03*
X7445080Y11065470D03*
X7549380Y14683580D03*
X8297380Y203580D03*
X7950000Y1990000D03*
X8193080Y2469470D03*
X7950000Y2610000D03*
X7991820Y7118760D03*
X7981820Y7338760D03*
X7861820Y7598760D03*
X8057380Y14683580D03*
X8805380Y203580D03*
X8710000Y880000D03*
X8407040Y2267690D03*
Y2775690D03*
Y3283690D03*
Y3791690D03*
Y4299690D03*
Y4807690D03*
Y5315690D03*
Y5823690D03*
Y6331690D03*
Y6839690D03*
Y7347690D03*
Y7855690D03*
Y8363690D03*
Y8871690D03*
Y9379690D03*
Y9887690D03*
Y10395690D03*
X8565380Y14683580D03*
X9313380Y203580D03*
X8930000Y2020000D03*
X9073380Y14683580D03*
X9821380Y203580D03*
X9450000Y880000D03*
X9670000Y2020000D03*
X9581380Y14683580D03*
X10329380Y203580D03*
X10470000Y890000D03*
X10410000Y2030000D03*
X10089380Y14683580D03*
X10837380Y203580D03*
X10597380Y14683580D03*
X11345380Y203580D03*
X11210000Y890000D03*
X11400000Y1710000D03*
X11150000Y2030000D03*
X11105380Y14683580D03*
X11853380Y203580D03*
X12030000Y890000D03*
X11970000Y1710000D03*
X11850000Y2030000D03*
X11613380Y14683580D03*
X12361380Y203580D03*
X12440000Y1430000D03*
X12280000Y1560000D03*
X12590000Y2030000D03*
X12629380Y14683580D03*
X12121380D03*
X12869380Y203580D03*
X12770000Y890000D03*
X13137380Y14683580D03*
X13377380Y203580D03*
X13645380Y14683580D03*
X13885380Y203580D03*
X14393380D03*
X14773580Y586620D03*
Y1094620D03*
Y1602620D03*
Y2110620D03*
Y2618620D03*
Y3126620D03*
Y3634620D03*
Y4142620D03*
Y4650620D03*
Y5158620D03*
Y5666620D03*
Y6174620D03*
Y6682620D03*
Y7190620D03*
Y7698620D03*
Y8206620D03*
Y8714620D03*
Y9222620D03*
Y9730620D03*
Y10238620D03*
Y10746620D03*
Y11254620D03*
Y11762620D03*
Y12270620D03*
Y12778620D03*
Y13286620D03*
Y13794620D03*
Y14302620D03*
X14360000Y14690000D03*
X16551730Y5372500D03*
G54D11*
X1000000Y1000000D03*
Y14000000D03*
X14000000Y1000000D03*
Y14000000D03*
X16551730Y1562500D03*
G54D12*
X850000Y12970000D03*
X1450000D03*
X16551730Y927500D03*
G54D13*
X1080000Y2136000D03*
Y2390000D03*
Y2644000D03*
Y2898000D03*
Y3152000D03*
Y3406000D03*
Y3660000D03*
Y3914000D03*
Y4168000D03*
Y4422000D03*
Y4676000D03*
Y4930000D03*
X1959000Y950000D03*
X2467000D03*
X2213000D03*
X2721000D03*
X4320000Y9370000D03*
Y9770000D03*
Y10330000D03*
Y10730000D03*
X5150000Y9380000D03*
Y9780000D03*
Y10340000D03*
Y10740000D03*
X6880000Y2800000D03*
X7640000D03*
X7890000Y6837000D03*
X7600000Y8990000D03*
Y8590000D03*
X7580000Y10340000D03*
Y10740000D03*
X7890000Y6583000D03*
X16551730Y4102500D03*
G54D14*
X1050000Y7178000D03*
Y7686000D03*
Y8194000D03*
Y8702000D03*
Y9636000D03*
Y10144000D03*
Y11076000D03*
Y11584000D03*
X16551730Y2197500D03*
G54D15*
X1170000Y12490000D03*
X16551730Y292500D03*
G54D16*
X2030000Y12760000D03*
Y12320000D03*
Y13200000D03*
X16551730Y2832500D03*
G54D17*
X2860000Y8160000D03*
X2750000D03*
Y8050000D03*
X2860000Y7940000D03*
X2750000D03*
X2860000Y8050000D03*
X2970000Y8160000D03*
Y8050000D03*
Y7940000D03*
X6690000Y8330000D03*
Y8150000D03*
Y8240000D03*
Y8430000D03*
Y9970000D03*
Y9880000D03*
Y10160000D03*
Y10060000D03*
X6890000Y8330000D03*
X6790000D03*
Y8150000D03*
X6890000D03*
X6790000Y8240000D03*
X6890000D03*
X6790000Y8430000D03*
X6890000D03*
Y9970000D03*
X6790000D03*
Y9880000D03*
X6890000D03*
X6790000Y10060000D03*
Y10160000D03*
X6890000D03*
Y10060000D03*
X16551730Y4737500D03*
G54D18*
X2700000Y12392540D03*
Y13140000D03*
X3530000Y1224000D03*
Y970000D03*
X3290000Y12392540D03*
Y13140000D03*
X4038000Y1224000D03*
Y970000D03*
X3784000Y1224000D03*
Y970000D03*
X4546000Y1224000D03*
X4292000D03*
X4546000Y970000D03*
X4292000D03*
X5054000Y1224000D03*
X4800000D03*
X5054000Y970000D03*
X4800000D03*
X5050000Y12392540D03*
Y13140000D03*
X5562000Y1224000D03*
Y970000D03*
X5308000Y1224000D03*
Y970000D03*
X5816000Y1224000D03*
Y970000D03*
X6715000Y1130000D03*
X6965000D03*
X7625000D03*
X7875000D03*
X8785000D03*
X8535000D03*
X9455000D03*
X9705000D03*
X10365000D03*
X10615000D03*
X11505000D03*
X11255000D03*
X12690000Y1120000D03*
X12440000D03*
X12940000D03*
X16551730Y3467500D03*
G54D19*
G01X-1740500Y7474750D02*
Y7665250D01*
X-1768950Y7627150D01*
G01Y7474750D02*
X-1712060D01*
G01X-1602150Y7503320D02*
X-1587930Y7487450D01*
X-1571340Y7477920D01*
X-1550000Y7474750D01*
X-1528660Y7481100D01*
X-1512070Y7493800D01*
X-1500220Y7516020D01*
X-1497850Y7541420D01*
X-1502590Y7566820D01*
X-1514440Y7582700D01*
X-1531040Y7595400D01*
X-1547630Y7598570D01*
X-1564220Y7595400D01*
X-1585560Y7582700D01*
X-1578450Y7665250D01*
X-1514440D01*
G01X-1359500D02*
X-1378470Y7658900D01*
X-1392690Y7643020D01*
X-1402170Y7623980D01*
X-1409280Y7598570D01*
X-1411650Y7570000D01*
X-1409280Y7541420D01*
X-1402170Y7516020D01*
X-1392690Y7496970D01*
X-1378470Y7481100D01*
X-1359500Y7474750D01*
X-1340540Y7481100D01*
X-1326310Y7496970D01*
X-1316830Y7516020D01*
X-1309720Y7541420D01*
X-1307350Y7570000D01*
X-1309720Y7598570D01*
X-1316830Y7623980D01*
X-1326310Y7643020D01*
X-1340540Y7658900D01*
X-1359500Y7665250D01*
G01X-1080500Y6964750D02*
Y7155250D01*
X-1108950Y7117150D01*
G01Y6964750D02*
X-1052060D01*
G01X-861550D02*
Y7155250D01*
X-949270Y7018730D01*
X-830730D01*
G01X-699500Y7155250D02*
X-718470Y7148900D01*
X-732690Y7133020D01*
X-742170Y7113980D01*
X-749280Y7088570D01*
X-751650Y7060000D01*
X-749280Y7031420D01*
X-742170Y7006020D01*
X-732690Y6986970D01*
X-718470Y6971100D01*
X-699500Y6964750D01*
X-680540Y6971100D01*
X-666310Y6986970D01*
X-656830Y7006020D01*
X-649720Y7031420D01*
X-647350Y7060000D01*
X-649720Y7088570D01*
X-656830Y7113980D01*
X-666310Y7133020D01*
X-680540Y7148900D01*
X-699500Y7155250D01*
G01X-475250Y364750D02*
Y555250D01*
X-503700Y517150D01*
G01Y364750D02*
X-446810D01*
G01X-284750Y555250D02*
X-303720Y548900D01*
X-317940Y533020D01*
X-327420Y513980D01*
X-334530Y488570D01*
X-336900Y460000D01*
X-334530Y431420D01*
X-327420Y406020D01*
X-317940Y386970D01*
X-303720Y371100D01*
X-284750Y364750D01*
X-265790Y371100D01*
X-251560Y386970D01*
X-242080Y406020D01*
X-234970Y431420D01*
X-232600Y460000D01*
X-234970Y488570D01*
X-242080Y513980D01*
X-251560Y533020D01*
X-265790Y548900D01*
X-284750Y555250D01*
G01X294750Y-415250D02*
Y-224750D01*
X266300Y-262850D01*
G01Y-415250D02*
X323190D01*
G01X485250Y-224750D02*
X466280Y-231100D01*
X452060Y-246980D01*
X442580Y-266020D01*
X435470Y-291430D01*
X433100Y-320000D01*
X435470Y-348580D01*
X442580Y-373980D01*
X452060Y-393030D01*
X466280Y-408900D01*
X485250Y-415250D01*
X504210Y-408900D01*
X518440Y-393030D01*
X527920Y-373980D01*
X535030Y-348580D01*
X537400Y-320000D01*
X535030Y-291430D01*
X527920Y-266020D01*
X518440Y-246980D01*
X504210Y-231100D01*
X485250Y-224750D01*
G01X1000000Y0D02*
X14000000D01*
G03X15000000Y1000000I0J1000000D01*
G01Y14000000D01*
G03X14000000Y15000000I-1000000J0D01*
G01X1000000D01*
G03X0Y14000000I0J-1000000D01*
G01Y1000000D01*
G03X1000000Y0I1000000J0D01*
G01X6969500Y-695250D02*
Y-504750D01*
X6941050Y-542850D01*
G01Y-695250D02*
X6997940D01*
G01X7188450D02*
Y-504750D01*
X7100730Y-641270D01*
X7219270D01*
G01X7350500Y-504750D02*
X7331530Y-511100D01*
X7317310Y-526980D01*
X7307830Y-546020D01*
X7300720Y-571430D01*
X7298350Y-600000D01*
X7300720Y-628580D01*
X7307830Y-653980D01*
X7317310Y-673030D01*
X7331530Y-688900D01*
X7350500Y-695250D01*
X7369460Y-688900D01*
X7383690Y-673030D01*
X7393170Y-653980D01*
X7400280Y-628580D01*
X7402650Y-600000D01*
X7400280Y-571430D01*
X7393170Y-546020D01*
X7383690Y-526980D01*
X7369460Y-511100D01*
X7350500Y-504750D01*
G01X7369500Y-1005250D02*
Y-814750D01*
X7341050Y-852850D01*
G01Y-1005250D02*
X7397940D01*
G01X7507850Y-976680D02*
X7522070Y-992550D01*
X7538660Y-1002080D01*
X7560000Y-1005250D01*
X7581340Y-998900D01*
X7597930Y-986200D01*
X7609780Y-963980D01*
X7612150Y-938580D01*
X7607410Y-913180D01*
X7595560Y-897300D01*
X7578960Y-884600D01*
X7562370Y-881430D01*
X7545780Y-884600D01*
X7524440Y-897300D01*
X7531550Y-814750D01*
X7595560D01*
G01X7750500D02*
X7731530Y-821100D01*
X7717310Y-836980D01*
X7707830Y-856020D01*
X7700720Y-881430D01*
X7698350Y-910000D01*
X7700720Y-938580D01*
X7707830Y-963980D01*
X7717310Y-983030D01*
X7731530Y-998900D01*
X7750500Y-1005250D01*
X7769460Y-998900D01*
X7783690Y-983030D01*
X7793170Y-963980D01*
X7800280Y-938580D01*
X7802650Y-910000D01*
X7800280Y-881430D01*
X7793170Y-856020D01*
X7783690Y-836980D01*
X7769460Y-821100D01*
X7750500Y-814750D01*
G01X770000Y0D02*
X-1800000D01*
G01X-1550000Y7324260D02*
Y0D01*
G01X-1612500Y400000D02*
X-1550000Y0D01*
X-1487500Y400000D01*
X-1612500D01*
G01X-1550000Y7815740D02*
Y15000000D01*
G01X-1487500Y14600000D02*
X-1550000Y15000000D01*
X-1612500Y14600000D01*
X-1487500D01*
G01X850000Y15000000D02*
X-1800000D01*
G01X830000Y0D02*
X-1140000D01*
G01X-890000Y6814260D02*
Y0D01*
G01X-952500Y400000D02*
X-890000Y0D01*
X-827500Y400000D01*
X-952500D01*
G01X-890000Y7305740D02*
Y14000000D01*
G01X-827500Y13600000D02*
X-890000Y14000000D01*
X-952500Y13600000D01*
X-827500D01*
G01X750000Y14000000D02*
X-1140000D01*
G01X820000Y0D02*
X-630000D01*
G01X-380000Y214260D02*
Y0D01*
G01X-442500Y400000D02*
X-380000Y0D01*
X-317500Y400000D01*
X-442500D01*
G01X-380000Y705740D02*
Y1000000D01*
G01X-317500Y600000D02*
X-380000Y1000000D01*
X-442500Y600000D01*
X-317500D01*
G01X750000Y1000000D02*
X-630000D01*
G01X0Y810000D02*
Y-850000D01*
G01Y770000D02*
Y-1160000D01*
G01X7147890Y-910000D02*
X0D01*
G01X400000Y-847500D02*
X0Y-910000D01*
X400000Y-972500D01*
Y-847500D01*
G01X0Y940000D02*
Y-570000D01*
G01X73140Y-320000D02*
X0D01*
G01X400000Y-257500D02*
X0Y-320000D01*
X400000Y-382500D01*
Y-257500D01*
G01X6747890Y-600000D02*
X0D01*
G01X400000Y-537500D02*
X0Y-600000D01*
X400000Y-662500D01*
Y-537500D01*
G01X706860Y-320000D02*
X1000000D01*
G01X600000Y-382500D02*
X1000000Y-320000D01*
X600000Y-257500D01*
Y-382500D01*
G01X1000000Y750000D02*
Y-570000D01*
G01X7572110Y-600000D02*
X14000000D01*
G01X7972110Y-910000D02*
X15000000D01*
G01X13600000Y-662500D02*
X14000000Y-600000D01*
X13600000Y-537500D01*
Y-662500D01*
G01X14000000Y750000D02*
Y-850000D01*
G01X14600000Y-972500D02*
X15000000Y-910000D01*
X14600000Y-847500D01*
Y-972500D01*
G01X15000000Y860000D02*
Y-1160000D01*
G01X15410000Y-25000D02*
Y7610000D01*
X27693440D01*
Y-25000D01*
X15410000D01*
G01Y610000D02*
X27693440D01*
G01X15410000Y1245000D02*
X27693440D01*
G01X15410000Y1880000D02*
X27693440D01*
G01X15410000Y2515000D02*
X27693440D01*
G01X15410000Y3150000D02*
X27693440D01*
G01X15410000Y3785000D02*
X27693440D01*
G01X15410000Y4420000D02*
X27693440D01*
G01X15410000Y5055000D02*
X27693440D01*
G01X15410000Y5690000D02*
X27693440D01*
G01X15689520Y5848750D02*
Y6166250D01*
X15839140D01*
G01X15784010Y6012800D02*
X15689520D01*
G01X16032050Y6166250D02*
X16126530D01*
G01X16079290D02*
Y5848750D01*
G01X16032050D02*
X16126530D01*
G01X16417870Y6007500D02*
X16496620D01*
Y5912250D01*
X16472990Y5880490D01*
X16445430Y5859330D01*
X16406060Y5848750D01*
X16366690Y5859330D01*
X16339130Y5880490D01*
X16315510Y5912250D01*
X16299760Y5949290D01*
X16291880Y5991620D01*
Y6028670D01*
X16299760Y6060410D01*
X16315510Y6097460D01*
X16339130Y6129210D01*
X16362750Y6150370D01*
X16394250Y6166250D01*
X16421810D01*
X16453300Y6155670D01*
X16476930Y6134500D01*
G01X16622600Y6166250D02*
Y5938710D01*
X16638340Y5891070D01*
X16669840Y5859330D01*
X16709210Y5848750D01*
X16748580Y5859330D01*
X16780080Y5891070D01*
X16795820Y5938710D01*
Y6166250D01*
G01X16945430Y5848750D02*
Y6166250D01*
X17043850D01*
X17075350Y6150370D01*
X17095040Y6129210D01*
X17102910Y6086870D01*
X17095040Y6044540D01*
X17071410Y6018090D01*
X17043850Y6002200D01*
X16945430D01*
G01X17043850D02*
X17102910Y5848750D01*
G01X17417870D02*
X17260390D01*
Y6166250D01*
X17417870D01*
G01X17354880Y6012800D02*
X17260390D01*
G01X15410000Y6325000D02*
X27693440D01*
G01X15410000Y6960000D02*
X27693440D01*
G01X17201330Y6483750D02*
X17299760Y6801250D01*
X17398190Y6483750D01*
G01X17362750Y6594870D02*
X17236760D01*
G01X17535980Y6801250D02*
Y6483750D01*
X17693460D01*
G01X17850940Y6801250D02*
Y6483750D01*
X18008420D01*
G01X18472990Y6801250D02*
Y6573710D01*
X18488730Y6526070D01*
X18520230Y6494330D01*
X18559600Y6483750D01*
X18598970Y6494330D01*
X18630470Y6526070D01*
X18646210Y6573710D01*
Y6801250D01*
G01X18784010Y6483750D02*
Y6801250D01*
X18965110Y6483750D01*
Y6801250D01*
G01X19142280D02*
X19236760D01*
G01X19189520D02*
Y6483750D01*
G01X19142280D02*
X19236760D01*
G01X19504480Y6801250D02*
Y6483750D01*
G01X19413930Y6801250D02*
X19595030D01*
G01X19736760Y6526070D02*
X19768260Y6499620D01*
X19803690Y6483750D01*
X19835190D01*
X19866680Y6499620D01*
X19890310Y6526070D01*
X19902120Y6563130D01*
X19894250Y6600160D01*
X19874560Y6631910D01*
X19839120Y6653090D01*
X19791880Y6663670D01*
X19764320Y6684830D01*
X19752510Y6721870D01*
X19760390Y6758920D01*
X19780070Y6785370D01*
X19807630Y6801250D01*
X19835190D01*
X19862750Y6790670D01*
X19886370Y6764210D01*
G01X20350930Y6483750D02*
X20449360Y6801250D01*
X20547790Y6483750D01*
G01X20512350Y6594870D02*
X20386360D01*
G01X20685580Y6483750D02*
Y6801250D01*
X20784000D01*
X20815500Y6785370D01*
X20835190Y6764210D01*
X20843060Y6721870D01*
X20835190Y6679540D01*
X20811560Y6653090D01*
X20784000Y6637200D01*
X20685580D01*
G01X20784000D02*
X20843060Y6483750D01*
G01X21158020D02*
X21000540D01*
Y6801250D01*
X21158020D01*
G01X21095030Y6647800D02*
X21000540D01*
G01X21661960Y6801250D02*
X21756440D01*
G01X21709200D02*
Y6483750D01*
G01X21661960D02*
X21756440D01*
G01X21933610D02*
Y6801250D01*
X22114710Y6483750D01*
Y6801250D01*
G01X22551710Y6483750D02*
Y6801250D01*
X22654080Y6536670D01*
X22756450Y6801250D01*
Y6483750D01*
G01X22921800Y6801250D02*
X23016280D01*
G01X22969040D02*
Y6483750D01*
G01X22921800D02*
X23016280D01*
G01X23205260Y6801250D02*
Y6483750D01*
X23362740D01*
G01X23520220Y6801250D02*
Y6483750D01*
X23677700D01*
G01X23866680Y6801250D02*
X23961160D01*
G01X23913920D02*
Y6483750D01*
G01X23866680D02*
X23961160D01*
G01X24126510D02*
Y6801250D01*
X24228880Y6536670D01*
X24331250Y6801250D01*
Y6483750D01*
G01X24622580D02*
X24465100D01*
Y6801250D01*
X24622580D01*
G01X24559590Y6647800D02*
X24465100D01*
G01X24858800Y6801250D02*
Y6483750D01*
G01X24768250Y6801250D02*
X24949350D01*
G01X25252500Y6483750D02*
X25095020D01*
Y6801250D01*
X25252500D01*
G01X25189510Y6647800D02*
X25095020D01*
G01X25409980Y6483750D02*
Y6801250D01*
X25508400D01*
X25539900Y6785370D01*
X25559590Y6764210D01*
X25567460Y6721870D01*
X25559590Y6679540D01*
X25535960Y6653090D01*
X25508400Y6637200D01*
X25409980D01*
G01X25508400D02*
X25567460Y6483750D01*
G01X25721000Y6526070D02*
X25752500Y6499620D01*
X25787930Y6483750D01*
X25819430D01*
X25850920Y6499620D01*
X25874550Y6526070D01*
X25886360Y6563130D01*
X25878490Y6600160D01*
X25858800Y6631910D01*
X25823360Y6653090D01*
X25776120Y6663670D01*
X25748560Y6684830D01*
X25736750Y6721870D01*
X25744630Y6758920D01*
X25764310Y6785370D01*
X25791870Y6801250D01*
X25819430D01*
X25846990Y6790670D01*
X25870610Y6764210D01*
G01X17693460Y6325000D02*
Y-25000D01*
G01X17528110Y7133750D02*
Y7451250D01*
X17606840D01*
X17638340Y7435370D01*
X17661960Y7414210D01*
X17681650Y7382460D01*
X17697400Y7345410D01*
X17701330Y7292500D01*
X17697400Y7239580D01*
X17681650Y7202540D01*
X17661960Y7170780D01*
X17638340Y7149620D01*
X17606840Y7133750D01*
X17528110D01*
G01X17850940D02*
Y7451250D01*
X17949360D01*
X17980860Y7435370D01*
X18000550Y7414210D01*
X18008420Y7371870D01*
X18000550Y7329540D01*
X17976920Y7303090D01*
X17949360Y7287200D01*
X17850940D01*
G01X17949360D02*
X18008420Y7133750D01*
G01X18197400Y7451250D02*
X18291880D01*
G01X18244640D02*
Y7133750D01*
G01X18197400D02*
X18291880D01*
G01X18480860Y7451250D02*
Y7133750D01*
X18638340D01*
G01X18795820Y7451250D02*
Y7133750D01*
X18953300D01*
G01X19591090Y7424790D02*
X19567470Y7440670D01*
X19539920Y7451250D01*
X19508420D01*
X19472980Y7435370D01*
X19445430Y7408920D01*
X19425740Y7377160D01*
X19409990Y7324250D01*
X19406050Y7276620D01*
X19413930Y7229000D01*
X19425740Y7197250D01*
X19449360Y7165490D01*
X19476920Y7144330D01*
X19504480Y7133750D01*
X19532040D01*
X19559600Y7144330D01*
X19583220Y7160200D01*
X19602910Y7181360D01*
G01X19736760Y7133750D02*
Y7451250D01*
G01X19902120D02*
Y7133750D01*
G01Y7292500D02*
X19736760D01*
G01X20035970Y7133750D02*
X20134400Y7451250D01*
X20232830Y7133750D01*
G01X20197390Y7244870D02*
X20071400D01*
G01X20370620Y7133750D02*
Y7451250D01*
X20469040D01*
X20500540Y7435370D01*
X20520230Y7414210D01*
X20528100Y7371870D01*
X20520230Y7329540D01*
X20496600Y7303090D01*
X20469040Y7287200D01*
X20370620D01*
G01X20469040D02*
X20528100Y7133750D01*
G01X20764320Y7451250D02*
Y7133750D01*
G01X20673770Y7451250D02*
X20854870D01*
G01X21079280Y7123170D02*
X21071400Y7128460D01*
Y7139040D01*
X21079280Y7144330D01*
X21087160Y7139040D01*
Y7128460D01*
X21079280Y7123170D01*
G01Y7266030D02*
X21071400Y7271330D01*
Y7281910D01*
X21079280Y7287200D01*
X21087160Y7281910D01*
Y7271330D01*
X21079280Y7266030D01*
G01X21709200Y7451250D02*
Y7133750D01*
G01X21618650Y7451250D02*
X21799750D01*
G01X22024160Y7133750D02*
X21992660Y7139040D01*
X21965110Y7160200D01*
X21941480Y7191960D01*
X21925730Y7229000D01*
X21917860Y7271330D01*
Y7313670D01*
X21925730Y7356000D01*
X21941480Y7393040D01*
X21965110Y7424790D01*
X21992660Y7445960D01*
X22024160Y7451250D01*
X22055650Y7445960D01*
X22083210Y7424790D01*
X22106840Y7393040D01*
X22122590Y7356000D01*
X22130460Y7313670D01*
Y7271330D01*
X22122590Y7229000D01*
X22106840Y7191960D01*
X22083210Y7160200D01*
X22055650Y7139040D01*
X22024160Y7133750D01*
G01X22260380D02*
Y7451250D01*
X22354870D01*
X22386360Y7435370D01*
X22409990Y7398330D01*
X22417860Y7356000D01*
X22409990Y7313670D01*
X22390300Y7281910D01*
X22354870Y7266030D01*
X22260380D01*
G01X22969040Y7451250D02*
Y7133750D01*
G01X22913920Y7345410D02*
X23024160D01*
G01X23284000Y7133750D02*
X23260380Y7139040D01*
X23236760Y7160200D01*
X23221000Y7197250D01*
X23213130Y7239580D01*
X23221000Y7281910D01*
X23236760Y7318960D01*
X23260380Y7340120D01*
X23284000Y7345410D01*
X23307620Y7340120D01*
X23331240Y7318960D01*
X23346990Y7281910D01*
X23350930Y7239580D01*
X23346990Y7197250D01*
X23331240Y7160200D01*
X23307620Y7139040D01*
X23284000Y7133750D01*
G01X23945410Y7303090D02*
X23961160Y7318960D01*
X23972970Y7345410D01*
X23980850Y7382460D01*
X23972970Y7414210D01*
X23957230Y7435370D01*
X23929670Y7451250D01*
X23823370D01*
Y7133750D01*
X23953290D01*
X23980850Y7154910D01*
X23996600Y7186670D01*
X24004470Y7223710D01*
X23996600Y7260740D01*
X23972970Y7292500D01*
X23945410Y7303090D01*
X23823370D01*
G01X24228880Y7133750D02*
X24197380Y7139040D01*
X24169830Y7160200D01*
X24146200Y7191960D01*
X24130450Y7229000D01*
X24122580Y7271330D01*
Y7313670D01*
X24130450Y7356000D01*
X24146200Y7393040D01*
X24169830Y7424790D01*
X24197380Y7445960D01*
X24228880Y7451250D01*
X24260370Y7445960D01*
X24287930Y7424790D01*
X24311560Y7393040D01*
X24327310Y7356000D01*
X24335180Y7313670D01*
Y7271330D01*
X24327310Y7229000D01*
X24311560Y7191960D01*
X24287930Y7160200D01*
X24260370Y7139040D01*
X24228880Y7133750D01*
G01X24543840Y7451250D02*
Y7133750D01*
G01X24453290Y7451250D02*
X24634390D01*
G01X24858800D02*
Y7133750D01*
G01X24768250Y7451250D02*
X24949350D01*
G01X25173760Y7133750D02*
X25142260Y7139040D01*
X25114710Y7160200D01*
X25091080Y7191960D01*
X25075330Y7229000D01*
X25067460Y7271330D01*
Y7313670D01*
X25075330Y7356000D01*
X25091080Y7393040D01*
X25114710Y7424790D01*
X25142260Y7445960D01*
X25173760Y7451250D01*
X25205250Y7445960D01*
X25232810Y7424790D01*
X25256440Y7393040D01*
X25272190Y7356000D01*
X25280060Y7313670D01*
Y7271330D01*
X25272190Y7229000D01*
X25256440Y7191960D01*
X25232810Y7160200D01*
X25205250Y7139040D01*
X25173760Y7133750D01*
G01X25386350D02*
Y7451250D01*
X25488720Y7186670D01*
X25591090Y7451250D01*
Y7133750D01*
G01X19063540Y197250D02*
X19087150Y160200D01*
X19118650Y139040D01*
X19154090Y133750D01*
X19185590Y139040D01*
X19217080Y165490D01*
X19236760Y197250D01*
X19240700Y229000D01*
X19232830Y266030D01*
X19205270Y292500D01*
X19177710Y303090D01*
X19142270D01*
G01X19177710D02*
X19201330Y318960D01*
X19221020Y345410D01*
X19228890Y377160D01*
X19221020Y408920D01*
X19201330Y435370D01*
X19165900Y451250D01*
X19130470Y445960D01*
X19095030Y424790D01*
G01X19465110Y123170D02*
X19457230Y128460D01*
Y139040D01*
X19465110Y144330D01*
X19472990Y139040D01*
Y128460D01*
X19465110Y123170D01*
G01X19780070Y451250D02*
X19748570Y440670D01*
X19724950Y414210D01*
X19709200Y382460D01*
X19697390Y340120D01*
X19693460Y292500D01*
X19697390Y244870D01*
X19709200Y202540D01*
X19724950Y170780D01*
X19748570Y144330D01*
X19780070Y133750D01*
X19811560Y144330D01*
X19835190Y170780D01*
X19850940Y202540D01*
X19862750Y244870D01*
X19866680Y292500D01*
X19862750Y340120D01*
X19850940Y382460D01*
X19835190Y414210D01*
X19811560Y440670D01*
X19780070Y451250D01*
G01X20035980Y345410D02*
X20154080Y133750D01*
G01Y345410D02*
X20035980Y133750D01*
G01X20409990D02*
Y451250D01*
X20362750Y387750D01*
G01Y133750D02*
X20457230D01*
G01X20724950Y123170D02*
X20717070Y128460D01*
Y139040D01*
X20724950Y144330D01*
X20732830Y139040D01*
Y128460D01*
X20724950Y123170D01*
G01X21039910Y451250D02*
X21008410Y440670D01*
X20984790Y414210D01*
X20969040Y382460D01*
X20957230Y340120D01*
X20953300Y292500D01*
X20957230Y244870D01*
X20969040Y202540D01*
X20984790Y170780D01*
X21008410Y144330D01*
X21039910Y133750D01*
X21071400Y144330D01*
X21095030Y170780D01*
X21110780Y202540D01*
X21122590Y244870D01*
X21126520Y292500D01*
X21122590Y340120D01*
X21110780Y382460D01*
X21095030Y414210D01*
X21071400Y440670D01*
X21039910Y451250D01*
G01X19063540Y832250D02*
X19087150Y795200D01*
X19118650Y774040D01*
X19154090Y768750D01*
X19185590Y774040D01*
X19217080Y800490D01*
X19236760Y832250D01*
X19240700Y864000D01*
X19232830Y901030D01*
X19205270Y927500D01*
X19177710Y938090D01*
X19142270D01*
G01X19177710D02*
X19201330Y953960D01*
X19221020Y980410D01*
X19228890Y1012160D01*
X19221020Y1043920D01*
X19201330Y1070370D01*
X19165900Y1086250D01*
X19130470Y1080960D01*
X19095030Y1059790D01*
G01X19465110Y758170D02*
X19457230Y763460D01*
Y774040D01*
X19465110Y779330D01*
X19472990Y774040D01*
Y763460D01*
X19465110Y758170D01*
G01X19780070Y1086250D02*
X19748570Y1075670D01*
X19724950Y1049210D01*
X19709200Y1017460D01*
X19697390Y975120D01*
X19693460Y927500D01*
X19697390Y879870D01*
X19709200Y837540D01*
X19724950Y805780D01*
X19748570Y779330D01*
X19780070Y768750D01*
X19811560Y779330D01*
X19835190Y805780D01*
X19850940Y837540D01*
X19862750Y879870D01*
X19866680Y927500D01*
X19862750Y975120D01*
X19850940Y1017460D01*
X19835190Y1049210D01*
X19811560Y1075670D01*
X19780070Y1086250D01*
G01X20035980Y980410D02*
X20154080Y768750D01*
G01Y980410D02*
X20035980Y768750D01*
G01X20409990D02*
Y1086250D01*
X20362750Y1022750D01*
G01Y768750D02*
X20457230D01*
G01X20724950Y758170D02*
X20717070Y763460D01*
Y774040D01*
X20724950Y779330D01*
X20732830Y774040D01*
Y763460D01*
X20724950Y758170D01*
G01X21039910Y1086250D02*
X21008410Y1075670D01*
X20984790Y1049210D01*
X20969040Y1017460D01*
X20957230Y975120D01*
X20953300Y927500D01*
X20957230Y879870D01*
X20969040Y837540D01*
X20984790Y805780D01*
X21008410Y779330D01*
X21039910Y768750D01*
X21071400Y779330D01*
X21095030Y805780D01*
X21110780Y837540D01*
X21122590Y879870D01*
X21126520Y927500D01*
X21122590Y975120D01*
X21110780Y1017460D01*
X21095030Y1049210D01*
X21071400Y1075670D01*
X21039910Y1086250D01*
G01X19221020Y1467250D02*
X19244630Y1430200D01*
X19276130Y1409040D01*
X19311570Y1403750D01*
X19343070Y1409040D01*
X19374560Y1435490D01*
X19394240Y1467250D01*
X19398180Y1499000D01*
X19390310Y1536030D01*
X19362750Y1562500D01*
X19335190Y1573090D01*
X19299750D01*
G01X19335190D02*
X19358810Y1588960D01*
X19378500Y1615410D01*
X19386370Y1647160D01*
X19378500Y1678920D01*
X19358810Y1705370D01*
X19323380Y1721250D01*
X19287950Y1715960D01*
X19252510Y1694790D01*
G01X19622590Y1393170D02*
X19614710Y1398460D01*
Y1409040D01*
X19622590Y1414330D01*
X19630470Y1409040D01*
Y1398460D01*
X19622590Y1393170D01*
G01X19984790Y1403750D02*
Y1721250D01*
X19839120Y1493710D01*
X20035980D01*
G01X20252510Y1721250D02*
X20221010Y1710670D01*
X20197390Y1684210D01*
X20181640Y1652460D01*
X20169830Y1610120D01*
X20165900Y1562500D01*
X20169830Y1514870D01*
X20181640Y1472540D01*
X20197390Y1440780D01*
X20221010Y1414330D01*
X20252510Y1403750D01*
X20284000Y1414330D01*
X20307630Y1440780D01*
X20323380Y1472540D01*
X20335190Y1514870D01*
X20339120Y1562500D01*
X20335190Y1610120D01*
X20323380Y1652460D01*
X20307630Y1684210D01*
X20284000Y1710670D01*
X20252510Y1721250D01*
G01X20480860Y1467250D02*
X20504470Y1430200D01*
X20535970Y1409040D01*
X20571410Y1403750D01*
X20602910Y1409040D01*
X20634400Y1435490D01*
X20654080Y1467250D01*
X20658020Y1499000D01*
X20650150Y1536030D01*
X20622590Y1562500D01*
X20595030Y1573090D01*
X20559590D01*
G01X20595030D02*
X20618650Y1588960D01*
X20638340Y1615410D01*
X20646210Y1647160D01*
X20638340Y1678920D01*
X20618650Y1705370D01*
X20583220Y1721250D01*
X20547790Y1715960D01*
X20512350Y1694790D01*
G01X20807620Y1536030D02*
X20835190Y1573090D01*
X20858810Y1594250D01*
X20890310Y1604830D01*
X20917870Y1594250D01*
X20937550Y1573090D01*
X20953300Y1541330D01*
X20957240Y1504290D01*
X20953300Y1472540D01*
X20937550Y1440780D01*
X20913920Y1414330D01*
X20886370Y1403750D01*
X20854870Y1414330D01*
X20827310Y1446070D01*
X20811560Y1493710D01*
X20807620Y1546620D01*
X20815500Y1615410D01*
X20827310Y1652460D01*
X20846990Y1689500D01*
X20874550Y1715960D01*
X20902110Y1721250D01*
X20929670Y1710670D01*
X20949360Y1684210D01*
G01X19390300Y2303330D02*
X19413930Y2335080D01*
X19441490Y2350960D01*
X19472990Y2356250D01*
X19512350Y2345670D01*
X19539920Y2319210D01*
X19547790Y2287460D01*
X19543850Y2255700D01*
X19528100Y2229250D01*
X19449360Y2176330D01*
X19413930Y2139290D01*
X19390300Y2086360D01*
X19382430Y2038750D01*
X19547790D01*
G01X19780070Y2028170D02*
X19772190Y2033460D01*
Y2044040D01*
X19780070Y2049330D01*
X19787950Y2044040D01*
Y2033460D01*
X19780070Y2028170D01*
G01X20095030Y2356250D02*
X20063530Y2345670D01*
X20039910Y2319210D01*
X20024160Y2287460D01*
X20012350Y2245120D01*
X20008420Y2197500D01*
X20012350Y2149870D01*
X20024160Y2107540D01*
X20039910Y2075780D01*
X20063530Y2049330D01*
X20095030Y2038750D01*
X20126520Y2049330D01*
X20150150Y2075780D01*
X20165900Y2107540D01*
X20177710Y2149870D01*
X20181640Y2197500D01*
X20177710Y2245120D01*
X20165900Y2287460D01*
X20150150Y2319210D01*
X20126520Y2345670D01*
X20095030Y2356250D01*
G01X20323380Y2102250D02*
X20346990Y2065200D01*
X20378490Y2044040D01*
X20413930Y2038750D01*
X20445430Y2044040D01*
X20476920Y2070490D01*
X20496600Y2102250D01*
X20500540Y2134000D01*
X20492670Y2171030D01*
X20465110Y2197500D01*
X20437550Y2208090D01*
X20402110D01*
G01X20437550D02*
X20461170Y2223960D01*
X20480860Y2250410D01*
X20488730Y2282160D01*
X20480860Y2313920D01*
X20461170Y2340370D01*
X20425740Y2356250D01*
X20390310Y2350960D01*
X20354870Y2329790D01*
G01X20650140Y2303330D02*
X20673770Y2335080D01*
X20701330Y2350960D01*
X20732830Y2356250D01*
X20772190Y2345670D01*
X20799760Y2319210D01*
X20807630Y2287460D01*
X20803690Y2255700D01*
X20787940Y2229250D01*
X20709200Y2176330D01*
X20673770Y2139290D01*
X20650140Y2086360D01*
X20642270Y2038750D01*
X20807630D01*
G01X19465110Y3308750D02*
Y3626250D01*
X19417870Y3562750D01*
G01Y3308750D02*
X19512350D01*
G01X19780070Y3298170D02*
X19772190Y3303460D01*
Y3314040D01*
X19780070Y3319330D01*
X19787950Y3314040D01*
Y3303460D01*
X19780070Y3298170D01*
G01X20095030Y3626250D02*
X20063530Y3615670D01*
X20039910Y3589210D01*
X20024160Y3557460D01*
X20012350Y3515120D01*
X20008420Y3467500D01*
X20012350Y3419870D01*
X20024160Y3377540D01*
X20039910Y3345780D01*
X20063530Y3319330D01*
X20095030Y3308750D01*
X20126520Y3319330D01*
X20150150Y3345780D01*
X20165900Y3377540D01*
X20177710Y3419870D01*
X20181640Y3467500D01*
X20177710Y3515120D01*
X20165900Y3557460D01*
X20150150Y3589210D01*
X20126520Y3615670D01*
X20095030Y3626250D01*
G01X20409990Y3308750D02*
Y3626250D01*
X20362750Y3562750D01*
G01Y3308750D02*
X20457230D01*
G01X20650140Y3441030D02*
X20677710Y3478090D01*
X20701330Y3499250D01*
X20732830Y3509830D01*
X20760390Y3499250D01*
X20780070Y3478090D01*
X20795820Y3446330D01*
X20799760Y3409290D01*
X20795820Y3377540D01*
X20780070Y3345780D01*
X20756440Y3319330D01*
X20728890Y3308750D01*
X20697390Y3319330D01*
X20669830Y3351070D01*
X20654080Y3398710D01*
X20650140Y3451620D01*
X20658020Y3520410D01*
X20669830Y3557460D01*
X20689510Y3594500D01*
X20717070Y3620960D01*
X20744630Y3626250D01*
X20772190Y3615670D01*
X20791880Y3589210D01*
G01X19465110Y4261250D02*
X19433610Y4250670D01*
X19409990Y4224210D01*
X19394240Y4192460D01*
X19382430Y4150120D01*
X19378500Y4102500D01*
X19382430Y4054870D01*
X19394240Y4012540D01*
X19409990Y3980780D01*
X19433610Y3954330D01*
X19465110Y3943750D01*
X19496600Y3954330D01*
X19520230Y3980780D01*
X19535980Y4012540D01*
X19547790Y4054870D01*
X19551720Y4102500D01*
X19547790Y4150120D01*
X19535980Y4192460D01*
X19520230Y4224210D01*
X19496600Y4250670D01*
X19465110Y4261250D01*
G01X19780070Y3933170D02*
X19772190Y3938460D01*
Y3949040D01*
X19780070Y3954330D01*
X19787950Y3949040D01*
Y3938460D01*
X19780070Y3933170D01*
G01X20095030Y3943750D02*
X20122590Y3949040D01*
X20154080Y3964910D01*
X20173770Y3991360D01*
X20181640Y4028420D01*
X20173770Y4065450D01*
X20150150Y4097200D01*
X20114710Y4113090D01*
X20075350D01*
X20051720Y4123670D01*
X20032030Y4150120D01*
X20024160Y4187160D01*
X20035980Y4224210D01*
X20063530Y4250670D01*
X20095030Y4261250D01*
X20126520Y4250670D01*
X20154080Y4224210D01*
X20165900Y4187160D01*
X20158020Y4150120D01*
X20138340Y4123670D01*
X20114710Y4113090D01*
X20075350D01*
X20039910Y4097200D01*
X20016290Y4065450D01*
X20008420Y4028420D01*
X20016290Y3991360D01*
X20035980Y3964910D01*
X20067470Y3949040D01*
X20095030Y3943750D01*
G01X20409990D02*
X20437550Y3949040D01*
X20469040Y3964910D01*
X20488730Y3991360D01*
X20496600Y4028420D01*
X20488730Y4065450D01*
X20465110Y4097200D01*
X20429670Y4113090D01*
X20390310D01*
X20366680Y4123670D01*
X20346990Y4150120D01*
X20339120Y4187160D01*
X20350940Y4224210D01*
X20378490Y4250670D01*
X20409990Y4261250D01*
X20441480Y4250670D01*
X20469040Y4224210D01*
X20480860Y4187160D01*
X20472980Y4150120D01*
X20453300Y4123670D01*
X20429670Y4113090D01*
X20390310D01*
X20354870Y4097200D01*
X20331250Y4065450D01*
X20323380Y4028420D01*
X20331250Y3991360D01*
X20350940Y3964910D01*
X20382430Y3949040D01*
X20409990Y3943750D01*
G01X20658020Y3980780D02*
X20685580Y3954330D01*
X20717070Y3943750D01*
X20748570Y3954330D01*
X20776130Y3986070D01*
X20795820Y4033710D01*
X20803690Y4081330D01*
Y4139540D01*
X20795820Y4187160D01*
X20776130Y4229500D01*
X20752510Y4250670D01*
X20724950Y4261250D01*
X20693450Y4250670D01*
X20669830Y4229500D01*
X20654080Y4197750D01*
X20646210Y4155410D01*
X20654080Y4118380D01*
X20673770Y4081330D01*
X20697390Y4060160D01*
X20724950Y4054870D01*
X20756440Y4065450D01*
X20780070Y4091910D01*
X20803690Y4139540D01*
G01X19307630Y4896250D02*
X19276130Y4885670D01*
X19252510Y4859210D01*
X19236760Y4827460D01*
X19224950Y4785120D01*
X19221020Y4737500D01*
X19224950Y4689870D01*
X19236760Y4647540D01*
X19252510Y4615780D01*
X19276130Y4589330D01*
X19307630Y4578750D01*
X19339120Y4589330D01*
X19362750Y4615780D01*
X19378500Y4647540D01*
X19390310Y4689870D01*
X19394240Y4737500D01*
X19390310Y4785120D01*
X19378500Y4827460D01*
X19362750Y4859210D01*
X19339120Y4885670D01*
X19307630Y4896250D01*
G01X19622590Y4568170D02*
X19614710Y4573460D01*
Y4584040D01*
X19622590Y4589330D01*
X19630470Y4584040D01*
Y4573460D01*
X19622590Y4568170D01*
G01X19984790Y4578750D02*
Y4896250D01*
X19839120Y4668710D01*
X20035980D01*
G01X20165900Y4626360D02*
X20189510Y4599910D01*
X20217070Y4584040D01*
X20252510Y4578750D01*
X20287950Y4589330D01*
X20315500Y4610490D01*
X20335190Y4647540D01*
X20339120Y4689870D01*
X20331250Y4732200D01*
X20311560Y4758670D01*
X20284000Y4779830D01*
X20256450Y4785120D01*
X20228890Y4779830D01*
X20193460Y4758670D01*
X20205270Y4896250D01*
X20311560D01*
G01X20559590Y4578750D02*
X20567470Y4647540D01*
X20579280Y4705740D01*
X20595030Y4758670D01*
X20614710Y4816870D01*
X20646210Y4896250D01*
X20488730D01*
G01X20807620Y4843330D02*
X20831250Y4875080D01*
X20858810Y4890960D01*
X20890310Y4896250D01*
X20929670Y4885670D01*
X20957240Y4859210D01*
X20965110Y4827460D01*
X20961170Y4795700D01*
X20945420Y4769250D01*
X20866680Y4716330D01*
X20831250Y4679290D01*
X20807620Y4626360D01*
X20799750Y4578750D01*
X20965110D01*
G01X19307630Y5531250D02*
X19276130Y5520670D01*
X19252510Y5494210D01*
X19236760Y5462460D01*
X19224950Y5420120D01*
X19221020Y5372500D01*
X19224950Y5324870D01*
X19236760Y5282540D01*
X19252510Y5250780D01*
X19276130Y5224330D01*
X19307630Y5213750D01*
X19339120Y5224330D01*
X19362750Y5250780D01*
X19378500Y5282540D01*
X19390310Y5324870D01*
X19394240Y5372500D01*
X19390310Y5420120D01*
X19378500Y5462460D01*
X19362750Y5494210D01*
X19339120Y5520670D01*
X19307630Y5531250D01*
G01X19622590Y5203170D02*
X19614710Y5208460D01*
Y5219040D01*
X19622590Y5224330D01*
X19630470Y5219040D01*
Y5208460D01*
X19622590Y5203170D01*
G01X19850940Y5277250D02*
X19874550Y5240200D01*
X19906050Y5219040D01*
X19941490Y5213750D01*
X19972990Y5219040D01*
X20004480Y5245490D01*
X20024160Y5277250D01*
X20028100Y5309000D01*
X20020230Y5346030D01*
X19992670Y5372500D01*
X19965110Y5383090D01*
X19929670D01*
G01X19965110D02*
X19988730Y5398960D01*
X20008420Y5425410D01*
X20016290Y5457160D01*
X20008420Y5488920D01*
X19988730Y5515370D01*
X19953300Y5531250D01*
X19917870Y5525960D01*
X19882430Y5504790D01*
G01X20252510Y5531250D02*
X20221010Y5520670D01*
X20197390Y5494210D01*
X20181640Y5462460D01*
X20169830Y5420120D01*
X20165900Y5372500D01*
X20169830Y5324870D01*
X20181640Y5282540D01*
X20197390Y5250780D01*
X20221010Y5224330D01*
X20252510Y5213750D01*
X20284000Y5224330D01*
X20307630Y5250780D01*
X20323380Y5282540D01*
X20335190Y5324870D01*
X20339120Y5372500D01*
X20335190Y5420120D01*
X20323380Y5462460D01*
X20307630Y5494210D01*
X20284000Y5520670D01*
X20252510Y5531250D01*
G01X20614710Y5213750D02*
Y5531250D01*
X20469040Y5303710D01*
X20665900D01*
G01X20882430Y5213750D02*
X20909990Y5219040D01*
X20941480Y5234910D01*
X20961170Y5261360D01*
X20969040Y5298420D01*
X20961170Y5335450D01*
X20937550Y5367200D01*
X20902110Y5383090D01*
X20862750D01*
X20839120Y5393670D01*
X20819430Y5420120D01*
X20811560Y5457160D01*
X20823380Y5494210D01*
X20850930Y5520670D01*
X20882430Y5531250D01*
X20913920Y5520670D01*
X20941480Y5494210D01*
X20953300Y5457160D01*
X20945420Y5420120D01*
X20925740Y5393670D01*
X20902110Y5383090D01*
X20862750D01*
X20827310Y5367200D01*
X20803690Y5335450D01*
X20795820Y5298420D01*
X20803690Y5261360D01*
X20823380Y5234910D01*
X20854870Y5219040D01*
X20882430Y5213750D01*
G01X19539910Y5891070D02*
X19571410Y5864620D01*
X19606840Y5848750D01*
X19638340D01*
X19669830Y5864620D01*
X19693460Y5891070D01*
X19705270Y5928130D01*
X19697400Y5965160D01*
X19677710Y5996910D01*
X19642270Y6018090D01*
X19595030Y6028670D01*
X19567470Y6049830D01*
X19555660Y6086870D01*
X19563540Y6123920D01*
X19583220Y6150370D01*
X19610780Y6166250D01*
X19638340D01*
X19665900Y6155670D01*
X19689520Y6129210D01*
G01X19890310Y6166250D02*
X19984790D01*
G01X19937550D02*
Y5848750D01*
G01X19890310D02*
X19984790D01*
G01X20177700Y6166250D02*
X20327320D01*
X20177700Y5848750D01*
X20327320D01*
G01X20646210D02*
X20488730D01*
Y6166250D01*
X20646210D01*
G01X20583220Y6012800D02*
X20488730D01*
G01X19780070Y2673750D02*
Y2991250D01*
X19732830Y2927750D01*
G01Y2673750D02*
X19827310D01*
G01X20095030Y2663170D02*
X20087150Y2668460D01*
Y2679040D01*
X20095030Y2684330D01*
X20102910Y2679040D01*
Y2668460D01*
X20095030Y2663170D01*
G01X20323380Y2737250D02*
X20346990Y2700200D01*
X20378490Y2679040D01*
X20413930Y2673750D01*
X20445430Y2679040D01*
X20476920Y2705490D01*
X20496600Y2737250D01*
X20500540Y2769000D01*
X20492670Y2806030D01*
X20465110Y2832500D01*
X20437550Y2843090D01*
X20402110D01*
G01X20437550D02*
X20461170Y2858960D01*
X20480860Y2885410D01*
X20488730Y2917160D01*
X20480860Y2948920D01*
X20461170Y2975370D01*
X20425740Y2991250D01*
X20390310Y2985960D01*
X20354870Y2964790D01*
G01X22496600Y6325000D02*
Y-25000D01*
G01X23244630Y133750D02*
Y451250D01*
X23339120D01*
X23370610Y435370D01*
X23394240Y398330D01*
X23402110Y356000D01*
X23394240Y313670D01*
X23374550Y281910D01*
X23339120Y266030D01*
X23244630D01*
G01X23559590Y451250D02*
Y133750D01*
X23717070D01*
G01X23854860D02*
X23953290Y451250D01*
X24051720Y133750D01*
G01X24016280Y244870D02*
X23890290D01*
G01X24268250Y451250D02*
Y133750D01*
G01X24177700Y451250D02*
X24358800D01*
G01X24661950Y133750D02*
X24504470D01*
Y451250D01*
X24661950D01*
G01X24598960Y297800D02*
X24504470D01*
G01X24811560Y133750D02*
Y451250D01*
X24890290D01*
X24921790Y435370D01*
X24945410Y414210D01*
X24965100Y382460D01*
X24980850Y345410D01*
X24984780Y292500D01*
X24980850Y239580D01*
X24965100Y202540D01*
X24945410Y170780D01*
X24921790Y149620D01*
X24890290Y133750D01*
X24811560D01*
G01X23244630Y768750D02*
Y1086250D01*
X23339120D01*
X23370610Y1070370D01*
X23394240Y1033330D01*
X23402110Y991000D01*
X23394240Y948670D01*
X23374550Y916910D01*
X23339120Y901030D01*
X23244630D01*
G01X23559590Y1086250D02*
Y768750D01*
X23717070D01*
G01X23854860D02*
X23953290Y1086250D01*
X24051720Y768750D01*
G01X24016280Y879870D02*
X23890290D01*
G01X24268250Y1086250D02*
Y768750D01*
G01X24177700Y1086250D02*
X24358800D01*
G01X24661950Y768750D02*
X24504470D01*
Y1086250D01*
X24661950D01*
G01X24598960Y932800D02*
X24504470D01*
G01X24811560Y768750D02*
Y1086250D01*
X24890290D01*
X24921790Y1070370D01*
X24945410Y1049210D01*
X24965100Y1017460D01*
X24980850Y980410D01*
X24984780Y927500D01*
X24980850Y874580D01*
X24965100Y837540D01*
X24945410Y805780D01*
X24921790Y784620D01*
X24890290Y768750D01*
X24811560D01*
G01X23244630Y1403750D02*
Y1721250D01*
X23339120D01*
X23370610Y1705370D01*
X23394240Y1668330D01*
X23402110Y1626000D01*
X23394240Y1583670D01*
X23374550Y1551910D01*
X23339120Y1536030D01*
X23244630D01*
G01X23559590Y1721250D02*
Y1403750D01*
X23717070D01*
G01X23854860D02*
X23953290Y1721250D01*
X24051720Y1403750D01*
G01X24016280Y1514870D02*
X23890290D01*
G01X24268250Y1721250D02*
Y1403750D01*
G01X24177700Y1721250D02*
X24358800D01*
G01X24661950Y1403750D02*
X24504470D01*
Y1721250D01*
X24661950D01*
G01X24598960Y1567800D02*
X24504470D01*
G01X24811560Y1403750D02*
Y1721250D01*
X24890290D01*
X24921790Y1705370D01*
X24945410Y1684210D01*
X24965100Y1652460D01*
X24980850Y1615410D01*
X24984780Y1562500D01*
X24980850Y1509580D01*
X24965100Y1472540D01*
X24945410Y1440780D01*
X24921790Y1419620D01*
X24890290Y1403750D01*
X24811560D01*
G01X23244630Y2038750D02*
Y2356250D01*
X23339120D01*
X23370610Y2340370D01*
X23394240Y2303330D01*
X23402110Y2261000D01*
X23394240Y2218670D01*
X23374550Y2186910D01*
X23339120Y2171030D01*
X23244630D01*
G01X23559590Y2356250D02*
Y2038750D01*
X23717070D01*
G01X23854860D02*
X23953290Y2356250D01*
X24051720Y2038750D01*
G01X24016280Y2149870D02*
X23890290D01*
G01X24268250Y2356250D02*
Y2038750D01*
G01X24177700Y2356250D02*
X24358800D01*
G01X24661950Y2038750D02*
X24504470D01*
Y2356250D01*
X24661950D01*
G01X24598960Y2202800D02*
X24504470D01*
G01X24811560Y2038750D02*
Y2356250D01*
X24890290D01*
X24921790Y2340370D01*
X24945410Y2319210D01*
X24965100Y2287460D01*
X24980850Y2250410D01*
X24984780Y2197500D01*
X24980850Y2144580D01*
X24965100Y2107540D01*
X24945410Y2075780D01*
X24921790Y2054620D01*
X24890290Y2038750D01*
X24811560D01*
G01X23244630Y2673750D02*
Y2991250D01*
X23339120D01*
X23370610Y2975370D01*
X23394240Y2938330D01*
X23402110Y2896000D01*
X23394240Y2853670D01*
X23374550Y2821910D01*
X23339120Y2806030D01*
X23244630D01*
G01X23559590Y2991250D02*
Y2673750D01*
X23717070D01*
G01X23854860D02*
X23953290Y2991250D01*
X24051720Y2673750D01*
G01X24016280Y2784870D02*
X23890290D01*
G01X24268250Y2991250D02*
Y2673750D01*
G01X24177700Y2991250D02*
X24358800D01*
G01X24661950Y2673750D02*
X24504470D01*
Y2991250D01*
X24661950D01*
G01X24598960Y2837800D02*
X24504470D01*
G01X24811560Y2673750D02*
Y2991250D01*
X24890290D01*
X24921790Y2975370D01*
X24945410Y2954210D01*
X24965100Y2922460D01*
X24980850Y2885410D01*
X24984780Y2832500D01*
X24980850Y2779580D01*
X24965100Y2742540D01*
X24945410Y2710780D01*
X24921790Y2689620D01*
X24890290Y2673750D01*
X24811560D01*
G01X23244630Y3308750D02*
Y3626250D01*
X23339120D01*
X23370610Y3610370D01*
X23394240Y3573330D01*
X23402110Y3531000D01*
X23394240Y3488670D01*
X23374550Y3456910D01*
X23339120Y3441030D01*
X23244630D01*
G01X23559590Y3626250D02*
Y3308750D01*
X23717070D01*
G01X23854860D02*
X23953290Y3626250D01*
X24051720Y3308750D01*
G01X24016280Y3419870D02*
X23890290D01*
G01X24268250Y3626250D02*
Y3308750D01*
G01X24177700Y3626250D02*
X24358800D01*
G01X24661950Y3308750D02*
X24504470D01*
Y3626250D01*
X24661950D01*
G01X24598960Y3472800D02*
X24504470D01*
G01X24811560Y3308750D02*
Y3626250D01*
X24890290D01*
X24921790Y3610370D01*
X24945410Y3589210D01*
X24965100Y3557460D01*
X24980850Y3520410D01*
X24984780Y3467500D01*
X24980850Y3414580D01*
X24965100Y3377540D01*
X24945410Y3345780D01*
X24921790Y3324620D01*
X24890290Y3308750D01*
X24811560D01*
G01X23244630Y3943750D02*
Y4261250D01*
X23339120D01*
X23370610Y4245370D01*
X23394240Y4208330D01*
X23402110Y4166000D01*
X23394240Y4123670D01*
X23374550Y4091910D01*
X23339120Y4076030D01*
X23244630D01*
G01X23559590Y4261250D02*
Y3943750D01*
X23717070D01*
G01X23854860D02*
X23953290Y4261250D01*
X24051720Y3943750D01*
G01X24016280Y4054870D02*
X23890290D01*
G01X24268250Y4261250D02*
Y3943750D01*
G01X24177700Y4261250D02*
X24358800D01*
G01X24661950Y3943750D02*
X24504470D01*
Y4261250D01*
X24661950D01*
G01X24598960Y4107800D02*
X24504470D01*
G01X24811560Y3943750D02*
Y4261250D01*
X24890290D01*
X24921790Y4245370D01*
X24945410Y4224210D01*
X24965100Y4192460D01*
X24980850Y4155410D01*
X24984780Y4102500D01*
X24980850Y4049580D01*
X24965100Y4012540D01*
X24945410Y3980780D01*
X24921790Y3959620D01*
X24890290Y3943750D01*
X24811560D01*
G01X23244630Y4578750D02*
Y4896250D01*
X23339120D01*
X23370610Y4880370D01*
X23394240Y4843330D01*
X23402110Y4801000D01*
X23394240Y4758670D01*
X23374550Y4726910D01*
X23339120Y4711030D01*
X23244630D01*
G01X23559590Y4896250D02*
Y4578750D01*
X23717070D01*
G01X23854860D02*
X23953290Y4896250D01*
X24051720Y4578750D01*
G01X24016280Y4689870D02*
X23890290D01*
G01X24268250Y4896250D02*
Y4578750D01*
G01X24177700Y4896250D02*
X24358800D01*
G01X24661950Y4578750D02*
X24504470D01*
Y4896250D01*
X24661950D01*
G01X24598960Y4742800D02*
X24504470D01*
G01X24811560Y4578750D02*
Y4896250D01*
X24890290D01*
X24921790Y4880370D01*
X24945410Y4859210D01*
X24965100Y4827460D01*
X24980850Y4790410D01*
X24984780Y4737500D01*
X24980850Y4684580D01*
X24965100Y4647540D01*
X24945410Y4615780D01*
X24921790Y4594620D01*
X24890290Y4578750D01*
X24811560D01*
G01X23244630Y5213750D02*
Y5531250D01*
X23339120D01*
X23370610Y5515370D01*
X23394240Y5478330D01*
X23402110Y5436000D01*
X23394240Y5393670D01*
X23374550Y5361910D01*
X23339120Y5346030D01*
X23244630D01*
G01X23559590Y5531250D02*
Y5213750D01*
X23717070D01*
G01X23854860D02*
X23953290Y5531250D01*
X24051720Y5213750D01*
G01X24016280Y5324870D02*
X23890290D01*
G01X24268250Y5531250D02*
Y5213750D01*
G01X24177700Y5531250D02*
X24358800D01*
G01X24661950Y5213750D02*
X24504470D01*
Y5531250D01*
X24661950D01*
G01X24598960Y5377800D02*
X24504470D01*
G01X24811560Y5213750D02*
Y5531250D01*
X24890290D01*
X24921790Y5515370D01*
X24945410Y5494210D01*
X24965100Y5462460D01*
X24980850Y5425410D01*
X24984780Y5372500D01*
X24980850Y5319580D01*
X24965100Y5282540D01*
X24945410Y5250780D01*
X24921790Y5229620D01*
X24890290Y5213750D01*
X24811560D01*
G01X23244630Y5848750D02*
Y6166250D01*
X23339120D01*
X23370610Y6150370D01*
X23394240Y6113330D01*
X23402110Y6071000D01*
X23394240Y6028670D01*
X23374550Y5996910D01*
X23339120Y5981030D01*
X23244630D01*
G01X23559590Y6166250D02*
Y5848750D01*
X23717070D01*
G01X23854860D02*
X23953290Y6166250D01*
X24051720Y5848750D01*
G01X24016280Y5959870D02*
X23890290D01*
G01X24268250Y6166250D02*
Y5848750D01*
G01X24177700Y6166250D02*
X24358800D01*
G01X24661950Y5848750D02*
X24504470D01*
Y6166250D01*
X24661950D01*
G01X24598960Y6012800D02*
X24504470D01*
G01X24811560Y5848750D02*
Y6166250D01*
X24890290D01*
X24921790Y6150370D01*
X24945410Y6129210D01*
X24965100Y6097460D01*
X24980850Y6060410D01*
X24984780Y6007500D01*
X24980850Y5954580D01*
X24965100Y5917540D01*
X24945410Y5885780D01*
X24921790Y5864620D01*
X24890290Y5848750D01*
X24811560D01*
G01X25724940Y6325000D02*
Y-25000D01*
G01X26709190Y133750D02*
Y451250D01*
X26661950Y387750D01*
G01Y133750D02*
X26756430D01*
G01X26634380Y1033330D02*
X26658010Y1065080D01*
X26685570Y1080960D01*
X26717070Y1086250D01*
X26756430Y1075670D01*
X26784000Y1049210D01*
X26791870Y1017460D01*
X26787930Y985700D01*
X26772180Y959250D01*
X26693440Y906330D01*
X26658010Y869290D01*
X26634380Y816360D01*
X26626510Y768750D01*
X26791870D01*
G01X26756430Y1403750D02*
Y1721250D01*
X26610760Y1493710D01*
X26807620D01*
G01X26709190Y2038750D02*
X26736750Y2044040D01*
X26768240Y2059910D01*
X26787930Y2086360D01*
X26795800Y2123420D01*
X26787930Y2160450D01*
X26764310Y2192200D01*
X26728870Y2208090D01*
X26689510D01*
X26665880Y2218670D01*
X26646190Y2245120D01*
X26638320Y2282160D01*
X26650140Y2319210D01*
X26677690Y2345670D01*
X26709190Y2356250D01*
X26740680Y2345670D01*
X26768240Y2319210D01*
X26780060Y2282160D01*
X26772180Y2245120D01*
X26752500Y2218670D01*
X26728870Y2208090D01*
X26689510D01*
X26654070Y2192200D01*
X26630450Y2160450D01*
X26622580Y2123420D01*
X26630450Y2086360D01*
X26650140Y2059910D01*
X26681630Y2044040D01*
X26709190Y2038750D01*
G01X26622580Y2737250D02*
X26646190Y2700200D01*
X26677690Y2679040D01*
X26713130Y2673750D01*
X26744630Y2679040D01*
X26776120Y2705490D01*
X26795800Y2737250D01*
X26799740Y2769000D01*
X26791870Y2806030D01*
X26764310Y2832500D01*
X26736750Y2843090D01*
X26701310D01*
G01X26736750D02*
X26760370Y2858960D01*
X26780060Y2885410D01*
X26787930Y2917160D01*
X26780060Y2948920D01*
X26760370Y2975370D01*
X26724940Y2991250D01*
X26689510Y2985960D01*
X26654070Y2964790D01*
G01X26598950Y3308750D02*
Y3626250D01*
X26453280Y3398710D01*
X26650140D01*
G01X26866670Y3308750D02*
Y3626250D01*
X26819430Y3562750D01*
G01Y3308750D02*
X26913910D01*
G01X26465100Y4007250D02*
X26488710Y3970200D01*
X26520210Y3949040D01*
X26555650Y3943750D01*
X26587150Y3949040D01*
X26618640Y3975490D01*
X26638320Y4007250D01*
X26642260Y4039000D01*
X26634390Y4076030D01*
X26606830Y4102500D01*
X26579270Y4113090D01*
X26543830D01*
G01X26579270D02*
X26602890Y4128960D01*
X26622580Y4155410D01*
X26630450Y4187160D01*
X26622580Y4218920D01*
X26602890Y4245370D01*
X26567460Y4261250D01*
X26532030Y4255960D01*
X26496590Y4234790D01*
G01X26791860Y4208330D02*
X26815490Y4240080D01*
X26843050Y4255960D01*
X26874550Y4261250D01*
X26913910Y4250670D01*
X26941480Y4224210D01*
X26949350Y4192460D01*
X26945410Y4160700D01*
X26929660Y4134250D01*
X26850920Y4081330D01*
X26815490Y4044290D01*
X26791860Y3991360D01*
X26783990Y3943750D01*
X26949350D01*
G01X26465100Y4642250D02*
X26488710Y4605200D01*
X26520210Y4584040D01*
X26555650Y4578750D01*
X26587150Y4584040D01*
X26618640Y4610490D01*
X26638320Y4642250D01*
X26642260Y4674000D01*
X26634390Y4711030D01*
X26606830Y4737500D01*
X26579270Y4748090D01*
X26543830D01*
G01X26579270D02*
X26602890Y4763960D01*
X26622580Y4790410D01*
X26630450Y4822160D01*
X26622580Y4853920D01*
X26602890Y4880370D01*
X26567460Y4896250D01*
X26532030Y4890960D01*
X26496590Y4869790D01*
G01X26780060Y4642250D02*
X26803670Y4605200D01*
X26835170Y4584040D01*
X26870610Y4578750D01*
X26902110Y4584040D01*
X26933600Y4610490D01*
X26953280Y4642250D01*
X26957220Y4674000D01*
X26949350Y4711030D01*
X26921790Y4737500D01*
X26894230Y4748090D01*
X26858790D01*
G01X26894230D02*
X26917850Y4763960D01*
X26937540Y4790410D01*
X26945410Y4822160D01*
X26937540Y4853920D01*
X26917850Y4880370D01*
X26882420Y4896250D01*
X26846990Y4890960D01*
X26811550Y4869790D01*
G01X26307620Y5261360D02*
X26331230Y5234910D01*
X26358790Y5219040D01*
X26394230Y5213750D01*
X26429670Y5224330D01*
X26457220Y5245490D01*
X26476910Y5282540D01*
X26480840Y5324870D01*
X26472970Y5367200D01*
X26453280Y5393670D01*
X26425720Y5414830D01*
X26398170Y5420120D01*
X26370610Y5414830D01*
X26335180Y5393670D01*
X26346990Y5531250D01*
X26453280D01*
G01X26634380Y5346030D02*
X26661950Y5383090D01*
X26685570Y5404250D01*
X26717070Y5414830D01*
X26744630Y5404250D01*
X26764310Y5383090D01*
X26780060Y5351330D01*
X26784000Y5314290D01*
X26780060Y5282540D01*
X26764310Y5250780D01*
X26740680Y5224330D01*
X26713130Y5213750D01*
X26681630Y5224330D01*
X26654070Y5256070D01*
X26638320Y5303710D01*
X26634380Y5356620D01*
X26642260Y5425410D01*
X26654070Y5462460D01*
X26673750Y5499500D01*
X26701310Y5525960D01*
X26728870Y5531250D01*
X26756430Y5520670D01*
X26776120Y5494210D01*
G01X27024150Y5531250D02*
X26992650Y5520670D01*
X26969030Y5494210D01*
X26953280Y5462460D01*
X26941470Y5420120D01*
X26937540Y5372500D01*
X26941470Y5324870D01*
X26953280Y5282540D01*
X26969030Y5250780D01*
X26992650Y5224330D01*
X27024150Y5213750D01*
X27055640Y5224330D01*
X27079270Y5250780D01*
X27095020Y5282540D01*
X27106830Y5324870D01*
X27110760Y5372500D01*
X27106830Y5420120D01*
X27095020Y5462460D01*
X27079270Y5494210D01*
X27055640Y5520670D01*
X27024150Y5531250D01*
G01X26394230Y5848750D02*
X26362730Y5854040D01*
X26335180Y5875200D01*
X26311550Y5906960D01*
X26295800Y5944000D01*
X26287930Y5986330D01*
Y6028670D01*
X26295800Y6071000D01*
X26311550Y6108040D01*
X26335180Y6139790D01*
X26362730Y6160960D01*
X26394230Y6166250D01*
X26425720Y6160960D01*
X26453280Y6139790D01*
X26476910Y6108040D01*
X26492660Y6071000D01*
X26500530Y6028670D01*
Y5986330D01*
X26492660Y5944000D01*
X26476910Y5906960D01*
X26453280Y5875200D01*
X26425720Y5854040D01*
X26394230Y5848750D01*
G01X26425720Y5933420D02*
X26472970Y5848750D01*
G01X26709190Y6166250D02*
Y5848750D01*
G01X26618640Y6166250D02*
X26799740D01*
G01X27024150Y5848750D02*
Y5991620D01*
X26945410Y6166250D01*
G01X27102890D02*
X27024150Y5991620D01*
M02*
