M48
METRIC,TZ
T01C.3048
T02C.4572
T03C.889
T04C1.016
T05C1.3
T06C2.032
T07C3.4036
;LEADER: 12 
;HEADER: 
;CODE  : ASCII 
;FILE  : MK60_DRIVE_V10A-1-2.drl for board E:/GitHub/MINI-BLENDER/HARDWARE/MK60_DRIVE_V10A/PCB/#Taaaaer19712.tmp ... layers TOP and BOTTOM
;T01 Holesize 1. = 0.304800 Tolerance = +0.000000/-0.000000 PLATED MM Quantity = 560
;T02 Holesize 2. = 0.457200 Tolerance = +0.000000/-0.000000 PLATED MM Quantity = 33
;T03 Holesize 3. = 0.889000 Tolerance = +0.000000/-0.000000 PLATED MM Quantity = 32
;T04 Holesize 4. = 1.016000 Tolerance = +0.000000/-0.000000 PLATED MM Quantity = 41
;T05 Holesize 5. = 1.300000 Tolerance = +0.000000/-0.000000 PLATED MM Quantity = 3
;T06 Holesize 6. = 2.032000 Tolerance = +0.000000/-0.000000 PLATED MM Quantity = 8
;T07 Holesize 7. = 3.403600 Tolerance = +0.000000/-0.000000 PLATED MM Quantity = 4
%
G90
T01
X253580Y676620
X253580Y1184620
X677380Y203580
X1185380Y203580
X1693380Y203580
X2201380Y203580
X2709380Y203580
X2735080Y1119470
X3217380Y203580
X3243080Y1119470
X3725380Y203580
X4233380Y203580
X4741380Y203580
X5249380Y203580
X5757380Y203580
X6265380Y203580
X6773380Y203580
X6970000Y870000
X7281380Y203580
X7710000Y870000
X7789380Y203580
X8297380Y203580
X8710000Y880000
X8805380Y203580
X9313380Y203580
X9450000Y880000
X9821380Y203580
X10329380Y203580
X10470000Y890000
X10837380Y203580
X11210000Y890000
X11345380Y203580
X11853380Y203580
X12030000Y890000
X12361380Y203580
X12770000Y890000
X12869380Y203580
X13377380Y203580
X13885380Y203580
X14393380Y203580
X14773580Y586620
X14773580Y1094620
X14773580Y2110620
X14773580Y1602620
X12590000Y2030000
X12440000Y1430000
X12280000Y1560000
X11970000Y1710000
X11850000Y2030000
X11400000Y1710000
X11150000Y2030000
X10410000Y2030000
X9670000Y2020000
X8930000Y2020000
X8407040Y2267690
X8193080Y2469470
X7950000Y1990000
X7685080Y2469470
X7250000Y1980000
X7203080Y2479470
X6695080Y2479470
X6560000Y2200000
X6550000Y1990000
X6450000Y1450000
X6013080Y1869470
X6000000Y2190000
X5840000Y2495000
X5840000Y2365000
X5710000Y1450000
X5580000Y2430000
X5505080Y1869470
X4813080Y1969470
X4650000Y1570000
X4305080Y1969470
X3773080Y1949470
X3265080Y1949470
X3243080Y1679470
X3243080Y1359470
X2770000Y2280000
X2760000Y2080000
X2735080Y1679470
X2735080Y1359470
X2540000Y2110000
X2210000Y2050000
X2053080Y1409470
X1913080Y2359470
X1545080Y1409470
X1405080Y2359470
X1323080Y1799470
X815080Y1799470
X253580Y2200620
X253580Y1692620
X253580Y2708620
X253580Y3216620
X253580Y3724620
X1435080Y2739470
X1943080Y2739470
X2106200Y3460000
X2190000Y3710000
X2570000Y3410000
X2570000Y3550000
X2570000Y3625350
X2585080Y2979470
X3093080Y2979470
X3320000Y3710000
X3440000Y3050000
X3510000Y2980000
X3580000Y2910000
X3680000Y3130000
X3680000Y3210000
X3680000Y3290000
X3710000Y3590000
X3920000Y2690000
X4240000Y3160000
X4650000Y3290000
X4780000Y2830000
X4815080Y3579470
X5230000Y3310000
X5255080Y3789470
X5323080Y3579470
X5580000Y2560000
X5580000Y2690000
X5745000Y2755000
X5745000Y3155000
X5750000Y3310000
X5763080Y3789470
X5840000Y2630000
X6160000Y3070000
X6185080Y3665470
X6260000Y3780000
X6645080Y3717470
X6700000Y3320000
X6840000Y3760000
X7270000Y3320000
X7950000Y2610000
X8407040Y2775690
X8407040Y3283690
X8407040Y3791690
X14773580Y2618620
X14773580Y3126620
X14773580Y3634620
X14773580Y4650620
X14773580Y4142620
X8407040Y4807690
X8407040Y4299690
X7503080Y5045470
X7503080Y4537470
X7503080Y4029470
X6995080Y5045470
X6995080Y4537470
X6995080Y4029470
X6655080Y5055470
X6655080Y4547470
X6645080Y4225470
X6420000Y3900000
X6080000Y4550000
X5890000Y4770000
X5720000Y4080000
X5660000Y4990000
X5620000Y4760000
X5550000Y4870000
X5170000Y4040000
X5120000Y5020000
X5120000Y4680000
X5003080Y4849470
X4693080Y3809470
X4690000Y5020000
X4563080Y4339470
X4495080Y4849470
X4185080Y3809470
X4055080Y4339470
X3940000Y5030000
X3933080Y4859470
X3790000Y4060000
X3580000Y3900000
X3570000Y4090000
X3530000Y5020000
X3500000Y4840000
X3460000Y3860000
X3330000Y3820000
X3210000Y4820000
X3180000Y4100000
X3070000Y3970000
X2950000Y4100000
X2840000Y5070000
X2840000Y4880000
X2840000Y4610000
X2690000Y4500000
X2349470Y4884920
X2349470Y4376920
X2039470Y4594920
X2039470Y4086920
X1860000Y3870000
X1780000Y3870000
X1539470Y4704920
X1539470Y4196920
X253580Y4740620
X253580Y4232620
X253580Y5248620
X253580Y5756620
X253580Y6264620
X1309470Y5266920
X1309470Y5774920
X1319470Y6336920
X1549470Y5266920
X2049470Y5156920
X2359470Y5446920
X2476200Y5530000
X2476200Y5780000
X2476200Y6030000
X2476200Y6293800
X2776200Y6293800
X2780000Y5530000
X2780000Y5780000
X2780000Y6030000
X3160000Y5940000
X3160000Y6190000
X3210000Y5120000
X3210000Y5730000
X3535080Y5499470
X4043080Y5499470
X4605080Y5489470
X4900000Y5830000
X5030000Y5850000
X5090000Y6270000
X5113080Y5489470
X5120000Y5920000
X5525080Y5479470
X5550000Y5320000
X6033080Y5479470
X6050000Y5850000
X6165080Y5269470
X6420000Y5973000
X6673080Y5269470
X6833800Y5876200
X6833800Y6306200
X7410000Y5930000
X7480000Y6270000
X7800000Y6280000
X8407040Y5315690
X8407040Y5823690
X8407040Y6331690
X14773580Y5158620
X14773580Y5666620
X14773580Y6174620
X14773580Y7190620
X14773580Y6682620
X8407040Y7347690
X8407040Y6839690
X7991820Y7118760
X7981820Y7338760
X7861820Y7598760
X7630000Y6690000
X7630000Y6390000
X7520000Y7140000
X7510000Y7360000
X7170000Y6440000
X6910000Y6440000
X6670000Y6600000
X6670000Y6460000
X6630000Y6990000
X6490000Y6820000
X6390000Y6440000
X5890000Y6660000
X5890000Y6560000
X5880000Y7030000
X5880000Y6940000
X5870000Y7150000
X5650000Y7160000
X5460000Y7150000
X5320000Y7070000
X5300000Y6440000
X5210000Y7070000
X5200000Y6440000
X5110000Y7020000
X5110000Y6920000
X5090000Y6590000
X5090000Y6440000
X3930000Y7250000
X3800000Y7590000
X3800000Y7500000
X2980000Y6490000
X2860000Y7170000
X2860000Y6970000
X2860000Y6730000
X2430000Y6770000
X2430000Y6590000
X2220000Y6390000
X2090000Y6780000
X2090000Y6590000
X253580Y7280620
X253580Y6772620
X253580Y7788620
X253580Y8296620
X253580Y8804620
X2230000Y8170000
X2230000Y8240000
X2300000Y8170000
X2300000Y8240000
X2370000Y8170000
X2400000Y8280000
X2400000Y8360000
X2440000Y8170000
X2476340Y8280000
X2476340Y8360000
X2550000Y7800000
X2550000Y8280000
X2550000Y8360000
X2710000Y8680000
X2750000Y8610000
X2750000Y8790000
X2750000Y8860000
X2780000Y8680000
X2820000Y8470000
X2820000Y8540000
X2820000Y8790000
X2820000Y8860000
X2823660Y8610000
X2890000Y8720000
X2890000Y8790000
X2890000Y8860000
X3050000Y7630000
X3090000Y8350000
X3090000Y8420000
X3090000Y8490000
X3160000Y8350000
X3160000Y8420000
X3160000Y8490000
X3220000Y8180000
X3220000Y8250000
X3280000Y7900000
X3280000Y8070000
X3280000Y8180000
X3280000Y8250000
X3340000Y8180000
X3340000Y8250000
X3710000Y8040000
X3740000Y8350000
X3740000Y8500000
X3800000Y7690000
X3830000Y8020000
X4030000Y8350000
X4030000Y8500000
X4100000Y8010000
X4190000Y8350000
X4190000Y8500000
X4660000Y8460000
X4660000Y8620000
X4660000Y8810000
X4730000Y8300000
X4850000Y8480000
X4850000Y8640000
X4850000Y8830000
X4920000Y8300000
X5080000Y8300000
X5740000Y7900000
X5760000Y7630000
X5810000Y8230000
X5930000Y7900000
X5930000Y8650000
X5930000Y8830000
X5940000Y7620000
X5940000Y8200000
X6440000Y7640000
X6440000Y7960000
X6911820Y7618760
X6911820Y7938760
X7200000Y8770000
X7270000Y8540000
X7330000Y7940000
X7390000Y7620000
X7760000Y8190000
X7801820Y7918760
X8407040Y7855690
X8407040Y8363690
X8407040Y8871690
X14773580Y7698620
X14773580Y8206620
X14773580Y8714620
X14773580Y9730620
X14773580Y9222620
X8407040Y9887690
X8407040Y9379690
X7750000Y9460000
X7740000Y9920000
X7540000Y9690000
X7499820Y9218760
X7309820Y9458760
X7200000Y8970000
X7009820Y9678760
X6991820Y9218760
X6801820Y9458760
X6520000Y9240000
X6501820Y9678760
X6410000Y9450000
X5950000Y9930000
X5930000Y9120000
X5930000Y8980000
X5900000Y9620000
X5900000Y9310000
X5860000Y10030000
X5740000Y9310000
X5690000Y9620000
X5550000Y9310000
X5520000Y9770000
X5520000Y9630000
X5370000Y9310000
X5220000Y9170000
X5060000Y9170000
X5010000Y9030000
X4990000Y9310000
X4980000Y9440000
X4870000Y9170000
X4850000Y9030000
X4830000Y9310000
X4820000Y9440000
X4660000Y9030000
X4640000Y9310000
X4630000Y9440000
X3690000Y9460000
X3670000Y9370000
X3500000Y9460000
X3480000Y9370000
X3340000Y9460000
X3280000Y9370000
X3150000Y9460000
X3090000Y9370000
X2620000Y9360000
X2510000Y9360000
X2400000Y9360000
X2290000Y9360000
X2170000Y9360000
X2060000Y9360000
X1950000Y9360000
X253580Y9820620
X253580Y9312620
X253580Y10328620
X253580Y10836620
X253580Y11344620
X2566200Y11240000
X3065080Y10695470
X3075080Y10485470
X3075080Y10925470
X3275080Y11115470
X3405080Y10685470
X3415080Y10475470
X3415080Y10915470
X3615080Y11105470
X3715080Y10685470
X3715080Y10915470
X3985080Y11105470
X4055080Y10675470
X4055080Y10905470
X4325080Y11095470
X4615080Y10685470
X4625080Y10895470
X4635080Y11095470
X4955080Y10675470
X4965080Y10885470
X4975080Y11085470
X5365080Y11085470
X5705080Y11075470
X5920000Y10590000
X5930000Y10370000
X5930000Y10800000
X6095080Y11085470
X6435080Y11075470
X6795080Y11075470
X6860000Y10900000
X7125080Y10895470
X7135080Y11065470
X7140000Y10510000
X7280000Y10300000
X7300000Y10740000
X7445080Y11065470
X7465080Y10885470
X7785080Y11055470
X8407040Y10395690
X14773580Y10238620
X14773580Y10746620
X14773580Y11254620
X14773580Y12270620
X14773580Y11762620
X5762440Y12234480
X5706440Y12564480
X5508440Y12234480
X5488440Y12398480
X5436440Y12564480
X5254440Y12234480
X5234440Y12398480
X5166440Y12564480
X4900440Y12564480
X4706440Y12234480
X4696440Y12428480
X4576440Y12234480
X4566440Y12428480
X4452440Y12234480
X4442440Y12428480
X3850000Y12560000
X3851600Y12424920
X3851600Y12314920
X3850000Y12200000
X3597600Y12424920
X3597600Y12314920
X3593600Y12564920
X3593600Y12204920
X3339600Y12564920
X3339600Y12204920
X3085600Y12564920
X3085600Y12204920
X2964920Y12532400
X2964920Y12278400
X2831600Y12564920
X2831600Y12204920
X2577600Y12564920
X2577600Y12204920
X2434920Y12532400
X2434920Y12278400
X253580Y12360620
X253580Y11852620
X253580Y12868620
X253580Y13376620
X253580Y13884620
X4900440Y12818480
X5166440Y12818480
X5436440Y12818480
X5706440Y12818480
X14773580Y12778620
X14773580Y13286620
X14773580Y13794620
X14773580Y14302620
X14360000Y14690000
X13645380Y14683580
X13137380Y14683580
X12629380Y14683580
X12121380Y14683580
X11613380Y14683580
X11105380Y14683580
X10597380Y14683580
X10089380Y14683580
X9581380Y14683580
X9073380Y14683580
X8565380Y14683580
X8057380Y14683580
X7549380Y14683580
X7041380Y14683580
X6533380Y14683580
X6025380Y14683580
X5517380Y14683580
X5009380Y14683580
X4501380Y14683580
X3993380Y14683580
X3485380Y14683580
X2977380Y14683580
X2469380Y14683580
X1961380Y14683580
X1453380Y14683580
X945380Y14683580
X437380Y14683580
X253580Y14392620
T02
X2750000Y7940000
X2750000Y8050000
X2860000Y7940000
X2860000Y8050000
X2970000Y7940000
X2970000Y8050000
X2750000Y8160000
X2860000Y8160000
X2970000Y8160000
X6690000Y8150000
X6690000Y8240000
X6690000Y8330000
X6790000Y8150000
X6790000Y8240000
X6790000Y8330000
X6890000Y8150000
X6890000Y8240000
X6890000Y8330000
X6890000Y8430000
X6790000Y8430000
X6690000Y8430000
X6690000Y9880000
X6790000Y9880000
X6890000Y9880000
X6690000Y9970000
X6690000Y10060000
X6790000Y9970000
X6790000Y10060000
X6890000Y9970000
X6890000Y10060000
X6890000Y10160000
X6790000Y10160000
X6690000Y10160000
T03
X2721000Y950000
X2467000Y950000
X2213000Y950000
X1959000Y950000
X1080000Y2390000
X1080000Y2136000
X1080000Y2644000
X1080000Y2898000
X1080000Y3152000
X1080000Y3406000
X1080000Y3660000
X1080000Y3914000
X1080000Y4168000
X1080000Y4422000
X1080000Y4676000
X1080000Y4930000
X6880000Y2800000
X7640000Y2800000
X7890000Y6583000
X7890000Y6837000
X7600000Y8990000
X7600000Y8590000
X5150000Y9780000
X5150000Y9380000
X4320000Y9770000
X4320000Y9370000
X4320000Y10330000
X4320000Y10730000
X5150000Y10340000
X5150000Y10740000
X7580000Y10340000
X7580000Y10740000
T04
X3530000Y970000
X3530000Y1224000
X3784000Y970000
X3784000Y1224000
X4038000Y970000
X4038000Y1224000
X4292000Y970000
X4292000Y1224000
X4546000Y970000
X4546000Y1224000
X4800000Y970000
X4800000Y1224000
X5054000Y970000
X5054000Y1224000
X5308000Y970000
X5308000Y1224000
X5562000Y970000
X5562000Y1224000
X5816000Y970000
X5816000Y1224000
X6715000Y1130000
X6965000Y1130000
X7625000Y1130000
X7875000Y1130000
X8535000Y1130000
X8785000Y1130000
X9455000Y1130000
X9705000Y1130000
X10365000Y1130000
X10615000Y1130000
X11255000Y1130000
X11505000Y1130000
X12440000Y1120000
X12690000Y1120000
X12940000Y1120000
X5050000Y12392540
X3290000Y12392540
X2700000Y12392540
X2700000Y13140000
X3290000Y13140000
X5050000Y13140000
T05
X2030000Y12320000
X2030000Y12760000
X2030000Y13200000
T06
X1050000Y7178000
X1050000Y7686000
X1050000Y8194000
X1050000Y8702000
X1050000Y9636000
X1050000Y10144000
X1050000Y11076000
X1050000Y11584000
T07
X1000000Y1000000
X14000000Y1000000
X14000000Y14000000
X1000000Y14000000
M30
