G04 ================== begin FILE IDENTIFICATION RECORD ==================*
G04 Layout Name:  MK60_DRIVE_V10A.brd*
G04 Film Name:    SilkScreen_Top*
G04 File Format:  Gerber RS274X*
G04 File Origin:  Cadence Allegro 16.6-2015-S082*
G04 Origin Date:  Thu May 18 17:39:08 2017*
G04 *
G04 Layer:  BOARD GEOMETRY/OUTLINE*
G04 Layer:  REF DES/SILKSCREEN_TOP*
G04 Layer:  PACKAGE GEOMETRY/SILKSCREEN_TOP*
G04 Layer:  BOARD GEOMETRY/SILKSCREEN_TOP*
G04 *
G04 Offset:    (0.0000 0.0000)*
G04 Mirror:    No*
G04 Mode:      Positive*
G04 Rotation:  0*
G04 FullContactRelief:  No*
G04 UndefLineWidth:     0.1524*
G04 ================== end FILE IDENTIFICATION RECORD ====================*
%FSLAX55Y55*MOMM*%
%IR0*IPPOS*OFA0.00000B0.00000*MIA0B0*SFA1.00000B1.00000*%
%ADD10C,.2*%
%ADD11C,.2032*%
%ADD12C,.127*%
%ADD13C,.254*%
%ADD14C,.1524*%
%ADD15C,.3048*%
%ADD16C,.1778*%
%ADD17C,.1999*%
G75*
%LPD*%
G75*
G36*
G01X700000Y12220000D02*
G03I-60000J0D01*
G37*
G36*
G01X990000Y5110000D02*
X910000D01*
Y5020000D01*
X990000D01*
Y5110000D01*
G37*
G36*
G01X1080000Y6510000D02*
G03I-40000J0D01*
G37*
G36*
G01X1311620Y8700000D02*
G03I-31620J0D01*
G37*
G36*
G01Y10142000D02*
G03I-31620J0D01*
G37*
G36*
G01Y11582000D02*
G03I-31620J0D01*
G37*
G36*
G01X1829000Y870000D02*
Y820000D01*
X1879000D01*
Y870000D01*
X1829000D01*
G37*
G36*
G01X1630000Y5680000D02*
X1530000D01*
Y5570000D01*
X1630000D01*
Y5680000D01*
G37*
G36*
G01Y5940000D02*
X1530000D01*
Y5830000D01*
X1630000D01*
Y5940000D01*
G37*
G36*
G01Y6190000D02*
X1530000D01*
Y6080000D01*
X1630000D01*
Y6190000D01*
G37*
G36*
G01Y6450000D02*
X1530000D01*
Y6330000D01*
X1630000D01*
Y6450000D01*
G37*
G36*
G01X2449700Y2754000D02*
G03I-39700J0D01*
G37*
G36*
G01X2540000Y8200000D02*
G03I-30000J0D01*
G37*
G36*
G01X3350000Y880000D02*
Y800000D01*
X3440000D01*
Y880000D01*
X3350000D01*
G37*
G36*
G01X3640000Y13130000D02*
G03I-20000J0D01*
G37*
G36*
G01X5336060Y2755000D02*
G03I-36060J0D01*
G37*
G36*
G01X5501920Y4529400D02*
G03I-35920J0D01*
G37*
G36*
G01X5407100Y5209400D02*
G03I-50800J0D01*
G37*
G36*
G01X6015880Y3313480D02*
X6018420D01*
X6079380Y3252520D01*
Y3382060D01*
X6015880Y3318560D01*
Y3313480D01*
G37*
G36*
G01X5721920Y6179400D02*
G03I-35920J0D01*
G37*
G36*
G01X6054240Y6392360D02*
G03I-29620J0D01*
G37*
G36*
G01Y6772360D02*
G03I-29620J0D01*
G37*
G36*
G01X6460000Y850000D02*
Y800000D01*
X6510000D01*
Y850000D01*
X6460000D01*
G37*
G36*
G01X6551920Y8559400D02*
G03I-35920J0D01*
G37*
G36*
G01Y10289400D02*
G03I-35920J0D01*
G37*
G36*
G01X7370000Y850000D02*
Y800000D01*
X7420000D01*
Y850000D01*
X7370000D01*
G37*
G36*
G01X7462200Y5993500D02*
G03I-25400J0D01*
G37*
G36*
G01X7813800Y6964000D02*
X7763000D01*
Y6913200D01*
X7813800D01*
Y6964000D01*
G37*
G36*
G01X8280000Y850000D02*
Y800000D01*
X8330000D01*
Y850000D01*
X8280000D01*
G37*
G36*
G01X9200000D02*
Y800000D01*
X9250000D01*
Y850000D01*
X9200000D01*
G37*
G36*
G01X10110000D02*
Y800000D01*
X10160000D01*
Y850000D01*
X10110000D01*
G37*
G36*
G01X11000000D02*
Y800000D01*
X11050000D01*
Y850000D01*
X11000000D01*
G37*
G36*
G01X12185000Y840000D02*
Y790000D01*
X12235000D01*
Y840000D01*
X12185000D01*
G37*
G54D10*
G01X2350040Y13379760D02*
Y12142780D01*
X2347500Y12140240D01*
X1712500D01*
X1709960Y12142780D01*
Y13379760D01*
X2350040D01*
G01X2250980Y13377220D02*
Y13372140D01*
X2350040Y13273080D01*
G01X3820000Y2860000D02*
Y4160000D01*
X2520000D01*
Y2860000D01*
X3820000D01*
G01X2471400Y12085200D02*
Y13431400D01*
X2928600D01*
Y12085200D01*
X2471400D01*
G01X3061400D02*
Y13431400D01*
X3518600D01*
Y12085200D01*
X3061400D01*
G01X4010000Y5810000D02*
Y5730000D01*
G01X4630000D02*
Y5810000D01*
G01X4010000Y6030000D02*
Y6110000D01*
G01X4630000D02*
Y6030000D01*
G01X4821400Y12085200D02*
Y13431400D01*
X5278600D01*
Y12085200D01*
X4821400D01*
G54D11*
G01X1270000Y5608320D02*
X1348740D01*
X1292310Y5644340D01*
Y5595660D01*
G01X1285750Y5901420D02*
X1276560Y5895580D01*
X1271310Y5887790D01*
X1270000Y5879030D01*
X1271310Y5871240D01*
X1277870Y5863450D01*
X1285750Y5858580D01*
X1293620Y5857610D01*
X1302810Y5859550D01*
X1309370Y5866370D01*
X1312000Y5873180D01*
Y5881950D01*
G01Y5873180D02*
X1315930Y5867340D01*
X1322490Y5862470D01*
X1330370Y5860530D01*
X1338240Y5862470D01*
X1344800Y5867340D01*
X1348740Y5876110D01*
X1347430Y5884870D01*
X1342180Y5893630D01*
G01X1335620Y6148500D02*
X1343490Y6142660D01*
X1347430Y6135840D01*
X1348740Y6128050D01*
X1346120Y6118320D01*
X1339550Y6111500D01*
X1331680Y6109550D01*
X1323800Y6110530D01*
X1317240Y6114420D01*
X1304120Y6133890D01*
X1294930Y6142660D01*
X1281810Y6148500D01*
X1270000Y6150450D01*
Y6109550D01*
G01Y6380000D02*
X1348740D01*
X1332990Y6391680D01*
G01X1270000D02*
Y6368320D01*
G01X1750300Y3426500D02*
X2029700D01*
G01X1750300Y3553500D02*
G03Y3426500I71651J-63500D01*
G01X2029700Y3553500D02*
X1750300D01*
G01X1720000Y6429370D02*
X1721310Y6437160D01*
X1726560Y6443970D01*
X1734430Y6449820D01*
X1743620Y6453710D01*
X1754120Y6455660D01*
X1764620D01*
X1775120Y6453710D01*
X1784310Y6449820D01*
X1792180Y6443970D01*
X1797430Y6437160D01*
X1798740Y6429370D01*
X1797430Y6421580D01*
X1792180Y6414770D01*
X1784310Y6408920D01*
X1775120Y6405030D01*
X1764620Y6403080D01*
X1754120D01*
X1743620Y6405030D01*
X1734430Y6408920D01*
X1726560Y6414770D01*
X1721310Y6421580D01*
X1720000Y6429370D01*
G01Y6373020D02*
X1798740D01*
X1720000Y6328240D01*
X1798740D01*
G01X1760100Y9906450D02*
X1658500D01*
Y9936090D01*
X1663580Y9947940D01*
X1670350Y9956830D01*
X1680510Y9964240D01*
X1692370Y9970170D01*
X1709300Y9971650D01*
X1726230Y9970170D01*
X1738090Y9964240D01*
X1748250Y9956830D01*
X1755020Y9947940D01*
X1760100Y9936090D01*
Y9906450D01*
G01X2032240Y3553500D02*
G02Y3426500I-73330J-63500D01*
G01X2539700Y5566500D02*
X2260300D01*
Y5693500D01*
X2539700D01*
G01Y6066500D02*
X2260300D01*
Y6193500D01*
X2539700D01*
G01Y5816500D02*
X2260300D01*
Y5943500D01*
X2539700D01*
G01Y6336500D02*
X2260300D01*
Y6463500D01*
X2539700D01*
G01X2090300Y7756500D02*
X2369700D01*
G01X2372240Y7883500D02*
G02Y7756500I-73330J-63500D01*
G01X2090300Y7883500D02*
G03Y7756500I71651J-63500D01*
G01X2375420Y7548720D02*
G03Y7711280I-106888J81280D01*
G01X2002040Y7548720D02*
G02Y7711280I106888J81280D01*
G01X2375420D02*
X2004580D01*
G01Y7548720D02*
X2375420D01*
G01X2369700Y7883500D02*
X2090300D01*
G01X2369700Y8033500D02*
X2090300D01*
G01Y7906500D02*
X2369700D01*
G01X2372240Y8033500D02*
G02Y7906500I-73330J-63500D01*
G01X2090300Y8033500D02*
G03Y7906500I71651J-63500D01*
G01X1950600Y9640600D02*
Y9589800D01*
X2534800D01*
Y10250200D01*
X1950600D01*
Y10199400D01*
G01X2629700Y11426500D02*
X2350300D01*
Y11553500D01*
X2629700D01*
G01X1972200Y11401100D02*
X2327800D01*
Y11578900D01*
X1972200D01*
Y11401100D01*
G01X2629700Y11766500D02*
X2350300D01*
Y11893500D01*
X2629700D01*
G01X1972200Y11741100D02*
X2327800D01*
Y11918900D01*
X1972200D01*
Y11741100D01*
G01X2800300Y2016500D02*
Y2143500D01*
G01D02*
X3079700D01*
Y2016500D01*
X2800300D01*
G01X3079700Y2166500D02*
X2800300D01*
Y2293500D01*
X3079700D01*
G01X2749700Y2443500D02*
X2470300D01*
G01Y2316500D02*
X2749700D01*
G01X2752240Y2443500D02*
G02Y2316500I-73330J-63500D01*
G01X2470300Y2443500D02*
G03Y2316500I71651J-63500D01*
G01X2800300D02*
X3079700D01*
G01Y2443500D02*
X2800300D01*
G01X2797760Y2316500D02*
G02Y2443500I73330J63500D01*
G01X2510300Y4646500D02*
X2789700D01*
G01Y4773500D02*
X2510300D01*
G01X2507760Y4646500D02*
G02Y4773500I73330J63500D01*
G01X2789700Y4646500D02*
G03Y4773500I-71651J63500D01*
G01X2539700Y5693500D02*
Y5566500D01*
G01Y6193500D02*
Y6066500D01*
G01Y5943500D02*
Y5816500D01*
G01Y6463500D02*
Y6336500D01*
G01X2963500Y7310300D02*
X2836500D01*
G01D02*
Y7589700D01*
X2963500D01*
Y7310300D01*
G01X2690000Y7790000D02*
X2600000D01*
Y7880000D01*
G01Y8220000D02*
Y8310000D01*
X2690000D01*
G01X2788800Y9566940D02*
Y9596570D01*
X2819280D01*
X2829440Y9587680D01*
X2836210Y9577310D01*
X2839600Y9562500D01*
X2836210Y9547680D01*
X2829440Y9537310D01*
X2819280Y9528420D01*
X2807430Y9522490D01*
X2793880Y9519530D01*
X2782030D01*
X2771870Y9522490D01*
X2760010Y9528420D01*
X2749850Y9537310D01*
X2743080Y9546200D01*
X2738000Y9558050D01*
Y9568420D01*
X2741390Y9580270D01*
X2748160Y9589170D01*
G01X2826060Y10238130D02*
X2834520Y10249990D01*
X2839600Y10263320D01*
Y10275180D01*
X2834520Y10287030D01*
X2826060Y10295920D01*
X2814200Y10300370D01*
X2802350Y10297400D01*
X2792190Y10289990D01*
X2785410Y10276660D01*
X2782030Y10258880D01*
X2775250Y10248510D01*
X2763400Y10244060D01*
X2751550Y10247030D01*
X2743080Y10254430D01*
X2738000Y10264800D01*
Y10275180D01*
X2741390Y10285550D01*
X2749850Y10294440D01*
G01X2629700Y11553500D02*
Y11426500D01*
G01Y11893500D02*
Y11766500D01*
G01X3079700Y2293500D02*
Y2166500D01*
G01Y2316500D02*
G03Y2443500I-71651J63500D01*
G01X3160300Y4646500D02*
X3439700D01*
G01Y4773500D02*
X3160300D01*
G01X3157760Y4646500D02*
G02Y4773500I73330J63500D01*
G01X3439700Y4646500D02*
G03Y4773500I-71651J63500D01*
G01X3113500Y7310300D02*
X2986500D01*
G01D02*
Y7589700D01*
X3113500D01*
Y7310300D01*
G01X3263500D02*
X3136500D01*
G01D02*
Y7589700D01*
X3263500D01*
Y7310300D01*
G01X3120000Y7880000D02*
Y7790000D01*
X3030000D01*
G01X3380300Y7816500D02*
X3659700D01*
G01X3380300Y7943500D02*
G03Y7816500I71651J-63500D01*
G01X3346860Y7788710D02*
G03Y7626150I106888J-81280D01*
G01D02*
X3717700D01*
G01Y7788710D02*
X3346860D01*
G01X3030000Y8310000D02*
X3120000D01*
Y8220000D01*
G01X3659700Y7976500D02*
X3380300D01*
Y8103500D01*
X3659700D01*
G01Y8126500D02*
X3380300D01*
Y8253500D01*
X3659700D01*
G01X3380300Y8276500D02*
X3659700D01*
G01X3380300Y8403500D02*
G03Y8276500I71651J-63500D01*
G01X3659700Y7943500D02*
X3380300D01*
G01X3659700Y8553500D02*
X3380300D01*
G01Y8426500D02*
X3659700D01*
G01X3380300Y8553500D02*
G03Y8426500I71651J-63500D01*
G01X3659700Y8403500D02*
X3380300D01*
G01X3182200Y9742200D02*
Y9843800D01*
X3164420Y9823480D01*
G01Y9742200D02*
X3199980D01*
G01X3416300Y10041920D02*
X3425190Y10030060D01*
X3437050Y10023290D01*
X3450380Y10021600D01*
X3462240Y10023290D01*
X3474090Y10031760D01*
X3481500Y10041920D01*
X3482980Y10052080D01*
X3480020Y10063930D01*
X3469640Y10072400D01*
X3459270Y10075790D01*
X3445940D01*
G01X3459270D02*
X3468160Y10080870D01*
X3475570Y10089330D01*
X3478530Y10099490D01*
X3475570Y10109650D01*
X3468160Y10118120D01*
X3454830Y10123200D01*
X3441490Y10121510D01*
X3428160Y10114730D01*
G01X3309200Y10008900D02*
X3194900D01*
Y9843800D01*
X3525100D01*
Y10008900D01*
X3410800D01*
G01X3349700Y9653500D02*
Y9526500D01*
G01D02*
X3070300D01*
Y9653500D01*
X3349700D01*
G01X3370300Y9526500D02*
Y9653500D01*
G01D02*
X3649700D01*
Y9526500D01*
X3370300D01*
G01X3649700Y10176500D02*
X3370300D01*
Y10303500D01*
X3649700D01*
G01X3349700D02*
Y10176500D01*
G01D02*
X3070300D01*
Y10303500D01*
X3349700D01*
G01X3640300Y1506500D02*
Y1633500D01*
G01D02*
X3919700D01*
Y1506500D01*
X3640300D01*
G01X3940300D02*
Y1633500D01*
G01D02*
X4219700D01*
Y1506500D01*
X3940300D01*
G01X3713500Y2150300D02*
Y2429700D01*
G01X3586500D02*
Y2150300D01*
G01X3713500Y2147760D02*
G02X3586500I-63500J73330D01*
G01X3713500Y2429700D02*
G03X3586500I-63500J-71651D01*
G01X4119700Y7306500D02*
X3840300D01*
Y7433500D01*
X4119700D01*
G01X3840300Y7456500D02*
Y7583500D01*
G01D02*
X4119700D01*
Y7456500D01*
X3840300D01*
G01X3662240Y7943500D02*
G02Y7816500I-73330J-63500D01*
G01X3720240Y7788710D02*
G02Y7626150I-106888J-81280D01*
G01X3659700Y8103500D02*
Y7976500D01*
G01Y8253500D02*
Y8126500D01*
G01X3662240Y8403500D02*
G02Y8276500I-73330J-63500D01*
G01Y8553500D02*
G02Y8426500I-73330J-63500D01*
G01X3522350Y9826870D02*
X3531240Y9837030D01*
X3541610Y9842110D01*
X3553460Y9843800D01*
X3568280Y9840410D01*
X3578650Y9831950D01*
X3581620Y9821790D01*
X3580130Y9811620D01*
X3574210Y9803160D01*
X3544570Y9786230D01*
X3531240Y9774370D01*
X3522350Y9757440D01*
X3519380Y9742200D01*
X3581620D01*
G01X3649700Y10303500D02*
Y10176500D01*
G01X4293500Y2150300D02*
Y2429700D01*
G01X4166500D02*
Y2150300D01*
G01X4293500Y2147760D02*
G02X4166500I-63500J73330D01*
G01X4293500Y2429700D02*
G03X4166500I-63500J-71651D01*
G01X4300300Y3546500D02*
X4579700D01*
G01X4297760D02*
G02Y3673500I73330J63500D01*
G01X4300300Y3946500D02*
X4579700D01*
G01Y4073500D02*
X4300300D01*
G01X4297760Y3946500D02*
G02Y4073500I73330J63500D01*
G01X4579700Y3673500D02*
X4300300D01*
G01X4119700Y7433500D02*
Y7306500D01*
G01X4700300Y1506500D02*
Y1633500D01*
G01D02*
X4979700D01*
Y1506500D01*
X4700300D01*
G01X5189700Y3213500D02*
X4910300D01*
G01Y3086500D02*
X5189700D01*
G01X4910300Y3213500D02*
G03Y3086500I71651J-63500D01*
G01X4579700Y3546500D02*
G03Y3673500I-71651J63500D01*
G01Y3946500D02*
G03Y4073500I-71651J63500D01*
G01X5189700Y4136500D02*
X4910300D01*
Y4263500D01*
X5189700D01*
G01Y5056500D02*
X4910300D01*
Y5183500D01*
X5189700D01*
G01X5192240Y3213500D02*
G02Y3086500I-73330J-63500D01*
G01X5189700Y4263500D02*
Y4136500D01*
G01Y5183500D02*
Y5056500D01*
G01X5479700Y5793500D02*
Y5666500D01*
G01D02*
X5200300D01*
Y5793500D01*
X5479700D01*
G01Y6163500D02*
Y6036500D01*
G01D02*
X5200300D01*
Y6163500D01*
X5479700D01*
G01Y5983500D02*
X5200300D01*
G01Y5856500D02*
X5479700D01*
G01X5482240Y5983500D02*
G02Y5856500I-73330J-63500D01*
G01X5200300Y5983500D02*
G03Y5856500I71651J-63500D01*
G01X5555420Y6478720D02*
G03Y6641280I-106888J81280D01*
G01X5182040Y6478720D02*
G02Y6641280I106888J81280D01*
G01X5555420D02*
X5184580D01*
G01Y6478720D02*
X5555420D01*
G01Y6858720D02*
G03Y7021280I-106888J81280D01*
G01X5182040Y6858720D02*
G02Y7021280I106888J81280D01*
G01X5555420D02*
X5184580D01*
G01Y6858720D02*
X5555420D01*
G01X5140300Y8296500D02*
X5419700D01*
G01X5137760D02*
G02Y8423500I73330J63500D01*
G01X5419700Y8296500D02*
G03Y8423500I-71651J63500D01*
G01D02*
X5140300D01*
G01X5879700Y9716500D02*
X5600300D01*
Y9843500D01*
X5879700D01*
G01Y9993500D02*
X5600300D01*
G01Y9866500D02*
X5879700D01*
G01X5600300Y9993500D02*
G03Y9866500I71651J-63500D01*
G01X6085480Y2985820D02*
G03I-16260J0D01*
G01X5990300Y7686500D02*
Y7813500D01*
G01D02*
X6269700D01*
Y7686500D01*
X5990300D01*
G01X6269700Y7536500D02*
X5990300D01*
Y7663500D01*
X6269700D01*
G01X5990300Y7836500D02*
X6269700D01*
G01X5987760D02*
G02Y7963500I73330J63500D01*
G01X5990300Y8286500D02*
Y8413500D01*
G01D02*
X6269700D01*
Y8286500D01*
X5990300D01*
G01X5939700Y8113500D02*
Y7986500D01*
G01D02*
X5660300D01*
Y8113500D01*
X5939700D01*
G01X5990300Y8136500D02*
Y8263500D01*
G01D02*
X6269700D01*
Y8136500D01*
X5990300D01*
G01X6269700Y7963500D02*
X5990300D01*
G01Y7986500D02*
X6269700D01*
G01Y8113500D02*
X5990300D01*
G01X5987760Y7986500D02*
G02Y8113500I73330J63500D01*
G01X5990300Y9416500D02*
Y9543500D01*
G01D02*
X6269700D01*
Y9416500D01*
X5990300D01*
G01X6269700Y9266500D02*
X5990300D01*
Y9393500D01*
X6269700D01*
G01X5879700Y9843500D02*
Y9716500D01*
G01X5990300Y9866500D02*
Y9993500D01*
G01D02*
X6269700D01*
Y9866500D01*
X5990300D01*
G01Y9566500D02*
X6269700D01*
G01Y9693500D02*
X5990300D01*
G01X5987760Y9566500D02*
G02Y9693500I73330J63500D01*
G01X5990300Y9716500D02*
X6269700D01*
G01Y9843500D02*
X5990300D01*
G01X5987760Y9716500D02*
G02Y9843500I73330J63500D01*
G01X5882240Y9993500D02*
G02Y9866500I-73330J-63500D01*
G01X5990300Y10016500D02*
Y10143500D01*
G01D02*
X6269700D01*
Y10016500D01*
X5990300D01*
G01X6700300Y1496500D02*
Y1623500D01*
G01D02*
X6979700D01*
Y1496500D01*
X6700300D01*
G01X6290300Y2696500D02*
X6569700D01*
G01Y2823500D02*
X6290300D01*
G01X6287760Y2696500D02*
G02Y2823500I73330J63500D01*
G01X6569700Y2696500D02*
G03Y2823500I-71651J63500D01*
G01X6300300Y4006500D02*
Y4133500D01*
G01D02*
X6579700D01*
Y4006500D01*
X6300300D01*
G01X6579700Y4433500D02*
Y4306500D01*
G01D02*
X6300300D01*
Y4433500D01*
X6579700D01*
G01X6300300Y4156500D02*
Y4283500D01*
G01D02*
X6579700D01*
Y4156500D01*
X6300300D01*
G01Y4456500D02*
X6579700D01*
G01Y4583500D02*
X6300300D01*
G01X6297760Y4456500D02*
G02Y4583500I73330J63500D01*
G01X6579700Y4456500D02*
G03Y4583500I-71651J63500D01*
G01X6300300Y5056500D02*
X6579700D01*
G01X6297760D02*
G02Y5183500I73330J63500D01*
G01X6579700Y5056500D02*
G03Y5183500I-71651J63500D01*
G01D02*
X6300300D01*
G01X6472040Y5578720D02*
G02Y5741280I106888J81280D01*
G01X6474580Y5578720D02*
X6845420D01*
G01X6460300Y5926500D02*
Y6053500D01*
G01D02*
X6739700D01*
Y5926500D01*
X6460300D01*
G01Y5776500D02*
Y5903500D01*
G01D02*
X6739700D01*
Y5776500D01*
X6460300D01*
G01X6845420Y5741280D02*
X6474580D01*
G01X6464580Y6251280D02*
G03Y6088720I106888J-81280D01*
G01D02*
X6835420D01*
G01X6715690Y6863000D02*
X6745320D01*
Y6832520D01*
X6736430Y6822360D01*
X6726060Y6815590D01*
X6711250Y6812200D01*
X6696430Y6815590D01*
X6686060Y6822360D01*
X6677170Y6832520D01*
X6671240Y6844370D01*
X6668280Y6857920D01*
Y6869770D01*
X6671240Y6879930D01*
X6677170Y6891790D01*
X6686060Y6901950D01*
X6694950Y6908720D01*
X6706800Y6913800D01*
X6717170D01*
X6729020Y6910410D01*
X6737920Y6903640D01*
G01X6732200Y6382200D02*
Y6483800D01*
X6714420Y6463480D01*
G01Y6382200D02*
X6749980D01*
G01X6204580Y6641280D02*
G03Y6478720I106888J-81280D01*
G01X6577960Y6641280D02*
G02Y6478720I-106888J-81280D01*
G01X6204580D02*
X6575420D01*
G01Y6641280D02*
X6204580D01*
G01X6835420Y6251280D02*
X6464580D01*
G01X6204580Y7021280D02*
G03Y6858720I106888J-81280D01*
G01X6577960Y7021280D02*
G02Y6858720I-106888J-81280D01*
G01X6204580D02*
X6575420D01*
G01Y7021280D02*
X6204580D01*
G01X6269700Y7663500D02*
Y7536500D01*
G01Y7836500D02*
G03Y7963500I-71651J63500D01*
G01Y7986500D02*
G03Y8113500I-71651J63500D01*
G01X6650300Y8636500D02*
X6929700D01*
G01Y8763500D02*
X6650300D01*
G01X6647760Y8636500D02*
G02Y8763500I73330J63500D01*
G01X6269700Y9393500D02*
Y9266500D01*
G01Y9566500D02*
G03Y9693500I-71651J63500D01*
G01Y9716500D02*
G03Y9843500I-71651J63500D01*
G01X6650300Y10366500D02*
X6929700D01*
G01Y10493500D02*
X6650300D01*
G01X6647760Y10366500D02*
G02Y10493500I73330J63500D01*
G01X7169700Y3673500D02*
Y3546500D01*
G01D02*
X6890300D01*
Y3673500D01*
X7169700D01*
G01Y3823500D02*
Y3696500D01*
G01D02*
X6890300D01*
Y3823500D01*
X7169700D01*
G01X7080300Y5416500D02*
Y5543500D01*
G01D02*
X7359700D01*
Y5416500D01*
X7080300D01*
G01Y5596500D02*
Y5723500D01*
G01D02*
X7359700D01*
Y5596500D01*
X7080300D01*
G01X6845420Y5578720D02*
G03Y5741280I-106888J81280D01*
G01X7080300Y5926500D02*
Y6053500D01*
G01D02*
X7359700D01*
Y5926500D01*
X7080300D01*
G01X7049700Y6053500D02*
Y5926500D01*
G01D02*
X6770300D01*
Y6053500D01*
X7049700D01*
G01X6837960Y6251280D02*
G02Y6088720I-106888J-81280D01*
G01X7069380Y6825740D02*
X7081240Y6817280D01*
X7094570Y6812200D01*
X7106430D01*
X7118280Y6817280D01*
X7127170Y6825740D01*
X7131620Y6837600D01*
X7128650Y6849450D01*
X7121240Y6859610D01*
X7107910Y6866390D01*
X7090130Y6869770D01*
X7079760Y6876550D01*
X7075310Y6888400D01*
X7078280Y6900250D01*
X7085680Y6908720D01*
X7096050Y6913800D01*
X7106430D01*
X7116800Y6910410D01*
X7125690Y6901950D01*
G01X7072350Y6466870D02*
X7081240Y6477030D01*
X7091610Y6482110D01*
X7103460Y6483800D01*
X7118280Y6480410D01*
X7128650Y6471950D01*
X7131620Y6461790D01*
X7130130Y6451620D01*
X7124210Y6443160D01*
X7094570Y6426230D01*
X7081240Y6414370D01*
X7072350Y6397440D01*
X7069380Y6382200D01*
X7131620D01*
G01X6966300Y6681920D02*
X6975190Y6670060D01*
X6987050Y6663290D01*
X7000380Y6661600D01*
X7012240Y6663290D01*
X7024090Y6671760D01*
X7031500Y6681920D01*
X7032980Y6692080D01*
X7030020Y6703930D01*
X7019640Y6712400D01*
X7009270Y6715790D01*
X6995940D01*
G01X7009270D02*
X7018160Y6720870D01*
X7025570Y6729330D01*
X7028530Y6739490D01*
X7025570Y6749650D01*
X7018160Y6758120D01*
X7004830Y6763200D01*
X6991490Y6761510D01*
X6978160Y6754730D01*
G01X6859200Y6648900D02*
X6744900D01*
Y6483800D01*
X7075100D01*
Y6648900D01*
X6960800D01*
G01X7230300Y6436500D02*
Y6563500D01*
G01D02*
X7509700D01*
Y6436500D01*
X7230300D01*
G01Y6616500D02*
Y6743500D01*
G01D02*
X7509700D01*
Y6616500D01*
X7230300D01*
G01X6966300Y7091600D02*
Y7193200D01*
X6995940D01*
X7007790Y7188120D01*
X7016680Y7181350D01*
X7024090Y7171190D01*
X7030020Y7159330D01*
X7031500Y7142400D01*
X7030020Y7125470D01*
X7024090Y7113610D01*
X7016680Y7103450D01*
X7007790Y7096680D01*
X6995940Y7091600D01*
X6966300D01*
G01X6859200Y7066200D02*
X6732200D01*
Y6939200D01*
X7087800D01*
Y7066200D01*
X6960800D01*
G01X7509700Y6796500D02*
X7230300D01*
Y6923500D01*
X7509700D01*
G01X6929700Y8636500D02*
G03Y8763500I-71651J63500D01*
G01Y10366500D02*
G03Y10493500I-71651J63500D01*
G01X7620300Y1496500D02*
Y1623500D01*
G01D02*
X7899700D01*
Y1496500D01*
X7620300D01*
G01X7312200Y3532200D02*
Y3633800D01*
X7294420Y3613480D01*
G01Y3532200D02*
X7329980D01*
G01X7652350Y3616870D02*
X7661240Y3627030D01*
X7671610Y3632110D01*
X7683460Y3633800D01*
X7698280Y3630410D01*
X7708650Y3621950D01*
X7711620Y3611790D01*
X7710130Y3601620D01*
X7704210Y3593160D01*
X7674570Y3576230D01*
X7661240Y3564370D01*
X7652350Y3547440D01*
X7649380Y3532200D01*
X7711620D01*
G01X7546300Y3831920D02*
X7555190Y3820060D01*
X7567050Y3813290D01*
X7580380Y3811600D01*
X7592240Y3813290D01*
X7604090Y3821760D01*
X7611500Y3831920D01*
X7612980Y3842080D01*
X7610020Y3853930D01*
X7599640Y3862400D01*
X7589270Y3865790D01*
X7575940D01*
G01X7589270D02*
X7598160Y3870870D01*
X7605570Y3879330D01*
X7608530Y3889490D01*
X7605570Y3899650D01*
X7598160Y3908120D01*
X7584830Y3913200D01*
X7571490Y3911510D01*
X7558160Y3904730D01*
G01X7439200Y3798900D02*
X7324900D01*
Y3633800D01*
X7655100D01*
Y3798900D01*
X7540800D01*
G01X7614600Y6006200D02*
G03X7665400I25400J0D01*
G01D02*
X7690800D01*
Y5853800D01*
X7589200D01*
Y6006200D01*
X7614600D01*
G01X7474900Y6031600D02*
X7805100D01*
Y5828400D01*
X7474900D01*
Y6031600D01*
G01X7859700Y6233500D02*
X7580300D01*
G01Y6106500D02*
X7859700D01*
G01X7580300Y6233500D02*
G03Y6106500I71651J-63500D01*
G01X7509700Y6923500D02*
Y6796500D01*
G01X7270300Y8166500D02*
Y8293500D01*
G01D02*
X7549700D01*
Y8166500D01*
X7270300D01*
G01Y9896500D02*
Y10023500D01*
G01D02*
X7549700D01*
Y9896500D01*
X7270300D01*
G01X7862240Y6233500D02*
G02Y6106500I-73330J-63500D01*
G01X8530300Y1496500D02*
Y1623500D01*
G01D02*
X8809700D01*
Y1496500D01*
X8530300D01*
G01X9450300D02*
Y1623500D01*
G01D02*
X9729700D01*
Y1496500D01*
X9450300D01*
G01X10360300D02*
Y1623500D01*
G01D02*
X10639700D01*
Y1496500D01*
X10360300D01*
G01X11250300D02*
Y1623500D01*
G01D02*
X11529700D01*
Y1496500D01*
X11250300D01*
G01X12659700Y1623500D02*
X12380300D01*
G01Y1496500D02*
X12659700D01*
G01X12380300Y1623500D02*
G03Y1496500I71651J-63500D01*
G01X12710300D02*
Y1623500D01*
G01D02*
X12989700D01*
Y1496500D01*
X12710300D01*
G01X12662240Y1623500D02*
G02Y1496500I-73330J-63500D01*
G54D12*
G01X5033500Y1850000D02*
G03I-63500J0D01*
G01X5533500Y6390000D02*
G03I-63500J0D01*
G01Y6770000D02*
G03I-63500J0D01*
G54D13*
G01X60000Y6520000D02*
X850000D01*
Y5510000D01*
X60000D01*
Y6520000D01*
G01Y6010000D02*
X850000D01*
G01X60000Y5760000D02*
X850000D01*
G01X60000Y6280000D02*
X850000D01*
G01X910000Y7270000D02*
X300000D01*
X150000Y7230000D01*
Y7120000D01*
X300000Y7080000D01*
X910000D01*
G01X-10000Y9060000D02*
X300000D01*
Y6820000D01*
X-10000D01*
G01X1230000Y9060000D02*
Y6820000D01*
X-10000D01*
Y9060000D01*
X1230000D01*
G01X910000Y7780000D02*
X300000D01*
X150000Y7740000D01*
Y7630000D01*
X300000Y7590000D01*
X910000D01*
G01Y8290000D02*
X300000D01*
X150000Y8250000D01*
Y8140000D01*
X300000Y8100000D01*
X910000D01*
G01Y8800000D02*
X300000D01*
X150000Y8760000D01*
Y8650000D01*
X300000Y8610000D01*
X910000D01*
G01X-10000Y10502000D02*
X300000D01*
Y9296000D01*
X-10000D01*
G01X1230000Y10502000D02*
Y9296000D01*
X-10000D01*
Y10502000D01*
X1230000D01*
G01X910000Y9732000D02*
X300000D01*
X150000Y9692000D01*
Y9582000D01*
X300000Y9542000D01*
X910000D01*
G01X-10000Y9892000D02*
X-8000Y9890000D01*
G01X910000Y10242000D02*
X300000D01*
X150000Y10202000D01*
Y10092000D01*
X300000Y10052000D01*
X910000D01*
G01Y11172000D02*
X300000D01*
X150000Y11132000D01*
Y11022000D01*
X300000Y10982000D01*
X910000D01*
G01X-10000Y11942000D02*
X300000D01*
Y10736000D01*
X-10000D01*
G01X1230000Y11942000D02*
Y10736000D01*
X-10000D01*
Y11942000D01*
X1230000D01*
G01X910000Y11682000D02*
X300000D01*
X150000Y11642000D01*
Y11532000D01*
X300000Y11492000D01*
X910000D01*
G01X-10000Y11332000D02*
X-8000Y11330000D01*
G01X210000Y12120000D02*
Y12310000D01*
G01X120000Y12220000D02*
X300000D01*
G01X0Y13390000D02*
X1450000D01*
Y12490000D01*
X0D01*
Y13390000D01*
G01X640000Y12340000D02*
G02Y12100000I0J-120000D01*
G01X370000Y12220000D02*
X640000D01*
G01X760000D02*
X1030000D01*
G01X1165100Y310000D02*
G03I-165100J0D01*
G01X1230000Y6520000D02*
Y5500000D01*
X1830000D01*
Y6520000D01*
X1230000D01*
G01X1228000Y8448000D02*
X1230000Y8450000D01*
G01X1228000Y9890000D02*
X1230000Y9892000D01*
G01X1228000Y11330000D02*
X1230000Y11332000D01*
G01X1100000Y12220000D02*
X1290000D01*
G01X1832000Y823000D02*
Y1077000D01*
G01X2848000Y823000D02*
X1832000D01*
G01Y1077000D02*
X2848000D01*
G01X1340000Y5110000D02*
X1700000D01*
Y1960000D01*
X1330000D01*
Y5110000D01*
X1340000D01*
G01X1530000Y5568000D02*
Y5688000D01*
X1630000D01*
Y5570000D01*
G01X1680000Y5690000D02*
X1380000D01*
Y5570000D01*
X1680000D01*
Y5690000D01*
G01X1530000Y5822000D02*
Y5942000D01*
X1630000D01*
Y5830000D01*
G01X1530000Y6076000D02*
Y6196000D01*
X1630000D01*
Y6080000D01*
G01X1680000Y5940000D02*
X1380000D01*
Y5820000D01*
X1680000D01*
Y5940000D01*
G01Y6200000D02*
X1380000D01*
Y6070000D01*
X1680000D01*
Y6200000D01*
G01X1630000Y6450000D02*
X1530000D01*
Y6330000D01*
G01X1680000Y6450000D02*
X1380000D01*
Y6330000D01*
X1680000D01*
Y6450000D01*
X1630000D01*
Y6330000D01*
G01X1340000Y11090000D02*
X1530000D01*
G01X1340000Y11590000D02*
X1520000D01*
G01X1430000Y11490000D02*
Y11680000D01*
G01X2053760Y9297960D02*
X2846240D01*
Y8922040D01*
X2053760D01*
Y9297960D01*
G01X2848000Y1077000D02*
Y823000D01*
G01X3666240Y8922040D02*
X2873760D01*
Y9297960D01*
X3666240D01*
Y8922040D01*
G01X3170000Y2460000D02*
X3550000D01*
Y2300000D01*
X3170000D01*
Y2460000D01*
G01Y2270000D02*
X3550000D01*
Y2110000D01*
X3170000D01*
Y2270000D01*
G01X3750000Y2460000D02*
X4130000D01*
Y2300000D01*
X3750000D01*
Y2460000D01*
G01Y2270000D02*
X4130000D01*
Y2110000D01*
X3750000D01*
Y2270000D01*
G01X3950000Y7850000D02*
X4010000D01*
G01X3880000Y8230000D02*
X3800000D01*
Y7850000D01*
G01X4080000Y8030000D02*
G03I-100000J0D01*
G01X4130000D02*
G03I-150000J0D01*
G01X4720000Y9570000D02*
G03I-400000J0D01*
G01Y10530000D02*
G03I-400000J0D01*
G01X3690000Y13310000D02*
X4680000D01*
Y12590000D01*
X3660000D01*
Y13310000D01*
X3690000D01*
G01X3970000Y12780000D02*
X4035000D01*
Y12850000D01*
G01X3970000Y13130000D02*
X4035000D01*
Y13060000D01*
G01X4160000Y7850000D02*
Y8230000D01*
X4080000D01*
G01X4320000Y10010000D02*
Y10090000D01*
G01D02*
Y10010000D01*
G01X4440000Y9770000D02*
X4520000D01*
G01X4480000Y9810000D02*
Y9730000D01*
G01X4360000Y10050000D02*
X4280000D01*
G01X4200000Y10330000D02*
X4120000D01*
G01X4160000Y10290000D02*
Y10370000D01*
G01X4280000Y10050000D02*
X4360000D01*
G01X4030000Y12930000D02*
X4310000D01*
G01X4030000Y12980000D02*
X4310000D01*
G01X4125000Y12850000D02*
G03X4035000I-45000J5000D01*
G01X4215000D02*
G03X4125000I-45000J5000D01*
G01X4305000D02*
G03X4215000I-45000J5000D01*
G01X4370000Y12780000D02*
X4305000D01*
Y12850000D01*
G01X4215000Y13060000D02*
G03X4305000I45000J-5000D01*
G01X4125000D02*
G03X4215000I45000J-5000D01*
G01X4035000D02*
G03X4125000I45000J-5000D01*
G01X4370000Y13130000D02*
X4305000D01*
Y13060000D01*
G01X5011080Y8976840D02*
G03Y8743160I165100J-116840D01*
G01X5199040D02*
X5011080D01*
G01Y8696840D02*
G03Y8463160I165100J-116840D01*
G01Y8696840D02*
X5199040D01*
G01Y8463160D02*
X5011080D01*
G01X5550000Y9580000D02*
G03I-400000J0D01*
G01X5011080Y8976840D02*
X5199040D01*
G01X5550000Y10540000D02*
G03I-400000J0D01*
G01X5030000Y10340000D02*
X4950000D01*
G01X4990000Y10300000D02*
Y10380000D01*
G01X5630000Y2810000D02*
X5530000D01*
Y2310000D01*
X5890000D01*
Y2810000D01*
X5790000D01*
G01D02*
G02X5630000I-80000J0D01*
G01X5401200Y3016300D02*
X6099700D01*
Y3803700D01*
X5401200D01*
Y3016300D01*
G01X5610000Y4010000D02*
Y4510000D01*
X5700000D01*
G01X5870000Y4010000D02*
X5610000D01*
G01X5830000Y5200000D02*
X6010000D01*
Y4660000D01*
X5490000D01*
Y5200000D01*
X5670000D01*
G01X6260000Y8450000D02*
X6270000D01*
Y9170000D01*
X5590000D01*
Y8450000D01*
X6260000D01*
G01X5508920Y8743160D02*
G03Y8976840I-165100J116840D01*
G01Y8743160D02*
X5320960D01*
G01X5508920Y8463160D02*
G03Y8696840I-165100J116840D01*
G01Y8463160D02*
X5320960D01*
G01Y8696840D02*
X5508920D01*
G01X5320960Y8976840D02*
X5508920D01*
G01X5270000Y9780000D02*
X5350000D01*
G01X5310000Y9820000D02*
Y9740000D01*
G01X5190000Y10060000D02*
X5110000D01*
G01X5150000Y10020000D02*
Y10100000D01*
G01X5110000Y10060000D02*
X5190000D01*
G01X5150000Y10100000D02*
Y10020000D01*
G01X6260000Y10180000D02*
X6270000D01*
Y10900000D01*
X5590000D01*
Y10180000D01*
X6260000D01*
G01X5572360Y12703520D02*
X5902560D01*
G01X5419720Y12368240D02*
Y12327840D01*
X5420000Y12240000D01*
X6040000D01*
Y12300000D01*
X6039720Y12298240D01*
X6040000Y12280000D01*
X5420000D01*
X5419720Y12298240D01*
Y13258240D01*
X5420000Y13280000D01*
X6040000D01*
X6039720Y13258240D01*
Y12297400D01*
G01X5740000Y12703520D02*
X5577440Y12866080D01*
X5902560D01*
X5740000Y12703520D01*
G01X5870000Y4010000D02*
Y4510000D01*
G01X5780000D02*
X5870000D01*
G01X5700000D02*
G03X5780000I40000J4108D01*
G01X5660000Y5200000D02*
G03X5840000I90000J0D01*
G01X5830000Y5660000D02*
Y6160000D01*
X5920000D01*
G01X6090000Y5660000D02*
Y6160000D01*
G01Y5660000D02*
X5830000D01*
G01X6000000Y6160000D02*
X6090000D01*
G01X5920000D02*
G03X6000000I40000J4108D01*
G01X5851900Y6420300D02*
G02X5928100I38100J-12700D01*
G01X5851900D02*
X5826500D01*
Y6699700D01*
X5953500D01*
Y6420300D01*
X5928100D01*
G01X5851900Y6800300D02*
G02X5928100I38100J-12700D01*
G01X5851900D02*
X5826500D01*
Y7079700D01*
X5953500D01*
Y6800300D01*
X5928100D01*
G01X5930000Y8910000D02*
G03Y9010000I0J50000D01*
G01Y8810000D02*
G03Y8910000I0J50000D01*
G01Y8710000D02*
G03Y8810000I0J50000D01*
G01Y8610000D02*
G03Y8710000I0J50000D01*
G01Y8480000D02*
Y8610000D01*
G01Y9010000D02*
Y9140000D01*
G01Y10540000D02*
G03Y10640000I0J50000D01*
G01Y10440000D02*
G03Y10540000I0J50000D01*
G01Y10340000D02*
G03Y10440000I0J50000D01*
G01Y10210000D02*
Y10340000D01*
G01Y10640000D02*
G03Y10740000I0J50000D01*
G01D02*
Y10870000D01*
G01X5740000Y12551120D02*
Y13013400D01*
G01X6450000Y1390000D02*
Y790000D01*
X7230000D01*
Y1390000D01*
G01D02*
X6790000D01*
Y1340000D01*
X6630000D01*
Y1390000D01*
X6450000D01*
G01X6630000D02*
X7230000D01*
G01X6500000D02*
Y1130000D01*
X6450000D01*
G01X6530000Y1440000D02*
Y1630000D01*
G01X6440000Y1540000D02*
X6620000D01*
G01X7910000Y2800000D02*
G03I-610000J0D01*
G01X6630000Y8040000D02*
Y8540000D01*
X6750000D01*
G01X6950000Y8040000D02*
X6630000D01*
G01X6520600Y9102240D02*
Y8817760D01*
G01X6500280Y9102240D02*
X6469800D01*
Y8817760D01*
X7084480D01*
Y9102240D01*
X6500280D01*
G01X6688240Y8965080D02*
X6906680D01*
G01X6630000Y9770000D02*
Y10270000D01*
X6750000D01*
G01X6950000Y9770000D02*
X6630000D01*
G01X6520600Y10832240D02*
Y10547760D01*
G01X6500280Y10832240D02*
X6469800D01*
Y10547760D01*
X7084480D01*
Y10832240D01*
X6500280D01*
G01X6688240Y10695080D02*
X6906680D01*
G01X7180000Y1390000D02*
Y1130000D01*
G01D02*
X7230000D01*
G01X6730000Y1390000D02*
X7050000D01*
G01D02*
Y1340000D01*
G01X6890000D02*
Y1390000D01*
G01X7050000Y1340000D02*
X6890000D01*
G01X7230000Y1390000D02*
X7180000D01*
G01X7040000Y1540000D02*
X7230000D01*
G01X7360000Y2800000D02*
G03I-100000J0D01*
G01X7160500Y6157300D02*
X7135100D01*
Y6195400D01*
X7122400Y6208100D01*
Y6119200D01*
X7097000D01*
Y6220800D01*
X7122400D01*
X7173200Y6170000D01*
X7084300Y6081100D01*
Y6258900D01*
X7173200Y6170000D01*
X7135100D01*
G01X7173200Y6258900D02*
Y6081100D01*
G01X6893800Y6258900D02*
X7363700D01*
Y6081100D01*
X6893800D01*
Y6258900D01*
G01X6950000Y8040000D02*
Y8540000D01*
X6920000D01*
G01X6830000D02*
X6950000D01*
G01X6750000D02*
G03X6830000I40000J4108D01*
G01X8000000Y8790000D02*
G03I-400000J0D01*
G01X6850800Y8873640D02*
X6764440Y8960000D01*
G01X6850800Y9051440D02*
Y8873640D01*
G01X6749200Y9046360D02*
Y8873640D01*
G01X6764440Y8965080D02*
X6850800Y9051440D01*
G01X6950000Y9770000D02*
Y10270000D01*
X6920000D01*
G01X6830000D02*
X6950000D01*
G01X6750000D02*
G03X6830000I40000J4108D01*
G01X7980000Y10540000D02*
G03I-400000J0D01*
G01X6850800Y10603640D02*
X6764440Y10690000D01*
G01X6850800Y10781440D02*
Y10603640D01*
G01X6764440Y10695080D02*
X6850800Y10781440D01*
G01X6749200Y10776360D02*
Y10603640D01*
G01X7360000Y1390000D02*
Y790000D01*
X8140000D01*
Y1390000D01*
G01X7640000D02*
X7960000D01*
G01X8140000D02*
X7700000D01*
Y1340000D01*
X7540000D01*
Y1390000D01*
X7360000D01*
G01X7540000D02*
X8140000D01*
G01X7410000D02*
Y1130000D01*
X7360000D01*
G01X7380000Y1540000D02*
X7560000D01*
G01X7470000Y1440000D02*
Y1630000D01*
G01X7880000Y2800000D02*
X7750000D01*
G01X7890000D02*
G03I-70000J0D01*
G01X7436300Y5571100D02*
X7398200D01*
Y5748900D01*
X7436300D01*
G01X7639500Y5672700D02*
X7664900D01*
Y5634600D01*
X7677600Y5621900D01*
Y5710800D01*
X7703000D01*
Y5609200D01*
X7677600D01*
X7626800Y5660000D01*
X7715700Y5748900D01*
Y5571100D01*
X7626800Y5660000D01*
X7664900D01*
G01X7626800Y5571100D02*
Y5748900D01*
G01X7906200Y5571100D02*
X7436300D01*
Y5748900D01*
X7906200D01*
Y5571100D01*
G01X7363700Y6258900D02*
X7401800D01*
Y6081100D01*
X7363700D01*
G01X8017000Y6964000D02*
Y6468700D01*
X7763000D01*
Y6964000D01*
X8017000D01*
G01X7640000Y8310000D02*
X7560000D01*
G01X7600000Y8270000D02*
Y8350000D01*
G01X7480000Y8590000D02*
X7400000D01*
G01X7440000Y8550000D02*
Y8630000D01*
G01X7620000Y10060000D02*
X7540000D01*
G01X7580000Y10020000D02*
Y10100000D01*
G01X7460000Y10340000D02*
X7380000D01*
G01X7420000Y10300000D02*
Y10380000D01*
G01X8270000Y1390000D02*
Y790000D01*
X9050000D01*
Y1390000D01*
G01X8090000D02*
Y1130000D01*
G01D02*
X8140000D01*
G01X7960000Y1390000D02*
Y1340000D01*
G01X7800000D02*
Y1390000D01*
G01X7960000Y1340000D02*
X7800000D01*
G01X8140000Y1390000D02*
X8090000D01*
G01X9050000D02*
X8610000D01*
Y1340000D01*
X8450000D01*
Y1390000D01*
X8270000D01*
G01X8320000D02*
Y1130000D01*
X8270000D01*
G01X7980000Y1540000D02*
X8170000D01*
G01X8290000D02*
X8470000D01*
G01X7820000Y2730000D02*
Y2870000D01*
G01X8550000Y1390000D02*
X8870000D01*
G01X8710000Y1340000D02*
Y1390000D01*
G01X8870000Y1340000D02*
X8710000D01*
G01X8450000Y1390000D02*
X9050000D01*
G01X8380000Y1440000D02*
Y1630000D01*
G01X9190000Y1390000D02*
Y790000D01*
X9970000D01*
Y1390000D01*
G01X9000000D02*
Y1130000D01*
G01D02*
X9050000D01*
G01X8870000Y1390000D02*
Y1340000D01*
G01X9050000Y1390000D02*
X9000000D01*
G01X9970000D02*
X9530000D01*
Y1340000D01*
X9370000D01*
Y1390000D01*
X9190000D01*
G01X9370000D02*
X9970000D01*
G01X9240000D02*
Y1130000D01*
X9190000D01*
G01X8890000Y1540000D02*
X9080000D01*
G01X9200000D02*
X9380000D01*
G01X9290000Y1440000D02*
Y1630000D01*
G01X9920000Y1390000D02*
Y1130000D01*
G01D02*
X9970000D01*
G01X9470000Y1390000D02*
X9790000D01*
G01D02*
Y1340000D01*
G01X9630000D02*
Y1390000D01*
G01X9790000Y1340000D02*
X9630000D01*
G01X9970000Y1390000D02*
X9920000D01*
G01X9800000Y1540000D02*
X9990000D01*
G01X10100000Y1390000D02*
Y790000D01*
X10880000D01*
Y1390000D01*
G01X10380000D02*
X10700000D01*
G01X10880000D02*
X10440000D01*
Y1340000D01*
X10280000D01*
Y1390000D01*
X10100000D01*
G01X10280000D02*
X10880000D01*
G01X10150000D02*
Y1130000D01*
X10100000D01*
G01X10110000Y1540000D02*
X10290000D01*
G01X10200000Y1440000D02*
Y1630000D01*
G01X10990000Y1390000D02*
Y790000D01*
X11770000D01*
Y1390000D01*
G01D02*
X11330000D01*
Y1340000D01*
X11170000D01*
Y1390000D01*
X10990000D01*
G01X11040000D02*
Y1130000D01*
X10990000D01*
G01X10830000Y1390000D02*
Y1130000D01*
G01D02*
X10880000D01*
G01X10700000Y1390000D02*
Y1340000D01*
G01X10540000D02*
Y1390000D01*
G01X10700000Y1340000D02*
X10540000D01*
G01X10880000Y1390000D02*
X10830000D01*
G01X10710000Y1540000D02*
X10900000D01*
G01X10990000D02*
X11170000D01*
G01X11270000Y1390000D02*
X11590000D01*
G01X11430000Y1340000D02*
Y1390000D01*
G01X11590000Y1340000D02*
X11430000D01*
G01X11170000Y1390000D02*
X11770000D01*
G01X11080000Y1440000D02*
Y1630000D01*
G01X11720000Y1390000D02*
Y1130000D01*
G01D02*
X11770000D01*
G01X11590000Y1390000D02*
Y1340000D01*
G01X11770000Y1390000D02*
X11720000D01*
G01X11590000Y1540000D02*
X11780000D01*
G01X12175000Y1380000D02*
Y780000D01*
X13205000D01*
Y1380000D01*
G01X13115000D02*
X12515000D01*
Y1330000D01*
X12355000D01*
Y1380000D01*
X12175000D01*
G01X12355000D02*
X13205000D01*
G01X12225000D02*
Y1120000D01*
X12175000D01*
G01X12865000Y1330000D02*
Y1380000D01*
G01X13025000Y1330000D02*
X12865000D01*
G01X13025000Y1380000D02*
Y1330000D01*
G01X13205000Y1380000D02*
X13155000D01*
Y1120000D01*
X13205000D01*
G01X13510000Y1420000D02*
X13250000D01*
Y1780000D01*
X13510000D01*
Y1420000D01*
G01X14175100Y14720000D02*
G03I-165100J0D01*
G54D14*
G01X1000000Y0D02*
X14000000D01*
G03X15000000Y1000000I0J1000000D01*
G01Y14000000D01*
G03X14000000Y15000000I-1000000J0D01*
G01X1000000D01*
G03X0Y14000000I0J-1000000D01*
G01Y1000000D01*
G03X1000000Y0I1000000J0D01*
G01X95330Y5570000D02*
Y5680000D01*
X130000Y5588330D01*
X164670Y5680000D01*
Y5570000D01*
G01X182010Y5584660D02*
X192680Y5575500D01*
X204680Y5570000D01*
X215340D01*
X226010Y5575500D01*
X234010Y5584660D01*
X238010Y5597500D01*
X235340Y5610330D01*
X228680Y5621330D01*
X216680Y5628670D01*
X200680Y5632330D01*
X191340Y5639670D01*
X187340Y5652500D01*
X190010Y5665330D01*
X196680Y5674500D01*
X206010Y5680000D01*
X215340D01*
X224680Y5676330D01*
X232680Y5667170D01*
G01X260690Y5592000D02*
X268690Y5579160D01*
X279350Y5571830D01*
X291350Y5570000D01*
X302020Y5571830D01*
X312690Y5581000D01*
X319350Y5592000D01*
X320690Y5603000D01*
X318020Y5615830D01*
X308690Y5625000D01*
X299350Y5628670D01*
X287350D01*
G01X299350D02*
X307350Y5634170D01*
X314020Y5643330D01*
X316690Y5654330D01*
X314020Y5665330D01*
X307350Y5674500D01*
X295350Y5680000D01*
X283350Y5678170D01*
X271350Y5670830D01*
G01X95330Y6070000D02*
Y6180000D01*
X130000Y6088330D01*
X164670Y6180000D01*
Y6070000D01*
G01X182010Y6084660D02*
X192680Y6075500D01*
X204680Y6070000D01*
X215340D01*
X226010Y6075500D01*
X234010Y6084660D01*
X238010Y6097500D01*
X235340Y6110330D01*
X228680Y6121330D01*
X216680Y6128670D01*
X200680Y6132330D01*
X191340Y6139670D01*
X187340Y6152500D01*
X190010Y6165330D01*
X196680Y6174500D01*
X206010Y6180000D01*
X215340D01*
X224680Y6176330D01*
X232680Y6167170D01*
G01X290020Y6070000D02*
Y6180000D01*
X274020Y6158000D01*
G01Y6070000D02*
X306020D01*
G01X95330Y5820000D02*
Y5930000D01*
X130000Y5838330D01*
X164670Y5930000D01*
Y5820000D01*
G01X182010Y5834660D02*
X192680Y5825500D01*
X204680Y5820000D01*
X215340D01*
X226010Y5825500D01*
X234010Y5834660D01*
X238010Y5847500D01*
X235340Y5860330D01*
X228680Y5871330D01*
X216680Y5878670D01*
X200680Y5882330D01*
X191340Y5889670D01*
X187340Y5902500D01*
X190010Y5915330D01*
X196680Y5924500D01*
X206010Y5930000D01*
X215340D01*
X224680Y5926330D01*
X232680Y5917170D01*
G01X264690Y5911670D02*
X272690Y5922660D01*
X282020Y5928170D01*
X292690Y5930000D01*
X306020Y5926330D01*
X315350Y5917170D01*
X318020Y5906170D01*
X316690Y5895160D01*
X311350Y5886000D01*
X284690Y5867670D01*
X272690Y5854830D01*
X264690Y5836500D01*
X262020Y5820000D01*
X318020D01*
G01X146670Y6330000D02*
X93330D01*
Y6440000D01*
X146670D01*
G01X125330Y6386830D02*
X93330D01*
G01X169340Y6330000D02*
Y6440000D01*
X230680Y6330000D01*
Y6440000D01*
G01X80670Y13460000D02*
Y13570000D01*
X107330D01*
X118000Y13564500D01*
X126000Y13557170D01*
X132670Y13546170D01*
X138000Y13533330D01*
X139330Y13515000D01*
X138000Y13496670D01*
X132670Y13483830D01*
X126000Y13472830D01*
X118000Y13465500D01*
X107330Y13460000D01*
X80670D01*
G01X219340Y13560830D02*
X211340Y13566330D01*
X202010Y13570000D01*
X191340D01*
X179340Y13564500D01*
X170010Y13555330D01*
X163340Y13544330D01*
X158010Y13526000D01*
X156680Y13509500D01*
X159340Y13493000D01*
X163340Y13482000D01*
X171340Y13471000D01*
X180680Y13463670D01*
X190010Y13460000D01*
X199340D01*
X208680Y13463670D01*
X216680Y13469160D01*
X223340Y13476500D01*
G01X286020Y13460000D02*
Y13570000D01*
X236690Y13491170D01*
X303350D01*
G01X350030Y13460000D02*
X359360Y13461830D01*
X370030Y13467330D01*
X376700Y13476500D01*
X379360Y13489330D01*
X376700Y13502160D01*
X368700Y13513170D01*
X356700Y13518670D01*
X343360D01*
X335360Y13522330D01*
X328700Y13531500D01*
X326030Y13544330D01*
X330030Y13557170D01*
X339360Y13566330D01*
X350030Y13570000D01*
X360700Y13566330D01*
X370030Y13557170D01*
X374030Y13544330D01*
X371360Y13531500D01*
X364700Y13522330D01*
X356700Y13518670D01*
X343360D01*
X331360Y13513170D01*
X323360Y13502160D01*
X320700Y13489330D01*
X323360Y13476500D01*
X330030Y13467330D01*
X340700Y13461830D01*
X350030Y13460000D01*
G01X396710Y13570000D02*
X430040Y13460000D01*
X463370Y13570000D01*
G01X510000Y5570000D02*
Y5680000D01*
X494000Y5658000D01*
G01Y5570000D02*
X526000D01*
G01X760000Y5680000D02*
X749330Y5676330D01*
X741330Y5667170D01*
X736000Y5656170D01*
X732000Y5641500D01*
X730670Y5625000D01*
X732000Y5608500D01*
X736000Y5593830D01*
X741330Y5582830D01*
X749330Y5573670D01*
X760000Y5570000D01*
X770670Y5573670D01*
X778670Y5582830D01*
X784000Y5593830D01*
X788000Y5608500D01*
X789330Y5625000D01*
X788000Y5641500D01*
X784000Y5656170D01*
X778670Y5667170D01*
X770670Y5676330D01*
X760000Y5680000D01*
G01X510000Y6070000D02*
Y6180000D01*
X494000Y6158000D01*
G01Y6070000D02*
X526000D01*
G01X510000Y5820000D02*
Y5930000D01*
X494000Y5908000D01*
G01Y5820000D02*
X526000D01*
G01X760000Y5930000D02*
X749330Y5926330D01*
X741330Y5917170D01*
X736000Y5906170D01*
X732000Y5891500D01*
X730670Y5875000D01*
X732000Y5858500D01*
X736000Y5843830D01*
X741330Y5832830D01*
X749330Y5823670D01*
X760000Y5820000D01*
X770670Y5823670D01*
X778670Y5832830D01*
X784000Y5843830D01*
X788000Y5858500D01*
X789330Y5875000D01*
X788000Y5891500D01*
X784000Y5906170D01*
X778670Y5917170D01*
X770670Y5926330D01*
X760000Y5930000D01*
G01Y6180000D02*
X749330Y6176330D01*
X741330Y6167170D01*
X736000Y6156170D01*
X732000Y6141500D01*
X730670Y6125000D01*
X732000Y6108500D01*
X736000Y6093830D01*
X741330Y6082830D01*
X749330Y6073670D01*
X760000Y6070000D01*
X770670Y6073670D01*
X778670Y6082830D01*
X784000Y6093830D01*
X788000Y6108500D01*
X789330Y6125000D01*
X788000Y6141500D01*
X784000Y6156170D01*
X778670Y6167170D01*
X770670Y6176330D01*
X760000Y6180000D01*
G01X500000Y6330000D02*
Y6440000D01*
X484000Y6418000D01*
G01Y6330000D02*
X516000D01*
G01X750000Y6440000D02*
X739330Y6436330D01*
X731330Y6427170D01*
X726000Y6416170D01*
X722000Y6401500D01*
X720670Y6385000D01*
X722000Y6368500D01*
X726000Y6353830D01*
X731330Y6342830D01*
X739330Y6333670D01*
X750000Y6330000D01*
X760670Y6333670D01*
X768670Y6342830D01*
X774000Y6353830D01*
X778000Y6368500D01*
X779330Y6385000D01*
X778000Y6401500D01*
X774000Y6416170D01*
X768670Y6427170D01*
X760670Y6436330D01*
X750000Y6440000D01*
G01X895330Y510000D02*
Y620000D01*
X930000Y528330D01*
X964670Y620000D01*
Y510000D01*
G01X983340D02*
Y620000D01*
X1015340D01*
X1026010Y614500D01*
X1034010Y601670D01*
X1036680Y587000D01*
X1034010Y572330D01*
X1027340Y561330D01*
X1015340Y555830D01*
X983340D01*
G01X1064690Y601670D02*
X1072690Y612660D01*
X1082020Y618170D01*
X1092690Y620000D01*
X1106020Y616330D01*
X1115350Y607170D01*
X1118020Y596170D01*
X1116690Y585160D01*
X1111350Y576000D01*
X1084690Y557670D01*
X1072690Y544830D01*
X1064690Y526500D01*
X1062020Y510000D01*
X1118020D01*
G01X903330Y5172000D02*
X910000Y5161000D01*
X918000Y5153670D01*
X927330Y5150000D01*
X938000Y5153670D01*
X946000Y5161000D01*
X954000Y5172000D01*
X956670Y5186670D01*
Y5260000D01*
G01X980680Y5166500D02*
X988680Y5157330D01*
X998010Y5151830D01*
X1010010Y5150000D01*
X1022010Y5153670D01*
X1031340Y5161000D01*
X1038010Y5173830D01*
X1039340Y5188500D01*
X1036680Y5203170D01*
X1030010Y5212330D01*
X1020680Y5219670D01*
X1011340Y5221500D01*
X1002010Y5219670D01*
X990010Y5212330D01*
X994010Y5260000D01*
X1030010D01*
G01X1241980Y6584660D02*
X1252650Y6575500D01*
X1264650Y6570000D01*
X1275310D01*
X1285980Y6575500D01*
X1293980Y6584660D01*
X1297980Y6597500D01*
X1295310Y6610330D01*
X1288650Y6621330D01*
X1276650Y6628670D01*
X1260650Y6632330D01*
X1251310Y6639670D01*
X1247310Y6652500D01*
X1249980Y6665330D01*
X1256650Y6674500D01*
X1265980Y6680000D01*
X1275310D01*
X1284650Y6676330D01*
X1292650Y6667170D01*
G01X1309990Y6680000D02*
X1328660Y6570000D01*
X1349990Y6680000D01*
X1371320Y6570000D01*
X1389990Y6680000D01*
G01X1430000Y6570000D02*
Y6680000D01*
X1414000Y6658000D01*
G01Y6570000D02*
X1446000D01*
G01X1510010D02*
Y6680000D01*
X1494010Y6658000D01*
G01Y6570000D02*
X1526010D01*
G01X1033320Y9122000D02*
X1039990Y9111000D01*
X1047990Y9103670D01*
X1057320Y9100000D01*
X1067990Y9103670D01*
X1075990Y9111000D01*
X1083990Y9122000D01*
X1086660Y9136670D01*
Y9210000D01*
G01X1114670Y9145830D02*
X1124000Y9158670D01*
X1132000Y9166000D01*
X1142670Y9169670D01*
X1152000Y9166000D01*
X1158670Y9158670D01*
X1164000Y9147670D01*
X1165330Y9134830D01*
X1164000Y9123830D01*
X1158670Y9112830D01*
X1150670Y9103670D01*
X1141330Y9100000D01*
X1130670Y9103670D01*
X1121330Y9114660D01*
X1116000Y9131170D01*
X1114670Y9149500D01*
X1117330Y9173330D01*
X1121330Y9186170D01*
X1128000Y9199000D01*
X1137330Y9208170D01*
X1146670Y9210000D01*
X1156000Y9206330D01*
X1162670Y9197170D01*
G01X1292000Y10400000D02*
Y10510000D01*
G01X1348000D02*
Y10400000D01*
G01Y10455000D02*
X1292000D01*
G01X1426680Y10400000D02*
X1373340D01*
Y10510000D01*
X1426680D01*
G01X1405340Y10456830D02*
X1373340D01*
G01X1446690Y10400000D02*
X1480020Y10510000D01*
X1513350Y10400000D01*
G01X1501350Y10438500D02*
X1458690D01*
G01X1560030Y10510000D02*
Y10400000D01*
G01X1529360Y10510000D02*
X1590700D01*
G01X1624040D02*
X1656040D01*
G01X1640040D02*
Y10400000D01*
G01X1624040D02*
X1656040D01*
G01X1689380D02*
Y10510000D01*
X1750720Y10400000D01*
Y10510000D01*
G01X1808060Y10455000D02*
X1834730D01*
Y10422000D01*
X1826730Y10411000D01*
X1817390Y10403670D01*
X1804060Y10400000D01*
X1790730Y10403670D01*
X1781390Y10411000D01*
X1773390Y10422000D01*
X1768060Y10434830D01*
X1765390Y10449500D01*
Y10462330D01*
X1768060Y10473330D01*
X1773390Y10486170D01*
X1781390Y10497170D01*
X1789390Y10504500D01*
X1800060Y10510000D01*
X1809390D01*
X1820060Y10506330D01*
X1828060Y10499000D01*
G01X1293330Y10240000D02*
Y10350000D01*
X1326670D01*
X1337330Y10344500D01*
X1344000Y10337170D01*
X1346670Y10322500D01*
X1344000Y10307830D01*
X1336000Y10298670D01*
X1326670Y10293170D01*
X1293330D01*
G01X1326670D02*
X1346670Y10240000D01*
G01X1426680D02*
X1373340D01*
Y10350000D01*
X1426680D01*
G01X1405340Y10296830D02*
X1373340D01*
G01X1452020Y10254660D02*
X1462690Y10245500D01*
X1474690Y10240000D01*
X1485350D01*
X1496020Y10245500D01*
X1504020Y10254660D01*
X1508020Y10267500D01*
X1505350Y10280330D01*
X1498690Y10291330D01*
X1486690Y10298670D01*
X1470690Y10302330D01*
X1461350Y10309670D01*
X1457350Y10322500D01*
X1460020Y10335330D01*
X1466690Y10344500D01*
X1476020Y10350000D01*
X1485350D01*
X1494690Y10346330D01*
X1502690Y10337170D01*
G01X1544030Y10350000D02*
X1576030D01*
G01X1560030D02*
Y10240000D01*
G01X1544030D02*
X1576030D01*
G01X1612040Y10254660D02*
X1622710Y10245500D01*
X1634710Y10240000D01*
X1645370D01*
X1656040Y10245500D01*
X1664040Y10254660D01*
X1668040Y10267500D01*
X1665370Y10280330D01*
X1658710Y10291330D01*
X1646710Y10298670D01*
X1630710Y10302330D01*
X1621370Y10309670D01*
X1617370Y10322500D01*
X1620040Y10335330D01*
X1626710Y10344500D01*
X1636040Y10350000D01*
X1645370D01*
X1654710Y10346330D01*
X1662710Y10337170D01*
G01X1720050Y10350000D02*
Y10240000D01*
G01X1689380Y10350000D02*
X1750720D01*
G01X1800060Y10240000D02*
X1789390Y10241830D01*
X1780060Y10249160D01*
X1772060Y10260170D01*
X1766730Y10273000D01*
X1764060Y10287670D01*
Y10302330D01*
X1766730Y10317000D01*
X1772060Y10329830D01*
X1780060Y10340830D01*
X1789390Y10348170D01*
X1800060Y10350000D01*
X1810730Y10348170D01*
X1820060Y10340830D01*
X1828060Y10329830D01*
X1833390Y10317000D01*
X1836060Y10302330D01*
Y10287670D01*
X1833390Y10273000D01*
X1828060Y10260170D01*
X1820060Y10249160D01*
X1810730Y10241830D01*
X1800060Y10240000D01*
G01X1853400D02*
Y10350000D01*
X1886740D01*
X1897400Y10344500D01*
X1904070Y10337170D01*
X1906740Y10322500D01*
X1904070Y10307830D01*
X1896070Y10298670D01*
X1886740Y10293170D01*
X1853400D01*
G01X1886740D02*
X1906740Y10240000D01*
G01X993320Y10564000D02*
X999990Y10553000D01*
X1007990Y10545670D01*
X1017320Y10542000D01*
X1027990Y10545670D01*
X1035990Y10553000D01*
X1043990Y10564000D01*
X1046660Y10578670D01*
Y10652000D01*
G01X1100000Y10542000D02*
Y10652000D01*
X1084000Y10630000D01*
G01Y10542000D02*
X1116000D01*
G01X1150680Y10558500D02*
X1158680Y10549330D01*
X1168010Y10543830D01*
X1180010Y10542000D01*
X1192010Y10545670D01*
X1201340Y10553000D01*
X1208010Y10565830D01*
X1209340Y10580500D01*
X1206680Y10595170D01*
X1200010Y10604330D01*
X1190680Y10611670D01*
X1181340Y10613500D01*
X1172010Y10611670D01*
X1160010Y10604330D01*
X1164010Y10652000D01*
X1200010D01*
G01X993320Y12004000D02*
X999990Y11993000D01*
X1007990Y11985670D01*
X1017320Y11982000D01*
X1027990Y11985670D01*
X1035990Y11993000D01*
X1043990Y12004000D01*
X1046660Y12018670D01*
Y12092000D01*
G01X1100000Y11982000D02*
Y12092000D01*
X1084000Y12070000D01*
G01Y11982000D02*
X1116000D01*
G01X1196010D02*
Y12092000D01*
X1146680Y12013170D01*
X1213340D01*
G01X1240670Y13430000D02*
Y13540000D01*
X1267330D01*
X1278000Y13534500D01*
X1286000Y13527170D01*
X1292670Y13516170D01*
X1298000Y13503330D01*
X1299330Y13485000D01*
X1298000Y13466670D01*
X1292670Y13453830D01*
X1286000Y13442830D01*
X1278000Y13435500D01*
X1267330Y13430000D01*
X1240670D01*
G01X1379340Y13530830D02*
X1371340Y13536330D01*
X1362010Y13540000D01*
X1351340D01*
X1339340Y13534500D01*
X1330010Y13525330D01*
X1323340Y13514330D01*
X1318010Y13496000D01*
X1316680Y13479500D01*
X1319340Y13463000D01*
X1323340Y13452000D01*
X1331340Y13441000D01*
X1340680Y13433670D01*
X1350010Y13430000D01*
X1359340D01*
X1368680Y13433670D01*
X1376680Y13439160D01*
X1383340Y13446500D01*
G01X1430020Y13430000D02*
Y13540000D01*
X1414020Y13518000D01*
G01Y13430000D02*
X1446020D01*
G01X1878000Y1175000D02*
X1904670D01*
Y1142000D01*
X1896670Y1131000D01*
X1887330Y1123670D01*
X1874000Y1120000D01*
X1860670Y1123670D01*
X1851330Y1131000D01*
X1843330Y1142000D01*
X1838000Y1154830D01*
X1835330Y1169500D01*
Y1182330D01*
X1838000Y1193330D01*
X1843330Y1206170D01*
X1851330Y1217170D01*
X1859330Y1224500D01*
X1870000Y1230000D01*
X1879330D01*
X1890000Y1226330D01*
X1898000Y1219000D01*
G01X1919340Y1120000D02*
Y1230000D01*
X1980680Y1120000D01*
Y1230000D01*
G01X2000690Y1120000D02*
Y1230000D01*
X2027350D01*
X2038020Y1224500D01*
X2046020Y1217170D01*
X2052690Y1206170D01*
X2058020Y1193330D01*
X2059350Y1175000D01*
X2058020Y1156670D01*
X2052690Y1143830D01*
X2046020Y1132830D01*
X2038020Y1125500D01*
X2027350Y1120000D01*
X2000690D01*
G01X1653330Y952000D02*
X1660000Y941000D01*
X1668000Y933670D01*
X1677330Y930000D01*
X1688000Y933670D01*
X1696000Y941000D01*
X1704000Y952000D01*
X1706670Y966670D01*
Y1040000D01*
G01X1734680Y1021670D02*
X1742680Y1032660D01*
X1752010Y1038170D01*
X1762680Y1040000D01*
X1776010Y1036330D01*
X1785340Y1027170D01*
X1788010Y1016170D01*
X1786680Y1005160D01*
X1781340Y996000D01*
X1754680Y977670D01*
X1742680Y964830D01*
X1734680Y946500D01*
X1732010Y930000D01*
X1788010D01*
G01X1366010Y1055880D02*
Y1165880D01*
X1400680Y1074210D01*
X1435350Y1165880D01*
Y1055880D01*
G01X1452690D02*
Y1165880D01*
G01X1508690D02*
Y1055880D01*
G01Y1110880D02*
X1452690D01*
G01X1560700Y1055880D02*
Y1165880D01*
X1544700Y1143880D01*
G01Y1055880D02*
X1576700D01*
G01X1360670Y2112000D02*
X1368670Y2099160D01*
X1379330Y2091830D01*
X1391330Y2090000D01*
X1402000Y2091830D01*
X1412670Y2101000D01*
X1419330Y2112000D01*
X1420670Y2123000D01*
X1418000Y2135830D01*
X1408670Y2145000D01*
X1399330Y2148670D01*
X1387330D01*
G01X1399330D02*
X1407330Y2154170D01*
X1414000Y2163330D01*
X1416670Y2174330D01*
X1414000Y2185330D01*
X1407330Y2194500D01*
X1395330Y2200000D01*
X1383330Y2198170D01*
X1371330Y2190830D01*
G01X1436680Y2200000D02*
X1470010Y2090000D01*
X1503340Y2200000D01*
G01X1520690Y2112000D02*
X1528690Y2099160D01*
X1539350Y2091830D01*
X1551350Y2090000D01*
X1562020Y2091830D01*
X1572690Y2101000D01*
X1579350Y2112000D01*
X1580690Y2123000D01*
X1578020Y2135830D01*
X1568690Y2145000D01*
X1559350Y2148670D01*
X1547350D01*
G01X1559350D02*
X1567350Y2154170D01*
X1574020Y2163330D01*
X1576690Y2174330D01*
X1574020Y2185330D01*
X1567350Y2194500D01*
X1555350Y2200000D01*
X1543350Y2198170D01*
X1531350Y2190830D01*
G01X1398000Y2415000D02*
X1424670D01*
Y2382000D01*
X1416670Y2371000D01*
X1407330Y2363670D01*
X1394000Y2360000D01*
X1380670Y2363670D01*
X1371330Y2371000D01*
X1363330Y2382000D01*
X1358000Y2394830D01*
X1355330Y2409500D01*
Y2422330D01*
X1358000Y2433330D01*
X1363330Y2446170D01*
X1371330Y2457170D01*
X1379330Y2464500D01*
X1390000Y2470000D01*
X1399330D01*
X1410000Y2466330D01*
X1418000Y2459000D01*
G01X1439340Y2360000D02*
Y2470000D01*
X1500680Y2360000D01*
Y2470000D01*
G01X1520690Y2360000D02*
Y2470000D01*
X1547350D01*
X1558020Y2464500D01*
X1566020Y2457170D01*
X1572690Y2446170D01*
X1578020Y2433330D01*
X1579350Y2415000D01*
X1578020Y2396670D01*
X1572690Y2383830D01*
X1566020Y2372830D01*
X1558020Y2365500D01*
X1547350Y2360000D01*
X1520690D01*
G01X1370670Y2600000D02*
Y2710000D01*
G01X1421330D02*
X1370670Y2642160D01*
G01X1429330Y2600000D02*
X1393330Y2673330D01*
G01X1506680Y2600000D02*
X1453340D01*
Y2710000D01*
X1506680D01*
G01X1485340Y2656830D02*
X1453340D01*
G01X1560020Y2600000D02*
Y2649500D01*
X1533350Y2710000D01*
G01X1586690D02*
X1560020Y2649500D01*
G01X1610700Y2616500D02*
X1618700Y2607330D01*
X1628030Y2601830D01*
X1640030Y2600000D01*
X1652030Y2603670D01*
X1661360Y2611000D01*
X1668030Y2623830D01*
X1669360Y2638500D01*
X1666700Y2653170D01*
X1660030Y2662330D01*
X1650700Y2669670D01*
X1641360Y2671500D01*
X1632030Y2669670D01*
X1620030Y2662330D01*
X1624030Y2710000D01*
X1660030D01*
G01X1370670Y2850000D02*
Y2960000D01*
G01X1421330D02*
X1370670Y2892160D01*
G01X1429330Y2850000D02*
X1393330Y2923330D01*
G01X1506680Y2850000D02*
X1453340D01*
Y2960000D01*
X1506680D01*
G01X1485340Y2906830D02*
X1453340D01*
G01X1560020Y2850000D02*
Y2899500D01*
X1533350Y2960000D01*
G01X1586690D02*
X1560020Y2899500D01*
G01X1656030Y2850000D02*
Y2960000D01*
X1606700Y2881170D01*
X1673360D01*
G01X1360670Y3100000D02*
Y3210000D01*
G01X1411330D02*
X1360670Y3142160D01*
G01X1419330Y3100000D02*
X1383330Y3173330D01*
G01X1496680Y3100000D02*
X1443340D01*
Y3210000D01*
X1496680D01*
G01X1475340Y3156830D02*
X1443340D01*
G01X1550020Y3100000D02*
Y3149500D01*
X1523350Y3210000D01*
G01X1576690D02*
X1550020Y3149500D01*
G01X1600700Y3122000D02*
X1608700Y3109160D01*
X1619360Y3101830D01*
X1631360Y3100000D01*
X1642030Y3101830D01*
X1652700Y3111000D01*
X1659360Y3122000D01*
X1660700Y3133000D01*
X1658030Y3145830D01*
X1648700Y3155000D01*
X1639360Y3158670D01*
X1627360D01*
G01X1639360D02*
X1647360Y3164170D01*
X1654030Y3173330D01*
X1656700Y3184330D01*
X1654030Y3195330D01*
X1647360Y3204500D01*
X1635360Y3210000D01*
X1623360Y3208170D01*
X1611360Y3200830D01*
G01X1360670Y3370000D02*
Y3480000D01*
G01X1411330D02*
X1360670Y3412160D01*
G01X1419330Y3370000D02*
X1383330Y3443330D01*
G01X1496680Y3370000D02*
X1443340D01*
Y3480000D01*
X1496680D01*
G01X1475340Y3426830D02*
X1443340D01*
G01X1550020Y3370000D02*
Y3419500D01*
X1523350Y3480000D01*
G01X1576690D02*
X1550020Y3419500D01*
G01X1604700Y3461670D02*
X1612700Y3472660D01*
X1622030Y3478170D01*
X1632700Y3480000D01*
X1646030Y3476330D01*
X1655360Y3467170D01*
X1658030Y3456170D01*
X1656700Y3445160D01*
X1651360Y3436000D01*
X1624700Y3417670D01*
X1612700Y3404830D01*
X1604700Y3386500D01*
X1602030Y3370000D01*
X1658030D01*
G01X1373330Y4230000D02*
Y4120000D01*
X1426670D01*
G01X1506680D02*
X1453340D01*
Y4230000D01*
X1506680D01*
G01X1485340Y4176830D02*
X1453340D01*
G01X1530690Y4120000D02*
Y4230000D01*
X1557350D01*
X1568020Y4224500D01*
X1576020Y4217170D01*
X1582690Y4206170D01*
X1588020Y4193330D01*
X1589350Y4175000D01*
X1588020Y4156670D01*
X1582690Y4143830D01*
X1576020Y4132830D01*
X1568020Y4125500D01*
X1557350Y4120000D01*
X1530690D01*
G01X1640030D02*
Y4230000D01*
X1624030Y4208000D01*
G01Y4120000D02*
X1656030D01*
G01X1370670Y3610000D02*
Y3720000D01*
G01X1421330D02*
X1370670Y3652160D01*
G01X1429330Y3610000D02*
X1393330Y3683330D01*
G01X1506680Y3610000D02*
X1453340D01*
Y3720000D01*
X1506680D01*
G01X1485340Y3666830D02*
X1453340D01*
G01X1560020Y3610000D02*
Y3659500D01*
X1533350Y3720000D01*
G01X1586690D02*
X1560020Y3659500D01*
G01X1640030Y3610000D02*
Y3720000D01*
X1624030Y3698000D01*
G01Y3610000D02*
X1656030D01*
G01X1370670Y3860000D02*
Y3970000D01*
G01X1421330D02*
X1370670Y3902160D01*
G01X1429330Y3860000D02*
X1393330Y3933330D01*
G01X1506680Y3860000D02*
X1453340D01*
Y3970000D01*
X1506680D01*
G01X1485340Y3916830D02*
X1453340D01*
G01X1560020Y3860000D02*
Y3909500D01*
X1533350Y3970000D01*
G01X1586690D02*
X1560020Y3909500D01*
G01X1640030Y3970000D02*
X1629360Y3966330D01*
X1621360Y3957170D01*
X1616030Y3946170D01*
X1612030Y3931500D01*
X1610700Y3915000D01*
X1612030Y3898500D01*
X1616030Y3883830D01*
X1621360Y3872830D01*
X1629360Y3863670D01*
X1640030Y3860000D01*
X1650700Y3863670D01*
X1658700Y3872830D01*
X1664030Y3883830D01*
X1668030Y3898500D01*
X1669360Y3915000D01*
X1668030Y3931500D01*
X1664030Y3946170D01*
X1658700Y3957170D01*
X1650700Y3966330D01*
X1640030Y3970000D01*
G01X1829330Y3690830D02*
X1821330Y3696330D01*
X1812000Y3700000D01*
X1801330D01*
X1789330Y3694500D01*
X1780000Y3685330D01*
X1773330Y3674330D01*
X1768000Y3656000D01*
X1766670Y3639500D01*
X1769330Y3623000D01*
X1773330Y3612000D01*
X1781330Y3601000D01*
X1790670Y3593670D01*
X1800000Y3590000D01*
X1809330D01*
X1818670Y3593670D01*
X1826670Y3599160D01*
X1833330Y3606500D01*
G01X1880010Y3590000D02*
Y3700000D01*
X1864010Y3678000D01*
G01Y3590000D02*
X1896010D01*
G01X1930690Y3612000D02*
X1938690Y3599160D01*
X1949350Y3591830D01*
X1961350Y3590000D01*
X1972020Y3591830D01*
X1982690Y3601000D01*
X1989350Y3612000D01*
X1990690Y3623000D01*
X1988020Y3635830D01*
X1978690Y3645000D01*
X1969350Y3648670D01*
X1957350D01*
G01X1969350D02*
X1977350Y3654170D01*
X1984020Y3663330D01*
X1986690Y3674330D01*
X1984020Y3685330D01*
X1977350Y3694500D01*
X1965350Y3700000D01*
X1953350Y3698170D01*
X1941350Y3690830D01*
G01X1382000Y4644660D02*
X1392670Y4635500D01*
X1404670Y4630000D01*
X1415330D01*
X1426000Y4635500D01*
X1434000Y4644660D01*
X1438000Y4657500D01*
X1435330Y4670330D01*
X1428670Y4681330D01*
X1416670Y4688670D01*
X1400670Y4692330D01*
X1391330Y4699670D01*
X1387330Y4712500D01*
X1390000Y4725330D01*
X1396670Y4734500D01*
X1406000Y4740000D01*
X1415330D01*
X1424670Y4736330D01*
X1432670Y4727170D01*
G01X1460680Y4630000D02*
Y4740000D01*
X1487340D01*
X1498010Y4734500D01*
X1506010Y4727170D01*
X1512680Y4716170D01*
X1518010Y4703330D01*
X1519340Y4685000D01*
X1518010Y4666670D01*
X1512680Y4653830D01*
X1506010Y4642830D01*
X1498010Y4635500D01*
X1487340Y4630000D01*
X1460680D01*
G01X1536690D02*
X1570020Y4740000D01*
X1603350Y4630000D01*
G01X1591350Y4668500D02*
X1548690D01*
G01X1373330Y4500000D02*
Y4390000D01*
X1426670D01*
G01X1506680D02*
X1453340D01*
Y4500000D01*
X1506680D01*
G01X1485340Y4446830D02*
X1453340D01*
G01X1530690Y4390000D02*
Y4500000D01*
X1557350D01*
X1568020Y4494500D01*
X1576020Y4487170D01*
X1582690Y4476170D01*
X1588020Y4463330D01*
X1589350Y4445000D01*
X1588020Y4426670D01*
X1582690Y4413830D01*
X1576020Y4402830D01*
X1568020Y4395500D01*
X1557350Y4390000D01*
X1530690D01*
G01X1640030D02*
Y4500000D01*
X1624030Y4478000D01*
G01Y4390000D02*
X1656030D01*
G01X1382000Y4894660D02*
X1392670Y4885500D01*
X1404670Y4880000D01*
X1415330D01*
X1426000Y4885500D01*
X1434000Y4894660D01*
X1438000Y4907500D01*
X1435330Y4920330D01*
X1428670Y4931330D01*
X1416670Y4938670D01*
X1400670Y4942330D01*
X1391330Y4949670D01*
X1387330Y4962500D01*
X1390000Y4975330D01*
X1396670Y4984500D01*
X1406000Y4990000D01*
X1415330D01*
X1424670Y4986330D01*
X1432670Y4977170D01*
G01X1519340Y4980830D02*
X1511340Y4986330D01*
X1502010Y4990000D01*
X1491340D01*
X1479340Y4984500D01*
X1470010Y4975330D01*
X1463340Y4964330D01*
X1458010Y4946000D01*
X1456680Y4929500D01*
X1459340Y4913000D01*
X1463340Y4902000D01*
X1471340Y4891000D01*
X1480680Y4883670D01*
X1490010Y4880000D01*
X1499340D01*
X1508680Y4883670D01*
X1516680Y4889160D01*
X1523340Y4896500D01*
G01X1543350Y4990000D02*
Y4880000D01*
X1596690D01*
G01X1360000Y7140000D02*
X1349330Y7141830D01*
X1340000Y7149160D01*
X1332000Y7160170D01*
X1326670Y7173000D01*
X1324000Y7187670D01*
Y7202330D01*
X1326670Y7217000D01*
X1332000Y7229830D01*
X1340000Y7240830D01*
X1349330Y7248170D01*
X1360000Y7250000D01*
X1370670Y7248170D01*
X1380000Y7240830D01*
X1388000Y7229830D01*
X1393330Y7217000D01*
X1396000Y7202330D01*
Y7187670D01*
X1393330Y7173000D01*
X1388000Y7160170D01*
X1380000Y7149160D01*
X1370670Y7141830D01*
X1360000Y7140000D01*
G01X1410680Y7250000D02*
Y7171170D01*
X1416010Y7154660D01*
X1426680Y7143670D01*
X1440010Y7140000D01*
X1453340Y7143670D01*
X1464010Y7154660D01*
X1469340Y7171170D01*
Y7250000D01*
G01X1520020D02*
Y7140000D01*
G01X1489350Y7250000D02*
X1550690D01*
G01X1574700Y7231670D02*
X1582700Y7242660D01*
X1592030Y7248170D01*
X1602700Y7250000D01*
X1616030Y7246330D01*
X1625360Y7237170D01*
X1628030Y7226170D01*
X1626700Y7215160D01*
X1621360Y7206000D01*
X1594700Y7187670D01*
X1582700Y7174830D01*
X1574700Y7156500D01*
X1572030Y7140000D01*
X1628030D01*
G01X1690710Y7198670D02*
X1696040Y7204170D01*
X1700040Y7213330D01*
X1702710Y7226170D01*
X1700040Y7237170D01*
X1694710Y7244500D01*
X1685370Y7250000D01*
X1649370D01*
Y7140000D01*
X1693370D01*
X1702710Y7147330D01*
X1708040Y7158330D01*
X1710710Y7171170D01*
X1708040Y7184000D01*
X1700040Y7195000D01*
X1690710Y7198670D01*
X1649370D01*
G01X1360000Y7640000D02*
X1349330Y7641830D01*
X1340000Y7649160D01*
X1332000Y7660170D01*
X1326670Y7673000D01*
X1324000Y7687670D01*
Y7702330D01*
X1326670Y7717000D01*
X1332000Y7729830D01*
X1340000Y7740830D01*
X1349330Y7748170D01*
X1360000Y7750000D01*
X1370670Y7748170D01*
X1380000Y7740830D01*
X1388000Y7729830D01*
X1393330Y7717000D01*
X1396000Y7702330D01*
Y7687670D01*
X1393330Y7673000D01*
X1388000Y7660170D01*
X1380000Y7649160D01*
X1370670Y7641830D01*
X1360000Y7640000D01*
G01X1410680Y7750000D02*
Y7671170D01*
X1416010Y7654660D01*
X1426680Y7643670D01*
X1440010Y7640000D01*
X1453340Y7643670D01*
X1464010Y7654660D01*
X1469340Y7671170D01*
Y7750000D01*
G01X1520020D02*
Y7640000D01*
G01X1489350Y7750000D02*
X1550690D01*
G01X1574700Y7731670D02*
X1582700Y7742660D01*
X1592030Y7748170D01*
X1602700Y7750000D01*
X1616030Y7746330D01*
X1625360Y7737170D01*
X1628030Y7726170D01*
X1626700Y7715160D01*
X1621360Y7706000D01*
X1594700Y7687670D01*
X1582700Y7674830D01*
X1574700Y7656500D01*
X1572030Y7640000D01*
X1628030D01*
G01X1646710D02*
X1680040Y7750000D01*
X1713370Y7640000D01*
G01X1701370Y7678500D02*
X1658710D01*
G01X1370000Y8140000D02*
X1359330Y8141830D01*
X1350000Y8149160D01*
X1342000Y8160170D01*
X1336670Y8173000D01*
X1334000Y8187670D01*
Y8202330D01*
X1336670Y8217000D01*
X1342000Y8229830D01*
X1350000Y8240830D01*
X1359330Y8248170D01*
X1370000Y8250000D01*
X1380670Y8248170D01*
X1390000Y8240830D01*
X1398000Y8229830D01*
X1403330Y8217000D01*
X1406000Y8202330D01*
Y8187670D01*
X1403330Y8173000D01*
X1398000Y8160170D01*
X1390000Y8149160D01*
X1380670Y8141830D01*
X1370000Y8140000D01*
G01X1420680Y8250000D02*
Y8171170D01*
X1426010Y8154660D01*
X1436680Y8143670D01*
X1450010Y8140000D01*
X1463340Y8143670D01*
X1474010Y8154660D01*
X1479340Y8171170D01*
Y8250000D01*
G01X1530020D02*
Y8140000D01*
G01X1499350Y8250000D02*
X1560690D01*
G01X1610030Y8140000D02*
Y8250000D01*
X1594030Y8228000D01*
G01Y8140000D02*
X1626030D01*
G01X1656710D02*
X1690040Y8250000D01*
X1723370Y8140000D01*
G01X1711370Y8178500D02*
X1668710D01*
G01X1370000Y8640000D02*
X1359330Y8641830D01*
X1350000Y8649160D01*
X1342000Y8660170D01*
X1336670Y8673000D01*
X1334000Y8687670D01*
Y8702330D01*
X1336670Y8717000D01*
X1342000Y8729830D01*
X1350000Y8740830D01*
X1359330Y8748170D01*
X1370000Y8750000D01*
X1380670Y8748170D01*
X1390000Y8740830D01*
X1398000Y8729830D01*
X1403330Y8717000D01*
X1406000Y8702330D01*
Y8687670D01*
X1403330Y8673000D01*
X1398000Y8660170D01*
X1390000Y8649160D01*
X1380670Y8641830D01*
X1370000Y8640000D01*
G01X1420680Y8750000D02*
Y8671170D01*
X1426010Y8654660D01*
X1436680Y8643670D01*
X1450010Y8640000D01*
X1463340Y8643670D01*
X1474010Y8654660D01*
X1479340Y8671170D01*
Y8750000D01*
G01X1530020D02*
Y8640000D01*
G01X1499350Y8750000D02*
X1560690D01*
G01X1610030Y8640000D02*
Y8750000D01*
X1594030Y8728000D01*
G01Y8640000D02*
X1626030D01*
G01X1700710Y8698670D02*
X1706040Y8704170D01*
X1710040Y8713330D01*
X1712710Y8726170D01*
X1710040Y8737170D01*
X1704710Y8744500D01*
X1695370Y8750000D01*
X1659370D01*
Y8640000D01*
X1703370D01*
X1712710Y8647330D01*
X1718040Y8658330D01*
X1720710Y8671170D01*
X1718040Y8684000D01*
X1710040Y8695000D01*
X1700710Y8698670D01*
X1659370D01*
G01X1728000Y13485000D02*
X1754670D01*
Y13452000D01*
X1746670Y13441000D01*
X1737330Y13433670D01*
X1724000Y13430000D01*
X1710670Y13433670D01*
X1701330Y13441000D01*
X1693330Y13452000D01*
X1688000Y13464830D01*
X1685330Y13479500D01*
Y13492330D01*
X1688000Y13503330D01*
X1693330Y13516170D01*
X1701330Y13527170D01*
X1709330Y13534500D01*
X1720000Y13540000D01*
X1729330D01*
X1740000Y13536330D01*
X1748000Y13529000D01*
G01X1770680Y13430000D02*
Y13540000D01*
X1797340D01*
X1808010Y13534500D01*
X1816010Y13527170D01*
X1822680Y13516170D01*
X1828010Y13503330D01*
X1829340Y13485000D01*
X1828010Y13466670D01*
X1822680Y13453830D01*
X1816010Y13442830D01*
X1808010Y13435500D01*
X1797340Y13430000D01*
X1770680D01*
G01X1880020Y13540000D02*
Y13430000D01*
G01X1849350Y13540000D02*
X1910690D01*
G01X1960030Y13430000D02*
Y13540000D01*
X1944030Y13518000D01*
G01Y13430000D02*
X1976030D01*
G01X1366010Y14055880D02*
Y14165880D01*
X1400680Y14074210D01*
X1435350Y14165880D01*
Y14055880D01*
G01X1452690D02*
Y14165880D01*
G01X1508690D02*
Y14055880D01*
G01Y14110880D02*
X1452690D01*
G01X1576700Y14055880D02*
Y14165880D01*
X1527370Y14087050D01*
X1594030D01*
G01X2110670Y1142000D02*
X2118670Y1129160D01*
X2129330Y1121830D01*
X2141330Y1120000D01*
X2152000Y1121830D01*
X2162670Y1131000D01*
X2169330Y1142000D01*
X2170670Y1153000D01*
X2168000Y1165830D01*
X2158670Y1175000D01*
X2149330Y1178670D01*
X2137330D01*
G01X2149330D02*
X2157330Y1184170D01*
X2164000Y1193330D01*
X2166670Y1204330D01*
X2164000Y1215330D01*
X2157330Y1224500D01*
X2145330Y1230000D01*
X2133330Y1228170D01*
X2121330Y1220830D01*
G01X2186680Y1230000D02*
X2220010Y1120000D01*
X2253340Y1230000D01*
G01X2270690Y1142000D02*
X2278690Y1129160D01*
X2289350Y1121830D01*
X2301350Y1120000D01*
X2312020Y1121830D01*
X2322690Y1131000D01*
X2329350Y1142000D01*
X2330690Y1153000D01*
X2328020Y1165830D01*
X2318690Y1175000D01*
X2309350Y1178670D01*
X2297350D01*
G01X2309350D02*
X2317350Y1184170D01*
X2324020Y1193330D01*
X2326690Y1204330D01*
X2324020Y1215330D01*
X2317350Y1224500D01*
X2305350Y1230000D01*
X2293350Y1228170D01*
X2281350Y1220830D01*
G01X2340670Y4330000D02*
Y4251170D01*
X2346000Y4234660D01*
X2356670Y4223670D01*
X2370000Y4220000D01*
X2383330Y4223670D01*
X2394000Y4234660D01*
X2399330Y4251170D01*
Y4330000D01*
G01X2450010Y4220000D02*
Y4330000D01*
X2434010Y4308000D01*
G01Y4220000D02*
X2466010D01*
G01X2210730Y7362430D02*
X2202730Y7367930D01*
X2193400Y7371600D01*
X2182730D01*
X2170730Y7366100D01*
X2161400Y7356930D01*
X2154730Y7345930D01*
X2149400Y7327600D01*
X2148070Y7311100D01*
X2150730Y7294600D01*
X2154730Y7283600D01*
X2162730Y7272600D01*
X2172070Y7265270D01*
X2181400Y7261600D01*
X2190730D01*
X2200070Y7265270D01*
X2208070Y7270760D01*
X2214730Y7278100D01*
G01X2236080Y7353270D02*
X2244080Y7364260D01*
X2253410Y7369770D01*
X2264080Y7371600D01*
X2277410Y7367930D01*
X2286740Y7358770D01*
X2289410Y7347770D01*
X2288080Y7336760D01*
X2282740Y7327600D01*
X2256080Y7309270D01*
X2244080Y7296430D01*
X2236080Y7278100D01*
X2233410Y7261600D01*
X2289410D01*
G01X2341420D02*
Y7371600D01*
X2325420Y7349600D01*
G01Y7261600D02*
X2357420D01*
G01X2179330Y7170830D02*
X2171330Y7176330D01*
X2162000Y7180000D01*
X2151330D01*
X2139330Y7174500D01*
X2130000Y7165330D01*
X2123330Y7154330D01*
X2118000Y7136000D01*
X2116670Y7119500D01*
X2119330Y7103000D01*
X2123330Y7092000D01*
X2131330Y7081000D01*
X2140670Y7073670D01*
X2150000Y7070000D01*
X2159330D01*
X2168670Y7073670D01*
X2176670Y7079160D01*
X2183330Y7086500D01*
G01X2204680Y7161670D02*
X2212680Y7172660D01*
X2222010Y7178170D01*
X2232680Y7180000D01*
X2246010Y7176330D01*
X2255340Y7167170D01*
X2258010Y7156170D01*
X2256680Y7145160D01*
X2251340Y7136000D01*
X2224680Y7117670D01*
X2212680Y7104830D01*
X2204680Y7086500D01*
X2202010Y7070000D01*
X2258010D01*
G01X2280690Y7086500D02*
X2288690Y7077330D01*
X2298020Y7071830D01*
X2310020Y7070000D01*
X2322020Y7073670D01*
X2331350Y7081000D01*
X2338020Y7093830D01*
X2339350Y7108500D01*
X2336690Y7123170D01*
X2330020Y7132330D01*
X2320690Y7139670D01*
X2311350Y7141500D01*
X2302020Y7139670D01*
X2290020Y7132330D01*
X2294020Y7180000D01*
X2330020D01*
G01X2210730Y7512430D02*
X2202730Y7517930D01*
X2193400Y7521600D01*
X2182730D01*
X2170730Y7516100D01*
X2161400Y7506930D01*
X2154730Y7495930D01*
X2149400Y7477600D01*
X2148070Y7461100D01*
X2150730Y7444600D01*
X2154730Y7433600D01*
X2162730Y7422600D01*
X2172070Y7415270D01*
X2181400Y7411600D01*
X2190730D01*
X2200070Y7415270D01*
X2208070Y7420760D01*
X2214730Y7428100D01*
G01X2236080Y7503270D02*
X2244080Y7514260D01*
X2253410Y7519770D01*
X2264080Y7521600D01*
X2277410Y7517930D01*
X2286740Y7508770D01*
X2289410Y7497770D01*
X2288080Y7486760D01*
X2282740Y7477600D01*
X2256080Y7459270D01*
X2244080Y7446430D01*
X2236080Y7428100D01*
X2233410Y7411600D01*
X2289410D01*
G01X2316090Y7503270D02*
X2324090Y7514260D01*
X2333420Y7519770D01*
X2344090Y7521600D01*
X2357420Y7517930D01*
X2366750Y7508770D01*
X2369420Y7497770D01*
X2368090Y7486760D01*
X2362750Y7477600D01*
X2336090Y7459270D01*
X2324090Y7446430D01*
X2316090Y7428100D01*
X2313420Y7411600D01*
X2369420D01*
G01X2056930Y9323360D02*
Y9433360D01*
X2090270D01*
X2100930Y9427860D01*
X2107600Y9420530D01*
X2110270Y9405860D01*
X2107600Y9391190D01*
X2099600Y9382030D01*
X2090270Y9376530D01*
X2056930D01*
G01X2090270D02*
X2110270Y9323360D01*
G01X2138280Y9415030D02*
X2146280Y9426020D01*
X2155610Y9431530D01*
X2166280Y9433360D01*
X2179610Y9429690D01*
X2188940Y9420530D01*
X2191610Y9409530D01*
X2190280Y9398520D01*
X2184940Y9389360D01*
X2158280Y9371030D01*
X2146280Y9358190D01*
X2138280Y9339860D01*
X2135610Y9323360D01*
X2191610D01*
G01X2259620D02*
Y9433360D01*
X2210290Y9354530D01*
X2276950D01*
G01X1970000Y10330000D02*
X1959330Y10331830D01*
X1950000Y10339160D01*
X1942000Y10350170D01*
X1936670Y10363000D01*
X1934000Y10377670D01*
Y10392330D01*
X1936670Y10407000D01*
X1942000Y10419830D01*
X1950000Y10430830D01*
X1959330Y10438170D01*
X1970000Y10440000D01*
X1980670Y10438170D01*
X1990000Y10430830D01*
X1998000Y10419830D01*
X2003330Y10407000D01*
X2006000Y10392330D01*
Y10377670D01*
X2003330Y10363000D01*
X1998000Y10350170D01*
X1990000Y10339160D01*
X1980670Y10331830D01*
X1970000Y10330000D01*
G01X1980670Y10359330D02*
X1996670Y10330000D01*
G01X2066010D02*
Y10440000D01*
X2016680Y10361170D01*
X2083340D01*
G01X2366330Y11581600D02*
Y11691600D01*
X2399670D01*
X2410330Y11686100D01*
X2417000Y11678770D01*
X2419670Y11664100D01*
X2417000Y11649430D01*
X2409000Y11640270D01*
X2399670Y11634770D01*
X2366330D01*
G01X2399670D02*
X2419670Y11581600D01*
G01X2470340D02*
X2473010Y11605430D01*
X2477010Y11625600D01*
X2482340Y11643930D01*
X2489010Y11664100D01*
X2499680Y11691600D01*
X2446340D01*
G01X2523690Y11603600D02*
X2531690Y11590760D01*
X2542350Y11583430D01*
X2554350Y11581600D01*
X2565020Y11583430D01*
X2575690Y11592600D01*
X2582350Y11603600D01*
X2583690Y11614600D01*
X2581020Y11627430D01*
X2571690Y11636600D01*
X2562350Y11640270D01*
X2550350D01*
G01X2562350D02*
X2570350Y11645770D01*
X2577020Y11654930D01*
X2579690Y11665930D01*
X2577020Y11676930D01*
X2570350Y11686100D01*
X2558350Y11691600D01*
X2546350Y11689770D01*
X2534350Y11682430D01*
G01X1970670Y11610000D02*
Y11720000D01*
X1997330D01*
X2008000Y11714500D01*
X2016000Y11707170D01*
X2022670Y11696170D01*
X2028000Y11683330D01*
X2029330Y11665000D01*
X2028000Y11646670D01*
X2022670Y11633830D01*
X2016000Y11622830D01*
X2008000Y11615500D01*
X1997330Y11610000D01*
X1970670D01*
G01X2057340Y11622830D02*
X2066680Y11613670D01*
X2077340Y11610000D01*
X2088010Y11613670D01*
X2097340Y11624660D01*
X2104010Y11641170D01*
X2106680Y11657670D01*
Y11677830D01*
X2104010Y11694330D01*
X2097340Y11709000D01*
X2089340Y11716330D01*
X2080010Y11720000D01*
X2069340Y11716330D01*
X2061340Y11709000D01*
X2056010Y11698000D01*
X2053340Y11683330D01*
X2056010Y11670500D01*
X2062680Y11657670D01*
X2070680Y11650330D01*
X2080010Y11648500D01*
X2090680Y11652160D01*
X2098680Y11661330D01*
X2106680Y11677830D01*
G01X2366330Y11921600D02*
Y12031600D01*
X2399670D01*
X2410330Y12026100D01*
X2417000Y12018770D01*
X2419670Y12004100D01*
X2417000Y11989430D01*
X2409000Y11980270D01*
X2399670Y11974770D01*
X2366330D01*
G01X2399670D02*
X2419670Y11921600D01*
G01X2470340D02*
X2473010Y11945430D01*
X2477010Y11965600D01*
X2482340Y11983930D01*
X2489010Y12004100D01*
X2499680Y12031600D01*
X2446340D01*
G01X2527690Y12013270D02*
X2535690Y12024260D01*
X2545020Y12029770D01*
X2555690Y12031600D01*
X2569020Y12027930D01*
X2578350Y12018770D01*
X2581020Y12007770D01*
X2579690Y11996760D01*
X2574350Y11987600D01*
X2547690Y11969270D01*
X2535690Y11956430D01*
X2527690Y11938100D01*
X2525020Y11921600D01*
X2581020D01*
G01X1978470Y11953000D02*
Y12063000D01*
X2005130D01*
X2015800Y12057500D01*
X2023800Y12050170D01*
X2030470Y12039170D01*
X2035800Y12026330D01*
X2037130Y12008000D01*
X2035800Y11989670D01*
X2030470Y11976830D01*
X2023800Y11965830D01*
X2015800Y11958500D01*
X2005130Y11953000D01*
X1978470D01*
G01X2085140D02*
X2087810Y11976830D01*
X2091810Y11997000D01*
X2097140Y12015330D01*
X2103810Y12035500D01*
X2114480Y12063000D01*
X2061140D01*
G01X2440000Y1230000D02*
Y1120000D01*
G01X2409330Y1230000D02*
X2470670D01*
G01X2492010Y1120000D02*
X2548010Y1230000D01*
G01X2492010D02*
X2548010Y1120000D01*
G01X2663330D02*
Y1230000D01*
X2696670D01*
X2707330Y1224500D01*
X2714000Y1217170D01*
X2716670Y1202500D01*
X2714000Y1187830D01*
X2706000Y1178670D01*
X2696670Y1173170D01*
X2663330D01*
G01X2696670D02*
X2716670Y1120000D01*
G01X2742010D02*
X2798010Y1230000D01*
G01X2742010D02*
X2798010Y1120000D01*
G01X2813330Y1580000D02*
Y1690000D01*
X2846670D01*
X2857330Y1684500D01*
X2864000Y1677170D01*
X2866670Y1662500D01*
X2864000Y1647830D01*
X2856000Y1638670D01*
X2846670Y1633170D01*
X2813330D01*
G01X2846670D02*
X2866670Y1580000D01*
G01X2936010D02*
Y1690000D01*
X2886680Y1611170D01*
X2953340D01*
G01X2997350Y1580000D02*
X3000020Y1603830D01*
X3004020Y1624000D01*
X3009350Y1642330D01*
X3016020Y1662500D01*
X3026690Y1690000D01*
X2973350D01*
G01X2816330Y1721600D02*
Y1831600D01*
X2849670D01*
X2860330Y1826100D01*
X2867000Y1818770D01*
X2869670Y1804100D01*
X2867000Y1789430D01*
X2859000Y1780270D01*
X2849670Y1774770D01*
X2816330D01*
G01X2849670D02*
X2869670Y1721600D01*
G01X2939010D02*
Y1831600D01*
X2889680Y1752770D01*
X2956340D01*
G01X3003020Y1721600D02*
X3012350Y1723430D01*
X3023020Y1728930D01*
X3029690Y1738100D01*
X3032350Y1750930D01*
X3029690Y1763760D01*
X3021690Y1774770D01*
X3009690Y1780270D01*
X2996350D01*
X2988350Y1783930D01*
X2981690Y1793100D01*
X2979020Y1805930D01*
X2983020Y1818770D01*
X2992350Y1827930D01*
X3003020Y1831600D01*
X3013690Y1827930D01*
X3023020Y1818770D01*
X3027020Y1805930D01*
X3024350Y1793100D01*
X3017690Y1783930D01*
X3009690Y1780270D01*
X2996350D01*
X2984350Y1774770D01*
X2976350Y1763760D01*
X2973690Y1750930D01*
X2976350Y1738100D01*
X2983020Y1728930D01*
X2993690Y1723430D01*
X3003020Y1721600D01*
G01X2869330Y1970830D02*
X2861330Y1976330D01*
X2852000Y1980000D01*
X2841330D01*
X2829330Y1974500D01*
X2820000Y1965330D01*
X2813330Y1954330D01*
X2808000Y1936000D01*
X2806670Y1919500D01*
X2809330Y1903000D01*
X2813330Y1892000D01*
X2821330Y1881000D01*
X2830670Y1873670D01*
X2840000Y1870000D01*
X2849330D01*
X2858670Y1873670D01*
X2866670Y1879160D01*
X2873330Y1886500D01*
G01X2894680Y1961670D02*
X2902680Y1972660D01*
X2912010Y1978170D01*
X2922680Y1980000D01*
X2936010Y1976330D01*
X2945340Y1967170D01*
X2948010Y1956170D01*
X2946680Y1945160D01*
X2941340Y1936000D01*
X2914680Y1917670D01*
X2902680Y1904830D01*
X2894680Y1886500D01*
X2892010Y1870000D01*
X2948010D01*
G01X2977350Y1882830D02*
X2986690Y1873670D01*
X2997350Y1870000D01*
X3008020Y1873670D01*
X3017350Y1884660D01*
X3024020Y1901170D01*
X3026690Y1917670D01*
Y1937830D01*
X3024020Y1954330D01*
X3017350Y1969000D01*
X3009350Y1976330D01*
X3000020Y1980000D01*
X2989350Y1976330D01*
X2981350Y1969000D01*
X2976020Y1958000D01*
X2973350Y1943330D01*
X2976020Y1930500D01*
X2982690Y1917670D01*
X2990690Y1910330D01*
X3000020Y1908500D01*
X3010690Y1912160D01*
X3018690Y1921330D01*
X3026690Y1937830D01*
G01X2539330Y2270830D02*
X2531330Y2276330D01*
X2522000Y2280000D01*
X2511330D01*
X2499330Y2274500D01*
X2490000Y2265330D01*
X2483330Y2254330D01*
X2478000Y2236000D01*
X2476670Y2219500D01*
X2479330Y2203000D01*
X2483330Y2192000D01*
X2491330Y2181000D01*
X2500670Y2173670D01*
X2510000Y2170000D01*
X2519330D01*
X2528670Y2173670D01*
X2536670Y2179160D01*
X2543330Y2186500D01*
G01X2590010Y2170000D02*
Y2280000D01*
X2574010Y2258000D01*
G01Y2170000D02*
X2606010D01*
G01X2644690Y2261670D02*
X2652690Y2272660D01*
X2662020Y2278170D01*
X2672690Y2280000D01*
X2686020Y2276330D01*
X2695350Y2267170D01*
X2698020Y2256170D01*
X2696690Y2245160D01*
X2691350Y2236000D01*
X2664690Y2217670D01*
X2652690Y2204830D01*
X2644690Y2186500D01*
X2642020Y2170000D01*
X2698020D01*
G01X2577930Y4919230D02*
X2569930Y4924730D01*
X2560600Y4928400D01*
X2549930D01*
X2537930Y4922900D01*
X2528600Y4913730D01*
X2521930Y4902730D01*
X2516600Y4884400D01*
X2515270Y4867900D01*
X2517930Y4851400D01*
X2521930Y4840400D01*
X2529930Y4829400D01*
X2539270Y4822070D01*
X2548600Y4818400D01*
X2557930D01*
X2567270Y4822070D01*
X2575270Y4827560D01*
X2581930Y4834900D01*
G01X2628610Y4818400D02*
Y4928400D01*
X2612610Y4906400D01*
G01Y4818400D02*
X2644610D01*
G01X2708620Y4928400D02*
X2697950Y4924730D01*
X2689950Y4915570D01*
X2684620Y4904570D01*
X2680620Y4889900D01*
X2679290Y4873400D01*
X2680620Y4856900D01*
X2684620Y4842230D01*
X2689950Y4831230D01*
X2697950Y4822070D01*
X2708620Y4818400D01*
X2719290Y4822070D01*
X2727290Y4831230D01*
X2732620Y4842230D01*
X2736620Y4856900D01*
X2737950Y4873400D01*
X2736620Y4889900D01*
X2732620Y4904570D01*
X2727290Y4915570D01*
X2719290Y4924730D01*
X2708620Y4928400D01*
G01X2606330Y5561600D02*
Y5671600D01*
X2639670D01*
X2650330Y5666100D01*
X2657000Y5658770D01*
X2659670Y5644100D01*
X2657000Y5629430D01*
X2649000Y5620270D01*
X2639670Y5614770D01*
X2606330D01*
G01X2639670D02*
X2659670Y5561600D01*
G01X2683680Y5583600D02*
X2691680Y5570760D01*
X2702340Y5563430D01*
X2714340Y5561600D01*
X2725010Y5563430D01*
X2735680Y5572600D01*
X2742340Y5583600D01*
X2743680Y5594600D01*
X2741010Y5607430D01*
X2731680Y5616600D01*
X2722340Y5620270D01*
X2710340D01*
G01X2722340D02*
X2730340Y5625770D01*
X2737010Y5634930D01*
X2739680Y5645930D01*
X2737010Y5656930D01*
X2730340Y5666100D01*
X2718340Y5671600D01*
X2706340Y5669770D01*
X2694340Y5662430D01*
G01X2767690Y5653270D02*
X2775690Y5664260D01*
X2785020Y5669770D01*
X2795690Y5671600D01*
X2809020Y5667930D01*
X2818350Y5658770D01*
X2821020Y5647770D01*
X2819690Y5636760D01*
X2814350Y5627600D01*
X2787690Y5609270D01*
X2775690Y5596430D01*
X2767690Y5578100D01*
X2765020Y5561600D01*
X2821020D01*
G01X2606330Y6061600D02*
Y6171600D01*
X2639670D01*
X2650330Y6166100D01*
X2657000Y6158770D01*
X2659670Y6144100D01*
X2657000Y6129430D01*
X2649000Y6120270D01*
X2639670Y6114770D01*
X2606330D01*
G01X2639670D02*
X2659670Y6061600D01*
G01X2683680Y6083600D02*
X2691680Y6070760D01*
X2702340Y6063430D01*
X2714340Y6061600D01*
X2725010Y6063430D01*
X2735680Y6072600D01*
X2742340Y6083600D01*
X2743680Y6094600D01*
X2741010Y6107430D01*
X2731680Y6116600D01*
X2722340Y6120270D01*
X2710340D01*
G01X2722340D02*
X2730340Y6125770D01*
X2737010Y6134930D01*
X2739680Y6145930D01*
X2737010Y6156930D01*
X2730340Y6166100D01*
X2718340Y6171600D01*
X2706340Y6169770D01*
X2694340Y6162430D01*
G01X2793020Y6171600D02*
X2782350Y6167930D01*
X2774350Y6158770D01*
X2769020Y6147770D01*
X2765020Y6133100D01*
X2763690Y6116600D01*
X2765020Y6100100D01*
X2769020Y6085430D01*
X2774350Y6074430D01*
X2782350Y6065270D01*
X2793020Y6061600D01*
X2803690Y6065270D01*
X2811690Y6074430D01*
X2817020Y6085430D01*
X2821020Y6100100D01*
X2822350Y6116600D01*
X2821020Y6133100D01*
X2817020Y6147770D01*
X2811690Y6158770D01*
X2803690Y6167930D01*
X2793020Y6171600D01*
G01X2606330Y5811600D02*
Y5921600D01*
X2639670D01*
X2650330Y5916100D01*
X2657000Y5908770D01*
X2659670Y5894100D01*
X2657000Y5879430D01*
X2649000Y5870270D01*
X2639670Y5864770D01*
X2606330D01*
G01X2639670D02*
X2659670Y5811600D01*
G01X2683680Y5833600D02*
X2691680Y5820760D01*
X2702340Y5813430D01*
X2714340Y5811600D01*
X2725010Y5813430D01*
X2735680Y5822600D01*
X2742340Y5833600D01*
X2743680Y5844600D01*
X2741010Y5857430D01*
X2731680Y5866600D01*
X2722340Y5870270D01*
X2710340D01*
G01X2722340D02*
X2730340Y5875770D01*
X2737010Y5884930D01*
X2739680Y5895930D01*
X2737010Y5906930D01*
X2730340Y5916100D01*
X2718340Y5921600D01*
X2706340Y5919770D01*
X2694340Y5912430D01*
G01X2793020Y5811600D02*
Y5921600D01*
X2777020Y5899600D01*
G01Y5811600D02*
X2809020D01*
G01X2606330Y6331600D02*
Y6441600D01*
X2639670D01*
X2650330Y6436100D01*
X2657000Y6428770D01*
X2659670Y6414100D01*
X2657000Y6399430D01*
X2649000Y6390270D01*
X2639670Y6384770D01*
X2606330D01*
G01X2639670D02*
X2659670Y6331600D01*
G01X2683680Y6353600D02*
X2691680Y6340760D01*
X2702340Y6333430D01*
X2714340Y6331600D01*
X2725010Y6333430D01*
X2735680Y6342600D01*
X2742340Y6353600D01*
X2743680Y6364600D01*
X2741010Y6377430D01*
X2731680Y6386600D01*
X2722340Y6390270D01*
X2710340D01*
G01X2722340D02*
X2730340Y6395770D01*
X2737010Y6404930D01*
X2739680Y6415930D01*
X2737010Y6426930D01*
X2730340Y6436100D01*
X2718340Y6441600D01*
X2706340Y6439770D01*
X2694340Y6432430D01*
G01X2763690Y6353600D02*
X2771690Y6340760D01*
X2782350Y6333430D01*
X2794350Y6331600D01*
X2805020Y6333430D01*
X2815690Y6342600D01*
X2822350Y6353600D01*
X2823690Y6364600D01*
X2821020Y6377430D01*
X2811690Y6386600D01*
X2802350Y6390270D01*
X2790350D01*
G01X2802350D02*
X2810350Y6395770D01*
X2817020Y6404930D01*
X2819690Y6415930D01*
X2817020Y6426930D01*
X2810350Y6436100D01*
X2798350Y6441600D01*
X2786350Y6439770D01*
X2774350Y6432430D01*
G01X2961600Y7050330D02*
X2851600D01*
Y7083670D01*
X2857100Y7094330D01*
X2864430Y7101000D01*
X2879100Y7103670D01*
X2893770Y7101000D01*
X2902930Y7093000D01*
X2908430Y7083670D01*
Y7050330D01*
G01Y7083670D02*
X2961600Y7103670D01*
G01X2939600Y7127680D02*
X2952440Y7135680D01*
X2959770Y7146340D01*
X2961600Y7158340D01*
X2959770Y7169010D01*
X2950600Y7179680D01*
X2939600Y7186340D01*
X2928600Y7187680D01*
X2915770Y7185010D01*
X2906600Y7175680D01*
X2902930Y7166340D01*
Y7154340D01*
G01Y7166340D02*
X2897430Y7174340D01*
X2888270Y7181010D01*
X2877270Y7183680D01*
X2866270Y7181010D01*
X2857100Y7174340D01*
X2851600Y7162340D01*
X2853430Y7150340D01*
X2860770Y7138340D01*
G01X2961600Y7253020D02*
X2851600D01*
X2930430Y7203690D01*
Y7270350D01*
G01X2580670Y8530000D02*
Y8451170D01*
X2586000Y8434660D01*
X2596670Y8423670D01*
X2610000Y8420000D01*
X2623330Y8423670D01*
X2634000Y8434660D01*
X2639330Y8451170D01*
Y8530000D01*
G01X2664680Y8465830D02*
X2674010Y8478670D01*
X2682010Y8486000D01*
X2692680Y8489670D01*
X2702010Y8486000D01*
X2708680Y8478670D01*
X2714010Y8467670D01*
X2715340Y8454830D01*
X2714010Y8443830D01*
X2708680Y8432830D01*
X2700680Y8423670D01*
X2691340Y8420000D01*
X2680680Y8423670D01*
X2671340Y8434660D01*
X2666010Y8451170D01*
X2664680Y8469500D01*
X2667340Y8493330D01*
X2671340Y8506170D01*
X2678010Y8519000D01*
X2687340Y8528170D01*
X2696680Y8530000D01*
X2706010Y8526330D01*
X2712680Y8517170D01*
G01X2823330Y9340000D02*
Y9450000D01*
X2856670D01*
X2867330Y9444500D01*
X2874000Y9437170D01*
X2876670Y9422500D01*
X2874000Y9407830D01*
X2866000Y9398670D01*
X2856670Y9393170D01*
X2823330D01*
G01X2856670D02*
X2876670Y9340000D01*
G01X2904680Y9431670D02*
X2912680Y9442660D01*
X2922010Y9448170D01*
X2932680Y9450000D01*
X2946010Y9446330D01*
X2955340Y9437170D01*
X2958010Y9426170D01*
X2956680Y9415160D01*
X2951340Y9406000D01*
X2924680Y9387670D01*
X2912680Y9374830D01*
X2904680Y9356500D01*
X2902010Y9340000D01*
X2958010D01*
G01X2980690Y9362000D02*
X2988690Y9349160D01*
X2999350Y9341830D01*
X3011350Y9340000D01*
X3022020Y9341830D01*
X3032690Y9351000D01*
X3039350Y9362000D01*
X3040690Y9373000D01*
X3038020Y9385830D01*
X3028690Y9395000D01*
X3019350Y9398670D01*
X3007350D01*
G01X3019350D02*
X3027350Y9404170D01*
X3034020Y9413330D01*
X3036690Y9424330D01*
X3034020Y9435330D01*
X3027350Y9444500D01*
X3015350Y9450000D01*
X3003350Y9448170D01*
X2991350Y9440830D01*
G01X2456670Y13590000D02*
X2490000Y13480000D01*
X2523330Y13590000D01*
G01X2542010Y13494660D02*
X2552680Y13485500D01*
X2564680Y13480000D01*
X2575340D01*
X2586010Y13485500D01*
X2594010Y13494660D01*
X2598010Y13507500D01*
X2595340Y13520330D01*
X2588680Y13531330D01*
X2576680Y13538670D01*
X2560680Y13542330D01*
X2551340Y13549670D01*
X2547340Y13562500D01*
X2550010Y13575330D01*
X2556680Y13584500D01*
X2566010Y13590000D01*
X2575340D01*
X2584680Y13586330D01*
X2592680Y13577170D01*
G01X2623350Y13480000D02*
Y13590000D01*
X2656690D01*
X2667350Y13584500D01*
X2674020Y13577170D01*
X2676690Y13562500D01*
X2674020Y13547830D01*
X2666020Y13538670D01*
X2656690Y13533170D01*
X2623350D01*
G01X2656690D02*
X2676690Y13480000D01*
G01X2730030D02*
Y13590000D01*
X2714030Y13568000D01*
G01Y13480000D02*
X2746030D01*
G01X3183330Y1222000D02*
X3190000Y1211000D01*
X3198000Y1203670D01*
X3207330Y1200000D01*
X3218000Y1203670D01*
X3226000Y1211000D01*
X3234000Y1222000D01*
X3236670Y1236670D01*
Y1310000D01*
G01X3290010Y1200000D02*
Y1310000D01*
X3274010Y1288000D01*
G01Y1200000D02*
X3306010D01*
G01X3460330Y1518400D02*
Y1628400D01*
X3493670D01*
X3504330Y1622900D01*
X3511000Y1615570D01*
X3513670Y1600900D01*
X3511000Y1586230D01*
X3503000Y1577070D01*
X3493670Y1571570D01*
X3460330D01*
G01X3493670D02*
X3513670Y1518400D01*
G01X3567010D02*
Y1628400D01*
X3551010Y1606400D01*
G01Y1518400D02*
X3583010D01*
G01X3183330Y2080000D02*
Y1970000D01*
X3236670D01*
G01X3290010D02*
Y2080000D01*
X3274010Y2058000D01*
G01Y1970000D02*
X3306010D01*
G01X3183330Y1890000D02*
Y1780000D01*
X3236670D01*
G01X3260680Y1802000D02*
X3268680Y1789160D01*
X3279340Y1781830D01*
X3291340Y1780000D01*
X3302010Y1781830D01*
X3312680Y1791000D01*
X3319340Y1802000D01*
X3320680Y1813000D01*
X3318010Y1825830D01*
X3308680Y1835000D01*
X3299340Y1838670D01*
X3287340D01*
G01X3299340D02*
X3307340Y1844170D01*
X3314010Y1853330D01*
X3316680Y1864330D01*
X3314010Y1875330D01*
X3307340Y1884500D01*
X3295340Y1890000D01*
X3283340Y1888170D01*
X3271340Y1880830D01*
G01X3360000Y2430800D02*
Y2329200D01*
G01Y2240800D02*
Y2139200D01*
G01X3227930Y4919230D02*
X3219930Y4924730D01*
X3210600Y4928400D01*
X3199930D01*
X3187930Y4922900D01*
X3178600Y4913730D01*
X3171930Y4902730D01*
X3166600Y4884400D01*
X3165270Y4867900D01*
X3167930Y4851400D01*
X3171930Y4840400D01*
X3179930Y4829400D01*
X3189270Y4822070D01*
X3198600Y4818400D01*
X3207930D01*
X3217270Y4822070D01*
X3225270Y4827560D01*
X3231930Y4834900D01*
G01X3255940Y4831230D02*
X3265280Y4822070D01*
X3275940Y4818400D01*
X3286610Y4822070D01*
X3295940Y4833060D01*
X3302610Y4849570D01*
X3305280Y4866070D01*
Y4886230D01*
X3302610Y4902730D01*
X3295940Y4917400D01*
X3287940Y4924730D01*
X3278610Y4928400D01*
X3267940Y4924730D01*
X3259940Y4917400D01*
X3254610Y4906400D01*
X3251940Y4891730D01*
X3254610Y4878900D01*
X3261280Y4866070D01*
X3269280Y4858730D01*
X3278610Y4856900D01*
X3289280Y4860560D01*
X3297280Y4869730D01*
X3305280Y4886230D01*
G01X3432210Y6825260D02*
X3424210Y6830760D01*
X3414880Y6834430D01*
X3404210D01*
X3392210Y6828930D01*
X3382880Y6819760D01*
X3376210Y6808760D01*
X3370880Y6790430D01*
X3369550Y6773930D01*
X3372210Y6757430D01*
X3376210Y6746430D01*
X3384210Y6735430D01*
X3393550Y6728100D01*
X3402880Y6724430D01*
X3412210D01*
X3421550Y6728100D01*
X3429550Y6733590D01*
X3436210Y6740930D01*
G01X3457560Y6816100D02*
X3465560Y6827090D01*
X3474890Y6832600D01*
X3485560Y6834430D01*
X3498890Y6830760D01*
X3508220Y6821600D01*
X3510890Y6810600D01*
X3509560Y6799590D01*
X3504220Y6790430D01*
X3477560Y6772100D01*
X3465560Y6759260D01*
X3457560Y6740930D01*
X3454890Y6724430D01*
X3510890D01*
G01X3578900D02*
Y6834430D01*
X3529570Y6755600D01*
X3596230D01*
G01X3376210Y7027300D02*
Y7137300D01*
X3409550D01*
X3420210Y7131800D01*
X3426880Y7124470D01*
X3429550Y7109800D01*
X3426880Y7095130D01*
X3418880Y7085970D01*
X3409550Y7080470D01*
X3376210D01*
G01X3409550D02*
X3429550Y7027300D01*
G01X3457560Y7118970D02*
X3465560Y7129960D01*
X3474890Y7135470D01*
X3485560Y7137300D01*
X3498890Y7133630D01*
X3508220Y7124470D01*
X3510890Y7113470D01*
X3509560Y7102460D01*
X3504220Y7093300D01*
X3477560Y7074970D01*
X3465560Y7062130D01*
X3457560Y7043800D01*
X3454890Y7027300D01*
X3510890D01*
G01X3537570Y7073130D02*
X3546900Y7085970D01*
X3554900Y7093300D01*
X3565570Y7096970D01*
X3574900Y7093300D01*
X3581570Y7085970D01*
X3586900Y7074970D01*
X3588230Y7062130D01*
X3586900Y7051130D01*
X3581570Y7040130D01*
X3573570Y7030970D01*
X3564230Y7027300D01*
X3553570Y7030970D01*
X3544230Y7041960D01*
X3538900Y7058470D01*
X3537570Y7076800D01*
X3540230Y7100630D01*
X3544230Y7113470D01*
X3550900Y7126300D01*
X3560230Y7135470D01*
X3569570Y7137300D01*
X3578900Y7133630D01*
X3585570Y7124470D01*
G01X3376210Y7178730D02*
Y7288730D01*
X3409550D01*
X3420210Y7283230D01*
X3426880Y7275900D01*
X3429550Y7261230D01*
X3426880Y7246560D01*
X3418880Y7237400D01*
X3409550Y7231900D01*
X3376210D01*
G01X3409550D02*
X3429550Y7178730D01*
G01X3457560Y7270400D02*
X3465560Y7281390D01*
X3474890Y7286900D01*
X3485560Y7288730D01*
X3498890Y7285060D01*
X3508220Y7275900D01*
X3510890Y7264900D01*
X3509560Y7253890D01*
X3504220Y7244730D01*
X3477560Y7226400D01*
X3465560Y7213560D01*
X3457560Y7195230D01*
X3454890Y7178730D01*
X3510890D01*
G01X3560230D02*
X3562900Y7202560D01*
X3566900Y7222730D01*
X3572230Y7241060D01*
X3578900Y7261230D01*
X3589570Y7288730D01*
X3536230D01*
G01X3111600Y7050330D02*
X3001600D01*
Y7083670D01*
X3007100Y7094330D01*
X3014430Y7101000D01*
X3029100Y7103670D01*
X3043770Y7101000D01*
X3052930Y7093000D01*
X3058430Y7083670D01*
Y7050330D01*
G01Y7083670D02*
X3111600Y7103670D01*
G01X3089600Y7127680D02*
X3102440Y7135680D01*
X3109770Y7146340D01*
X3111600Y7158340D01*
X3109770Y7169010D01*
X3100600Y7179680D01*
X3089600Y7186340D01*
X3078600Y7187680D01*
X3065770Y7185010D01*
X3056600Y7175680D01*
X3052930Y7166340D01*
Y7154340D01*
G01Y7166340D02*
X3047430Y7174340D01*
X3038270Y7181010D01*
X3027270Y7183680D01*
X3016270Y7181010D01*
X3007100Y7174340D01*
X3001600Y7162340D01*
X3003430Y7150340D01*
X3010770Y7138340D01*
G01X3095100Y7207690D02*
X3104270Y7215690D01*
X3109770Y7225020D01*
X3111600Y7237020D01*
X3107930Y7249020D01*
X3100600Y7258350D01*
X3087770Y7265020D01*
X3073100Y7266350D01*
X3058430Y7263690D01*
X3049270Y7257020D01*
X3041930Y7247690D01*
X3040100Y7238350D01*
X3041930Y7229020D01*
X3049270Y7217020D01*
X3001600Y7221020D01*
Y7257020D01*
G01X3261600Y7050330D02*
X3151600D01*
Y7083670D01*
X3157100Y7094330D01*
X3164430Y7101000D01*
X3179100Y7103670D01*
X3193770Y7101000D01*
X3202930Y7093000D01*
X3208430Y7083670D01*
Y7050330D01*
G01Y7083670D02*
X3261600Y7103670D01*
G01X3239600Y7127680D02*
X3252440Y7135680D01*
X3259770Y7146340D01*
X3261600Y7158340D01*
X3259770Y7169010D01*
X3250600Y7179680D01*
X3239600Y7186340D01*
X3228600Y7187680D01*
X3215770Y7185010D01*
X3206600Y7175680D01*
X3202930Y7166340D01*
Y7154340D01*
G01Y7166340D02*
X3197430Y7174340D01*
X3188270Y7181010D01*
X3177270Y7183680D01*
X3166270Y7181010D01*
X3157100Y7174340D01*
X3151600Y7162340D01*
X3153430Y7150340D01*
X3160770Y7138340D01*
G01X3215770Y7211690D02*
X3202930Y7221020D01*
X3195600Y7229020D01*
X3191930Y7239690D01*
X3195600Y7249020D01*
X3202930Y7255690D01*
X3213930Y7261020D01*
X3226770Y7262350D01*
X3237770Y7261020D01*
X3248770Y7255690D01*
X3257930Y7247690D01*
X3261600Y7238350D01*
X3257930Y7227690D01*
X3246940Y7218350D01*
X3230430Y7213020D01*
X3212100Y7211690D01*
X3188270Y7214350D01*
X3175430Y7218350D01*
X3162600Y7225020D01*
X3153430Y7234350D01*
X3151600Y7243690D01*
X3155270Y7253020D01*
X3164430Y7259690D01*
G01X3432210Y7431000D02*
X3424210Y7436500D01*
X3414880Y7440170D01*
X3404210D01*
X3392210Y7434670D01*
X3382880Y7425500D01*
X3376210Y7414500D01*
X3370880Y7396170D01*
X3369550Y7379670D01*
X3372210Y7363170D01*
X3376210Y7352170D01*
X3384210Y7341170D01*
X3393550Y7333840D01*
X3402880Y7330170D01*
X3412210D01*
X3421550Y7333840D01*
X3429550Y7339330D01*
X3436210Y7346670D01*
G01X3482890Y7330170D02*
Y7440170D01*
X3466890Y7418170D01*
G01Y7330170D02*
X3498890D01*
G01X3562900D02*
X3572230Y7332000D01*
X3582900Y7337500D01*
X3589570Y7346670D01*
X3592230Y7359500D01*
X3589570Y7372330D01*
X3581570Y7383340D01*
X3569570Y7388840D01*
X3556230D01*
X3548230Y7392500D01*
X3541570Y7401670D01*
X3538900Y7414500D01*
X3542900Y7427340D01*
X3552230Y7436500D01*
X3562900Y7440170D01*
X3573570Y7436500D01*
X3582900Y7427340D01*
X3586900Y7414500D01*
X3584230Y7401670D01*
X3577570Y7392500D01*
X3569570Y7388840D01*
X3556230D01*
X3544230Y7383340D01*
X3536230Y7372330D01*
X3533570Y7359500D01*
X3536230Y7346670D01*
X3542900Y7337500D01*
X3553570Y7332000D01*
X3562900Y7330170D01*
G01X3432210Y6976690D02*
X3424210Y6982190D01*
X3414880Y6985860D01*
X3404210D01*
X3392210Y6980360D01*
X3382880Y6971190D01*
X3376210Y6960190D01*
X3370880Y6941860D01*
X3369550Y6925360D01*
X3372210Y6908860D01*
X3376210Y6897860D01*
X3384210Y6886860D01*
X3393550Y6879530D01*
X3402880Y6875860D01*
X3412210D01*
X3421550Y6879530D01*
X3429550Y6885020D01*
X3436210Y6892360D01*
G01X3457560Y6967530D02*
X3465560Y6978520D01*
X3474890Y6984030D01*
X3485560Y6985860D01*
X3498890Y6982190D01*
X3508220Y6973030D01*
X3510890Y6962030D01*
X3509560Y6951020D01*
X3504220Y6941860D01*
X3477560Y6923530D01*
X3465560Y6910690D01*
X3457560Y6892360D01*
X3454890Y6875860D01*
X3510890D01*
G01X3533570Y6897860D02*
X3541570Y6885020D01*
X3552230Y6877690D01*
X3564230Y6875860D01*
X3574900Y6877690D01*
X3585570Y6886860D01*
X3592230Y6897860D01*
X3593570Y6908860D01*
X3590900Y6921690D01*
X3581570Y6930860D01*
X3572230Y6934530D01*
X3560230D01*
G01X3572230D02*
X3580230Y6940030D01*
X3586900Y6949190D01*
X3589570Y6960190D01*
X3586900Y6971190D01*
X3580230Y6980360D01*
X3568230Y6985860D01*
X3556230Y6984030D01*
X3544230Y6976690D01*
G01X3432210Y7582430D02*
X3424210Y7587930D01*
X3414880Y7591600D01*
X3404210D01*
X3392210Y7586100D01*
X3382880Y7576930D01*
X3376210Y7565930D01*
X3370880Y7547600D01*
X3369550Y7531100D01*
X3372210Y7514600D01*
X3376210Y7503600D01*
X3384210Y7492600D01*
X3393550Y7485270D01*
X3402880Y7481600D01*
X3412210D01*
X3421550Y7485270D01*
X3429550Y7490760D01*
X3436210Y7498100D01*
G01X3482890Y7481600D02*
Y7591600D01*
X3466890Y7569600D01*
G01Y7481600D02*
X3498890D01*
G01X3560230D02*
X3562900Y7505430D01*
X3566900Y7525600D01*
X3572230Y7543930D01*
X3578900Y7564100D01*
X3589570Y7591600D01*
X3536230D01*
G01X3103330Y9390000D02*
Y9500000D01*
X3136670D01*
X3147330Y9494500D01*
X3154000Y9487170D01*
X3156670Y9472500D01*
X3154000Y9457830D01*
X3146000Y9448670D01*
X3136670Y9443170D01*
X3103330D01*
G01X3136670D02*
X3156670Y9390000D01*
G01X3226010D02*
Y9500000D01*
X3176680Y9421170D01*
X3243340D01*
G01X3260690Y9406500D02*
X3268690Y9397330D01*
X3278020Y9391830D01*
X3290020Y9390000D01*
X3302020Y9393670D01*
X3311350Y9401000D01*
X3318020Y9413830D01*
X3319350Y9428500D01*
X3316690Y9443170D01*
X3310020Y9452330D01*
X3300690Y9459670D01*
X3291350Y9461500D01*
X3282020Y9459670D01*
X3270020Y9452330D01*
X3274020Y9500000D01*
X3310020D01*
G01X3393330Y9390000D02*
Y9500000D01*
X3426670D01*
X3437330Y9494500D01*
X3444000Y9487170D01*
X3446670Y9472500D01*
X3444000Y9457830D01*
X3436000Y9448670D01*
X3426670Y9443170D01*
X3393330D01*
G01X3426670D02*
X3446670Y9390000D01*
G01X3516010D02*
Y9500000D01*
X3466680Y9421170D01*
X3533340D01*
G01X3554690Y9435830D02*
X3564020Y9448670D01*
X3572020Y9456000D01*
X3582690Y9459670D01*
X3592020Y9456000D01*
X3598690Y9448670D01*
X3604020Y9437670D01*
X3605350Y9424830D01*
X3604020Y9413830D01*
X3598690Y9402830D01*
X3590690Y9393670D01*
X3581350Y9390000D01*
X3570690Y9393670D01*
X3561350Y9404660D01*
X3556020Y9421170D01*
X3554690Y9439500D01*
X3557350Y9463330D01*
X3561350Y9476170D01*
X3568020Y9489000D01*
X3577350Y9498170D01*
X3586690Y9500000D01*
X3596020Y9496330D01*
X3602690Y9487170D01*
G01X3010000Y9870000D02*
X2999330Y9871830D01*
X2990000Y9879160D01*
X2982000Y9890170D01*
X2976670Y9903000D01*
X2974000Y9917670D01*
Y9932330D01*
X2976670Y9947000D01*
X2982000Y9959830D01*
X2990000Y9970830D01*
X2999330Y9978170D01*
X3010000Y9980000D01*
X3020670Y9978170D01*
X3030000Y9970830D01*
X3038000Y9959830D01*
X3043330Y9947000D01*
X3046000Y9932330D01*
Y9917670D01*
X3043330Y9903000D01*
X3038000Y9890170D01*
X3030000Y9879160D01*
X3020670Y9871830D01*
X3010000Y9870000D01*
G01X3020670Y9899330D02*
X3036670Y9870000D01*
G01X3060680Y9886500D02*
X3068680Y9877330D01*
X3078010Y9871830D01*
X3090010Y9870000D01*
X3102010Y9873670D01*
X3111340Y9881000D01*
X3118010Y9893830D01*
X3119340Y9908500D01*
X3116680Y9923170D01*
X3110010Y9932330D01*
X3100680Y9939670D01*
X3091340Y9941500D01*
X3082010Y9939670D01*
X3070010Y9932330D01*
X3074010Y9980000D01*
X3110010D01*
G01X3396330Y10341600D02*
Y10451600D01*
X3429670D01*
X3440330Y10446100D01*
X3447000Y10438770D01*
X3449670Y10424100D01*
X3447000Y10409430D01*
X3439000Y10400270D01*
X3429670Y10394770D01*
X3396330D01*
G01X3429670D02*
X3449670Y10341600D01*
G01X3519010D02*
Y10451600D01*
X3469680Y10372770D01*
X3536340D01*
G01X3599020Y10341600D02*
Y10451600D01*
X3549690Y10372770D01*
X3616350D01*
G01X3096330Y10341600D02*
Y10451600D01*
X3129670D01*
X3140330Y10446100D01*
X3147000Y10438770D01*
X3149670Y10424100D01*
X3147000Y10409430D01*
X3139000Y10400270D01*
X3129670Y10394770D01*
X3096330D01*
G01X3129670D02*
X3149670Y10341600D01*
G01X3219010D02*
Y10451600D01*
X3169680Y10372770D01*
X3236340D01*
G01X3253690Y10363600D02*
X3261690Y10350760D01*
X3272350Y10343430D01*
X3284350Y10341600D01*
X3295020Y10343430D01*
X3305690Y10352600D01*
X3312350Y10363600D01*
X3313690Y10374600D01*
X3311020Y10387430D01*
X3301690Y10396600D01*
X3292350Y10400270D01*
X3280350D01*
G01X3292350D02*
X3300350Y10405770D01*
X3307020Y10414930D01*
X3309690Y10425930D01*
X3307020Y10436930D01*
X3300350Y10446100D01*
X3288350Y10451600D01*
X3276350Y10449770D01*
X3264350Y10442430D01*
G01X3056670Y13590000D02*
X3090000Y13480000D01*
X3123330Y13590000D01*
G01X3142010Y13494660D02*
X3152680Y13485500D01*
X3164680Y13480000D01*
X3175340D01*
X3186010Y13485500D01*
X3194010Y13494660D01*
X3198010Y13507500D01*
X3195340Y13520330D01*
X3188680Y13531330D01*
X3176680Y13538670D01*
X3160680Y13542330D01*
X3151340Y13549670D01*
X3147340Y13562500D01*
X3150010Y13575330D01*
X3156680Y13584500D01*
X3166010Y13590000D01*
X3175340D01*
X3184680Y13586330D01*
X3192680Y13577170D01*
G01X3223350Y13480000D02*
Y13590000D01*
X3256690D01*
X3267350Y13584500D01*
X3274020Y13577170D01*
X3276690Y13562500D01*
X3274020Y13547830D01*
X3266020Y13538670D01*
X3256690Y13533170D01*
X3223350D01*
G01X3256690D02*
X3276690Y13480000D01*
G01X3304700Y13571670D02*
X3312700Y13582660D01*
X3322030Y13588170D01*
X3332700Y13590000D01*
X3346030Y13586330D01*
X3355360Y13577170D01*
X3358030Y13566170D01*
X3356700Y13555160D01*
X3351360Y13546000D01*
X3324700Y13527670D01*
X3312700Y13514830D01*
X3304700Y13496500D01*
X3302030Y13480000D01*
X3358030D01*
G01X3599170Y1889330D02*
X3593670Y1881330D01*
X3590000Y1872000D01*
Y1861330D01*
X3595500Y1849330D01*
X3604670Y1840000D01*
X3615670Y1833330D01*
X3634000Y1828000D01*
X3650500Y1826670D01*
X3667000Y1829330D01*
X3678000Y1833330D01*
X3689000Y1841330D01*
X3696330Y1850670D01*
X3700000Y1860000D01*
Y1869330D01*
X3696330Y1878670D01*
X3690840Y1886670D01*
X3683500Y1893330D01*
G01X3700000Y1940010D02*
X3590000D01*
X3612000Y1924010D01*
G01X3700000D02*
Y1956010D01*
G01X3683500Y1990690D02*
X3692670Y1998690D01*
X3698170Y2008020D01*
X3700000Y2020020D01*
X3696330Y2032020D01*
X3689000Y2041350D01*
X3676170Y2048020D01*
X3661500Y2049350D01*
X3646830Y2046690D01*
X3637670Y2040020D01*
X3630330Y2030690D01*
X3628500Y2021350D01*
X3630330Y2012020D01*
X3637670Y2000020D01*
X3590000Y2004020D01*
Y2040020D01*
G01X3773330Y2070000D02*
Y1960000D01*
X3826670D01*
G01X3854680Y2051670D02*
X3862680Y2062660D01*
X3872010Y2068170D01*
X3882680Y2070000D01*
X3896010Y2066330D01*
X3905340Y2057170D01*
X3908010Y2046170D01*
X3906680Y2035160D01*
X3901340Y2026000D01*
X3874680Y2007670D01*
X3862680Y1994830D01*
X3854680Y1976500D01*
X3852010Y1960000D01*
X3908010D01*
G01X3773330Y1880000D02*
Y1770000D01*
X3826670D01*
G01X3896010D02*
Y1880000D01*
X3846680Y1801170D01*
X3913340D01*
G01X3940000Y2430800D02*
Y2329200D01*
G01Y2240800D02*
Y2139200D01*
G01X3839330Y9990830D02*
X3831330Y9996330D01*
X3822000Y10000000D01*
X3811330D01*
X3799330Y9994500D01*
X3790000Y9985330D01*
X3783330Y9974330D01*
X3778000Y9956000D01*
X3776670Y9939500D01*
X3779330Y9923000D01*
X3783330Y9912000D01*
X3791330Y9901000D01*
X3800670Y9893670D01*
X3810000Y9890000D01*
X3819330D01*
X3828670Y9893670D01*
X3836670Y9899160D01*
X3843330Y9906500D01*
G01X3887340Y9890000D02*
X3890010Y9913830D01*
X3894010Y9934000D01*
X3899340Y9952330D01*
X3906010Y9972500D01*
X3916680Y10000000D01*
X3863340D01*
G01X3944690Y9981670D02*
X3952690Y9992660D01*
X3962020Y9998170D01*
X3972690Y10000000D01*
X3986020Y9996330D01*
X3995350Y9987170D01*
X3998020Y9976170D01*
X3996690Y9965160D01*
X3991350Y9956000D01*
X3964690Y9937670D01*
X3952690Y9924830D01*
X3944690Y9906500D01*
X3942020Y9890000D01*
X3998020D01*
G01X3909330Y10990830D02*
X3901330Y10996330D01*
X3892000Y11000000D01*
X3881330D01*
X3869330Y10994500D01*
X3860000Y10985330D01*
X3853330Y10974330D01*
X3848000Y10956000D01*
X3846670Y10939500D01*
X3849330Y10923000D01*
X3853330Y10912000D01*
X3861330Y10901000D01*
X3870670Y10893670D01*
X3880000Y10890000D01*
X3889330D01*
X3898670Y10893670D01*
X3906670Y10899160D01*
X3913330Y10906500D01*
G01X3957340Y10890000D02*
X3960010Y10913830D01*
X3964010Y10934000D01*
X3969340Y10952330D01*
X3976010Y10972500D01*
X3986680Y11000000D01*
X3933340D01*
G01X4040020Y10890000D02*
Y11000000D01*
X4024020Y10978000D01*
G01Y10890000D02*
X4056020D01*
G01X3673330Y13480000D02*
Y13370000D01*
X3726670D01*
G01X3750680Y13386500D02*
X3758680Y13377330D01*
X3768010Y13371830D01*
X3780010Y13370000D01*
X3792010Y13373670D01*
X3801340Y13381000D01*
X3808010Y13393830D01*
X3809340Y13408500D01*
X3806680Y13423170D01*
X3800010Y13432330D01*
X3790680Y13439670D01*
X3781340Y13441500D01*
X3772010Y13439670D01*
X3760010Y13432330D01*
X3764010Y13480000D01*
X3800010D01*
G01X4273330Y1520000D02*
Y1630000D01*
X4306670D01*
X4317330Y1624500D01*
X4324000Y1617170D01*
X4326670Y1602500D01*
X4324000Y1587830D01*
X4316000Y1578670D01*
X4306670Y1573170D01*
X4273330D01*
G01X4306670D02*
X4326670Y1520000D01*
G01X4354680Y1611670D02*
X4362680Y1622660D01*
X4372010Y1628170D01*
X4382680Y1630000D01*
X4396010Y1626330D01*
X4405340Y1617170D01*
X4408010Y1606170D01*
X4406680Y1595160D01*
X4401340Y1586000D01*
X4374680Y1567670D01*
X4362680Y1554830D01*
X4354680Y1536500D01*
X4352010Y1520000D01*
X4408010D01*
G01X4189170Y1899330D02*
X4183670Y1891330D01*
X4180000Y1882000D01*
Y1871330D01*
X4185500Y1859330D01*
X4194670Y1850000D01*
X4205670Y1843330D01*
X4224000Y1838000D01*
X4240500Y1836670D01*
X4257000Y1839330D01*
X4268000Y1843330D01*
X4279000Y1851330D01*
X4286330Y1860670D01*
X4290000Y1870000D01*
Y1879330D01*
X4286330Y1888670D01*
X4280840Y1896670D01*
X4273500Y1903330D01*
G01X4290000Y1950010D02*
X4180000D01*
X4202000Y1934010D01*
G01X4290000D02*
Y1966010D01*
G01X4244170Y2004690D02*
X4231330Y2014020D01*
X4224000Y2022020D01*
X4220330Y2032690D01*
X4224000Y2042020D01*
X4231330Y2048690D01*
X4242330Y2054020D01*
X4255170Y2055350D01*
X4266170Y2054020D01*
X4277170Y2048690D01*
X4286330Y2040690D01*
X4290000Y2031350D01*
X4286330Y2020690D01*
X4275340Y2011350D01*
X4258830Y2006020D01*
X4240500Y2004690D01*
X4216670Y2007350D01*
X4203830Y2011350D01*
X4191000Y2018020D01*
X4181830Y2027350D01*
X4180000Y2036690D01*
X4183670Y2046020D01*
X4192830Y2052690D01*
G01X4367930Y4209230D02*
X4359930Y4214730D01*
X4350600Y4218400D01*
X4339930D01*
X4327930Y4212900D01*
X4318600Y4203730D01*
X4311930Y4192730D01*
X4306600Y4174400D01*
X4305270Y4157900D01*
X4307930Y4141400D01*
X4311930Y4130400D01*
X4319930Y4119400D01*
X4329270Y4112070D01*
X4338600Y4108400D01*
X4347930D01*
X4357270Y4112070D01*
X4365270Y4117560D01*
X4371930Y4124900D01*
G01X4418610Y4108400D02*
X4427940Y4110230D01*
X4438610Y4115730D01*
X4445280Y4124900D01*
X4447940Y4137730D01*
X4445280Y4150560D01*
X4437280Y4161570D01*
X4425280Y4167070D01*
X4411940D01*
X4403940Y4170730D01*
X4397280Y4179900D01*
X4394610Y4192730D01*
X4398610Y4205570D01*
X4407940Y4214730D01*
X4418610Y4218400D01*
X4429280Y4214730D01*
X4438610Y4205570D01*
X4442610Y4192730D01*
X4439940Y4179900D01*
X4433280Y4170730D01*
X4425280Y4167070D01*
X4411940D01*
X4399940Y4161570D01*
X4391940Y4150560D01*
X4389280Y4137730D01*
X4391940Y4124900D01*
X4398610Y4115730D01*
X4409280Y4110230D01*
X4418610Y4108400D01*
G01X4367930Y3809230D02*
X4359930Y3814730D01*
X4350600Y3818400D01*
X4339930D01*
X4327930Y3812900D01*
X4318600Y3803730D01*
X4311930Y3792730D01*
X4306600Y3774400D01*
X4305270Y3757900D01*
X4307930Y3741400D01*
X4311930Y3730400D01*
X4319930Y3719400D01*
X4329270Y3712070D01*
X4338600Y3708400D01*
X4347930D01*
X4357270Y3712070D01*
X4365270Y3717560D01*
X4371930Y3724900D01*
G01X4418610Y3708400D02*
Y3818400D01*
X4402610Y3796400D01*
G01Y3708400D02*
X4434610D01*
G01X4498620D02*
Y3818400D01*
X4482620Y3796400D01*
G01Y3708400D02*
X4514620D01*
G01X4032000Y5604660D02*
X4042670Y5595500D01*
X4054670Y5590000D01*
X4065330D01*
X4076000Y5595500D01*
X4084000Y5604660D01*
X4088000Y5617500D01*
X4085330Y5630330D01*
X4078670Y5641330D01*
X4066670Y5648670D01*
X4050670Y5652330D01*
X4041330Y5659670D01*
X4037330Y5672500D01*
X4040000Y5685330D01*
X4046670Y5694500D01*
X4056000Y5700000D01*
X4065330D01*
X4074670Y5696330D01*
X4082670Y5687170D01*
G01X4140010Y5590000D02*
Y5700000D01*
X4124010Y5678000D01*
G01Y5590000D02*
X4156010D01*
G01X4183330Y7320000D02*
Y7430000D01*
X4216670D01*
X4227330Y7424500D01*
X4234000Y7417170D01*
X4236670Y7402500D01*
X4234000Y7387830D01*
X4226000Y7378670D01*
X4216670Y7373170D01*
X4183330D01*
G01X4216670D02*
X4236670Y7320000D01*
G01X4264680Y7411670D02*
X4272680Y7422660D01*
X4282010Y7428170D01*
X4292680Y7430000D01*
X4306010Y7426330D01*
X4315340Y7417170D01*
X4318010Y7406170D01*
X4316680Y7395160D01*
X4311340Y7386000D01*
X4284680Y7367670D01*
X4272680Y7354830D01*
X4264680Y7336500D01*
X4262010Y7320000D01*
X4318010D01*
G01X4340690Y7336500D02*
X4348690Y7327330D01*
X4358020Y7321830D01*
X4370020Y7320000D01*
X4382020Y7323670D01*
X4391350Y7331000D01*
X4398020Y7343830D01*
X4399350Y7358500D01*
X4396690Y7373170D01*
X4390020Y7382330D01*
X4380690Y7389670D01*
X4371350Y7391500D01*
X4362020Y7389670D01*
X4350020Y7382330D01*
X4354020Y7430000D01*
X4390020D01*
G01X4183330Y7460000D02*
Y7570000D01*
X4216670D01*
X4227330Y7564500D01*
X4234000Y7557170D01*
X4236670Y7542500D01*
X4234000Y7527830D01*
X4226000Y7518670D01*
X4216670Y7513170D01*
X4183330D01*
G01X4216670D02*
X4236670Y7460000D01*
G01X4264680Y7551670D02*
X4272680Y7562660D01*
X4282010Y7568170D01*
X4292680Y7570000D01*
X4306010Y7566330D01*
X4315340Y7557170D01*
X4318010Y7546170D01*
X4316680Y7535160D01*
X4311340Y7526000D01*
X4284680Y7507670D01*
X4272680Y7494830D01*
X4264680Y7476500D01*
X4262010Y7460000D01*
X4318010D01*
G01X4370020D02*
X4379350Y7461830D01*
X4390020Y7467330D01*
X4396690Y7476500D01*
X4399350Y7489330D01*
X4396690Y7502160D01*
X4388690Y7513170D01*
X4376690Y7518670D01*
X4363350D01*
X4355350Y7522330D01*
X4348690Y7531500D01*
X4346020Y7544330D01*
X4350020Y7557170D01*
X4359350Y7566330D01*
X4370020Y7570000D01*
X4380690Y7566330D01*
X4390020Y7557170D01*
X4394020Y7544330D01*
X4391350Y7531500D01*
X4384690Y7522330D01*
X4376690Y7518670D01*
X4363350D01*
X4351350Y7513170D01*
X4343350Y7502160D01*
X4340690Y7489330D01*
X4343350Y7476500D01*
X4350020Y7467330D01*
X4360690Y7461830D01*
X4370020Y7460000D01*
G01X4213330Y8120000D02*
Y8230000D01*
X4246670D01*
X4257330Y8224500D01*
X4264000Y8217170D01*
X4266670Y8202500D01*
X4264000Y8187830D01*
X4256000Y8178670D01*
X4246670Y8173170D01*
X4213330D01*
G01X4246670D02*
X4266670Y8120000D01*
G01X4293340D02*
Y8230000D01*
X4325340D01*
X4336010Y8224500D01*
X4344010Y8211670D01*
X4346680Y8197000D01*
X4344010Y8182330D01*
X4337340Y8171330D01*
X4325340Y8165830D01*
X4293340D01*
G01X4400020Y8120000D02*
Y8230000D01*
X4384020Y8208000D01*
G01Y8120000D02*
X4416020D01*
G01X5043330Y1510000D02*
Y1620000D01*
X5076670D01*
X5087330Y1614500D01*
X5094000Y1607170D01*
X5096670Y1592500D01*
X5094000Y1577830D01*
X5086000Y1568670D01*
X5076670Y1563170D01*
X5043330D01*
G01X5076670D02*
X5096670Y1510000D01*
G01X5120680Y1532000D02*
X5128680Y1519160D01*
X5139340Y1511830D01*
X5151340Y1510000D01*
X5162010Y1511830D01*
X5172680Y1521000D01*
X5179340Y1532000D01*
X5180680Y1543000D01*
X5178010Y1555830D01*
X5168680Y1565000D01*
X5159340Y1568670D01*
X5147340D01*
G01X5159340D02*
X5167340Y1574170D01*
X5174010Y1583330D01*
X5176680Y1594330D01*
X5174010Y1605330D01*
X5167340Y1614500D01*
X5155340Y1620000D01*
X5143340Y1618170D01*
X5131340Y1610830D01*
G01X5110000Y1900000D02*
Y1790000D01*
G01X5079330Y1900000D02*
X5140670D01*
G01X5163340Y1790000D02*
Y1900000D01*
X5195340D01*
X5206010Y1894500D01*
X5214010Y1881670D01*
X5216680Y1867000D01*
X5214010Y1852330D01*
X5207340Y1841330D01*
X5195340Y1835830D01*
X5163340D01*
G01X5270020Y1790000D02*
Y1900000D01*
X5254020Y1878000D01*
G01Y1790000D02*
X5286020D01*
G01X4979330Y3350830D02*
X4971330Y3356330D01*
X4962000Y3360000D01*
X4951330D01*
X4939330Y3354500D01*
X4930000Y3345330D01*
X4923330Y3334330D01*
X4918000Y3316000D01*
X4916670Y3299500D01*
X4919330Y3283000D01*
X4923330Y3272000D01*
X4931330Y3261000D01*
X4940670Y3253670D01*
X4950000Y3250000D01*
X4959330D01*
X4968670Y3253670D01*
X4976670Y3259160D01*
X4983330Y3266500D01*
G01X5027340Y3250000D02*
X5030010Y3273830D01*
X5034010Y3294000D01*
X5039340Y3312330D01*
X5046010Y3332500D01*
X5056680Y3360000D01*
X5003340D01*
G01X4936330Y4301600D02*
Y4411600D01*
X4969670D01*
X4980330Y4406100D01*
X4987000Y4398770D01*
X4989670Y4384100D01*
X4987000Y4369430D01*
X4979000Y4360270D01*
X4969670Y4354770D01*
X4936330D01*
G01X4969670D02*
X4989670Y4301600D01*
G01X5040340D02*
X5043010Y4325430D01*
X5047010Y4345600D01*
X5052340Y4363930D01*
X5059010Y4384100D01*
X5069680Y4411600D01*
X5016340D01*
G01X4943330Y5680000D02*
Y5790000D01*
X4976670D01*
X4987330Y5784500D01*
X4994000Y5777170D01*
X4996670Y5762500D01*
X4994000Y5747830D01*
X4986000Y5738670D01*
X4976670Y5733170D01*
X4943330D01*
G01X4976670D02*
X4996670Y5680000D01*
G01X5050010D02*
Y5790000D01*
X5034010Y5768000D01*
G01Y5680000D02*
X5066010D01*
G01X5100690Y5702000D02*
X5108690Y5689160D01*
X5119350Y5681830D01*
X5131350Y5680000D01*
X5142020Y5681830D01*
X5152690Y5691000D01*
X5159350Y5702000D01*
X5160690Y5713000D01*
X5158020Y5725830D01*
X5148690Y5735000D01*
X5139350Y5738670D01*
X5127350D01*
G01X5139350D02*
X5147350Y5744170D01*
X5154020Y5753330D01*
X5156690Y5764330D01*
X5154020Y5775330D01*
X5147350Y5784500D01*
X5135350Y5790000D01*
X5123350Y5788170D01*
X5111350Y5780830D01*
G01X4936330Y5221600D02*
Y5331600D01*
X4969670D01*
X4980330Y5326100D01*
X4987000Y5318770D01*
X4989670Y5304100D01*
X4987000Y5289430D01*
X4979000Y5280270D01*
X4969670Y5274770D01*
X4936330D01*
G01X4969670D02*
X4989670Y5221600D01*
G01X5013680Y5238100D02*
X5021680Y5228930D01*
X5031010Y5223430D01*
X5043010Y5221600D01*
X5055010Y5225270D01*
X5064340Y5232600D01*
X5071010Y5245430D01*
X5072340Y5260100D01*
X5069680Y5274770D01*
X5063010Y5283930D01*
X5053680Y5291270D01*
X5044340Y5293100D01*
X5035010Y5291270D01*
X5023010Y5283930D01*
X5027010Y5331600D01*
X5063010D01*
G01X4933330Y6040000D02*
Y6150000D01*
X4966670D01*
X4977330Y6144500D01*
X4984000Y6137170D01*
X4986670Y6122500D01*
X4984000Y6107830D01*
X4976000Y6098670D01*
X4966670Y6093170D01*
X4933330D01*
G01X4966670D02*
X4986670Y6040000D01*
G01X5040010D02*
Y6150000D01*
X5024010Y6128000D01*
G01Y6040000D02*
X5056010D01*
G01X5094690Y6131670D02*
X5102690Y6142660D01*
X5112020Y6148170D01*
X5122690Y6150000D01*
X5136020Y6146330D01*
X5145350Y6137170D01*
X5148020Y6126170D01*
X5146690Y6115160D01*
X5141350Y6106000D01*
X5114690Y6087670D01*
X5102690Y6074830D01*
X5094690Y6056500D01*
X5092020Y6040000D01*
X5148020D01*
G01X5009330Y5970830D02*
X5001330Y5976330D01*
X4992000Y5980000D01*
X4981330D01*
X4969330Y5974500D01*
X4960000Y5965330D01*
X4953330Y5954330D01*
X4948000Y5936000D01*
X4946670Y5919500D01*
X4949330Y5903000D01*
X4953330Y5892000D01*
X4961330Y5881000D01*
X4970670Y5873670D01*
X4980000Y5870000D01*
X4989330D01*
X4998670Y5873670D01*
X5006670Y5879160D01*
X5013330Y5886500D01*
G01X5076010Y5870000D02*
Y5980000D01*
X5026680Y5901170D01*
X5093340D01*
G01X4899330Y6600830D02*
X4891330Y6606330D01*
X4882000Y6610000D01*
X4871330D01*
X4859330Y6604500D01*
X4850000Y6595330D01*
X4843330Y6584330D01*
X4838000Y6566000D01*
X4836670Y6549500D01*
X4839330Y6533000D01*
X4843330Y6522000D01*
X4851330Y6511000D01*
X4860670Y6503670D01*
X4870000Y6500000D01*
X4879330D01*
X4888670Y6503670D01*
X4896670Y6509160D01*
X4903330Y6516500D01*
G01X4966010Y6500000D02*
Y6610000D01*
X4916680Y6531170D01*
X4983340D01*
G01X5030020Y6610000D02*
X5019350Y6606330D01*
X5011350Y6597170D01*
X5006020Y6586170D01*
X5002020Y6571500D01*
X5000690Y6555000D01*
X5002020Y6538500D01*
X5006020Y6523830D01*
X5011350Y6512830D01*
X5019350Y6503670D01*
X5030020Y6500000D01*
X5040690Y6503670D01*
X5048690Y6512830D01*
X5054020Y6523830D01*
X5058020Y6538500D01*
X5059350Y6555000D01*
X5058020Y6571500D01*
X5054020Y6586170D01*
X5048690Y6597170D01*
X5040690Y6606330D01*
X5030020Y6610000D01*
G01X4899330Y7000830D02*
X4891330Y7006330D01*
X4882000Y7010000D01*
X4871330D01*
X4859330Y7004500D01*
X4850000Y6995330D01*
X4843330Y6984330D01*
X4838000Y6966000D01*
X4836670Y6949500D01*
X4839330Y6933000D01*
X4843330Y6922000D01*
X4851330Y6911000D01*
X4860670Y6903670D01*
X4870000Y6900000D01*
X4879330D01*
X4888670Y6903670D01*
X4896670Y6909160D01*
X4903330Y6916500D01*
G01X4966010Y6900000D02*
Y7010000D01*
X4916680Y6931170D01*
X4983340D01*
G01X5000690Y6922000D02*
X5008690Y6909160D01*
X5019350Y6901830D01*
X5031350Y6900000D01*
X5042020Y6901830D01*
X5052690Y6911000D01*
X5059350Y6922000D01*
X5060690Y6933000D01*
X5058020Y6945830D01*
X5048690Y6955000D01*
X5039350Y6958670D01*
X5027350D01*
G01X5039350D02*
X5047350Y6964170D01*
X5054020Y6973330D01*
X5056690Y6984330D01*
X5054020Y6995330D01*
X5047350Y7004500D01*
X5035350Y7010000D01*
X5023350Y7008170D01*
X5011350Y7000830D01*
G01X4909330Y8420830D02*
X4901330Y8426330D01*
X4892000Y8430000D01*
X4881330D01*
X4869330Y8424500D01*
X4860000Y8415330D01*
X4853330Y8404330D01*
X4848000Y8386000D01*
X4846670Y8369500D01*
X4849330Y8353000D01*
X4853330Y8342000D01*
X4861330Y8331000D01*
X4870670Y8323670D01*
X4880000Y8320000D01*
X4889330D01*
X4898670Y8323670D01*
X4906670Y8329160D01*
X4913330Y8336500D01*
G01X4957340Y8320000D02*
X4960010Y8343830D01*
X4964010Y8364000D01*
X4969340Y8382330D01*
X4976010Y8402500D01*
X4986680Y8430000D01*
X4933340D01*
G01X5040020Y8320000D02*
X5049350Y8321830D01*
X5060020Y8327330D01*
X5066690Y8336500D01*
X5069350Y8349330D01*
X5066690Y8362160D01*
X5058690Y8373170D01*
X5046690Y8378670D01*
X5033350D01*
X5025350Y8382330D01*
X5018690Y8391500D01*
X5016020Y8404330D01*
X5020020Y8417170D01*
X5029350Y8426330D01*
X5040020Y8430000D01*
X5050690Y8426330D01*
X5060020Y8417170D01*
X5064020Y8404330D01*
X5061350Y8391500D01*
X5054690Y8382330D01*
X5046690Y8378670D01*
X5033350D01*
X5021350Y8373170D01*
X5013350Y8362160D01*
X5010690Y8349330D01*
X5013350Y8336500D01*
X5020020Y8327330D01*
X5030690Y8321830D01*
X5040020Y8320000D01*
G01X4774450Y8912750D02*
X4766450Y8918250D01*
X4757120Y8921920D01*
X4746450D01*
X4734450Y8916420D01*
X4725120Y8907250D01*
X4718450Y8896250D01*
X4713120Y8877920D01*
X4711790Y8861420D01*
X4714450Y8844920D01*
X4718450Y8833920D01*
X4726450Y8822920D01*
X4735790Y8815590D01*
X4745120Y8811920D01*
X4754450D01*
X4763790Y8815590D01*
X4771790Y8821080D01*
X4778450Y8828420D01*
G01X4795800Y8833920D02*
X4803800Y8821080D01*
X4814460Y8813750D01*
X4826460Y8811920D01*
X4837130Y8813750D01*
X4847800Y8822920D01*
X4854460Y8833920D01*
X4855800Y8844920D01*
X4853130Y8857750D01*
X4843800Y8866920D01*
X4834460Y8870590D01*
X4822460D01*
G01X4834460D02*
X4842460Y8876090D01*
X4849130Y8885250D01*
X4851800Y8896250D01*
X4849130Y8907250D01*
X4842460Y8916420D01*
X4830460Y8921920D01*
X4818460Y8920090D01*
X4806460Y8912750D01*
G01X4879810Y8857750D02*
X4889140Y8870590D01*
X4897140Y8877920D01*
X4907810Y8881590D01*
X4917140Y8877920D01*
X4923810Y8870590D01*
X4929140Y8859590D01*
X4930470Y8846750D01*
X4929140Y8835750D01*
X4923810Y8824750D01*
X4915810Y8815590D01*
X4906470Y8811920D01*
X4895810Y8815590D01*
X4886470Y8826580D01*
X4881140Y8843090D01*
X4879810Y8861420D01*
X4882470Y8885250D01*
X4886470Y8898090D01*
X4893140Y8910920D01*
X4902470Y8920090D01*
X4911810Y8921920D01*
X4921140Y8918250D01*
X4927810Y8909090D01*
G01X4774450Y8632750D02*
X4766450Y8638250D01*
X4757120Y8641920D01*
X4746450D01*
X4734450Y8636420D01*
X4725120Y8627250D01*
X4718450Y8616250D01*
X4713120Y8597920D01*
X4711790Y8581420D01*
X4714450Y8564920D01*
X4718450Y8553920D01*
X4726450Y8542920D01*
X4735790Y8535590D01*
X4745120Y8531920D01*
X4754450D01*
X4763790Y8535590D01*
X4771790Y8541080D01*
X4778450Y8548420D01*
G01X4795800Y8553920D02*
X4803800Y8541080D01*
X4814460Y8533750D01*
X4826460Y8531920D01*
X4837130Y8533750D01*
X4847800Y8542920D01*
X4854460Y8553920D01*
X4855800Y8564920D01*
X4853130Y8577750D01*
X4843800Y8586920D01*
X4834460Y8590590D01*
X4822460D01*
G01X4834460D02*
X4842460Y8596090D01*
X4849130Y8605250D01*
X4851800Y8616250D01*
X4849130Y8627250D01*
X4842460Y8636420D01*
X4830460Y8641920D01*
X4818460Y8640090D01*
X4806460Y8632750D01*
G01X4875810Y8548420D02*
X4883810Y8539250D01*
X4893140Y8533750D01*
X4905140Y8531920D01*
X4917140Y8535590D01*
X4926470Y8542920D01*
X4933140Y8555750D01*
X4934470Y8570420D01*
X4931810Y8585090D01*
X4925140Y8594250D01*
X4915810Y8601590D01*
X4906470Y8603420D01*
X4897140Y8601590D01*
X4885140Y8594250D01*
X4889140Y8641920D01*
X4925140D01*
G01X4689330Y9990830D02*
X4681330Y9996330D01*
X4672000Y10000000D01*
X4661330D01*
X4649330Y9994500D01*
X4640000Y9985330D01*
X4633330Y9974330D01*
X4628000Y9956000D01*
X4626670Y9939500D01*
X4629330Y9923000D01*
X4633330Y9912000D01*
X4641330Y9901000D01*
X4650670Y9893670D01*
X4660000Y9890000D01*
X4669330D01*
X4678670Y9893670D01*
X4686670Y9899160D01*
X4693330Y9906500D01*
G01X4737340Y9890000D02*
X4740010Y9913830D01*
X4744010Y9934000D01*
X4749340Y9952330D01*
X4756010Y9972500D01*
X4766680Y10000000D01*
X4713340D01*
G01X4790690Y9906500D02*
X4798690Y9897330D01*
X4808020Y9891830D01*
X4820020Y9890000D01*
X4832020Y9893670D01*
X4841350Y9901000D01*
X4848020Y9913830D01*
X4849350Y9928500D01*
X4846690Y9943170D01*
X4840020Y9952330D01*
X4830690Y9959670D01*
X4821350Y9961500D01*
X4812020Y9959670D01*
X4800020Y9952330D01*
X4804020Y10000000D01*
X4840020D01*
G01X4739330Y11000830D02*
X4731330Y11006330D01*
X4722000Y11010000D01*
X4711330D01*
X4699330Y11004500D01*
X4690000Y10995330D01*
X4683330Y10984330D01*
X4678000Y10966000D01*
X4676670Y10949500D01*
X4679330Y10933000D01*
X4683330Y10922000D01*
X4691330Y10911000D01*
X4700670Y10903670D01*
X4710000Y10900000D01*
X4719330D01*
X4728670Y10903670D01*
X4736670Y10909160D01*
X4743330Y10916500D01*
G01X4787340Y10900000D02*
X4790010Y10923830D01*
X4794010Y10944000D01*
X4799340Y10962330D01*
X4806010Y10982500D01*
X4816680Y11010000D01*
X4763340D01*
G01X4844690Y10945830D02*
X4854020Y10958670D01*
X4862020Y10966000D01*
X4872690Y10969670D01*
X4882020Y10966000D01*
X4888690Y10958670D01*
X4894020Y10947670D01*
X4895350Y10934830D01*
X4894020Y10923830D01*
X4888690Y10912830D01*
X4880690Y10903670D01*
X4871350Y10900000D01*
X4860690Y10903670D01*
X4851350Y10914660D01*
X4846020Y10931170D01*
X4844690Y10949500D01*
X4847350Y10973330D01*
X4851350Y10986170D01*
X4858020Y10999000D01*
X4867350Y11008170D01*
X4876690Y11010000D01*
X4886020Y11006330D01*
X4892690Y10997170D01*
G01X4806670Y13590000D02*
X4840000Y13480000D01*
X4873330Y13590000D01*
G01X4892010Y13494660D02*
X4902680Y13485500D01*
X4914680Y13480000D01*
X4925340D01*
X4936010Y13485500D01*
X4944010Y13494660D01*
X4948010Y13507500D01*
X4945340Y13520330D01*
X4938680Y13531330D01*
X4926680Y13538670D01*
X4910680Y13542330D01*
X4901340Y13549670D01*
X4897340Y13562500D01*
X4900010Y13575330D01*
X4906680Y13584500D01*
X4916010Y13590000D01*
X4925340D01*
X4934680Y13586330D01*
X4942680Y13577170D01*
G01X4973350Y13480000D02*
Y13590000D01*
X5006690D01*
X5017350Y13584500D01*
X5024020Y13577170D01*
X5026690Y13562500D01*
X5024020Y13547830D01*
X5016020Y13538670D01*
X5006690Y13533170D01*
X4973350D01*
G01X5006690D02*
X5026690Y13480000D01*
G01X5050700Y13502000D02*
X5058700Y13489160D01*
X5069360Y13481830D01*
X5081360Y13480000D01*
X5092030Y13481830D01*
X5102700Y13491000D01*
X5109360Y13502000D01*
X5110700Y13513000D01*
X5108030Y13525830D01*
X5098700Y13535000D01*
X5089360Y13538670D01*
X5077360D01*
G01X5089360D02*
X5097360Y13544170D01*
X5104030Y13553330D01*
X5106700Y13564330D01*
X5104030Y13575330D01*
X5097360Y13584500D01*
X5085360Y13590000D01*
X5073360Y13588170D01*
X5061360Y13580830D01*
G01X5530660Y2960000D02*
Y2881170D01*
X5535990Y2864660D01*
X5546660Y2853670D01*
X5559990Y2850000D01*
X5573320Y2853670D01*
X5583990Y2864660D01*
X5589320Y2881170D01*
Y2960000D01*
G01X5637330Y2850000D02*
X5640000Y2873830D01*
X5644000Y2894000D01*
X5649330Y2912330D01*
X5656000Y2932500D01*
X5666670Y2960000D01*
X5613330D01*
G01X5260000Y3640000D02*
Y3689500D01*
X5233330Y3750000D01*
G01X5286670D02*
X5260000Y3689500D01*
G01X5340010Y3640000D02*
Y3750000D01*
X5324010Y3728000D01*
G01Y3640000D02*
X5356010D01*
G01X5190670Y4530000D02*
Y4451170D01*
X5196000Y4434660D01*
X5206670Y4423670D01*
X5220000Y4420000D01*
X5233330Y4423670D01*
X5244000Y4434660D01*
X5249330Y4451170D01*
Y4530000D01*
G01X5274680Y4511670D02*
X5282680Y4522660D01*
X5292010Y4528170D01*
X5302680Y4530000D01*
X5316010Y4526330D01*
X5325340Y4517170D01*
X5328010Y4506170D01*
X5326680Y4495160D01*
X5321340Y4486000D01*
X5294680Y4467670D01*
X5282680Y4454830D01*
X5274680Y4436500D01*
X5272010Y4420000D01*
X5328010D01*
G01X5481270Y5344800D02*
Y5265970D01*
X5486600Y5249460D01*
X5497270Y5238470D01*
X5510600Y5234800D01*
X5523930Y5238470D01*
X5534600Y5249460D01*
X5539930Y5265970D01*
Y5344800D01*
G01X5561280Y5256800D02*
X5569280Y5243960D01*
X5579940Y5236630D01*
X5591940Y5234800D01*
X5602610Y5236630D01*
X5613280Y5245800D01*
X5619940Y5256800D01*
X5621280Y5267800D01*
X5618610Y5280630D01*
X5609280Y5289800D01*
X5599940Y5293470D01*
X5587940D01*
G01X5599940D02*
X5607940Y5298970D01*
X5614610Y5308130D01*
X5617280Y5319130D01*
X5614610Y5330130D01*
X5607940Y5339300D01*
X5595940Y5344800D01*
X5583940Y5342970D01*
X5571940Y5335630D01*
G01X5560670Y6350000D02*
Y6271170D01*
X5566000Y6254660D01*
X5576670Y6243670D01*
X5590000Y6240000D01*
X5603330Y6243670D01*
X5614000Y6254660D01*
X5619330Y6271170D01*
Y6350000D01*
G01X5686010Y6240000D02*
Y6350000D01*
X5636680Y6271170D01*
X5703340D01*
G01X5180000Y6440000D02*
Y6330000D01*
G01X5149330Y6440000D02*
X5210670D01*
G01X5233340Y6330000D02*
Y6440000D01*
X5265340D01*
X5276010Y6434500D01*
X5284010Y6421670D01*
X5286680Y6407000D01*
X5284010Y6392330D01*
X5277340Y6381330D01*
X5265340Y6375830D01*
X5233340D01*
G01X5314690Y6421670D02*
X5322690Y6432660D01*
X5332020Y6438170D01*
X5342690Y6440000D01*
X5356020Y6436330D01*
X5365350Y6427170D01*
X5368020Y6416170D01*
X5366690Y6405160D01*
X5361350Y6396000D01*
X5334690Y6377670D01*
X5322690Y6364830D01*
X5314690Y6346500D01*
X5312020Y6330000D01*
X5368020D01*
G01X5180000Y6830000D02*
Y6720000D01*
G01X5149330Y6830000D02*
X5210670D01*
G01X5233340Y6720000D02*
Y6830000D01*
X5265340D01*
X5276010Y6824500D01*
X5284010Y6811670D01*
X5286680Y6797000D01*
X5284010Y6782330D01*
X5277340Y6771330D01*
X5265340Y6765830D01*
X5233340D01*
G01X5310690Y6742000D02*
X5318690Y6729160D01*
X5329350Y6721830D01*
X5341350Y6720000D01*
X5352020Y6721830D01*
X5362690Y6731000D01*
X5369350Y6742000D01*
X5370690Y6753000D01*
X5368020Y6765830D01*
X5358690Y6775000D01*
X5349350Y6778670D01*
X5337350D01*
G01X5349350D02*
X5357350Y6784170D01*
X5364020Y6793330D01*
X5366690Y6804330D01*
X5364020Y6815330D01*
X5357350Y6824500D01*
X5345350Y6830000D01*
X5333350Y6828170D01*
X5321350Y6820830D01*
G01X5393330Y8010000D02*
Y8120000D01*
X5426670D01*
X5437330Y8114500D01*
X5444000Y8107170D01*
X5446670Y8092500D01*
X5444000Y8077830D01*
X5436000Y8068670D01*
X5426670Y8063170D01*
X5393330D01*
G01X5426670D02*
X5446670Y8010000D01*
G01X5470680Y8026500D02*
X5478680Y8017330D01*
X5488010Y8011830D01*
X5500010Y8010000D01*
X5512010Y8013670D01*
X5521340Y8021000D01*
X5528010Y8033830D01*
X5529340Y8048500D01*
X5526680Y8063170D01*
X5520010Y8072330D01*
X5510680Y8079670D01*
X5501340Y8081500D01*
X5492010Y8079670D01*
X5480010Y8072330D01*
X5484010Y8120000D01*
X5520010D01*
G01X5580020Y8010000D02*
X5589350Y8011830D01*
X5600020Y8017330D01*
X5606690Y8026500D01*
X5609350Y8039330D01*
X5606690Y8052160D01*
X5598690Y8063170D01*
X5586690Y8068670D01*
X5573350D01*
X5565350Y8072330D01*
X5558690Y8081500D01*
X5556020Y8094330D01*
X5560020Y8107170D01*
X5569350Y8116330D01*
X5580020Y8120000D01*
X5590690Y8116330D01*
X5600020Y8107170D01*
X5604020Y8094330D01*
X5601350Y8081500D01*
X5594690Y8072330D01*
X5586690Y8068670D01*
X5573350D01*
X5561350Y8063170D01*
X5553350Y8052160D01*
X5550690Y8039330D01*
X5553350Y8026500D01*
X5560020Y8017330D01*
X5570690Y8011830D01*
X5580020Y8010000D01*
G01X5393330Y9200000D02*
Y9090000D01*
X5446670D01*
G01X5497340D02*
X5500010Y9113830D01*
X5504010Y9134000D01*
X5509340Y9152330D01*
X5516010Y9172500D01*
X5526680Y9200000D01*
X5473340D01*
G01X5343330Y9930000D02*
Y10040000D01*
X5376670D01*
X5387330Y10034500D01*
X5394000Y10027170D01*
X5396670Y10012500D01*
X5394000Y9997830D01*
X5386000Y9988670D01*
X5376670Y9983170D01*
X5343330D01*
G01X5376670D02*
X5396670Y9930000D01*
G01X5420680Y9946500D02*
X5428680Y9937330D01*
X5438010Y9931830D01*
X5450010Y9930000D01*
X5462010Y9933670D01*
X5471340Y9941000D01*
X5478010Y9953830D01*
X5479340Y9968500D01*
X5476680Y9983170D01*
X5470010Y9992330D01*
X5460680Y9999670D01*
X5451340Y10001500D01*
X5442010Y9999670D01*
X5430010Y9992330D01*
X5434010Y10040000D01*
X5470010D01*
G01X5504690Y10021670D02*
X5512690Y10032660D01*
X5522020Y10038170D01*
X5532690Y10040000D01*
X5546020Y10036330D01*
X5555350Y10027170D01*
X5558020Y10016170D01*
X5556690Y10005160D01*
X5551350Y9996000D01*
X5524690Y9977670D01*
X5512690Y9964830D01*
X5504690Y9946500D01*
X5502020Y9930000D01*
X5558020D01*
G01X5399330Y10170830D02*
X5391330Y10176330D01*
X5382000Y10180000D01*
X5371330D01*
X5359330Y10174500D01*
X5350000Y10165330D01*
X5343330Y10154330D01*
X5338000Y10136000D01*
X5336670Y10119500D01*
X5339330Y10103000D01*
X5343330Y10092000D01*
X5351330Y10081000D01*
X5360670Y10073670D01*
X5370000Y10070000D01*
X5379330D01*
X5388670Y10073670D01*
X5396670Y10079160D01*
X5403330Y10086500D01*
G01X5447340Y10070000D02*
X5450010Y10093830D01*
X5454010Y10114000D01*
X5459340Y10132330D01*
X5466010Y10152500D01*
X5476680Y10180000D01*
X5423340D01*
G01X5527350Y10070000D02*
X5530020Y10093830D01*
X5534020Y10114000D01*
X5539350Y10132330D01*
X5546020Y10152500D01*
X5556690Y10180000D01*
X5503350D01*
G01X5573330Y11050000D02*
Y10940000D01*
X5626670D01*
G01X5654680Y10985830D02*
X5664010Y10998670D01*
X5672010Y11006000D01*
X5682680Y11009670D01*
X5692010Y11006000D01*
X5698680Y10998670D01*
X5704010Y10987670D01*
X5705340Y10974830D01*
X5704010Y10963830D01*
X5698680Y10952830D01*
X5690680Y10943670D01*
X5681340Y10940000D01*
X5670680Y10943670D01*
X5661340Y10954660D01*
X5656010Y10971170D01*
X5654680Y10989500D01*
X5657340Y11013330D01*
X5661340Y11026170D01*
X5668010Y11039000D01*
X5677340Y11048170D01*
X5686680Y11050000D01*
X5696010Y11046330D01*
X5702680Y11037170D01*
G01X5410670Y13330000D02*
Y13440000D01*
X5437330D01*
X5448000Y13434500D01*
X5456000Y13427170D01*
X5462670Y13416170D01*
X5468000Y13403330D01*
X5469330Y13385000D01*
X5468000Y13366670D01*
X5462670Y13353830D01*
X5456000Y13342830D01*
X5448000Y13335500D01*
X5437330Y13330000D01*
X5410670D01*
G01X5490680Y13352000D02*
X5498680Y13339160D01*
X5509340Y13331830D01*
X5521340Y13330000D01*
X5532010Y13331830D01*
X5542680Y13341000D01*
X5549340Y13352000D01*
X5550680Y13363000D01*
X5548010Y13375830D01*
X5538680Y13385000D01*
X5529340Y13388670D01*
X5517340D01*
G01X5529340D02*
X5537340Y13394170D01*
X5544010Y13403330D01*
X5546680Y13414330D01*
X5544010Y13425330D01*
X5537340Y13434500D01*
X5525340Y13440000D01*
X5513340Y13438170D01*
X5501340Y13430830D01*
G01X5760670Y6380000D02*
Y6301170D01*
X5766000Y6284660D01*
X5776670Y6273670D01*
X5790000Y6270000D01*
X5803330Y6273670D01*
X5814000Y6284660D01*
X5819330Y6301170D01*
Y6380000D01*
G01X5870010Y6270000D02*
Y6380000D01*
X5854010Y6358000D01*
G01Y6270000D02*
X5886010D01*
G01X5950020Y6380000D02*
X5939350Y6376330D01*
X5931350Y6367170D01*
X5926020Y6356170D01*
X5922020Y6341500D01*
X5920690Y6325000D01*
X5922020Y6308500D01*
X5926020Y6293830D01*
X5931350Y6282830D01*
X5939350Y6273670D01*
X5950020Y6270000D01*
X5960690Y6273670D01*
X5968690Y6282830D01*
X5974020Y6293830D01*
X5978020Y6308500D01*
X5979350Y6325000D01*
X5978020Y6341500D01*
X5974020Y6356170D01*
X5968690Y6367170D01*
X5960690Y6376330D01*
X5950020Y6380000D01*
G01X5730670Y7260000D02*
Y7181170D01*
X5736000Y7164660D01*
X5746670Y7153670D01*
X5760000Y7150000D01*
X5773330Y7153670D01*
X5784000Y7164660D01*
X5789330Y7181170D01*
Y7260000D01*
G01X5840010Y7150000D02*
Y7260000D01*
X5824010Y7238000D01*
G01Y7150000D02*
X5856010D01*
G01X5920020D02*
Y7260000D01*
X5904020Y7238000D01*
G01Y7150000D02*
X5936020D01*
G01X5733330Y8300000D02*
Y8410000D01*
X5766670D01*
X5777330Y8404500D01*
X5784000Y8397170D01*
X5786670Y8382500D01*
X5784000Y8367830D01*
X5776000Y8358670D01*
X5766670Y8353170D01*
X5733330D01*
G01X5766670D02*
X5786670Y8300000D01*
G01X5814680Y8345830D02*
X5824010Y8358670D01*
X5832010Y8366000D01*
X5842680Y8369670D01*
X5852010Y8366000D01*
X5858680Y8358670D01*
X5864010Y8347670D01*
X5865340Y8334830D01*
X5864010Y8323830D01*
X5858680Y8312830D01*
X5850680Y8303670D01*
X5841340Y8300000D01*
X5830680Y8303670D01*
X5821340Y8314660D01*
X5816010Y8331170D01*
X5814680Y8349500D01*
X5817340Y8373330D01*
X5821340Y8386170D01*
X5828010Y8399000D01*
X5837340Y8408170D01*
X5846680Y8410000D01*
X5856010Y8406330D01*
X5862680Y8397170D01*
G01X5920020Y8410000D02*
X5909350Y8406330D01*
X5901350Y8397170D01*
X5896020Y8386170D01*
X5892020Y8371500D01*
X5890690Y8355000D01*
X5892020Y8338500D01*
X5896020Y8323830D01*
X5901350Y8312830D01*
X5909350Y8303670D01*
X5920020Y8300000D01*
X5930690Y8303670D01*
X5938690Y8312830D01*
X5944020Y8323830D01*
X5948020Y8338500D01*
X5949350Y8355000D01*
X5948020Y8371500D01*
X5944020Y8386170D01*
X5938690Y8397170D01*
X5930690Y8406330D01*
X5920020Y8410000D01*
G01X5733330Y8150000D02*
Y8260000D01*
X5766670D01*
X5777330Y8254500D01*
X5784000Y8247170D01*
X5786670Y8232500D01*
X5784000Y8217830D01*
X5776000Y8208670D01*
X5766670Y8203170D01*
X5733330D01*
G01X5766670D02*
X5786670Y8150000D01*
G01X5810680Y8166500D02*
X5818680Y8157330D01*
X5828010Y8151830D01*
X5840010Y8150000D01*
X5852010Y8153670D01*
X5861340Y8161000D01*
X5868010Y8173830D01*
X5869340Y8188500D01*
X5866680Y8203170D01*
X5860010Y8212330D01*
X5850680Y8219670D01*
X5841340Y8221500D01*
X5832010Y8219670D01*
X5820010Y8212330D01*
X5824010Y8260000D01*
X5860010D01*
G01X5897350Y8162830D02*
X5906690Y8153670D01*
X5917350Y8150000D01*
X5928020Y8153670D01*
X5937350Y8164660D01*
X5944020Y8181170D01*
X5946690Y8197670D01*
Y8217830D01*
X5944020Y8234330D01*
X5937350Y8249000D01*
X5929350Y8256330D01*
X5920020Y8260000D01*
X5909350Y8256330D01*
X5901350Y8249000D01*
X5896020Y8238000D01*
X5893350Y8223330D01*
X5896020Y8210500D01*
X5902690Y8197670D01*
X5910690Y8190330D01*
X5920020Y8188500D01*
X5930690Y8192160D01*
X5938690Y8201330D01*
X5946690Y8217830D01*
G01X5723330Y9420000D02*
Y9530000D01*
X5756670D01*
X5767330Y9524500D01*
X5774000Y9517170D01*
X5776670Y9502500D01*
X5774000Y9487830D01*
X5766000Y9478670D01*
X5756670Y9473170D01*
X5723330D01*
G01X5756670D02*
X5776670Y9420000D01*
G01X5846010D02*
Y9530000D01*
X5796680Y9451170D01*
X5863340D01*
G01X5887350Y9432830D02*
X5896690Y9423670D01*
X5907350Y9420000D01*
X5918020Y9423670D01*
X5927350Y9434660D01*
X5934020Y9451170D01*
X5936690Y9467670D01*
Y9487830D01*
X5934020Y9504330D01*
X5927350Y9519000D01*
X5919350Y9526330D01*
X5910020Y9530000D01*
X5899350Y9526330D01*
X5891350Y9519000D01*
X5886020Y9508000D01*
X5883350Y9493330D01*
X5886020Y9480500D01*
X5892690Y9467670D01*
X5900690Y9460330D01*
X5910020Y9458500D01*
X5920690Y9462160D01*
X5928690Y9471330D01*
X5936690Y9487830D01*
G01X5723330Y9280000D02*
Y9390000D01*
X5756670D01*
X5767330Y9384500D01*
X5774000Y9377170D01*
X5776670Y9362500D01*
X5774000Y9347830D01*
X5766000Y9338670D01*
X5756670Y9333170D01*
X5723330D01*
G01X5756670D02*
X5776670Y9280000D01*
G01X5800680Y9296500D02*
X5808680Y9287330D01*
X5818010Y9281830D01*
X5830010Y9280000D01*
X5842010Y9283670D01*
X5851340Y9291000D01*
X5858010Y9303830D01*
X5859340Y9318500D01*
X5856680Y9333170D01*
X5850010Y9342330D01*
X5840680Y9349670D01*
X5831340Y9351500D01*
X5822010Y9349670D01*
X5810010Y9342330D01*
X5814010Y9390000D01*
X5850010D01*
G01X5910020Y9280000D02*
Y9390000D01*
X5894020Y9368000D01*
G01Y9280000D02*
X5926020D01*
G01X5743330Y10030000D02*
Y10140000D01*
X5776670D01*
X5787330Y10134500D01*
X5794000Y10127170D01*
X5796670Y10112500D01*
X5794000Y10097830D01*
X5786000Y10088670D01*
X5776670Y10083170D01*
X5743330D01*
G01X5776670D02*
X5796670Y10030000D01*
G01X5820680Y10046500D02*
X5828680Y10037330D01*
X5838010Y10031830D01*
X5850010Y10030000D01*
X5862010Y10033670D01*
X5871340Y10041000D01*
X5878010Y10053830D01*
X5879340Y10068500D01*
X5876680Y10083170D01*
X5870010Y10092330D01*
X5860680Y10099670D01*
X5851340Y10101500D01*
X5842010Y10099670D01*
X5830010Y10092330D01*
X5834010Y10140000D01*
X5870010D01*
G01X5946020Y10030000D02*
Y10140000D01*
X5896690Y10061170D01*
X5963350D01*
G01X5779330Y9670830D02*
X5771330Y9676330D01*
X5762000Y9680000D01*
X5751330D01*
X5739330Y9674500D01*
X5730000Y9665330D01*
X5723330Y9654330D01*
X5718000Y9636000D01*
X5716670Y9619500D01*
X5719330Y9603000D01*
X5723330Y9592000D01*
X5731330Y9581000D01*
X5740670Y9573670D01*
X5750000Y9570000D01*
X5759330D01*
X5768670Y9573670D01*
X5776670Y9579160D01*
X5783330Y9586500D01*
G01X5800680Y9592000D02*
X5808680Y9579160D01*
X5819340Y9571830D01*
X5831340Y9570000D01*
X5842010Y9571830D01*
X5852680Y9581000D01*
X5859340Y9592000D01*
X5860680Y9603000D01*
X5858010Y9615830D01*
X5848680Y9625000D01*
X5839340Y9628670D01*
X5827340D01*
G01X5839340D02*
X5847340Y9634170D01*
X5854010Y9643330D01*
X5856680Y9654330D01*
X5854010Y9665330D01*
X5847340Y9674500D01*
X5835340Y9680000D01*
X5823340Y9678170D01*
X5811340Y9670830D01*
G01X5880690Y9592000D02*
X5888690Y9579160D01*
X5899350Y9571830D01*
X5911350Y9570000D01*
X5922020Y9571830D01*
X5932690Y9581000D01*
X5939350Y9592000D01*
X5940690Y9603000D01*
X5938020Y9615830D01*
X5928690Y9625000D01*
X5919350Y9628670D01*
X5907350D01*
G01X5919350D02*
X5927350Y9634170D01*
X5934020Y9643330D01*
X5936690Y9654330D01*
X5934020Y9665330D01*
X5927350Y9674500D01*
X5915350Y9680000D01*
X5903350Y9678170D01*
X5891350Y9670830D01*
G01X6453330Y652000D02*
X6460000Y641000D01*
X6468000Y633670D01*
X6477330Y630000D01*
X6488000Y633670D01*
X6496000Y641000D01*
X6504000Y652000D01*
X6506670Y666670D01*
Y740000D01*
G01X6557340Y630000D02*
X6560010Y653830D01*
X6564010Y674000D01*
X6569340Y692330D01*
X6576010Y712500D01*
X6586680Y740000D01*
X6533340D01*
G01X6349330Y2960830D02*
X6341330Y2966330D01*
X6332000Y2970000D01*
X6321330D01*
X6309330Y2964500D01*
X6300000Y2955330D01*
X6293330Y2944330D01*
X6288000Y2926000D01*
X6286670Y2909500D01*
X6289330Y2893000D01*
X6293330Y2882000D01*
X6301330Y2871000D01*
X6310670Y2863670D01*
X6320000Y2860000D01*
X6329330D01*
X6338670Y2863670D01*
X6346670Y2869160D01*
X6353330Y2876500D01*
G01X6374680Y2951670D02*
X6382680Y2962660D01*
X6392010Y2968170D01*
X6402680Y2970000D01*
X6416010Y2966330D01*
X6425340Y2957170D01*
X6428010Y2946170D01*
X6426680Y2935160D01*
X6421340Y2926000D01*
X6394680Y2907670D01*
X6382680Y2894830D01*
X6374680Y2876500D01*
X6372010Y2860000D01*
X6428010D01*
G01X6454690Y2905830D02*
X6464020Y2918670D01*
X6472020Y2926000D01*
X6482690Y2929670D01*
X6492020Y2926000D01*
X6498690Y2918670D01*
X6504020Y2907670D01*
X6505350Y2894830D01*
X6504020Y2883830D01*
X6498690Y2872830D01*
X6490690Y2863670D01*
X6481350Y2860000D01*
X6470690Y2863670D01*
X6461350Y2874660D01*
X6456020Y2891170D01*
X6454690Y2909500D01*
X6457350Y2933330D01*
X6461350Y2946170D01*
X6468020Y2959000D01*
X6477350Y2968170D01*
X6486690Y2970000D01*
X6496020Y2966330D01*
X6502690Y2957170D01*
G01X6626330Y3561600D02*
Y3671600D01*
X6659670D01*
X6670330Y3666100D01*
X6677000Y3658770D01*
X6679670Y3644100D01*
X6677000Y3629430D01*
X6669000Y3620270D01*
X6659670Y3614770D01*
X6626330D01*
G01X6659670D02*
X6679670Y3561600D01*
G01X6707680Y3653270D02*
X6715680Y3664260D01*
X6725010Y3669770D01*
X6735680Y3671600D01*
X6749010Y3667930D01*
X6758340Y3658770D01*
X6761010Y3647770D01*
X6759680Y3636760D01*
X6754340Y3627600D01*
X6727680Y3609270D01*
X6715680Y3596430D01*
X6707680Y3578100D01*
X6705010Y3561600D01*
X6761010D01*
G01X6787690Y3653270D02*
X6795690Y3664260D01*
X6805020Y3669770D01*
X6815690Y3671600D01*
X6829020Y3667930D01*
X6838350Y3658770D01*
X6841020Y3647770D01*
X6839690Y3636760D01*
X6834350Y3627600D01*
X6807690Y3609270D01*
X6795690Y3596430D01*
X6787690Y3578100D01*
X6785020Y3561600D01*
X6841020D01*
G01X6626330Y3711600D02*
Y3821600D01*
X6659670D01*
X6670330Y3816100D01*
X6677000Y3808770D01*
X6679670Y3794100D01*
X6677000Y3779430D01*
X6669000Y3770270D01*
X6659670Y3764770D01*
X6626330D01*
G01X6659670D02*
X6679670Y3711600D01*
G01X6707680Y3803270D02*
X6715680Y3814260D01*
X6725010Y3819770D01*
X6735680Y3821600D01*
X6749010Y3817930D01*
X6758340Y3808770D01*
X6761010Y3797770D01*
X6759680Y3786760D01*
X6754340Y3777600D01*
X6727680Y3759270D01*
X6715680Y3746430D01*
X6707680Y3728100D01*
X6705010Y3711600D01*
X6761010D01*
G01X6813020D02*
Y3821600D01*
X6797020Y3799600D01*
G01Y3711600D02*
X6829020D01*
G01X6680330Y4008400D02*
Y4118400D01*
X6713670D01*
X6724330Y4112900D01*
X6731000Y4105570D01*
X6733670Y4090900D01*
X6731000Y4076230D01*
X6723000Y4067070D01*
X6713670Y4061570D01*
X6680330D01*
G01X6713670D02*
X6733670Y4008400D01*
G01X6764340Y4021230D02*
X6773680Y4012070D01*
X6784340Y4008400D01*
X6795010Y4012070D01*
X6804340Y4023060D01*
X6811010Y4039570D01*
X6813680Y4056070D01*
Y4076230D01*
X6811010Y4092730D01*
X6804340Y4107400D01*
X6796340Y4114730D01*
X6787010Y4118400D01*
X6776340Y4114730D01*
X6768340Y4107400D01*
X6763010Y4096400D01*
X6760340Y4081730D01*
X6763010Y4068900D01*
X6769680Y4056070D01*
X6777680Y4048730D01*
X6787010Y4046900D01*
X6797680Y4050560D01*
X6805680Y4059730D01*
X6813680Y4076230D01*
G01X6673330Y4310000D02*
Y4420000D01*
X6706670D01*
X6717330Y4414500D01*
X6724000Y4407170D01*
X6726670Y4392500D01*
X6724000Y4377830D01*
X6716000Y4368670D01*
X6706670Y4363170D01*
X6673330D01*
G01X6706670D02*
X6726670Y4310000D01*
G01X6796010D02*
Y4420000D01*
X6746680Y4341170D01*
X6813340D01*
G01X6680330Y4158400D02*
Y4268400D01*
X6713670D01*
X6724330Y4262900D01*
X6731000Y4255570D01*
X6733670Y4240900D01*
X6731000Y4226230D01*
X6723000Y4217070D01*
X6713670Y4211570D01*
X6680330D01*
G01X6713670D02*
X6733670Y4158400D01*
G01X6787010D02*
X6796340Y4160230D01*
X6807010Y4165730D01*
X6813680Y4174900D01*
X6816340Y4187730D01*
X6813680Y4200560D01*
X6805680Y4211570D01*
X6793680Y4217070D01*
X6780340D01*
X6772340Y4220730D01*
X6765680Y4229900D01*
X6763010Y4242730D01*
X6767010Y4255570D01*
X6776340Y4264730D01*
X6787010Y4268400D01*
X6797680Y4264730D01*
X6807010Y4255570D01*
X6811010Y4242730D01*
X6808340Y4229900D01*
X6801680Y4220730D01*
X6793680Y4217070D01*
X6780340D01*
X6768340Y4211570D01*
X6760340Y4200560D01*
X6757680Y4187730D01*
X6760340Y4174900D01*
X6767010Y4165730D01*
X6777680Y4160230D01*
X6787010Y4158400D01*
G01X6729330Y4570830D02*
X6721330Y4576330D01*
X6712000Y4580000D01*
X6701330D01*
X6689330Y4574500D01*
X6680000Y4565330D01*
X6673330Y4554330D01*
X6668000Y4536000D01*
X6666670Y4519500D01*
X6669330Y4503000D01*
X6673330Y4492000D01*
X6681330Y4481000D01*
X6690670Y4473670D01*
X6700000Y4470000D01*
X6709330D01*
X6718670Y4473670D01*
X6726670Y4479160D01*
X6733330Y4486500D01*
G01X6750680Y4492000D02*
X6758680Y4479160D01*
X6769340Y4471830D01*
X6781340Y4470000D01*
X6792010Y4471830D01*
X6802680Y4481000D01*
X6809340Y4492000D01*
X6810680Y4503000D01*
X6808010Y4515830D01*
X6798680Y4525000D01*
X6789340Y4528670D01*
X6777340D01*
G01X6789340D02*
X6797340Y4534170D01*
X6804010Y4543330D01*
X6806680Y4554330D01*
X6804010Y4565330D01*
X6797340Y4574500D01*
X6785340Y4580000D01*
X6773340Y4578170D01*
X6761340Y4570830D01*
G01X6679330Y5260830D02*
X6671330Y5266330D01*
X6662000Y5270000D01*
X6651330D01*
X6639330Y5264500D01*
X6630000Y5255330D01*
X6623330Y5244330D01*
X6618000Y5226000D01*
X6616670Y5209500D01*
X6619330Y5193000D01*
X6623330Y5182000D01*
X6631330Y5171000D01*
X6640670Y5163670D01*
X6650000Y5160000D01*
X6659330D01*
X6668670Y5163670D01*
X6676670Y5169160D01*
X6683330Y5176500D01*
G01X6730010Y5160000D02*
Y5270000D01*
X6714010Y5248000D01*
G01Y5160000D02*
X6746010D01*
G01X6826020D02*
Y5270000D01*
X6776690Y5191170D01*
X6843350D01*
G01X6633330Y5440000D02*
Y5550000D01*
X6666670D01*
X6677330Y5544500D01*
X6684000Y5537170D01*
X6686670Y5522500D01*
X6684000Y5507830D01*
X6676000Y5498670D01*
X6666670Y5493170D01*
X6633330D01*
G01X6666670D02*
X6686670Y5440000D01*
G01X6740010D02*
Y5550000D01*
X6724010Y5528000D01*
G01Y5440000D02*
X6756010D01*
G01X6820020Y5550000D02*
X6809350Y5546330D01*
X6801350Y5537170D01*
X6796020Y5526170D01*
X6792020Y5511500D01*
X6790690Y5495000D01*
X6792020Y5478500D01*
X6796020Y5463830D01*
X6801350Y5452830D01*
X6809350Y5443670D01*
X6820020Y5440000D01*
X6830690Y5443670D01*
X6838690Y5452830D01*
X6844020Y5463830D01*
X6848020Y5478500D01*
X6849350Y5495000D01*
X6848020Y5511500D01*
X6844020Y5526170D01*
X6838690Y5537170D01*
X6830690Y5546330D01*
X6820020Y5550000D01*
G01X6633330Y5300000D02*
Y5410000D01*
X6666670D01*
X6677330Y5404500D01*
X6684000Y5397170D01*
X6686670Y5382500D01*
X6684000Y5367830D01*
X6676000Y5358670D01*
X6666670Y5353170D01*
X6633330D01*
G01X6666670D02*
X6686670Y5300000D01*
G01X6740010D02*
Y5410000D01*
X6724010Y5388000D01*
G01Y5300000D02*
X6756010D01*
G01X6820020D02*
Y5410000D01*
X6804020Y5388000D01*
G01Y5300000D02*
X6836020D01*
G01X6359330Y5320830D02*
X6351330Y5326330D01*
X6342000Y5330000D01*
X6331330D01*
X6319330Y5324500D01*
X6310000Y5315330D01*
X6303330Y5304330D01*
X6298000Y5286000D01*
X6296670Y5269500D01*
X6299330Y5253000D01*
X6303330Y5242000D01*
X6311330Y5231000D01*
X6320670Y5223670D01*
X6330000Y5220000D01*
X6339330D01*
X6348670Y5223670D01*
X6356670Y5229160D01*
X6363330Y5236500D01*
G01X6410010Y5220000D02*
Y5330000D01*
X6394010Y5308000D01*
G01Y5220000D02*
X6426010D01*
G01X6610000Y6650000D02*
X6599330Y6651830D01*
X6590000Y6659160D01*
X6582000Y6670170D01*
X6576670Y6683000D01*
X6574000Y6697670D01*
Y6712330D01*
X6576670Y6727000D01*
X6582000Y6739830D01*
X6590000Y6750830D01*
X6599330Y6758170D01*
X6610000Y6760000D01*
X6620670Y6758170D01*
X6630000Y6750830D01*
X6638000Y6739830D01*
X6643330Y6727000D01*
X6646000Y6712330D01*
Y6697670D01*
X6643330Y6683000D01*
X6638000Y6670170D01*
X6630000Y6659160D01*
X6620670Y6651830D01*
X6610000Y6650000D01*
G01X6620670Y6679330D02*
X6636670Y6650000D01*
G01X6664680Y6741670D02*
X6672680Y6752660D01*
X6682010Y6758170D01*
X6692680Y6760000D01*
X6706010Y6756330D01*
X6715340Y6747170D01*
X6718010Y6736170D01*
X6716680Y6725160D01*
X6711340Y6716000D01*
X6684680Y6697670D01*
X6672680Y6684830D01*
X6664680Y6666500D01*
X6662010Y6650000D01*
X6718010D01*
G01X6259930Y6777830D02*
X6251930Y6783330D01*
X6242600Y6787000D01*
X6231930D01*
X6219930Y6781500D01*
X6210600Y6772330D01*
X6203930Y6761330D01*
X6198600Y6743000D01*
X6197270Y6726500D01*
X6199930Y6710000D01*
X6203930Y6699000D01*
X6211930Y6688000D01*
X6221270Y6680670D01*
X6230600Y6677000D01*
X6239930D01*
X6249270Y6680670D01*
X6257270Y6686160D01*
X6263930Y6693500D01*
G01X6281280Y6699000D02*
X6289280Y6686160D01*
X6299940Y6678830D01*
X6311940Y6677000D01*
X6322610Y6678830D01*
X6333280Y6688000D01*
X6339940Y6699000D01*
X6341280Y6710000D01*
X6338610Y6722830D01*
X6329280Y6732000D01*
X6319940Y6735670D01*
X6307940D01*
G01X6319940D02*
X6327940Y6741170D01*
X6334610Y6750330D01*
X6337280Y6761330D01*
X6334610Y6772330D01*
X6327940Y6781500D01*
X6315940Y6787000D01*
X6303940Y6785170D01*
X6291940Y6777830D01*
G01X6367950Y6689830D02*
X6377290Y6680670D01*
X6387950Y6677000D01*
X6398620Y6680670D01*
X6407950Y6691660D01*
X6414620Y6708170D01*
X6417290Y6724670D01*
Y6744830D01*
X6414620Y6761330D01*
X6407950Y6776000D01*
X6399950Y6783330D01*
X6390620Y6787000D01*
X6379950Y6783330D01*
X6371950Y6776000D01*
X6366620Y6765000D01*
X6363950Y6750330D01*
X6366620Y6737500D01*
X6373290Y6724670D01*
X6381290Y6717330D01*
X6390620Y6715500D01*
X6401290Y6719160D01*
X6409290Y6728330D01*
X6417290Y6744830D01*
G01X6529330Y6390830D02*
X6521330Y6396330D01*
X6512000Y6400000D01*
X6501330D01*
X6489330Y6394500D01*
X6480000Y6385330D01*
X6473330Y6374330D01*
X6468000Y6356000D01*
X6466670Y6339500D01*
X6469330Y6323000D01*
X6473330Y6312000D01*
X6481330Y6301000D01*
X6490670Y6293670D01*
X6500000Y6290000D01*
X6509330D01*
X6518670Y6293670D01*
X6526670Y6299160D01*
X6533330Y6306500D01*
G01X6554680Y6335830D02*
X6564010Y6348670D01*
X6572010Y6356000D01*
X6582680Y6359670D01*
X6592010Y6356000D01*
X6598680Y6348670D01*
X6604010Y6337670D01*
X6605340Y6324830D01*
X6604010Y6313830D01*
X6598680Y6302830D01*
X6590680Y6293670D01*
X6581340Y6290000D01*
X6570680Y6293670D01*
X6561340Y6304660D01*
X6556010Y6321170D01*
X6554680Y6339500D01*
X6557340Y6363330D01*
X6561340Y6376170D01*
X6568010Y6389000D01*
X6577340Y6398170D01*
X6586680Y6400000D01*
X6596010Y6396330D01*
X6602680Y6387170D01*
G01X6610000Y7080000D02*
X6599330Y7081830D01*
X6590000Y7089160D01*
X6582000Y7100170D01*
X6576670Y7113000D01*
X6574000Y7127670D01*
Y7142330D01*
X6576670Y7157000D01*
X6582000Y7169830D01*
X6590000Y7180830D01*
X6599330Y7188170D01*
X6610000Y7190000D01*
X6620670Y7188170D01*
X6630000Y7180830D01*
X6638000Y7169830D01*
X6643330Y7157000D01*
X6646000Y7142330D01*
Y7127670D01*
X6643330Y7113000D01*
X6638000Y7100170D01*
X6630000Y7089160D01*
X6620670Y7081830D01*
X6610000Y7080000D01*
G01X6620670Y7109330D02*
X6636670Y7080000D01*
G01X6690010D02*
Y7190000D01*
X6674010Y7168000D01*
G01Y7080000D02*
X6706010D01*
G01X6259930Y7157830D02*
X6251930Y7163330D01*
X6242600Y7167000D01*
X6231930D01*
X6219930Y7161500D01*
X6210600Y7152330D01*
X6203930Y7141330D01*
X6198600Y7123000D01*
X6197270Y7106500D01*
X6199930Y7090000D01*
X6203930Y7079000D01*
X6211930Y7068000D01*
X6221270Y7060670D01*
X6230600Y7057000D01*
X6239930D01*
X6249270Y7060670D01*
X6257270Y7066160D01*
X6263930Y7073500D01*
G01X6326610Y7057000D02*
Y7167000D01*
X6277280Y7088170D01*
X6343940D01*
G01X6365290Y7148670D02*
X6373290Y7159660D01*
X6382620Y7165170D01*
X6393290Y7167000D01*
X6406620Y7163330D01*
X6415950Y7154170D01*
X6418620Y7143170D01*
X6417290Y7132160D01*
X6411950Y7123000D01*
X6385290Y7104670D01*
X6373290Y7091830D01*
X6365290Y7073500D01*
X6362620Y7057000D01*
X6418620D01*
G01X6650670Y7980000D02*
Y7901170D01*
X6656000Y7884660D01*
X6666670Y7873670D01*
X6680000Y7870000D01*
X6693330Y7873670D01*
X6704000Y7884660D01*
X6709330Y7901170D01*
Y7980000D01*
G01X6737340Y7882830D02*
X6746680Y7873670D01*
X6757340Y7870000D01*
X6768010Y7873670D01*
X6777340Y7884660D01*
X6784010Y7901170D01*
X6786680Y7917670D01*
Y7937830D01*
X6784010Y7954330D01*
X6777340Y7969000D01*
X6769340Y7976330D01*
X6760010Y7980000D01*
X6749340Y7976330D01*
X6741340Y7969000D01*
X6736010Y7958000D01*
X6733340Y7943330D01*
X6736010Y7930500D01*
X6742680Y7917670D01*
X6750680Y7910330D01*
X6760010Y7908500D01*
X6770680Y7912160D01*
X6778680Y7921330D01*
X6786680Y7937830D01*
G01X6353330Y7630000D02*
Y7740000D01*
X6386670D01*
X6397330Y7734500D01*
X6404000Y7727170D01*
X6406670Y7712500D01*
X6404000Y7697830D01*
X6396000Y7688670D01*
X6386670Y7683170D01*
X6353330D01*
G01X6386670D02*
X6406670Y7630000D01*
G01X6430680Y7646500D02*
X6438680Y7637330D01*
X6448010Y7631830D01*
X6460010Y7630000D01*
X6472010Y7633670D01*
X6481340Y7641000D01*
X6488010Y7653830D01*
X6489340Y7668500D01*
X6486680Y7683170D01*
X6480010Y7692330D01*
X6470680Y7699670D01*
X6461340Y7701500D01*
X6452010Y7699670D01*
X6440010Y7692330D01*
X6444010Y7740000D01*
X6480010D01*
G01X6510690Y7646500D02*
X6518690Y7637330D01*
X6528020Y7631830D01*
X6540020Y7630000D01*
X6552020Y7633670D01*
X6561350Y7641000D01*
X6568020Y7653830D01*
X6569350Y7668500D01*
X6566690Y7683170D01*
X6560020Y7692330D01*
X6550690Y7699670D01*
X6541350Y7701500D01*
X6532020Y7699670D01*
X6520020Y7692330D01*
X6524020Y7740000D01*
X6560020D01*
G01X6353330Y7490000D02*
Y7600000D01*
X6386670D01*
X6397330Y7594500D01*
X6404000Y7587170D01*
X6406670Y7572500D01*
X6404000Y7557830D01*
X6396000Y7548670D01*
X6386670Y7543170D01*
X6353330D01*
G01X6386670D02*
X6406670Y7490000D01*
G01X6430680Y7506500D02*
X6438680Y7497330D01*
X6448010Y7491830D01*
X6460010Y7490000D01*
X6472010Y7493670D01*
X6481340Y7501000D01*
X6488010Y7513830D01*
X6489340Y7528500D01*
X6486680Y7543170D01*
X6480010Y7552330D01*
X6470680Y7559670D01*
X6461340Y7561500D01*
X6452010Y7559670D01*
X6440010Y7552330D01*
X6444010Y7600000D01*
X6480010D01*
G01X6537350Y7490000D02*
X6540020Y7513830D01*
X6544020Y7534000D01*
X6549350Y7552330D01*
X6556020Y7572500D01*
X6566690Y7600000D01*
X6513350D01*
G01X6407930Y7869230D02*
X6399930Y7874730D01*
X6390600Y7878400D01*
X6379930D01*
X6367930Y7872900D01*
X6358600Y7863730D01*
X6351930Y7852730D01*
X6346600Y7834400D01*
X6345270Y7817900D01*
X6347930Y7801400D01*
X6351930Y7790400D01*
X6359930Y7779400D01*
X6369270Y7772070D01*
X6378600Y7768400D01*
X6387930D01*
X6397270Y7772070D01*
X6405270Y7777560D01*
X6411930Y7784900D01*
G01X6474610Y7768400D02*
Y7878400D01*
X6425280Y7799570D01*
X6491940D01*
G01X6538620Y7768400D02*
Y7878400D01*
X6522620Y7856400D01*
G01Y7768400D02*
X6554620D01*
G01X6409330Y8010830D02*
X6401330Y8016330D01*
X6392000Y8020000D01*
X6381330D01*
X6369330Y8014500D01*
X6360000Y8005330D01*
X6353330Y7994330D01*
X6348000Y7976000D01*
X6346670Y7959500D01*
X6349330Y7943000D01*
X6353330Y7932000D01*
X6361330Y7921000D01*
X6370670Y7913670D01*
X6380000Y7910000D01*
X6389330D01*
X6398670Y7913670D01*
X6406670Y7919160D01*
X6413330Y7926500D01*
G01X6430680Y7932000D02*
X6438680Y7919160D01*
X6449340Y7911830D01*
X6461340Y7910000D01*
X6472010Y7911830D01*
X6482680Y7921000D01*
X6489340Y7932000D01*
X6490680Y7943000D01*
X6488010Y7955830D01*
X6478680Y7965000D01*
X6469340Y7968670D01*
X6457340D01*
G01X6469340D02*
X6477340Y7974170D01*
X6484010Y7983330D01*
X6486680Y7994330D01*
X6484010Y8005330D01*
X6477340Y8014500D01*
X6465340Y8020000D01*
X6453340Y8018170D01*
X6441340Y8010830D01*
G01X6540020Y7910000D02*
X6549350Y7911830D01*
X6560020Y7917330D01*
X6566690Y7926500D01*
X6569350Y7939330D01*
X6566690Y7952160D01*
X6558690Y7963170D01*
X6546690Y7968670D01*
X6533350D01*
X6525350Y7972330D01*
X6518690Y7981500D01*
X6516020Y7994330D01*
X6520020Y8007170D01*
X6529350Y8016330D01*
X6540020Y8020000D01*
X6550690Y8016330D01*
X6560020Y8007170D01*
X6564020Y7994330D01*
X6561350Y7981500D01*
X6554690Y7972330D01*
X6546690Y7968670D01*
X6533350D01*
X6521350Y7963170D01*
X6513350Y7952160D01*
X6510690Y7939330D01*
X6513350Y7926500D01*
X6520020Y7917330D01*
X6530690Y7911830D01*
X6540020Y7910000D01*
G01X6419330Y8760830D02*
X6411330Y8766330D01*
X6402000Y8770000D01*
X6391330D01*
X6379330Y8764500D01*
X6370000Y8755330D01*
X6363330Y8744330D01*
X6358000Y8726000D01*
X6356670Y8709500D01*
X6359330Y8693000D01*
X6363330Y8682000D01*
X6371330Y8671000D01*
X6380670Y8663670D01*
X6390000Y8660000D01*
X6399330D01*
X6408670Y8663670D01*
X6416670Y8669160D01*
X6423330Y8676500D01*
G01X6440680Y8682000D02*
X6448680Y8669160D01*
X6459340Y8661830D01*
X6471340Y8660000D01*
X6482010Y8661830D01*
X6492680Y8671000D01*
X6499340Y8682000D01*
X6500680Y8693000D01*
X6498010Y8705830D01*
X6488680Y8715000D01*
X6479340Y8718670D01*
X6467340D01*
G01X6479340D02*
X6487340Y8724170D01*
X6494010Y8733330D01*
X6496680Y8744330D01*
X6494010Y8755330D01*
X6487340Y8764500D01*
X6475340Y8770000D01*
X6463340Y8768170D01*
X6451340Y8760830D01*
G01X6566020Y8660000D02*
Y8770000D01*
X6516690Y8691170D01*
X6583350D01*
G01X6700670Y9130000D02*
Y9240000D01*
X6727330D01*
X6738000Y9234500D01*
X6746000Y9227170D01*
X6752670Y9216170D01*
X6758000Y9203330D01*
X6759330Y9185000D01*
X6758000Y9166670D01*
X6752670Y9153830D01*
X6746000Y9142830D01*
X6738000Y9135500D01*
X6727330Y9130000D01*
X6700670D01*
G01X6780680Y9146500D02*
X6788680Y9137330D01*
X6798010Y9131830D01*
X6810010Y9130000D01*
X6822010Y9133670D01*
X6831340Y9141000D01*
X6838010Y9153830D01*
X6839340Y9168500D01*
X6836680Y9183170D01*
X6830010Y9192330D01*
X6820680Y9199670D01*
X6811340Y9201500D01*
X6802010Y9199670D01*
X6790010Y9192330D01*
X6794010Y9240000D01*
X6830010D01*
G01X6407930Y9589230D02*
X6399930Y9594730D01*
X6390600Y9598400D01*
X6379930D01*
X6367930Y9592900D01*
X6358600Y9583730D01*
X6351930Y9572730D01*
X6346600Y9554400D01*
X6345270Y9537900D01*
X6347930Y9521400D01*
X6351930Y9510400D01*
X6359930Y9499400D01*
X6369270Y9492070D01*
X6378600Y9488400D01*
X6387930D01*
X6397270Y9492070D01*
X6405270Y9497560D01*
X6411930Y9504900D01*
G01X6429280Y9510400D02*
X6437280Y9497560D01*
X6447940Y9490230D01*
X6459940Y9488400D01*
X6470610Y9490230D01*
X6481280Y9499400D01*
X6487940Y9510400D01*
X6489280Y9521400D01*
X6486610Y9534230D01*
X6477280Y9543400D01*
X6467940Y9547070D01*
X6455940D01*
G01X6467940D02*
X6475940Y9552570D01*
X6482610Y9561730D01*
X6485280Y9572730D01*
X6482610Y9583730D01*
X6475940Y9592900D01*
X6463940Y9598400D01*
X6451940Y9596570D01*
X6439940Y9589230D01*
G01X6513290Y9580070D02*
X6521290Y9591060D01*
X6530620Y9596570D01*
X6541290Y9598400D01*
X6554620Y9594730D01*
X6563950Y9585570D01*
X6566620Y9574570D01*
X6565290Y9563560D01*
X6559950Y9554400D01*
X6533290Y9536070D01*
X6521290Y9523230D01*
X6513290Y9504900D01*
X6510620Y9488400D01*
X6566620D01*
G01X6640670Y9730000D02*
Y9651170D01*
X6646000Y9634660D01*
X6656670Y9623670D01*
X6670000Y9620000D01*
X6683330Y9623670D01*
X6694000Y9634660D01*
X6699330Y9651170D01*
Y9730000D01*
G01X6750010Y9620000D02*
X6759340Y9621830D01*
X6770010Y9627330D01*
X6776680Y9636500D01*
X6779340Y9649330D01*
X6776680Y9662160D01*
X6768680Y9673170D01*
X6756680Y9678670D01*
X6743340D01*
X6735340Y9682330D01*
X6728680Y9691500D01*
X6726010Y9704330D01*
X6730010Y9717170D01*
X6739340Y9726330D01*
X6750010Y9730000D01*
X6760680Y9726330D01*
X6770010Y9717170D01*
X6774010Y9704330D01*
X6771340Y9691500D01*
X6764680Y9682330D01*
X6756680Y9678670D01*
X6743340D01*
X6731340Y9673170D01*
X6723340Y9662160D01*
X6720680Y9649330D01*
X6723340Y9636500D01*
X6730010Y9627330D01*
X6740680Y9621830D01*
X6750010Y9620000D01*
G01X6350330Y9628400D02*
Y9738400D01*
X6383670D01*
X6394330Y9732900D01*
X6401000Y9725570D01*
X6403670Y9710900D01*
X6401000Y9696230D01*
X6393000Y9687070D01*
X6383670Y9681570D01*
X6350330D01*
G01X6383670D02*
X6403670Y9628400D01*
G01X6427680Y9644900D02*
X6435680Y9635730D01*
X6445010Y9630230D01*
X6457010Y9628400D01*
X6469010Y9632070D01*
X6478340Y9639400D01*
X6485010Y9652230D01*
X6486340Y9666900D01*
X6483680Y9681570D01*
X6477010Y9690730D01*
X6467680Y9698070D01*
X6458340Y9699900D01*
X6449010Y9698070D01*
X6437010Y9690730D01*
X6441010Y9738400D01*
X6477010D01*
G01X6507690Y9650400D02*
X6515690Y9637560D01*
X6526350Y9630230D01*
X6538350Y9628400D01*
X6549020Y9630230D01*
X6559690Y9639400D01*
X6566350Y9650400D01*
X6567690Y9661400D01*
X6565020Y9674230D01*
X6555690Y9683400D01*
X6546350Y9687070D01*
X6534350D01*
G01X6546350D02*
X6554350Y9692570D01*
X6561020Y9701730D01*
X6563690Y9712730D01*
X6561020Y9723730D01*
X6554350Y9732900D01*
X6542350Y9738400D01*
X6530350Y9736570D01*
X6518350Y9729230D01*
G01X6449330Y10480830D02*
X6441330Y10486330D01*
X6432000Y10490000D01*
X6421330D01*
X6409330Y10484500D01*
X6400000Y10475330D01*
X6393330Y10464330D01*
X6388000Y10446000D01*
X6386670Y10429500D01*
X6389330Y10413000D01*
X6393330Y10402000D01*
X6401330Y10391000D01*
X6410670Y10383670D01*
X6420000Y10380000D01*
X6429330D01*
X6438670Y10383670D01*
X6446670Y10389160D01*
X6453330Y10396500D01*
G01X6474680Y10471670D02*
X6482680Y10482660D01*
X6492010Y10488170D01*
X6502680Y10490000D01*
X6516010Y10486330D01*
X6525340Y10477170D01*
X6528010Y10466170D01*
X6526680Y10455160D01*
X6521340Y10446000D01*
X6494680Y10427670D01*
X6482680Y10414830D01*
X6474680Y10396500D01*
X6472010Y10380000D01*
X6528010D01*
G01X6577350D02*
X6580020Y10403830D01*
X6584020Y10424000D01*
X6589350Y10442330D01*
X6596020Y10462500D01*
X6606690Y10490000D01*
X6553350D01*
G01X6475390Y10857640D02*
Y10967640D01*
X6502050D01*
X6512720Y10962140D01*
X6520720Y10954810D01*
X6527390Y10943810D01*
X6532720Y10930970D01*
X6534050Y10912640D01*
X6532720Y10894310D01*
X6527390Y10881470D01*
X6520720Y10870470D01*
X6512720Y10863140D01*
X6502050Y10857640D01*
X6475390D01*
G01X6600730D02*
Y10967640D01*
X6551400Y10888810D01*
X6618060D01*
G01X6840000Y740000D02*
X6829330Y736330D01*
X6821330Y727170D01*
X6816000Y716170D01*
X6812000Y701500D01*
X6810670Y685000D01*
X6812000Y668500D01*
X6816000Y653830D01*
X6821330Y642830D01*
X6829330Y633670D01*
X6840000Y630000D01*
X6850670Y633670D01*
X6858670Y642830D01*
X6864000Y653830D01*
X6868000Y668500D01*
X6869330Y685000D01*
X6868000Y701500D01*
X6864000Y716170D01*
X6858670Y727170D01*
X6850670Y736330D01*
X6840000Y740000D01*
G01X6720330Y1668400D02*
Y1778400D01*
X6753670D01*
X6764330Y1772900D01*
X6771000Y1765570D01*
X6773670Y1750900D01*
X6771000Y1736230D01*
X6763000Y1727070D01*
X6753670Y1721570D01*
X6720330D01*
G01X6753670D02*
X6773670Y1668400D01*
G01X6797680Y1690400D02*
X6805680Y1677560D01*
X6816340Y1670230D01*
X6828340Y1668400D01*
X6839010Y1670230D01*
X6849680Y1679400D01*
X6856340Y1690400D01*
X6857680Y1701400D01*
X6855010Y1714230D01*
X6845680Y1723400D01*
X6836340Y1727070D01*
X6824340D01*
G01X6836340D02*
X6844340Y1732570D01*
X6851010Y1741730D01*
X6853680Y1752730D01*
X6851010Y1763730D01*
X6844340Y1772900D01*
X6832340Y1778400D01*
X6820340Y1776570D01*
X6808340Y1769230D01*
G01X6904350Y1668400D02*
X6907020Y1692230D01*
X6911020Y1712400D01*
X6916350Y1730730D01*
X6923020Y1750900D01*
X6933690Y1778400D01*
X6880350D01*
G01X6810670Y3378670D02*
X6816000Y3384170D01*
X6820000Y3393330D01*
X6822670Y3406170D01*
X6820000Y3417170D01*
X6814670Y3424500D01*
X6805330Y3430000D01*
X6769330D01*
Y3320000D01*
X6813330D01*
X6822670Y3327330D01*
X6828000Y3338330D01*
X6830670Y3351170D01*
X6828000Y3364000D01*
X6820000Y3375000D01*
X6810670Y3378670D01*
X6769330D01*
G01X6880010Y3320000D02*
Y3430000D01*
X6864010Y3408000D01*
G01Y3320000D02*
X6896010D01*
G01X7250000Y3860000D02*
X7239330Y3861830D01*
X7230000Y3869160D01*
X7222000Y3880170D01*
X7216670Y3893000D01*
X7214000Y3907670D01*
Y3922330D01*
X7216670Y3937000D01*
X7222000Y3949830D01*
X7230000Y3960830D01*
X7239330Y3968170D01*
X7250000Y3970000D01*
X7260670Y3968170D01*
X7270000Y3960830D01*
X7278000Y3949830D01*
X7283330Y3937000D01*
X7286000Y3922330D01*
Y3907670D01*
X7283330Y3893000D01*
X7278000Y3880170D01*
X7270000Y3869160D01*
X7260670Y3861830D01*
X7250000Y3860000D01*
G01X7260670Y3889330D02*
X7276670Y3860000D01*
G01X7300680Y3882000D02*
X7308680Y3869160D01*
X7319340Y3861830D01*
X7331340Y3860000D01*
X7342010Y3861830D01*
X7352680Y3871000D01*
X7359340Y3882000D01*
X7360680Y3893000D01*
X7358010Y3905830D01*
X7348680Y3915000D01*
X7339340Y3918670D01*
X7327340D01*
G01X7339340D02*
X7347340Y3924170D01*
X7354010Y3933330D01*
X7356680Y3944330D01*
X7354010Y3955330D01*
X7347340Y3964500D01*
X7335340Y3970000D01*
X7323340Y3968170D01*
X7311340Y3960830D01*
G01X7093330Y5130000D02*
Y5240000D01*
X7126670D01*
X7137330Y5234500D01*
X7144000Y5227170D01*
X7146670Y5212500D01*
X7144000Y5197830D01*
X7136000Y5188670D01*
X7126670Y5183170D01*
X7093330D01*
G01X7126670D02*
X7146670Y5130000D01*
G01X7174680Y5221670D02*
X7182680Y5232660D01*
X7192010Y5238170D01*
X7202680Y5240000D01*
X7216010Y5236330D01*
X7225340Y5227170D01*
X7228010Y5216170D01*
X7226680Y5205160D01*
X7221340Y5196000D01*
X7194680Y5177670D01*
X7182680Y5164830D01*
X7174680Y5146500D01*
X7172010Y5130000D01*
X7228010D01*
G01X7280020Y5240000D02*
X7269350Y5236330D01*
X7261350Y5227170D01*
X7256020Y5216170D01*
X7252020Y5201500D01*
X7250690Y5185000D01*
X7252020Y5168500D01*
X7256020Y5153830D01*
X7261350Y5142830D01*
X7269350Y5133670D01*
X7280020Y5130000D01*
X7290690Y5133670D01*
X7298690Y5142830D01*
X7304020Y5153830D01*
X7308020Y5168500D01*
X7309350Y5185000D01*
X7308020Y5201500D01*
X7304020Y5216170D01*
X7298690Y5227170D01*
X7290690Y5236330D01*
X7280020Y5240000D01*
G01X7090330Y5268400D02*
Y5378400D01*
X7123670D01*
X7134330Y5372900D01*
X7141000Y5365570D01*
X7143670Y5350900D01*
X7141000Y5336230D01*
X7133000Y5327070D01*
X7123670Y5321570D01*
X7090330D01*
G01X7123670D02*
X7143670Y5268400D01*
G01X7197010D02*
Y5378400D01*
X7181010Y5356400D01*
G01Y5268400D02*
X7213010D01*
G01X7254350Y5281230D02*
X7263690Y5272070D01*
X7274350Y5268400D01*
X7285020Y5272070D01*
X7294350Y5283060D01*
X7301020Y5299570D01*
X7303690Y5316070D01*
Y5336230D01*
X7301020Y5352730D01*
X7294350Y5367400D01*
X7286350Y5374730D01*
X7277020Y5378400D01*
X7266350Y5374730D01*
X7258350Y5367400D01*
X7253020Y5356400D01*
X7250350Y5341730D01*
X7253020Y5328900D01*
X7259690Y5316070D01*
X7267690Y5308730D01*
X7277020Y5306900D01*
X7287690Y5310560D01*
X7295690Y5319730D01*
X7303690Y5336230D01*
G01X7093330Y5780000D02*
Y5890000D01*
X7126670D01*
X7137330Y5884500D01*
X7144000Y5877170D01*
X7146670Y5862500D01*
X7144000Y5847830D01*
X7136000Y5838670D01*
X7126670Y5833170D01*
X7093330D01*
G01X7126670D02*
X7146670Y5780000D01*
G01X7200010D02*
Y5890000D01*
X7184010Y5868000D01*
G01Y5780000D02*
X7216010D01*
G01X7250690Y5796500D02*
X7258690Y5787330D01*
X7268020Y5781830D01*
X7280020Y5780000D01*
X7292020Y5783670D01*
X7301350Y5791000D01*
X7308020Y5803830D01*
X7309350Y5818500D01*
X7306690Y5833170D01*
X7300020Y5842330D01*
X7290690Y5849670D01*
X7281350Y5851500D01*
X7272020Y5849670D01*
X7260020Y5842330D01*
X7264020Y5890000D01*
X7300020D01*
G01X6813330Y5780000D02*
Y5890000D01*
X6846670D01*
X6857330Y5884500D01*
X6864000Y5877170D01*
X6866670Y5862500D01*
X6864000Y5847830D01*
X6856000Y5838670D01*
X6846670Y5833170D01*
X6813330D01*
G01X6846670D02*
X6866670Y5780000D01*
G01X6920010D02*
Y5890000D01*
X6904010Y5868000D01*
G01Y5780000D02*
X6936010D01*
G01X6997350D02*
X7000020Y5803830D01*
X7004020Y5824000D01*
X7009350Y5842330D01*
X7016020Y5862500D01*
X7026690Y5890000D01*
X6973350D01*
G01X7250670Y6290000D02*
Y6400000D01*
X7277330D01*
X7288000Y6394500D01*
X7296000Y6387170D01*
X7302670Y6376170D01*
X7308000Y6363330D01*
X7309330Y6345000D01*
X7308000Y6326670D01*
X7302670Y6313830D01*
X7296000Y6302830D01*
X7288000Y6295500D01*
X7277330Y6290000D01*
X7250670D01*
G01X7360010D02*
Y6400000D01*
X7344010Y6378000D01*
G01Y6290000D02*
X7376010D01*
G01X7199330Y9260830D02*
X7191330Y9266330D01*
X7182000Y9270000D01*
X7171330D01*
X7159330Y9264500D01*
X7150000Y9255330D01*
X7143330Y9244330D01*
X7138000Y9226000D01*
X7136670Y9209500D01*
X7139330Y9193000D01*
X7143330Y9182000D01*
X7151330Y9171000D01*
X7160670Y9163670D01*
X7170000Y9160000D01*
X7179330D01*
X7188670Y9163670D01*
X7196670Y9169160D01*
X7203330Y9176500D01*
G01X7247340Y9160000D02*
X7250010Y9183830D01*
X7254010Y9204000D01*
X7259340Y9222330D01*
X7266010Y9242500D01*
X7276680Y9270000D01*
X7223340D01*
G01X7346020Y9160000D02*
Y9270000D01*
X7296690Y9191170D01*
X7363350D01*
G01X7249330Y11010830D02*
X7241330Y11016330D01*
X7232000Y11020000D01*
X7221330D01*
X7209330Y11014500D01*
X7200000Y11005330D01*
X7193330Y10994330D01*
X7188000Y10976000D01*
X7186670Y10959500D01*
X7189330Y10943000D01*
X7193330Y10932000D01*
X7201330Y10921000D01*
X7210670Y10913670D01*
X7220000Y10910000D01*
X7229330D01*
X7238670Y10913670D01*
X7246670Y10919160D01*
X7253330Y10926500D01*
G01X7297340Y10910000D02*
X7300010Y10933830D01*
X7304010Y10954000D01*
X7309340Y10972330D01*
X7316010Y10992500D01*
X7326680Y11020000D01*
X7273340D01*
G01X7350690Y10932000D02*
X7358690Y10919160D01*
X7369350Y10911830D01*
X7381350Y10910000D01*
X7392020Y10911830D01*
X7402690Y10921000D01*
X7409350Y10932000D01*
X7410690Y10943000D01*
X7408020Y10955830D01*
X7398690Y10965000D01*
X7389350Y10968670D01*
X7377350D01*
G01X7389350D02*
X7397350Y10974170D01*
X7404020Y10983330D01*
X7406690Y10994330D01*
X7404020Y11005330D01*
X7397350Y11014500D01*
X7385350Y11020000D01*
X7373350Y11018170D01*
X7361350Y11010830D01*
G01X7760000Y630000D02*
Y740000D01*
X7744000Y718000D01*
G01Y630000D02*
X7776000D01*
G01X7363330Y652000D02*
X7370000Y641000D01*
X7378000Y633670D01*
X7387330Y630000D01*
X7398000Y633670D01*
X7406000Y641000D01*
X7414000Y652000D01*
X7416670Y666670D01*
Y740000D01*
G01X7470010Y630000D02*
X7479340Y631830D01*
X7490010Y637330D01*
X7496680Y646500D01*
X7499340Y659330D01*
X7496680Y672160D01*
X7488680Y683170D01*
X7476680Y688670D01*
X7463340D01*
X7455340Y692330D01*
X7448680Y701500D01*
X7446010Y714330D01*
X7450010Y727170D01*
X7459340Y736330D01*
X7470010Y740000D01*
X7480680Y736330D01*
X7490010Y727170D01*
X7494010Y714330D01*
X7491340Y701500D01*
X7484680Y692330D01*
X7476680Y688670D01*
X7463340D01*
X7451340Y683170D01*
X7443340Y672160D01*
X7440680Y659330D01*
X7443340Y646500D01*
X7450010Y637330D01*
X7460680Y631830D01*
X7470010Y630000D01*
G01X7640330Y1668400D02*
Y1778400D01*
X7673670D01*
X7684330Y1772900D01*
X7691000Y1765570D01*
X7693670Y1750900D01*
X7691000Y1736230D01*
X7683000Y1727070D01*
X7673670Y1721570D01*
X7640330D01*
G01X7673670D02*
X7693670Y1668400D01*
G01X7717680Y1690400D02*
X7725680Y1677560D01*
X7736340Y1670230D01*
X7748340Y1668400D01*
X7759010Y1670230D01*
X7769680Y1679400D01*
X7776340Y1690400D01*
X7777680Y1701400D01*
X7775010Y1714230D01*
X7765680Y1723400D01*
X7756340Y1727070D01*
X7744340D01*
G01X7756340D02*
X7764340Y1732570D01*
X7771010Y1741730D01*
X7773680Y1752730D01*
X7771010Y1763730D01*
X7764340Y1772900D01*
X7752340Y1778400D01*
X7740340Y1776570D01*
X7728340Y1769230D01*
G01X7827020Y1668400D02*
X7836350Y1670230D01*
X7847020Y1675730D01*
X7853690Y1684900D01*
X7856350Y1697730D01*
X7853690Y1710560D01*
X7845690Y1721570D01*
X7833690Y1727070D01*
X7820350D01*
X7812350Y1730730D01*
X7805690Y1739900D01*
X7803020Y1752730D01*
X7807020Y1765570D01*
X7816350Y1774730D01*
X7827020Y1778400D01*
X7837690Y1774730D01*
X7847020Y1765570D01*
X7851020Y1752730D01*
X7848350Y1739900D01*
X7841690Y1730730D01*
X7833690Y1727070D01*
X7820350D01*
X7808350Y1721570D01*
X7800350Y1710560D01*
X7797690Y1697730D01*
X7800350Y1684900D01*
X7807020Y1675730D01*
X7817690Y1670230D01*
X7827020Y1668400D01*
G01X7263330Y7240000D02*
Y7350000D01*
X7296670D01*
X7307330Y7344500D01*
X7314000Y7337170D01*
X7316670Y7322500D01*
X7314000Y7307830D01*
X7306000Y7298670D01*
X7296670Y7293170D01*
X7263330D01*
G01X7296670D02*
X7316670Y7240000D01*
G01X7370010D02*
Y7350000D01*
X7354010Y7328000D01*
G01Y7240000D02*
X7386010D01*
G01X7466020D02*
Y7350000D01*
X7416690Y7271170D01*
X7483350D01*
G01X7260330Y6958400D02*
Y7068400D01*
X7293670D01*
X7304330Y7062900D01*
X7311000Y7055570D01*
X7313670Y7040900D01*
X7311000Y7026230D01*
X7303000Y7017070D01*
X7293670Y7011570D01*
X7260330D01*
G01X7293670D02*
X7313670Y6958400D01*
G01X7367010D02*
Y7068400D01*
X7351010Y7046400D01*
G01Y6958400D02*
X7383010D01*
G01X7421690Y7004230D02*
X7431020Y7017070D01*
X7439020Y7024400D01*
X7449690Y7028070D01*
X7459020Y7024400D01*
X7465690Y7017070D01*
X7471020Y7006070D01*
X7472350Y6993230D01*
X7471020Y6982230D01*
X7465690Y6971230D01*
X7457690Y6962070D01*
X7448350Y6958400D01*
X7437690Y6962070D01*
X7428350Y6973060D01*
X7423020Y6989570D01*
X7421690Y7007900D01*
X7424350Y7031730D01*
X7428350Y7044570D01*
X7435020Y7057400D01*
X7444350Y7066570D01*
X7453690Y7068400D01*
X7463020Y7064730D01*
X7469690Y7055570D01*
G01X7263330Y7100000D02*
Y7210000D01*
X7296670D01*
X7307330Y7204500D01*
X7314000Y7197170D01*
X7316670Y7182500D01*
X7314000Y7167830D01*
X7306000Y7158670D01*
X7296670Y7153170D01*
X7263330D01*
G01X7296670D02*
X7316670Y7100000D01*
G01X7370010D02*
Y7210000D01*
X7354010Y7188000D01*
G01Y7100000D02*
X7386010D01*
G01X7450020D02*
X7459350Y7101830D01*
X7470020Y7107330D01*
X7476690Y7116500D01*
X7479350Y7129330D01*
X7476690Y7142160D01*
X7468690Y7153170D01*
X7456690Y7158670D01*
X7443350D01*
X7435350Y7162330D01*
X7428690Y7171500D01*
X7426020Y7184330D01*
X7430020Y7197170D01*
X7439350Y7206330D01*
X7450020Y7210000D01*
X7460690Y7206330D01*
X7470020Y7197170D01*
X7474020Y7184330D01*
X7471350Y7171500D01*
X7464690Y7162330D01*
X7456690Y7158670D01*
X7443350D01*
X7431350Y7153170D01*
X7423350Y7142160D01*
X7420690Y7129330D01*
X7423350Y7116500D01*
X7430020Y7107330D01*
X7440690Y7101830D01*
X7450020Y7100000D01*
G01X7273330Y8020000D02*
Y8130000D01*
X7306670D01*
X7317330Y8124500D01*
X7324000Y8117170D01*
X7326670Y8102500D01*
X7324000Y8087830D01*
X7316000Y8078670D01*
X7306670Y8073170D01*
X7273330D01*
G01X7306670D02*
X7326670Y8020000D01*
G01X7350680Y8036500D02*
X7358680Y8027330D01*
X7368010Y8021830D01*
X7380010Y8020000D01*
X7392010Y8023670D01*
X7401340Y8031000D01*
X7408010Y8043830D01*
X7409340Y8058500D01*
X7406680Y8073170D01*
X7400010Y8082330D01*
X7390680Y8089670D01*
X7381340Y8091500D01*
X7372010Y8089670D01*
X7360010Y8082330D01*
X7364010Y8130000D01*
X7400010D01*
G01X7434690Y8065830D02*
X7444020Y8078670D01*
X7452020Y8086000D01*
X7462690Y8089670D01*
X7472020Y8086000D01*
X7478690Y8078670D01*
X7484020Y8067670D01*
X7485350Y8054830D01*
X7484020Y8043830D01*
X7478690Y8032830D01*
X7470690Y8023670D01*
X7461350Y8020000D01*
X7450690Y8023670D01*
X7441350Y8034660D01*
X7436020Y8051170D01*
X7434690Y8069500D01*
X7437350Y8093330D01*
X7441350Y8106170D01*
X7448020Y8119000D01*
X7457350Y8128170D01*
X7466690Y8130000D01*
X7476020Y8126330D01*
X7482690Y8117170D01*
G01X7273330Y9750000D02*
Y9860000D01*
X7306670D01*
X7317330Y9854500D01*
X7324000Y9847170D01*
X7326670Y9832500D01*
X7324000Y9817830D01*
X7316000Y9808670D01*
X7306670Y9803170D01*
X7273330D01*
G01X7306670D02*
X7326670Y9750000D01*
G01X7350680Y9766500D02*
X7358680Y9757330D01*
X7368010Y9751830D01*
X7380010Y9750000D01*
X7392010Y9753670D01*
X7401340Y9761000D01*
X7408010Y9773830D01*
X7409340Y9788500D01*
X7406680Y9803170D01*
X7400010Y9812330D01*
X7390680Y9819670D01*
X7381340Y9821500D01*
X7372010Y9819670D01*
X7360010Y9812330D01*
X7364010Y9860000D01*
X7400010D01*
G01X7460020D02*
X7449350Y9856330D01*
X7441350Y9847170D01*
X7436020Y9836170D01*
X7432020Y9821500D01*
X7430690Y9805000D01*
X7432020Y9788500D01*
X7436020Y9773830D01*
X7441350Y9762830D01*
X7449350Y9753670D01*
X7460020Y9750000D01*
X7470690Y9753670D01*
X7478690Y9762830D01*
X7484020Y9773830D01*
X7488020Y9788500D01*
X7489350Y9805000D01*
X7488020Y9821500D01*
X7484020Y9836170D01*
X7478690Y9847170D01*
X7470690Y9856330D01*
X7460020Y9860000D01*
G01X8273330Y652000D02*
X8280000Y641000D01*
X8288000Y633670D01*
X8297330Y630000D01*
X8308000Y633670D01*
X8316000Y641000D01*
X8324000Y652000D01*
X8326670Y666670D01*
Y740000D01*
G01X8357340Y642830D02*
X8366680Y633670D01*
X8377340Y630000D01*
X8388010Y633670D01*
X8397340Y644660D01*
X8404010Y661170D01*
X8406680Y677670D01*
Y697830D01*
X8404010Y714330D01*
X8397340Y729000D01*
X8389340Y736330D01*
X8380010Y740000D01*
X8369340Y736330D01*
X8361340Y729000D01*
X8356010Y718000D01*
X8353340Y703330D01*
X8356010Y690500D01*
X8362680Y677670D01*
X8370680Y670330D01*
X8380010Y668500D01*
X8390680Y672160D01*
X8398680Y681330D01*
X8406680Y697830D01*
G01X7960670Y5600000D02*
Y5710000D01*
X7987330D01*
X7998000Y5704500D01*
X8006000Y5697170D01*
X8012670Y5686170D01*
X8018000Y5673330D01*
X8019330Y5655000D01*
X8018000Y5636670D01*
X8012670Y5623830D01*
X8006000Y5612830D01*
X7998000Y5605500D01*
X7987330Y5600000D01*
X7960670D01*
G01X8044680Y5691670D02*
X8052680Y5702660D01*
X8062010Y5708170D01*
X8072680Y5710000D01*
X8086010Y5706330D01*
X8095340Y5697170D01*
X8098010Y5686170D01*
X8096680Y5675160D01*
X8091340Y5666000D01*
X8064680Y5647670D01*
X8052680Y5634830D01*
X8044680Y5616500D01*
X8042010Y5600000D01*
X8098010D01*
G01X7860670Y6030000D02*
Y5951170D01*
X7866000Y5934660D01*
X7876670Y5923670D01*
X7890000Y5920000D01*
X7903330Y5923670D01*
X7914000Y5934660D01*
X7919330Y5951170D01*
Y6030000D01*
G01X7940680Y5936500D02*
X7948680Y5927330D01*
X7958010Y5921830D01*
X7970010Y5920000D01*
X7982010Y5923670D01*
X7991340Y5931000D01*
X7998010Y5943830D01*
X7999340Y5958500D01*
X7996680Y5973170D01*
X7990010Y5982330D01*
X7980680Y5989670D01*
X7971340Y5991500D01*
X7962010Y5989670D01*
X7950010Y5982330D01*
X7954010Y6030000D01*
X7990010D01*
G01X7989330Y6230830D02*
X7981330Y6236330D01*
X7972000Y6240000D01*
X7961330D01*
X7949330Y6234500D01*
X7940000Y6225330D01*
X7933330Y6214330D01*
X7928000Y6196000D01*
X7926670Y6179500D01*
X7929330Y6163000D01*
X7933330Y6152000D01*
X7941330Y6141000D01*
X7950670Y6133670D01*
X7960000Y6130000D01*
X7969330D01*
X7978670Y6133670D01*
X7986670Y6139160D01*
X7993330Y6146500D01*
G01X8010680D02*
X8018680Y6137330D01*
X8028010Y6131830D01*
X8040010Y6130000D01*
X8052010Y6133670D01*
X8061340Y6141000D01*
X8068010Y6153830D01*
X8069340Y6168500D01*
X8066680Y6183170D01*
X8060010Y6192330D01*
X8050680Y6199670D01*
X8041340Y6201500D01*
X8032010Y6199670D01*
X8020010Y6192330D01*
X8024010Y6240000D01*
X8060010D01*
G01X7803320Y7022000D02*
X7809990Y7011000D01*
X7817990Y7003670D01*
X7827320Y7000000D01*
X7837990Y7003670D01*
X7845990Y7011000D01*
X7853990Y7022000D01*
X7856660Y7036670D01*
Y7110000D01*
G01X7926000Y7000000D02*
Y7110000D01*
X7876670Y7031170D01*
X7943330D01*
G01X8654670Y721670D02*
X8662670Y732660D01*
X8672000Y738170D01*
X8682670Y740000D01*
X8696000Y736330D01*
X8705330Y727170D01*
X8708000Y716170D01*
X8706670Y705160D01*
X8701330Y696000D01*
X8674670Y677670D01*
X8662670Y664830D01*
X8654670Y646500D01*
X8652000Y630000D01*
X8708000D01*
G01X8550330Y1668400D02*
Y1778400D01*
X8583670D01*
X8594330Y1772900D01*
X8601000Y1765570D01*
X8603670Y1750900D01*
X8601000Y1736230D01*
X8593000Y1727070D01*
X8583670Y1721570D01*
X8550330D01*
G01X8583670D02*
X8603670Y1668400D01*
G01X8627680Y1690400D02*
X8635680Y1677560D01*
X8646340Y1670230D01*
X8658340Y1668400D01*
X8669010Y1670230D01*
X8679680Y1679400D01*
X8686340Y1690400D01*
X8687680Y1701400D01*
X8685010Y1714230D01*
X8675680Y1723400D01*
X8666340Y1727070D01*
X8654340D01*
G01X8666340D02*
X8674340Y1732570D01*
X8681010Y1741730D01*
X8683680Y1752730D01*
X8681010Y1763730D01*
X8674340Y1772900D01*
X8662340Y1778400D01*
X8650340Y1776570D01*
X8638340Y1769230D01*
G01X8714350Y1681230D02*
X8723690Y1672070D01*
X8734350Y1668400D01*
X8745020Y1672070D01*
X8754350Y1683060D01*
X8761020Y1699570D01*
X8763690Y1716070D01*
Y1736230D01*
X8761020Y1752730D01*
X8754350Y1767400D01*
X8746350Y1774730D01*
X8737020Y1778400D01*
X8726350Y1774730D01*
X8718350Y1767400D01*
X8713020Y1756400D01*
X8710350Y1741730D01*
X8713020Y1728900D01*
X8719690Y1716070D01*
X8727690Y1708730D01*
X8737020Y1706900D01*
X8747690Y1710560D01*
X8755690Y1719730D01*
X8763690Y1736230D01*
G01X9193330Y652000D02*
X9200000Y641000D01*
X9208000Y633670D01*
X9217330Y630000D01*
X9228000Y633670D01*
X9236000Y641000D01*
X9244000Y652000D01*
X9246670Y666670D01*
Y740000D01*
G01X9300010Y630000D02*
Y740000D01*
X9284010Y718000D01*
G01Y630000D02*
X9316010D01*
G01X9380020Y740000D02*
X9369350Y736330D01*
X9361350Y727170D01*
X9356020Y716170D01*
X9352020Y701500D01*
X9350690Y685000D01*
X9352020Y668500D01*
X9356020Y653830D01*
X9361350Y642830D01*
X9369350Y633670D01*
X9380020Y630000D01*
X9390690Y633670D01*
X9398690Y642830D01*
X9404020Y653830D01*
X9408020Y668500D01*
X9409350Y685000D01*
X9408020Y701500D01*
X9404020Y716170D01*
X9398690Y727170D01*
X9390690Y736330D01*
X9380020Y740000D01*
G01X9570670Y652000D02*
X9578670Y639160D01*
X9589330Y631830D01*
X9601330Y630000D01*
X9612000Y631830D01*
X9622670Y641000D01*
X9629330Y652000D01*
X9630670Y663000D01*
X9628000Y675830D01*
X9618670Y685000D01*
X9609330Y688670D01*
X9597330D01*
G01X9609330D02*
X9617330Y694170D01*
X9624000Y703330D01*
X9626670Y714330D01*
X9624000Y725330D01*
X9617330Y734500D01*
X9605330Y740000D01*
X9593330Y738170D01*
X9581330Y730830D01*
G01X9470330Y1668400D02*
Y1778400D01*
X9503670D01*
X9514330Y1772900D01*
X9521000Y1765570D01*
X9523670Y1750900D01*
X9521000Y1736230D01*
X9513000Y1727070D01*
X9503670Y1721570D01*
X9470330D01*
G01X9503670D02*
X9523670Y1668400D01*
G01X9593010D02*
Y1778400D01*
X9543680Y1699570D01*
X9610340D01*
G01X9657020Y1778400D02*
X9646350Y1774730D01*
X9638350Y1765570D01*
X9633020Y1754570D01*
X9629020Y1739900D01*
X9627690Y1723400D01*
X9629020Y1706900D01*
X9633020Y1692230D01*
X9638350Y1681230D01*
X9646350Y1672070D01*
X9657020Y1668400D01*
X9667690Y1672070D01*
X9675690Y1681230D01*
X9681020Y1692230D01*
X9685020Y1706900D01*
X9686350Y1723400D01*
X9685020Y1739900D01*
X9681020Y1754570D01*
X9675690Y1765570D01*
X9667690Y1774730D01*
X9657020Y1778400D01*
G01X10526000Y630000D02*
Y740000D01*
X10476670Y661170D01*
X10543330D01*
G01X10103330Y652000D02*
X10110000Y641000D01*
X10118000Y633670D01*
X10127330Y630000D01*
X10138000Y633670D01*
X10146000Y641000D01*
X10154000Y652000D01*
X10156670Y666670D01*
Y740000D01*
G01X10210010Y630000D02*
Y740000D01*
X10194010Y718000D01*
G01Y630000D02*
X10226010D01*
G01X10290020D02*
Y740000D01*
X10274020Y718000D01*
G01Y630000D02*
X10306020D01*
G01X10380330Y1668400D02*
Y1778400D01*
X10413670D01*
X10424330Y1772900D01*
X10431000Y1765570D01*
X10433670Y1750900D01*
X10431000Y1736230D01*
X10423000Y1727070D01*
X10413670Y1721570D01*
X10380330D01*
G01X10413670D02*
X10433670Y1668400D01*
G01X10503010D02*
Y1778400D01*
X10453680Y1699570D01*
X10520340D01*
G01X10567020Y1668400D02*
Y1778400D01*
X10551020Y1756400D01*
G01Y1668400D02*
X10583020D01*
G01X10993330Y652000D02*
X11000000Y641000D01*
X11008000Y633670D01*
X11017330Y630000D01*
X11028000Y633670D01*
X11036000Y641000D01*
X11044000Y652000D01*
X11046670Y666670D01*
Y740000D01*
G01X11100010Y630000D02*
Y740000D01*
X11084010Y718000D01*
G01Y630000D02*
X11116010D01*
G01X11154690Y721670D02*
X11162690Y732660D01*
X11172020Y738170D01*
X11182690Y740000D01*
X11196020Y736330D01*
X11205350Y727170D01*
X11208020Y716170D01*
X11206690Y705160D01*
X11201350Y696000D01*
X11174690Y677670D01*
X11162690Y664830D01*
X11154690Y646500D01*
X11152020Y630000D01*
X11208020D01*
G01X11370670Y646500D02*
X11378670Y637330D01*
X11388000Y631830D01*
X11400000Y630000D01*
X11412000Y633670D01*
X11421330Y641000D01*
X11428000Y653830D01*
X11429330Y668500D01*
X11426670Y683170D01*
X11420000Y692330D01*
X11410670Y699670D01*
X11401330Y701500D01*
X11392000Y699670D01*
X11380000Y692330D01*
X11384000Y740000D01*
X11420000D01*
G01X11270330Y1668400D02*
Y1778400D01*
X11303670D01*
X11314330Y1772900D01*
X11321000Y1765570D01*
X11323670Y1750900D01*
X11321000Y1736230D01*
X11313000Y1727070D01*
X11303670Y1721570D01*
X11270330D01*
G01X11303670D02*
X11323670Y1668400D01*
G01X11393010D02*
Y1778400D01*
X11343680Y1699570D01*
X11410340D01*
G01X11431690Y1760070D02*
X11439690Y1771060D01*
X11449020Y1776570D01*
X11459690Y1778400D01*
X11473020Y1774730D01*
X11482350Y1765570D01*
X11485020Y1754570D01*
X11483690Y1743560D01*
X11478350Y1734400D01*
X11451690Y1716070D01*
X11439690Y1703230D01*
X11431690Y1684900D01*
X11429020Y1668400D01*
X11485020D01*
G01X11569330Y260000D02*
Y370000D01*
X11630670Y260000D01*
Y370000D01*
G01X11646680Y260000D02*
X11680010Y370000D01*
X11713340Y260000D01*
G01X11701340Y298500D02*
X11658680D01*
G01X11725350Y260000D02*
Y370000D01*
X11760020Y278330D01*
X11794690Y370000D01*
Y260000D01*
G01X11866700D02*
X11813360D01*
Y370000D01*
X11866700D01*
G01X11845360Y316830D02*
X11813360D01*
G01X11920040Y256330D02*
X11917370Y258170D01*
Y261830D01*
X11920040Y263670D01*
X11922710Y261830D01*
Y258170D01*
X11920040Y256330D01*
G01Y305830D02*
X11917370Y307670D01*
Y311330D01*
X11920040Y313170D01*
X11922710Y311330D01*
Y307670D01*
X11920040Y305830D01*
G01X11965380Y260000D02*
Y370000D01*
X12000050Y278330D01*
X12034720Y370000D01*
Y260000D01*
G01X12050730D02*
Y370000D01*
G01X12101390D02*
X12050730Y302160D01*
G01X12109390Y260000D02*
X12073390Y333330D01*
G01X12134740Y305830D02*
X12144070Y318670D01*
X12152070Y326000D01*
X12162740Y329670D01*
X12172070Y326000D01*
X12178740Y318670D01*
X12184070Y307670D01*
X12185400Y294830D01*
X12184070Y283830D01*
X12178740Y272830D01*
X12170740Y263670D01*
X12161400Y260000D01*
X12150740Y263670D01*
X12141400Y274660D01*
X12136070Y291170D01*
X12134740Y309500D01*
X12137400Y333330D01*
X12141400Y346170D01*
X12148070Y359000D01*
X12157400Y368170D01*
X12166740Y370000D01*
X12176070Y366330D01*
X12182740Y357170D01*
G01X12240080Y370000D02*
X12229410Y366330D01*
X12221410Y357170D01*
X12216080Y346170D01*
X12212080Y331500D01*
X12210750Y315000D01*
X12212080Y298500D01*
X12216080Y283830D01*
X12221410Y272830D01*
X12229410Y263670D01*
X12240080Y260000D01*
X12250750Y263670D01*
X12258750Y272830D01*
X12264080Y283830D01*
X12268080Y298500D01*
X12269410Y315000D01*
X12268080Y331500D01*
X12264080Y346170D01*
X12258750Y357170D01*
X12250750Y366330D01*
X12240080Y370000D01*
G01X12280090Y223330D02*
X12360090D01*
G01X12370770Y260000D02*
Y370000D01*
X12397430D01*
X12408100Y364500D01*
X12416100Y357170D01*
X12422770Y346170D01*
X12428100Y333330D01*
X12429430Y315000D01*
X12428100Y296670D01*
X12422770Y283830D01*
X12416100Y272830D01*
X12408100Y265500D01*
X12397430Y260000D01*
X12370770D01*
G01X12453440D02*
Y370000D01*
X12486780D01*
X12497440Y364500D01*
X12504110Y357170D01*
X12506780Y342500D01*
X12504110Y327830D01*
X12496110Y318670D01*
X12486780Y313170D01*
X12453440D01*
G01X12486780D02*
X12506780Y260000D01*
G01X12544120Y370000D02*
X12576120D01*
G01X12560120D02*
Y260000D01*
G01X12544120D02*
X12576120D01*
G01X12606800Y370000D02*
X12640130Y260000D01*
X12673460Y370000D01*
G01X12746810Y260000D02*
X12693470D01*
Y370000D01*
X12746810D01*
G01X12725470Y316830D02*
X12693470D01*
G01X12760150Y223330D02*
X12840150D01*
G01X12846830Y370000D02*
X12880160Y260000D01*
X12913490Y370000D01*
G01X12960170Y260000D02*
Y370000D01*
X12944170Y348000D01*
G01Y260000D02*
X12976170D01*
G01X13040180Y370000D02*
X13029510Y366330D01*
X13021510Y357170D01*
X13016180Y346170D01*
X13012180Y331500D01*
X13010850Y315000D01*
X13012180Y298500D01*
X13016180Y283830D01*
X13021510Y272830D01*
X13029510Y263670D01*
X13040180Y260000D01*
X13050850Y263670D01*
X13058850Y272830D01*
X13064180Y283830D01*
X13068180Y298500D01*
X13069510Y315000D01*
X13068180Y331500D01*
X13064180Y346170D01*
X13058850Y357170D01*
X13050850Y366330D01*
X13040180Y370000D01*
G01X13086860Y260000D02*
X13120190Y370000D01*
X13153520Y260000D01*
G01X13141520Y298500D02*
X13098860D01*
G01X13200200Y256330D02*
X13197530Y258170D01*
Y261830D01*
X13200200Y263670D01*
X13202870Y261830D01*
Y258170D01*
X13200200Y256330D01*
G01X13290880Y318670D02*
X13296210Y324170D01*
X13300210Y333330D01*
X13302880Y346170D01*
X13300210Y357170D01*
X13294880Y364500D01*
X13285540Y370000D01*
X13249540D01*
Y260000D01*
X13293540D01*
X13302880Y267330D01*
X13308210Y278330D01*
X13310880Y291170D01*
X13308210Y304000D01*
X13300210Y315000D01*
X13290880Y318670D01*
X13249540D01*
G01X13333550Y260000D02*
Y370000D01*
X13366890D01*
X13377550Y364500D01*
X13384220Y357170D01*
X13386890Y342500D01*
X13384220Y327830D01*
X13376220Y318670D01*
X13366890Y313170D01*
X13333550D01*
G01X13366890D02*
X13386890Y260000D01*
G01X13410900D02*
Y370000D01*
X13437560D01*
X13448230Y364500D01*
X13456230Y357170D01*
X13462900Y346170D01*
X13468230Y333330D01*
X13469560Y315000D01*
X13468230Y296670D01*
X13462900Y283830D01*
X13456230Y272830D01*
X13448230Y265500D01*
X13437560Y260000D01*
X13410900D01*
G01X11570670Y80000D02*
Y190000D01*
X11597330D01*
X11608000Y184500D01*
X11616000Y177170D01*
X11622670Y166170D01*
X11628000Y153330D01*
X11629330Y135000D01*
X11628000Y116670D01*
X11622670Y103830D01*
X11616000Y92830D01*
X11608000Y85500D01*
X11597330Y80000D01*
X11570670D01*
G01X11646680D02*
X11680010Y190000D01*
X11713340Y80000D01*
G01X11701340Y118500D02*
X11658680D01*
G01X11760020Y190000D02*
Y80000D01*
G01X11729350Y190000D02*
X11790690D01*
G01X11866700Y80000D02*
X11813360D01*
Y190000D01*
X11866700D01*
G01X11845360Y136830D02*
X11813360D01*
G01X11920040Y76330D02*
X11917370Y78170D01*
Y81830D01*
X11920040Y83670D01*
X11922710Y81830D01*
Y78170D01*
X11920040Y76330D01*
G01Y125830D02*
X11917370Y127670D01*
Y131330D01*
X11920040Y133170D01*
X11922710Y131330D01*
Y127670D01*
X11920040Y125830D01*
G01X11974720Y171670D02*
X11982720Y182660D01*
X11992050Y188170D01*
X12002720Y190000D01*
X12016050Y186330D01*
X12025380Y177170D01*
X12028050Y166170D01*
X12026720Y155160D01*
X12021380Y146000D01*
X11994720Y127670D01*
X11982720Y114830D01*
X11974720Y96500D01*
X11972050Y80000D01*
X12028050D01*
G01X12080060Y190000D02*
X12069390Y186330D01*
X12061390Y177170D01*
X12056060Y166170D01*
X12052060Y151500D01*
X12050730Y135000D01*
X12052060Y118500D01*
X12056060Y103830D01*
X12061390Y92830D01*
X12069390Y83670D01*
X12080060Y80000D01*
X12090730Y83670D01*
X12098730Y92830D01*
X12104060Y103830D01*
X12108060Y118500D01*
X12109390Y135000D01*
X12108060Y151500D01*
X12104060Y166170D01*
X12098730Y177170D01*
X12090730Y186330D01*
X12080060Y190000D01*
G01X12160070Y80000D02*
Y190000D01*
X12144070Y168000D01*
G01Y80000D02*
X12176070D01*
G01X12237410D02*
X12240080Y103830D01*
X12244080Y124000D01*
X12249410Y142330D01*
X12256080Y162500D01*
X12266750Y190000D01*
X12213410D01*
G01X12280090Y43330D02*
X12360090D01*
G01X12400100Y190000D02*
X12389430Y186330D01*
X12381430Y177170D01*
X12376100Y166170D01*
X12372100Y151500D01*
X12370770Y135000D01*
X12372100Y118500D01*
X12376100Y103830D01*
X12381430Y92830D01*
X12389430Y83670D01*
X12400100Y80000D01*
X12410770Y83670D01*
X12418770Y92830D01*
X12424100Y103830D01*
X12428100Y118500D01*
X12429430Y135000D01*
X12428100Y151500D01*
X12424100Y166170D01*
X12418770Y177170D01*
X12410770Y186330D01*
X12400100Y190000D01*
G01X12450780Y96500D02*
X12458780Y87330D01*
X12468110Y81830D01*
X12480110Y80000D01*
X12492110Y83670D01*
X12501440Y91000D01*
X12508110Y103830D01*
X12509440Y118500D01*
X12506780Y133170D01*
X12500110Y142330D01*
X12490780Y149670D01*
X12481440Y151500D01*
X12472110Y149670D01*
X12460110Y142330D01*
X12464110Y190000D01*
X12500110D01*
G01X12520120Y43330D02*
X12600120D01*
G01X12640130Y80000D02*
Y190000D01*
X12624130Y168000D01*
G01Y80000D02*
X12656130D01*
G01X12720140D02*
X12729470Y81830D01*
X12740140Y87330D01*
X12746810Y96500D01*
X12749470Y109330D01*
X12746810Y122160D01*
X12738810Y133170D01*
X12726810Y138670D01*
X12713470D01*
X12705470Y142330D01*
X12698810Y151500D01*
X12696140Y164330D01*
X12700140Y177170D01*
X12709470Y186330D01*
X12720140Y190000D01*
X12730810Y186330D01*
X12740140Y177170D01*
X12744140Y164330D01*
X12741470Y151500D01*
X12734810Y142330D01*
X12726810Y138670D01*
X12713470D01*
X12701470Y133170D01*
X12693470Y122160D01*
X12690810Y109330D01*
X12693470Y96500D01*
X12700140Y87330D01*
X12710810Y81830D01*
X12720140Y80000D01*
G01X12290670Y642000D02*
X12298670Y629160D01*
X12309330Y621830D01*
X12321330Y620000D01*
X12332000Y621830D01*
X12342670Y631000D01*
X12349330Y642000D01*
X12350670Y653000D01*
X12348000Y665830D01*
X12338670Y675000D01*
X12329330Y678670D01*
X12317330D01*
G01X12329330D02*
X12337330Y684170D01*
X12344000Y693330D01*
X12346670Y704330D01*
X12344000Y715330D01*
X12337330Y724500D01*
X12325330Y730000D01*
X12313330Y728170D01*
X12301330Y720830D01*
G01X12366680Y730000D02*
X12400010Y620000D01*
X12433340Y730000D01*
G01X12450690Y642000D02*
X12458690Y629160D01*
X12469350Y621830D01*
X12481350Y620000D01*
X12492020Y621830D01*
X12502690Y631000D01*
X12509350Y642000D01*
X12510690Y653000D01*
X12508020Y665830D01*
X12498690Y675000D01*
X12489350Y678670D01*
X12477350D01*
G01X12489350D02*
X12497350Y684170D01*
X12504020Y693330D01*
X12506690Y704330D01*
X12504020Y715330D01*
X12497350Y724500D01*
X12485350Y730000D01*
X12473350Y728170D01*
X12461350Y720830D01*
G01X12580670Y620000D02*
Y730000D01*
X12607330D01*
X12618000Y724500D01*
X12626000Y717170D01*
X12632670Y706170D01*
X12638000Y693330D01*
X12639330Y675000D01*
X12638000Y656670D01*
X12632670Y643830D01*
X12626000Y632830D01*
X12618000Y625500D01*
X12607330Y620000D01*
X12580670D01*
G01X12656680D02*
X12690010Y730000D01*
X12723340Y620000D01*
G01X12711340Y658500D02*
X12668680D01*
G01X12770020Y730000D02*
Y620000D01*
G01X12739350Y730000D02*
X12800690D01*
G01X12178330Y1442000D02*
X12185000Y1431000D01*
X12193000Y1423670D01*
X12202330Y1420000D01*
X12213000Y1423670D01*
X12221000Y1431000D01*
X12229000Y1442000D01*
X12231670Y1456670D01*
Y1530000D01*
G01X12255680Y1442000D02*
X12263680Y1429160D01*
X12274340Y1421830D01*
X12286340Y1420000D01*
X12297010Y1421830D01*
X12307680Y1431000D01*
X12314340Y1442000D01*
X12315680Y1453000D01*
X12313010Y1465830D01*
X12303680Y1475000D01*
X12294340Y1478670D01*
X12282340D01*
G01X12294340D02*
X12302340Y1484170D01*
X12309010Y1493330D01*
X12311680Y1504330D01*
X12309010Y1515330D01*
X12302340Y1524500D01*
X12290340Y1530000D01*
X12278340Y1528170D01*
X12266340Y1520830D01*
G01X12429330Y1760830D02*
X12421330Y1766330D01*
X12412000Y1770000D01*
X12401330D01*
X12389330Y1764500D01*
X12380000Y1755330D01*
X12373330Y1744330D01*
X12368000Y1726000D01*
X12366670Y1709500D01*
X12369330Y1693000D01*
X12373330Y1682000D01*
X12381330Y1671000D01*
X12390670Y1663670D01*
X12400000Y1660000D01*
X12409330D01*
X12418670Y1663670D01*
X12426670Y1669160D01*
X12433330Y1676500D01*
G01X12454680Y1751670D02*
X12462680Y1762660D01*
X12472010Y1768170D01*
X12482680Y1770000D01*
X12496010Y1766330D01*
X12505340Y1757170D01*
X12508010Y1746170D01*
X12506680Y1735160D01*
X12501340Y1726000D01*
X12474680Y1707670D01*
X12462680Y1694830D01*
X12454680Y1676500D01*
X12452010Y1660000D01*
X12508010D01*
G01X12878000Y675000D02*
X12904670D01*
Y642000D01*
X12896670Y631000D01*
X12887330Y623670D01*
X12874000Y620000D01*
X12860670Y623670D01*
X12851330Y631000D01*
X12843330Y642000D01*
X12838000Y654830D01*
X12835330Y669500D01*
Y682330D01*
X12838000Y693330D01*
X12843330Y706170D01*
X12851330Y717170D01*
X12859330Y724500D01*
X12870000Y730000D01*
X12879330D01*
X12890000Y726330D01*
X12898000Y719000D01*
G01X12919340Y620000D02*
Y730000D01*
X12980680Y620000D01*
Y730000D01*
G01X13000690Y620000D02*
Y730000D01*
X13027350D01*
X13038020Y724500D01*
X13046020Y717170D01*
X13052690Y706170D01*
X13058020Y693330D01*
X13059350Y675000D01*
X13058020Y656670D01*
X13052690Y643830D01*
X13046020Y632830D01*
X13038020Y625500D01*
X13027350Y620000D01*
X13000690D01*
G01X12723330Y1660000D02*
Y1770000D01*
X12756670D01*
X12767330Y1764500D01*
X12774000Y1757170D01*
X12776670Y1742500D01*
X12774000Y1727830D01*
X12766000Y1718670D01*
X12756670Y1713170D01*
X12723330D01*
G01X12756670D02*
X12776670Y1660000D01*
G01X12804680Y1705830D02*
X12814010Y1718670D01*
X12822010Y1726000D01*
X12832680Y1729670D01*
X12842010Y1726000D01*
X12848680Y1718670D01*
X12854010Y1707670D01*
X12855340Y1694830D01*
X12854010Y1683830D01*
X12848680Y1672830D01*
X12840680Y1663670D01*
X12831340Y1660000D01*
X12820680Y1663670D01*
X12811340Y1674660D01*
X12806010Y1691170D01*
X12804680Y1709500D01*
X12807340Y1733330D01*
X12811340Y1746170D01*
X12818010Y1759000D01*
X12827340Y1768170D01*
X12836680Y1770000D01*
X12846010Y1766330D01*
X12852680Y1757170D01*
G01X13244670Y1840000D02*
Y1950000D01*
X13295330D01*
G01X13276670Y1896830D02*
X13244670D01*
G01X13360680Y1898670D02*
X13366010Y1904170D01*
X13370010Y1913330D01*
X13372680Y1926170D01*
X13370010Y1937170D01*
X13364680Y1944500D01*
X13355340Y1950000D01*
X13319340D01*
Y1840000D01*
X13363340D01*
X13372680Y1847330D01*
X13378010Y1858330D01*
X13380680Y1871170D01*
X13378010Y1884000D01*
X13370010Y1895000D01*
X13360680Y1898670D01*
X13319340D01*
G01X13430020Y1840000D02*
Y1950000D01*
X13414020Y1928000D01*
G01Y1840000D02*
X13446020D01*
G01X13625330Y14830000D02*
Y14940000D01*
X13660000Y14848330D01*
X13694670Y14940000D01*
Y14830000D01*
G01X13713340D02*
Y14940000D01*
X13745340D01*
X13756010Y14934500D01*
X13764010Y14921670D01*
X13766680Y14907000D01*
X13764010Y14892330D01*
X13757340Y14881330D01*
X13745340Y14875830D01*
X13713340D01*
G01X13820020Y14830000D02*
Y14940000D01*
X13804020Y14918000D01*
G01Y14830000D02*
X13836020D01*
G01X14366010Y1055880D02*
Y1165880D01*
X14400680Y1074210D01*
X14435350Y1165880D01*
Y1055880D01*
G01X14452690D02*
Y1165880D01*
G01X14508690D02*
Y1055880D01*
G01Y1110880D02*
X14452690D01*
G01X14535370Y1147550D02*
X14543370Y1158540D01*
X14552700Y1164050D01*
X14563370Y1165880D01*
X14576700Y1162210D01*
X14586030Y1153050D01*
X14588700Y1142050D01*
X14587370Y1131040D01*
X14582030Y1121880D01*
X14555370Y1103550D01*
X14543370Y1090710D01*
X14535370Y1072380D01*
X14532700Y1055880D01*
X14588700D01*
G01X14366010Y14055880D02*
Y14165880D01*
X14400680Y14074210D01*
X14435350Y14165880D01*
Y14055880D01*
G01X14452690D02*
Y14165880D01*
G01X14508690D02*
Y14055880D01*
G01Y14110880D02*
X14452690D01*
G01X14531370Y14077880D02*
X14539370Y14065040D01*
X14550030Y14057710D01*
X14562030Y14055880D01*
X14572700Y14057710D01*
X14583370Y14066880D01*
X14590030Y14077880D01*
X14591370Y14088880D01*
X14588700Y14101710D01*
X14579370Y14110880D01*
X14570030Y14114550D01*
X14558030D01*
G01X14570030D02*
X14578030Y14120050D01*
X14584700Y14129210D01*
X14587370Y14140210D01*
X14584700Y14151210D01*
X14578030Y14160380D01*
X14566030Y14165880D01*
X14554030Y14164050D01*
X14542030Y14156710D01*
G54D15*
G01X904740Y5107800D02*
X902200D01*
Y1958200D01*
X1257800D01*
Y5107800D01*
X902200D01*
G01X3352200Y794740D02*
Y792200D01*
X5993800D01*
Y1401800D01*
X3352200D01*
Y792200D01*
G54D16*
G01X2180480Y11426500D02*
X2116980Y11490000D01*
X2180480Y11553500D01*
Y11426500D01*
X2162700Y11444280D01*
Y11528100D01*
X2150000Y11515400D01*
Y11464600D01*
X2137300Y11477300D01*
Y11502700D01*
G01X2180480Y11766500D02*
X2116980Y11830000D01*
X2180480Y11893500D01*
Y11766500D01*
X2162700Y11784280D01*
Y11868100D01*
X2150000Y11855400D01*
Y11804600D01*
X2137300Y11817300D01*
Y11842700D01*
G54D17*
G01X4010000Y5730000D02*
X4630000D01*
G01X4010000Y6110000D02*
X4630000D01*
M02*
